%TF.GenerationSoftware,KiCad,Pcbnew,(6.0.9)*%
%TF.CreationDate,2022-11-11T15:07:43-08:00*%
%TF.ProjectId,StemmaG0,5374656d-6d61-4473-902e-6b696361645f,rev?*%
%TF.SameCoordinates,Original*%
%TF.FileFunction,Copper,L2,Bot*%
%TF.FilePolarity,Positive*%
%FSLAX46Y46*%
G04 Gerber Fmt 4.6, Leading zero omitted, Abs format (unit mm)*
G04 Created by KiCad (PCBNEW (6.0.9)) date 2022-11-11 15:07:43*
%MOMM*%
%LPD*%
G01*
G04 APERTURE LIST*
%TA.AperFunction,ComponentPad*%
%ADD10C,1.700000*%
%TD*%
%TA.AperFunction,ComponentPad*%
%ADD11O,1.700000X1.700000*%
%TD*%
%TA.AperFunction,ComponentPad*%
%ADD12C,3.200000*%
%TD*%
%TA.AperFunction,CastellatedPad*%
%ADD13C,1.700000*%
%TD*%
%TA.AperFunction,CastellatedPad*%
%ADD14O,1.700000X1.700000*%
%TD*%
%TA.AperFunction,SMDPad,CuDef*%
%ADD15R,0.740000X2.400000*%
%TD*%
%TA.AperFunction,ViaPad*%
%ADD16C,0.906400*%
%TD*%
%TA.AperFunction,ViaPad*%
%ADD17C,0.889000*%
%TD*%
%TA.AperFunction,ViaPad*%
%ADD18C,0.600000*%
%TD*%
%TA.AperFunction,Conductor*%
%ADD19C,0.304800*%
%TD*%
%TA.AperFunction,Conductor*%
%ADD20C,0.406400*%
%TD*%
%TA.AperFunction,Conductor*%
%ADD21C,0.150000*%
%TD*%
%TA.AperFunction,Conductor*%
%ADD22C,0.127000*%
%TD*%
G04 APERTURE END LIST*
D10*
%TO.P,J1,1,Pin_1*%
%TO.N,/nRST*%
X26670000Y12700000D03*
D11*
%TO.P,J1,2,Pin_2*%
%TO.N,GND*%
X24130000Y12700000D03*
%TO.P,J1,3,Pin_3*%
%TO.N,/P0*%
X21590000Y12700000D03*
%TO.P,J1,4,Pin_4*%
%TO.N,/P1*%
X19050000Y12700000D03*
%TO.P,J1,5,Pin_5*%
%TO.N,/P2*%
X16510000Y12700000D03*
%TO.P,J1,6,Pin_6*%
%TO.N,/P3*%
X13970000Y12700000D03*
%TO.P,J1,7,Pin_7*%
%TO.N,/P4*%
X11430000Y12700000D03*
%TO.P,J1,8,Pin_8*%
%TO.N,/P5*%
X8890000Y12700000D03*
%TO.P,J1,9,Pin_9*%
%TO.N,/P6*%
X6350000Y12700000D03*
%TO.P,J1,10,Pin_10*%
%TO.N,/P7*%
X3810000Y12700000D03*
%TO.P,J1,11,Pin_11*%
%TO.N,3.3V*%
X1270000Y12700000D03*
%TO.P,J1,12,Pin_12*%
%TO.N,/SWDIO*%
X-1270000Y12700000D03*
%TD*%
D12*
%TO.P,U$19,P$1*%
%TO.N,N/C*%
X0Y0D03*
%TD*%
D10*
%TO.P,J2,1,Pin_1*%
%TO.N,VCC*%
X3810000Y0D03*
D11*
%TO.P,J2,2,Pin_2*%
%TO.N,GND*%
X6350000Y0D03*
%TO.P,J2,3,Pin_3*%
%TO.N,/SCL*%
X8890000Y0D03*
%TO.P,J2,4,Pin_4*%
%TO.N,/SDA*%
X11430000Y0D03*
%TO.P,J2,5,Pin_5*%
%TO.N,/B9*%
X13970000Y0D03*
%TO.P,J2,6,Pin_6*%
%TO.N,/A12*%
X16510000Y0D03*
%TO.P,J2,7,Pin_7*%
%TO.N,/A11*%
X19050000Y0D03*
%TO.P,J2,8,Pin_8*%
%TO.N,/A8*%
X21590000Y0D03*
%TD*%
D12*
%TO.P,U$21,P$1*%
%TO.N,N/C*%
X25400000Y0D03*
%TD*%
D13*
%TO.P,J4,1,Pin_1*%
%TO.N,VCC*%
X3810000Y-2540000D03*
%TO.P,J4,2,Pin_2*%
%TO.N,GND*%
X6350000Y-2540000D03*
%TO.P,J4,3,Pin_3*%
%TO.N,/SCL*%
X8890000Y-2540000D03*
%TO.P,J4,4,Pin_4*%
%TO.N,/SDA*%
X11430000Y-2540000D03*
%TO.P,J4,5,Pin_5*%
%TO.N,/B9*%
X13970000Y-2540000D03*
%TO.P,J4,6,Pin_6*%
%TO.N,/A12*%
X16510000Y-2540000D03*
%TO.P,J4,7,Pin_7*%
%TO.N,/A11*%
X19050000Y-2540000D03*
%TO.P,J4,8,Pin_8*%
%TO.N,/A8*%
X21590000Y-2540000D03*
%TD*%
%TO.P,J5,1,Pin_1*%
%TO.N,GND*%
X24130000Y15240000D03*
%TO.P,J5,2,Pin_2*%
%TO.N,/P0*%
X21590000Y15240000D03*
D14*
%TO.P,J5,3,Pin_3*%
%TO.N,/P1*%
X19050000Y15240000D03*
D13*
%TO.P,J5,4,Pin_4*%
%TO.N,/P2*%
X16510000Y15240000D03*
%TO.P,J5,5,Pin_5*%
%TO.N,/P3*%
X13970000Y15240000D03*
%TO.P,J5,6,Pin_6*%
%TO.N,/P4*%
X11430000Y15240000D03*
%TO.P,J5,7,Pin_7*%
%TO.N,/P5*%
X8890000Y15240000D03*
%TO.P,J5,8,Pin_8*%
%TO.N,/P6*%
X6350000Y15240000D03*
%TO.P,J5,9,Pin_9*%
%TO.N,/P7*%
X3810000Y15240000D03*
%TO.P,J5,10,Pin_10*%
%TO.N,3.3V*%
X1270000Y15240000D03*
%TD*%
D15*
%TO.P,J3,1,VTref*%
%TO.N,3.3V*%
X17483259Y8426583D03*
%TO.P,J3,2,SWDIO/TMS*%
%TO.N,/SWDIO*%
X17483259Y4526583D03*
%TO.P,J3,3,GND*%
%TO.N,GND*%
X18753259Y8426583D03*
%TO.P,J3,4,SWDCLK/TCK*%
%TO.N,/SWCLK*%
X18753259Y4526583D03*
%TO.P,J3,5,GND*%
%TO.N,GND*%
X20023259Y8426583D03*
%TO.P,J3,6,SWO/TDO*%
%TO.N,unconnected-(J3-Pad6)*%
X20023259Y4526583D03*
%TO.P,J3,7,KEY*%
%TO.N,unconnected-(J3-Pad7)*%
X21293259Y8426583D03*
%TO.P,J3,8,NC/TDI*%
%TO.N,unconnected-(J3-Pad8)*%
X21293259Y4526583D03*
%TO.P,J3,9,GNDDetect*%
%TO.N,GND*%
X22563259Y8426583D03*
%TO.P,J3,10,~{RESET}*%
%TO.N,/nRST*%
X22563259Y4526583D03*
%TD*%
D16*
%TO.N,GND*%
X-1945217Y6479287D03*
D17*
%TO.N,3.3V*%
X6045924Y4938943D03*
X13323855Y6416009D03*
X4052981Y8901807D03*
D16*
%TO.N,VCC*%
X3613923Y3555812D03*
X16766783Y2727100D03*
D18*
%TO.N,/SCL*%
X4283334Y4644968D03*
X24672506Y7841615D03*
X8407277Y4244051D03*
%TO.N,/SDA*%
X11293797Y5323159D03*
X25617101Y6862671D03*
X1280971Y5836238D03*
%TO.N,/SDA_3V*%
X11271712Y7465562D03*
X4705654Y6195739D03*
%TO.N,/SWCLK*%
X11519413Y4457570D03*
%TO.N,/SWDIO*%
X11298232Y3593662D03*
%TO.N,/nRST*%
X13985938Y7098444D03*
X13771135Y10029271D03*
%TO.N,/B9*%
X13953606Y5198940D03*
X12958186Y3414864D03*
%TD*%
D19*
%TO.N,3.3V*%
X5461958Y4938943D02*
X4841968Y5558933D01*
X7512482Y6416009D02*
X7130552Y6034079D01*
X13966967Y8426583D02*
X13204582Y7664198D01*
X17483259Y8426583D02*
X13966967Y8426583D01*
X4052981Y8901807D02*
X4052981Y9917019D01*
X4841968Y5558933D02*
X4448818Y5558933D01*
X13323855Y6416009D02*
X7512482Y6416009D01*
X7130552Y6023571D02*
X6045924Y4938943D01*
X4448818Y5558933D02*
X4052981Y5954770D01*
X4052981Y5954770D02*
X4052981Y8901807D01*
X6045924Y4938943D02*
X5461958Y4938943D01*
X13204582Y7664198D02*
X13204582Y6535282D01*
X13204582Y6535282D02*
X13323855Y6416009D01*
X7130552Y6034079D02*
X7130552Y6023571D01*
X4052981Y9917019D02*
X1270000Y12700000D01*
D20*
%TO.N,VCC*%
X16266284Y2226601D02*
X6036601Y2226601D01*
X6036601Y2226601D02*
X3810000Y0D01*
X6036601Y2226601D02*
X4943134Y2226601D01*
X16766783Y2727100D02*
X16266284Y2226601D01*
X4943134Y2226601D02*
X3613923Y3555812D01*
X3810000Y0D02*
X3810000Y-2540000D01*
D21*
%TO.N,/SCL*%
X8407277Y4137355D02*
X8407277Y4244051D01*
X9740000Y850000D02*
X10484794Y850000D01*
X11121860Y1487066D02*
X22731793Y1487066D01*
X24878600Y3633873D02*
X24878600Y7635521D01*
X8890000Y0D02*
X9740000Y850000D01*
X8155088Y3885166D02*
X8407277Y4137355D01*
X4283334Y4644968D02*
X4299499Y4644968D01*
X24878600Y7635521D02*
X24672506Y7841615D01*
X10484794Y850000D02*
X11121860Y1487066D01*
X22731793Y1487066D02*
X24878600Y3633873D01*
X4299499Y4644968D02*
X5018886Y3925581D01*
X5059301Y3885166D02*
X8155088Y3885166D01*
X5018886Y3925581D02*
X5059301Y3885166D01*
%TO.N,/SDA*%
X8702203Y5323159D02*
X11293797Y5323159D01*
X5589942Y4260342D02*
X7639386Y4260342D01*
X22846324Y1210565D02*
X25155101Y3519343D01*
X4053652Y5199468D02*
X4650816Y5199468D01*
X25823195Y6656577D02*
X25617101Y6862671D01*
X4650816Y5199468D02*
X5589942Y4260342D01*
X25155101Y3876026D02*
X25823195Y4544120D01*
X1925824Y5191385D02*
X4045569Y5191385D01*
X25823195Y4544120D02*
X25823195Y6656577D01*
X7639386Y4260342D02*
X8702203Y5323159D01*
X12640565Y1210565D02*
X22846324Y1210565D01*
X25155101Y3519343D02*
X25155101Y3876026D01*
X11430000Y0D02*
X12640565Y1210565D01*
X1280971Y5836238D02*
X1925824Y5191385D01*
X4045569Y5191385D02*
X4053652Y5199468D01*
%TO.N,/SDA_3V*%
X5150219Y5751174D02*
X6201008Y5751174D01*
X11271712Y7273443D02*
X11271712Y7465562D01*
X6201008Y5751174D02*
X7373042Y6923208D01*
X10921477Y6923208D02*
X11271712Y7273443D01*
X4705654Y6195739D02*
X5150219Y5751174D01*
X7373042Y6923208D02*
X10921477Y6923208D01*
D22*
%TO.N,/SWCLK*%
X18753259Y5356583D02*
X18015345Y6094497D01*
D21*
X11656824Y4320159D02*
X12218028Y4320159D01*
D22*
X13992366Y6094497D02*
X12218028Y4320159D01*
X18015345Y6094497D02*
X13992366Y6094497D01*
X18753259Y4526583D02*
X18753259Y5356583D01*
D21*
X11519413Y4457570D02*
X11656824Y4320159D01*
D22*
%TO.N,/SWDIO*%
X12020030Y2871864D02*
X15828540Y2871864D01*
D21*
X3854211Y4241411D02*
X4501960Y3593662D01*
D22*
X15828540Y2871864D02*
X17483259Y4526583D01*
D21*
X8011595Y3593662D02*
X8177595Y3427662D01*
X-1270000Y7594135D02*
X2082724Y4241411D01*
X2082724Y4241411D02*
X3854211Y4241411D01*
X8177595Y3427662D02*
X8636959Y3427662D01*
X8802959Y3593662D02*
X11298232Y3593662D01*
X-1270000Y12700000D02*
X-1270000Y7594135D01*
X8636959Y3427662D02*
X8802959Y3593662D01*
X4501960Y3593662D02*
X8011595Y3593662D01*
D22*
X11298232Y3593662D02*
X12020030Y2871864D01*
D21*
%TO.N,/nRST*%
X24781446Y10811446D02*
X14553310Y10811446D01*
D22*
X20883759Y7036083D02*
X14048299Y7036083D01*
X22563259Y5356583D02*
X20883759Y7036083D01*
D21*
X14553310Y10811446D02*
X13771135Y10029271D01*
D22*
X22563259Y4526583D02*
X22563259Y5356583D01*
D21*
X26670000Y12700000D02*
X24781446Y10811446D01*
D22*
X14048299Y7036083D02*
X13985938Y7098444D01*
D21*
%TO.N,/B9*%
X12958186Y3414864D02*
X13953606Y4410284D01*
X13953606Y4410284D02*
X13953606Y5198940D01*
%TD*%
%TA.AperFunction,Conductor*%
%TO.N,GND*%
G36*
X277881Y15196194D02*
G01*
X295968Y15157230D01*
X297295Y15141433D01*
X303907Y15062689D01*
X356746Y14878417D01*
X444370Y14707918D01*
X563443Y14557686D01*
X565773Y14555703D01*
X698226Y14442977D01*
X709428Y14433443D01*
X712092Y14431954D01*
X712095Y14431952D01*
X827558Y14367422D01*
X876765Y14339921D01*
X879669Y14338977D01*
X879670Y14338977D01*
X1056168Y14281629D01*
X1056173Y14281628D01*
X1059081Y14280683D01*
X1249430Y14257985D01*
X1252472Y14258219D01*
X1252475Y14258219D01*
X1437514Y14272457D01*
X1437519Y14272458D01*
X1440562Y14272692D01*
X1469182Y14280683D01*
X1622260Y14323423D01*
X1622264Y14323424D01*
X1625199Y14324244D01*
X1796305Y14410676D01*
X1798703Y14412549D01*
X1798707Y14412552D01*
X1877523Y14474131D01*
X1947365Y14528697D01*
X1949362Y14531010D01*
X2070630Y14671500D01*
X2070634Y14671505D01*
X2072624Y14673811D01*
X2092000Y14707918D01*
X2165801Y14837830D01*
X2165803Y14837835D01*
X2167312Y14840491D01*
X2227821Y15022388D01*
X2245184Y15159833D01*
X2268884Y15201385D01*
X2307191Y15214500D01*
X2773687Y15214500D01*
X2817881Y15196194D01*
X2835968Y15157230D01*
X2837295Y15141433D01*
X2843907Y15062689D01*
X2896746Y14878417D01*
X2984370Y14707918D01*
X3103443Y14557686D01*
X3105773Y14555703D01*
X3238226Y14442977D01*
X3249428Y14433443D01*
X3252092Y14431954D01*
X3252095Y14431952D01*
X3367558Y14367422D01*
X3416765Y14339921D01*
X3419669Y14338977D01*
X3419670Y14338977D01*
X3596168Y14281629D01*
X3596173Y14281628D01*
X3599081Y14280683D01*
X3789430Y14257985D01*
X3792472Y14258219D01*
X3792475Y14258219D01*
X3977514Y14272457D01*
X3977519Y14272458D01*
X3980562Y14272692D01*
X4009182Y14280683D01*
X4162260Y14323423D01*
X4162264Y14323424D01*
X4165199Y14324244D01*
X4336305Y14410676D01*
X4338703Y14412549D01*
X4338707Y14412552D01*
X4417523Y14474131D01*
X4487365Y14528697D01*
X4489362Y14531010D01*
X4610630Y14671500D01*
X4610634Y14671505D01*
X4612624Y14673811D01*
X4632000Y14707918D01*
X4705801Y14837830D01*
X4705803Y14837835D01*
X4707312Y14840491D01*
X4767821Y15022388D01*
X4785184Y15159833D01*
X4808884Y15201385D01*
X4847191Y15214500D01*
X5313687Y15214500D01*
X5357881Y15196194D01*
X5375968Y15157230D01*
X5377295Y15141433D01*
X5383907Y15062689D01*
X5436746Y14878417D01*
X5524370Y14707918D01*
X5643443Y14557686D01*
X5645773Y14555703D01*
X5778226Y14442977D01*
X5789428Y14433443D01*
X5792092Y14431954D01*
X5792095Y14431952D01*
X5907558Y14367422D01*
X5956765Y14339921D01*
X5959669Y14338977D01*
X5959670Y14338977D01*
X6136168Y14281629D01*
X6136173Y14281628D01*
X6139081Y14280683D01*
X6329430Y14257985D01*
X6332472Y14258219D01*
X6332475Y14258219D01*
X6517514Y14272457D01*
X6517519Y14272458D01*
X6520562Y14272692D01*
X6549182Y14280683D01*
X6702260Y14323423D01*
X6702264Y14323424D01*
X6705199Y14324244D01*
X6876305Y14410676D01*
X6878703Y14412549D01*
X6878707Y14412552D01*
X6957523Y14474131D01*
X7027365Y14528697D01*
X7029362Y14531010D01*
X7150630Y14671500D01*
X7150634Y14671505D01*
X7152624Y14673811D01*
X7172000Y14707918D01*
X7245801Y14837830D01*
X7245803Y14837835D01*
X7247312Y14840491D01*
X7307821Y15022388D01*
X7325184Y15159833D01*
X7348884Y15201385D01*
X7387191Y15214500D01*
X7853687Y15214500D01*
X7897881Y15196194D01*
X7915968Y15157230D01*
X7917295Y15141433D01*
X7923907Y15062689D01*
X7976746Y14878417D01*
X8064370Y14707918D01*
X8183443Y14557686D01*
X8185773Y14555703D01*
X8318226Y14442977D01*
X8329428Y14433443D01*
X8332092Y14431954D01*
X8332095Y14431952D01*
X8447558Y14367422D01*
X8496765Y14339921D01*
X8499669Y14338977D01*
X8499670Y14338977D01*
X8676168Y14281629D01*
X8676173Y14281628D01*
X8679081Y14280683D01*
X8869430Y14257985D01*
X8872472Y14258219D01*
X8872475Y14258219D01*
X9057514Y14272457D01*
X9057519Y14272458D01*
X9060562Y14272692D01*
X9089182Y14280683D01*
X9242260Y14323423D01*
X9242264Y14323424D01*
X9245199Y14324244D01*
X9416305Y14410676D01*
X9418703Y14412549D01*
X9418707Y14412552D01*
X9497523Y14474131D01*
X9567365Y14528697D01*
X9569362Y14531010D01*
X9690630Y14671500D01*
X9690634Y14671505D01*
X9692624Y14673811D01*
X9712000Y14707918D01*
X9785801Y14837830D01*
X9785803Y14837835D01*
X9787312Y14840491D01*
X9847821Y15022388D01*
X9865184Y15159833D01*
X9888884Y15201385D01*
X9927191Y15214500D01*
X10393687Y15214500D01*
X10437881Y15196194D01*
X10455968Y15157230D01*
X10457295Y15141433D01*
X10463907Y15062689D01*
X10516746Y14878417D01*
X10604370Y14707918D01*
X10723443Y14557686D01*
X10725773Y14555703D01*
X10858226Y14442977D01*
X10869428Y14433443D01*
X10872092Y14431954D01*
X10872095Y14431952D01*
X10987558Y14367422D01*
X11036765Y14339921D01*
X11039669Y14338977D01*
X11039670Y14338977D01*
X11216168Y14281629D01*
X11216173Y14281628D01*
X11219081Y14280683D01*
X11409430Y14257985D01*
X11412472Y14258219D01*
X11412475Y14258219D01*
X11597514Y14272457D01*
X11597519Y14272458D01*
X11600562Y14272692D01*
X11629182Y14280683D01*
X11782260Y14323423D01*
X11782264Y14323424D01*
X11785199Y14324244D01*
X11956305Y14410676D01*
X11958703Y14412549D01*
X11958707Y14412552D01*
X12037523Y14474131D01*
X12107365Y14528697D01*
X12109362Y14531010D01*
X12230630Y14671500D01*
X12230634Y14671505D01*
X12232624Y14673811D01*
X12252000Y14707918D01*
X12325801Y14837830D01*
X12325803Y14837835D01*
X12327312Y14840491D01*
X12387821Y15022388D01*
X12405184Y15159833D01*
X12428884Y15201385D01*
X12467191Y15214500D01*
X12933687Y15214500D01*
X12977881Y15196194D01*
X12995968Y15157230D01*
X12997295Y15141433D01*
X13003907Y15062689D01*
X13056746Y14878417D01*
X13144370Y14707918D01*
X13263443Y14557686D01*
X13265773Y14555703D01*
X13398226Y14442977D01*
X13409428Y14433443D01*
X13412092Y14431954D01*
X13412095Y14431952D01*
X13527558Y14367422D01*
X13576765Y14339921D01*
X13579669Y14338977D01*
X13579670Y14338977D01*
X13756168Y14281629D01*
X13756173Y14281628D01*
X13759081Y14280683D01*
X13949430Y14257985D01*
X13952472Y14258219D01*
X13952475Y14258219D01*
X14137514Y14272457D01*
X14137519Y14272458D01*
X14140562Y14272692D01*
X14169182Y14280683D01*
X14322260Y14323423D01*
X14322264Y14323424D01*
X14325199Y14324244D01*
X14496305Y14410676D01*
X14498703Y14412549D01*
X14498707Y14412552D01*
X14577523Y14474131D01*
X14647365Y14528697D01*
X14649362Y14531010D01*
X14770630Y14671500D01*
X14770634Y14671505D01*
X14772624Y14673811D01*
X14792000Y14707918D01*
X14865801Y14837830D01*
X14865803Y14837835D01*
X14867312Y14840491D01*
X14927821Y15022388D01*
X14945184Y15159833D01*
X14968884Y15201385D01*
X15007191Y15214500D01*
X15473687Y15214500D01*
X15517881Y15196194D01*
X15535968Y15157230D01*
X15537295Y15141433D01*
X15543907Y15062689D01*
X15596746Y14878417D01*
X15684370Y14707918D01*
X15803443Y14557686D01*
X15805773Y14555703D01*
X15938226Y14442977D01*
X15949428Y14433443D01*
X15952092Y14431954D01*
X15952095Y14431952D01*
X16067558Y14367422D01*
X16116765Y14339921D01*
X16119669Y14338977D01*
X16119670Y14338977D01*
X16296168Y14281629D01*
X16296173Y14281628D01*
X16299081Y14280683D01*
X16489430Y14257985D01*
X16492472Y14258219D01*
X16492475Y14258219D01*
X16677514Y14272457D01*
X16677519Y14272458D01*
X16680562Y14272692D01*
X16709182Y14280683D01*
X16862260Y14323423D01*
X16862264Y14323424D01*
X16865199Y14324244D01*
X17036305Y14410676D01*
X17038703Y14412549D01*
X17038707Y14412552D01*
X17117523Y14474131D01*
X17187365Y14528697D01*
X17189362Y14531010D01*
X17310630Y14671500D01*
X17310634Y14671505D01*
X17312624Y14673811D01*
X17332000Y14707918D01*
X17405801Y14837830D01*
X17405803Y14837835D01*
X17407312Y14840491D01*
X17467821Y15022388D01*
X17485184Y15159833D01*
X17508884Y15201385D01*
X17547191Y15214500D01*
X18013687Y15214500D01*
X18057881Y15196194D01*
X18075968Y15157230D01*
X18077295Y15141433D01*
X18083907Y15062689D01*
X18136746Y14878417D01*
X18224370Y14707918D01*
X18343443Y14557686D01*
X18345773Y14555703D01*
X18478226Y14442977D01*
X18489428Y14433443D01*
X18492092Y14431954D01*
X18492095Y14431952D01*
X18607558Y14367422D01*
X18656765Y14339921D01*
X18659669Y14338977D01*
X18659670Y14338977D01*
X18836168Y14281629D01*
X18836173Y14281628D01*
X18839081Y14280683D01*
X19029430Y14257985D01*
X19032472Y14258219D01*
X19032475Y14258219D01*
X19217514Y14272457D01*
X19217519Y14272458D01*
X19220562Y14272692D01*
X19249182Y14280683D01*
X19402260Y14323423D01*
X19402264Y14323424D01*
X19405199Y14324244D01*
X19576305Y14410676D01*
X19578703Y14412549D01*
X19578707Y14412552D01*
X19657523Y14474131D01*
X19727365Y14528697D01*
X19729362Y14531010D01*
X19850630Y14671500D01*
X19850634Y14671505D01*
X19852624Y14673811D01*
X19872000Y14707918D01*
X19945801Y14837830D01*
X19945803Y14837835D01*
X19947312Y14840491D01*
X20007821Y15022388D01*
X20025184Y15159833D01*
X20048884Y15201385D01*
X20087191Y15214500D01*
X20553687Y15214500D01*
X20597881Y15196194D01*
X20615968Y15157230D01*
X20617295Y15141433D01*
X20623907Y15062689D01*
X20676746Y14878417D01*
X20764370Y14707918D01*
X20883443Y14557686D01*
X20885773Y14555703D01*
X21018226Y14442977D01*
X21029428Y14433443D01*
X21032092Y14431954D01*
X21032095Y14431952D01*
X21147558Y14367422D01*
X21196765Y14339921D01*
X21199669Y14338977D01*
X21199670Y14338977D01*
X21376168Y14281629D01*
X21376173Y14281628D01*
X21379081Y14280683D01*
X21569430Y14257985D01*
X21572472Y14258219D01*
X21572475Y14258219D01*
X21757514Y14272457D01*
X21757519Y14272458D01*
X21760562Y14272692D01*
X21789182Y14280683D01*
X21942260Y14323423D01*
X21942264Y14323424D01*
X21945199Y14324244D01*
X22116305Y14410676D01*
X22118703Y14412549D01*
X22118707Y14412552D01*
X22197523Y14474131D01*
X22267365Y14528697D01*
X22269362Y14531010D01*
X22390630Y14671500D01*
X22390634Y14671505D01*
X22392624Y14673811D01*
X22412000Y14707918D01*
X22485801Y14837830D01*
X22485803Y14837835D01*
X22487312Y14840491D01*
X22547821Y15022388D01*
X22565184Y15159833D01*
X22588884Y15201385D01*
X22627191Y15214500D01*
X22916576Y15214500D01*
X22960770Y15196194D01*
X22978942Y15156088D01*
X22985137Y15061566D01*
X22986032Y15055918D01*
X23036826Y14855911D01*
X23038729Y14850538D01*
X23125126Y14663129D01*
X23127977Y14658190D01*
X23205795Y14548081D01*
X23213840Y14543005D01*
X23219273Y14544234D01*
X23871234Y15196194D01*
X23915428Y15214500D01*
X24168572Y15214500D01*
X24212766Y15196194D01*
X24231072Y15152000D01*
X24212766Y15107806D01*
X23435603Y14330642D01*
X23431962Y14321852D01*
X23433933Y14317095D01*
X23574617Y14223093D01*
X23579633Y14220369D01*
X23769240Y14138908D01*
X23774657Y14137148D01*
X23975937Y14091602D01*
X23981585Y14090859D01*
X24187794Y14082756D01*
X24193488Y14083055D01*
X24397714Y14112667D01*
X24403259Y14113998D01*
X24410909Y14116595D01*
X24458642Y14113467D01*
X24490183Y14077503D01*
X24493500Y14057412D01*
X24493500Y13894942D01*
X24494180Y13891741D01*
X24494523Y13888482D01*
X24492969Y13888319D01*
X24485155Y13846159D01*
X24445733Y13819064D01*
X24420545Y13818899D01*
X24294193Y13844032D01*
X24284861Y13842176D01*
X24282000Y13837893D01*
X24282000Y12864431D01*
X24285641Y12855641D01*
X24294431Y12852000D01*
X25262546Y12852000D01*
X25271336Y12855641D01*
X25274042Y12862174D01*
X25269799Y12908346D01*
X25268758Y12913964D01*
X25241895Y13009211D01*
X25247517Y13056715D01*
X25285083Y13086329D01*
X25308580Y13088334D01*
X25332505Y13085820D01*
X25352494Y13083719D01*
X25447506Y13083719D01*
X25449129Y13083890D01*
X25449137Y13083890D01*
X25540107Y13093452D01*
X25589510Y13098644D01*
X25676097Y13126778D01*
X25723784Y13123025D01*
X25754851Y13086651D01*
X25754984Y13048439D01*
X25721755Y12943689D01*
X25709234Y12904217D01*
X25687866Y12713714D01*
X25691321Y12672575D01*
X25702913Y12534530D01*
X25703907Y12522689D01*
X25756746Y12338417D01*
X25825972Y12203716D01*
X25829891Y12156044D01*
X25814577Y12130956D01*
X24715874Y11032252D01*
X24671680Y11013946D01*
X14598505Y11013946D01*
X14590526Y11015306D01*
X14590456Y11014690D01*
X14583461Y11015487D01*
X14576823Y11017818D01*
X14569831Y11017040D01*
X14545470Y11014329D01*
X14538558Y11013946D01*
X14530479Y11013946D01*
X14522928Y11012224D01*
X14515970Y11011047D01*
X14485002Y11007600D01*
X14479039Y11003867D01*
X14474463Y11002273D01*
X14470097Y11000172D01*
X14463236Y10998607D01*
X14457732Y10994221D01*
X14438879Y10979198D01*
X14433095Y10975103D01*
X14429388Y10972782D01*
X14429386Y10972780D01*
X14426392Y10970906D01*
X14420721Y10965235D01*
X14415477Y10960550D01*
X14390982Y10941031D01*
X14387923Y10934689D01*
X14383534Y10929191D01*
X14383089Y10929546D01*
X14378329Y10922843D01*
X13963155Y10507669D01*
X13918961Y10489363D01*
X13901056Y10491983D01*
X13842888Y10509380D01*
X13775024Y10509795D01*
X13709706Y10510194D01*
X13709705Y10510194D01*
X13705253Y10510221D01*
X13572915Y10472398D01*
X13456511Y10398953D01*
X13453568Y10395621D01*
X13453566Y10395619D01*
X13368347Y10299126D01*
X13365400Y10295789D01*
X13306905Y10171200D01*
X13306220Y10166801D01*
X13306020Y10165518D01*
X13285730Y10035202D01*
X13286307Y10030789D01*
X13286307Y10030787D01*
X13288056Y10017411D01*
X13303576Y9898726D01*
X13305369Y9894651D01*
X13339340Y9817447D01*
X13359009Y9772745D01*
X13447573Y9667386D01*
X13451278Y9664920D01*
X13451280Y9664918D01*
X13541330Y9604976D01*
X13562147Y9591119D01*
X13589473Y9582582D01*
X13689270Y9551403D01*
X13689273Y9551403D01*
X13693522Y9550075D01*
X13697974Y9549993D01*
X13697976Y9549993D01*
X13765986Y9548746D01*
X13831136Y9547552D01*
X13835435Y9548724D01*
X13959626Y9582582D01*
X13959629Y9582583D01*
X13963927Y9583755D01*
X13967723Y9586086D01*
X13967726Y9586087D01*
X14077421Y9653441D01*
X14081219Y9655773D01*
X14173584Y9757816D01*
X14233596Y9881681D01*
X14241211Y9926941D01*
X14256031Y10015035D01*
X14256431Y10017411D01*
X14256576Y10029271D01*
X14237064Y10165518D01*
X14237435Y10165571D01*
X14242319Y10210525D01*
X14252946Y10224704D01*
X14618883Y10590640D01*
X14663077Y10608946D01*
X24736248Y10608946D01*
X24744228Y10607586D01*
X24744298Y10608201D01*
X24751295Y10607404D01*
X24757933Y10605073D01*
X24789300Y10608564D01*
X24796196Y10608946D01*
X24804277Y10608946D01*
X24811821Y10610667D01*
X24818790Y10611846D01*
X24849754Y10615292D01*
X24855721Y10619028D01*
X24860298Y10620622D01*
X24864657Y10622720D01*
X24871520Y10624285D01*
X24895877Y10643694D01*
X24901661Y10647789D01*
X24905368Y10650110D01*
X24905370Y10650112D01*
X24908364Y10651986D01*
X24914035Y10657657D01*
X24919279Y10662342D01*
X24943774Y10681861D01*
X24946833Y10688203D01*
X24951222Y10693701D01*
X24951667Y10693346D01*
X24956427Y10700049D01*
X26101915Y11845537D01*
X26146109Y11863843D01*
X26176600Y11855901D01*
X26276765Y11799921D01*
X26279669Y11798977D01*
X26279670Y11798977D01*
X26456168Y11741629D01*
X26456173Y11741628D01*
X26459081Y11740683D01*
X26649430Y11717985D01*
X26652472Y11718219D01*
X26652475Y11718219D01*
X26837514Y11732457D01*
X26837519Y11732458D01*
X26840562Y11732692D01*
X26860873Y11738363D01*
X27022260Y11783423D01*
X27022264Y11783424D01*
X27025199Y11784244D01*
X27196305Y11870676D01*
X27198703Y11872549D01*
X27198707Y11872552D01*
X27297406Y11949665D01*
X27347365Y11988697D01*
X27392827Y12041365D01*
X27470630Y12131500D01*
X27470634Y12131505D01*
X27472624Y12133811D01*
X27474132Y12136465D01*
X27565801Y12297830D01*
X27565803Y12297835D01*
X27567312Y12300491D01*
X27627821Y12482388D01*
X27632542Y12519753D01*
X27651627Y12670833D01*
X27651627Y12670834D01*
X27651847Y12672575D01*
X27652159Y12694928D01*
X27652206Y12698262D01*
X27652206Y12698267D01*
X27652230Y12700000D01*
X27651827Y12704117D01*
X27633822Y12887743D01*
X27633524Y12890783D01*
X27578117Y13074299D01*
X27488120Y13243558D01*
X27366962Y13392113D01*
X27219256Y13514306D01*
X27050629Y13605482D01*
X26914451Y13647636D01*
X26870420Y13661266D01*
X26870417Y13661267D01*
X26867505Y13662168D01*
X26864472Y13662487D01*
X26864471Y13662487D01*
X26816787Y13667499D01*
X26676857Y13682206D01*
X26673824Y13681930D01*
X26673820Y13681930D01*
X26591118Y13674403D01*
X26485948Y13664832D01*
X26483019Y13663970D01*
X26341204Y13622232D01*
X26293640Y13627315D01*
X26263601Y13664543D01*
X26266095Y13701937D01*
X26264536Y13702443D01*
X26265548Y13705558D01*
X26266881Y13708552D01*
X26275062Y13747038D01*
X26305818Y13891732D01*
X26305818Y13891735D01*
X26306500Y13894942D01*
X26306500Y14085496D01*
X26300555Y14113467D01*
X26267563Y14268678D01*
X26267563Y14268679D01*
X26266881Y14271886D01*
X26189376Y14445965D01*
X26077371Y14600127D01*
X25935762Y14727632D01*
X25770738Y14822909D01*
X25608256Y14875703D01*
X25592625Y14880782D01*
X25592624Y14880782D01*
X25589510Y14881794D01*
X25540107Y14886986D01*
X25449137Y14896548D01*
X25449129Y14896548D01*
X25447506Y14896719D01*
X25352494Y14896719D01*
X25350871Y14896548D01*
X25350863Y14896548D01*
X25331886Y14894553D01*
X25324209Y14893746D01*
X25278344Y14907332D01*
X25255518Y14949371D01*
X25256903Y14970493D01*
X25257333Y14972282D01*
X25278814Y15120433D01*
X25303272Y15161543D01*
X25350604Y15173169D01*
X25524536Y15145159D01*
X25531035Y15143754D01*
X25842281Y15058918D01*
X25848594Y15056831D01*
X25955440Y15015077D01*
X26149083Y14939403D01*
X26155114Y14936668D01*
X26441435Y14787978D01*
X26447158Y14784608D01*
X26716046Y14606353D01*
X26721385Y14602389D01*
X26969812Y14396579D01*
X26974699Y14392071D01*
X27062398Y14302083D01*
X27142033Y14220369D01*
X27199856Y14161036D01*
X27204234Y14156038D01*
X27380561Y13931670D01*
X27403580Y13902380D01*
X27407401Y13896945D01*
X27554278Y13662487D01*
X27578664Y13623559D01*
X27581887Y13617749D01*
X27692928Y13389744D01*
X27723144Y13327701D01*
X27725732Y13321580D01*
X27835373Y13018177D01*
X27837296Y13011816D01*
X27910352Y12713714D01*
X27912704Y12704117D01*
X27913476Y12697720D01*
X27912881Y12694866D01*
X27914033Y12693107D01*
X27914500Y12689240D01*
X27914500Y5072D01*
X27912399Y0D01*
X27914232Y-4426D01*
X27913987Y-8471D01*
X27913987Y-8472D01*
X27896394Y-299318D01*
X27895484Y-306810D01*
X27887072Y-352711D01*
X27846928Y-571777D01*
X27842115Y-598039D01*
X27840310Y-605362D01*
X27759875Y-863490D01*
X27752224Y-888042D01*
X27749551Y-895092D01*
X27643071Y-1131680D01*
X27628029Y-1165102D01*
X27624521Y-1171785D01*
X27471349Y-1425163D01*
X27467062Y-1431374D01*
X27284460Y-1664448D01*
X27279455Y-1670097D01*
X27070097Y-1879455D01*
X27064448Y-1884460D01*
X26831374Y-2067062D01*
X26825163Y-2071349D01*
X26571785Y-2224521D01*
X26565102Y-2228029D01*
X26295092Y-2349551D01*
X26288049Y-2352221D01*
X26005362Y-2440310D01*
X25998044Y-2442114D01*
X25784669Y-2481216D01*
X25706810Y-2495484D01*
X25699318Y-2496394D01*
X25581304Y-2503533D01*
X25404426Y-2514232D01*
X25400000Y-2512399D01*
X25394928Y-2514500D01*
X22626402Y-2514500D01*
X22582208Y-2496194D01*
X22564200Y-2458099D01*
X22553822Y-2352258D01*
X22553524Y-2349217D01*
X22498117Y-2165701D01*
X22446909Y-2069393D01*
X22409555Y-1999140D01*
X22409553Y-1999137D01*
X22408120Y-1996442D01*
X22286962Y-1847887D01*
X22139256Y-1725694D01*
X21970629Y-1634518D01*
X21862117Y-1600928D01*
X21790420Y-1578734D01*
X21790417Y-1578733D01*
X21787505Y-1577832D01*
X21784472Y-1577513D01*
X21784471Y-1577513D01*
X21736787Y-1572501D01*
X21596857Y-1557794D01*
X21593824Y-1558070D01*
X21593820Y-1558070D01*
X21511118Y-1565597D01*
X21405948Y-1575168D01*
X21222050Y-1629292D01*
X21052167Y-1718105D01*
X20902770Y-1838223D01*
X20779549Y-1985072D01*
X20734475Y-2067062D01*
X20694642Y-2139518D01*
X20687198Y-2153058D01*
X20629234Y-2335783D01*
X20628894Y-2338815D01*
X20615417Y-2458967D01*
X20592299Y-2500845D01*
X20553306Y-2514500D01*
X20086402Y-2514500D01*
X20042208Y-2496194D01*
X20024200Y-2458099D01*
X20013822Y-2352258D01*
X20013524Y-2349217D01*
X19958117Y-2165701D01*
X19906909Y-2069393D01*
X19869555Y-1999140D01*
X19869553Y-1999137D01*
X19868120Y-1996442D01*
X19746962Y-1847887D01*
X19599256Y-1725694D01*
X19430629Y-1634518D01*
X19322117Y-1600928D01*
X19250420Y-1578734D01*
X19250417Y-1578733D01*
X19247505Y-1577832D01*
X19244472Y-1577513D01*
X19244471Y-1577513D01*
X19196787Y-1572501D01*
X19056857Y-1557794D01*
X19053824Y-1558070D01*
X19053820Y-1558070D01*
X18971118Y-1565597D01*
X18865948Y-1575168D01*
X18682050Y-1629292D01*
X18512167Y-1718105D01*
X18362770Y-1838223D01*
X18239549Y-1985072D01*
X18194475Y-2067062D01*
X18154642Y-2139518D01*
X18147198Y-2153058D01*
X18089234Y-2335783D01*
X18088894Y-2338815D01*
X18075417Y-2458967D01*
X18052299Y-2500845D01*
X18013306Y-2514500D01*
X17546402Y-2514500D01*
X17502208Y-2496194D01*
X17484200Y-2458099D01*
X17473822Y-2352258D01*
X17473524Y-2349217D01*
X17418117Y-2165701D01*
X17366909Y-2069393D01*
X17329555Y-1999140D01*
X17329553Y-1999137D01*
X17328120Y-1996442D01*
X17206962Y-1847887D01*
X17059256Y-1725694D01*
X16890629Y-1634518D01*
X16782117Y-1600928D01*
X16710420Y-1578734D01*
X16710417Y-1578733D01*
X16707505Y-1577832D01*
X16704472Y-1577513D01*
X16704471Y-1577513D01*
X16656787Y-1572501D01*
X16516857Y-1557794D01*
X16513824Y-1558070D01*
X16513820Y-1558070D01*
X16431118Y-1565597D01*
X16325948Y-1575168D01*
X16142050Y-1629292D01*
X15972167Y-1718105D01*
X15822770Y-1838223D01*
X15699549Y-1985072D01*
X15654475Y-2067062D01*
X15614642Y-2139518D01*
X15607198Y-2153058D01*
X15549234Y-2335783D01*
X15548894Y-2338815D01*
X15535417Y-2458967D01*
X15512299Y-2500845D01*
X15473306Y-2514500D01*
X15006402Y-2514500D01*
X14962208Y-2496194D01*
X14944200Y-2458099D01*
X14933822Y-2352258D01*
X14933524Y-2349217D01*
X14878117Y-2165701D01*
X14826909Y-2069393D01*
X14789555Y-1999140D01*
X14789553Y-1999137D01*
X14788120Y-1996442D01*
X14666962Y-1847887D01*
X14519256Y-1725694D01*
X14350629Y-1634518D01*
X14242117Y-1600928D01*
X14170420Y-1578734D01*
X14170417Y-1578733D01*
X14167505Y-1577832D01*
X14164472Y-1577513D01*
X14164471Y-1577513D01*
X14116787Y-1572501D01*
X13976857Y-1557794D01*
X13973824Y-1558070D01*
X13973820Y-1558070D01*
X13891118Y-1565597D01*
X13785948Y-1575168D01*
X13602050Y-1629292D01*
X13432167Y-1718105D01*
X13282770Y-1838223D01*
X13159549Y-1985072D01*
X13114475Y-2067062D01*
X13074642Y-2139518D01*
X13067198Y-2153058D01*
X13009234Y-2335783D01*
X13008894Y-2338815D01*
X12995417Y-2458967D01*
X12972299Y-2500845D01*
X12933306Y-2514500D01*
X12466402Y-2514500D01*
X12422208Y-2496194D01*
X12404200Y-2458099D01*
X12393822Y-2352258D01*
X12393524Y-2349217D01*
X12338117Y-2165701D01*
X12286909Y-2069393D01*
X12249555Y-1999140D01*
X12249553Y-1999137D01*
X12248120Y-1996442D01*
X12126962Y-1847887D01*
X11979256Y-1725694D01*
X11810629Y-1634518D01*
X11702117Y-1600928D01*
X11630420Y-1578734D01*
X11630417Y-1578733D01*
X11627505Y-1577832D01*
X11624472Y-1577513D01*
X11624471Y-1577513D01*
X11576787Y-1572501D01*
X11436857Y-1557794D01*
X11433824Y-1558070D01*
X11433820Y-1558070D01*
X11351118Y-1565597D01*
X11245948Y-1575168D01*
X11062050Y-1629292D01*
X10892167Y-1718105D01*
X10742770Y-1838223D01*
X10619549Y-1985072D01*
X10574475Y-2067062D01*
X10534642Y-2139518D01*
X10527198Y-2153058D01*
X10469234Y-2335783D01*
X10468894Y-2338815D01*
X10455417Y-2458967D01*
X10432299Y-2500845D01*
X10393306Y-2514500D01*
X9926402Y-2514500D01*
X9882208Y-2496194D01*
X9864200Y-2458099D01*
X9853822Y-2352258D01*
X9853524Y-2349217D01*
X9798117Y-2165701D01*
X9746909Y-2069393D01*
X9709555Y-1999140D01*
X9709553Y-1999137D01*
X9708120Y-1996442D01*
X9586962Y-1847887D01*
X9439256Y-1725694D01*
X9270629Y-1634518D01*
X9162117Y-1600928D01*
X9090420Y-1578734D01*
X9090417Y-1578733D01*
X9087505Y-1577832D01*
X9084472Y-1577513D01*
X9084471Y-1577513D01*
X9036787Y-1572501D01*
X8896857Y-1557794D01*
X8893824Y-1558070D01*
X8893820Y-1558070D01*
X8811118Y-1565597D01*
X8705948Y-1575168D01*
X8522050Y-1629292D01*
X8352167Y-1718105D01*
X8202770Y-1838223D01*
X8079549Y-1985072D01*
X8034475Y-2067062D01*
X7994642Y-2139518D01*
X7987198Y-2153058D01*
X7929234Y-2335783D01*
X7928894Y-2338815D01*
X7915417Y-2458967D01*
X7892299Y-2500845D01*
X7853306Y-2514500D01*
X7563621Y-2514500D01*
X7519427Y-2496194D01*
X7501383Y-2457719D01*
X7489799Y-2331654D01*
X7488758Y-2326036D01*
X7432745Y-2127429D01*
X7430702Y-2122107D01*
X7339430Y-1937024D01*
X7336444Y-1932152D01*
X7273928Y-1848434D01*
X7265750Y-1843569D01*
X7259909Y-1845052D01*
X6608766Y-2496194D01*
X6564572Y-2514500D01*
X6135428Y-2514500D01*
X6091234Y-2496194D01*
X5442276Y-1847237D01*
X5433486Y-1843596D01*
X5427458Y-1846093D01*
X5379800Y-1906547D01*
X5376696Y-1911326D01*
X5280606Y-2093961D01*
X5278427Y-2099221D01*
X5217230Y-2296311D01*
X5216046Y-2301882D01*
X5197408Y-2459346D01*
X5174034Y-2501082D01*
X5135341Y-2514500D01*
X4846402Y-2514500D01*
X4802208Y-2496194D01*
X4784200Y-2458099D01*
X4773822Y-2352258D01*
X4773524Y-2349217D01*
X4718117Y-2165701D01*
X4666909Y-2069393D01*
X4629555Y-1999140D01*
X4629553Y-1999137D01*
X4628120Y-1996442D01*
X4506962Y-1847887D01*
X4359256Y-1725694D01*
X4190629Y-1634518D01*
X4187706Y-1633613D01*
X4187701Y-1633611D01*
X4184716Y-1632687D01*
X4170651Y-1621009D01*
X5652387Y-1621009D01*
X5656260Y-1631299D01*
X6341210Y-2316250D01*
X6350000Y-2319891D01*
X6358790Y-2316250D01*
X7046099Y-1628940D01*
X7049740Y-1620150D01*
X7047918Y-1615751D01*
X6878571Y-1508901D01*
X6873493Y-1506313D01*
X6681816Y-1429842D01*
X6676349Y-1428223D01*
X6473949Y-1387963D01*
X6468285Y-1387368D01*
X6261932Y-1384666D01*
X6256245Y-1385114D01*
X6052873Y-1420060D01*
X6047350Y-1421539D01*
X5853750Y-1492962D01*
X5848601Y-1495418D01*
X5671255Y-1600928D01*
X5666632Y-1604287D01*
X5656063Y-1613556D01*
X5652387Y-1621009D01*
X4170651Y-1621009D01*
X4147913Y-1602130D01*
X4140700Y-1572983D01*
X4140700Y-966582D01*
X4159006Y-922388D01*
X4175020Y-910795D01*
X4333585Y-830698D01*
X4336305Y-829324D01*
X4338703Y-827451D01*
X4338707Y-827448D01*
X4437406Y-750335D01*
X4487365Y-711303D01*
X4532827Y-658635D01*
X4610630Y-568500D01*
X4610634Y-568495D01*
X4612624Y-566189D01*
X4633544Y-529364D01*
X4705801Y-402170D01*
X4705803Y-402165D01*
X4707312Y-399509D01*
X4767821Y-217612D01*
X4772542Y-180247D01*
X4774409Y-165470D01*
X5204288Y-165470D01*
X5205137Y-178434D01*
X5206031Y-184080D01*
X5256826Y-384089D01*
X5258729Y-389462D01*
X5345126Y-576871D01*
X5347977Y-581810D01*
X5467079Y-750335D01*
X5470784Y-754672D01*
X5618602Y-898671D01*
X5623035Y-902260D01*
X5794617Y-1016907D01*
X5799633Y-1019631D01*
X5989240Y-1101092D01*
X5994657Y-1102852D01*
X6185875Y-1146120D01*
X6195252Y-1144509D01*
X6198000Y-1140621D01*
X6198000Y-1131680D01*
X6502000Y-1131680D01*
X6505641Y-1140470D01*
X6511208Y-1142776D01*
X6617714Y-1127333D01*
X6623263Y-1126001D01*
X6818672Y-1059669D01*
X6823884Y-1057348D01*
X7003933Y-956516D01*
X7008635Y-953285D01*
X7167299Y-821325D01*
X7171325Y-817299D01*
X7303285Y-658635D01*
X7306516Y-653933D01*
X7407348Y-473884D01*
X7409669Y-468672D01*
X7476001Y-273263D01*
X7477333Y-267714D01*
X7492327Y-164304D01*
X7489985Y-155082D01*
X7484805Y-152000D01*
X6514431Y-152000D01*
X6505641Y-155641D01*
X6502000Y-164431D01*
X6502000Y-1131680D01*
X6198000Y-1131680D01*
X6198000Y-164431D01*
X6194359Y-155641D01*
X6185569Y-152000D01*
X5215836Y-152000D01*
X5208161Y-155179D01*
X5204288Y-165470D01*
X4774409Y-165470D01*
X4791627Y-29167D01*
X4791627Y-29166D01*
X4791847Y-27425D01*
X4792230Y0D01*
X4791964Y2720D01*
X4790886Y13714D01*
X7907866Y13714D01*
X7911321Y-27425D01*
X7922913Y-165470D01*
X7923907Y-177311D01*
X7976746Y-361583D01*
X8064370Y-532082D01*
X8183443Y-682314D01*
X8329428Y-806557D01*
X8332092Y-808046D01*
X8332095Y-808048D01*
X8431297Y-863490D01*
X8496765Y-900079D01*
X8499669Y-901023D01*
X8499670Y-901023D01*
X8676168Y-958371D01*
X8676173Y-958372D01*
X8679081Y-959317D01*
X8869430Y-982015D01*
X8872472Y-981781D01*
X8872475Y-981781D01*
X9057514Y-967543D01*
X9057519Y-967542D01*
X9060562Y-967308D01*
X9089182Y-959317D01*
X9242260Y-916577D01*
X9242264Y-916576D01*
X9245199Y-915756D01*
X9416305Y-829324D01*
X9418703Y-827451D01*
X9418707Y-827448D01*
X9517406Y-750335D01*
X9567365Y-711303D01*
X9612827Y-658635D01*
X9690630Y-568500D01*
X9690634Y-568495D01*
X9692624Y-566189D01*
X9713544Y-529364D01*
X9785801Y-402170D01*
X9785803Y-402165D01*
X9787312Y-399509D01*
X9847821Y-217612D01*
X9852542Y-180247D01*
X9871627Y-29167D01*
X9871627Y-29166D01*
X9871847Y-27425D01*
X9872230Y0D01*
X9871964Y2720D01*
X9853822Y187743D01*
X9853524Y190783D01*
X9798117Y374299D01*
X9733934Y495010D01*
X9729349Y542625D01*
X9744924Y568546D01*
X9805572Y629194D01*
X9849766Y647500D01*
X10439596Y647500D01*
X10447576Y646140D01*
X10447646Y646755D01*
X10454643Y645958D01*
X10461281Y643627D01*
X10492648Y647118D01*
X10499544Y647500D01*
X10507625Y647500D01*
X10515169Y649221D01*
X10522138Y650400D01*
X10553102Y653846D01*
X10554830Y654928D01*
X10599685Y652343D01*
X10631508Y616628D01*
X10628756Y568872D01*
X10622991Y559962D01*
X10623241Y559791D01*
X10621519Y557275D01*
X10619549Y554928D01*
X10586609Y495010D01*
X10541288Y412571D01*
X10527198Y386942D01*
X10469234Y204217D01*
X10447866Y13714D01*
X10451321Y-27425D01*
X10462913Y-165470D01*
X10463907Y-177311D01*
X10516746Y-361583D01*
X10604370Y-532082D01*
X10723443Y-682314D01*
X10869428Y-806557D01*
X10872092Y-808046D01*
X10872095Y-808048D01*
X10971297Y-863490D01*
X11036765Y-900079D01*
X11039669Y-901023D01*
X11039670Y-901023D01*
X11216168Y-958371D01*
X11216173Y-958372D01*
X11219081Y-959317D01*
X11409430Y-982015D01*
X11412472Y-981781D01*
X11412475Y-981781D01*
X11597514Y-967543D01*
X11597519Y-967542D01*
X11600562Y-967308D01*
X11629182Y-959317D01*
X11782260Y-916577D01*
X11782264Y-916576D01*
X11785199Y-915756D01*
X11956305Y-829324D01*
X11958703Y-827451D01*
X11958707Y-827448D01*
X12057406Y-750335D01*
X12107365Y-711303D01*
X12152827Y-658635D01*
X12230630Y-568500D01*
X12230634Y-568495D01*
X12232624Y-566189D01*
X12253544Y-529364D01*
X12325801Y-402170D01*
X12325803Y-402165D01*
X12327312Y-399509D01*
X12387821Y-217612D01*
X12392542Y-180247D01*
X12411627Y-29167D01*
X12411627Y-29166D01*
X12411847Y-27425D01*
X12412230Y0D01*
X12411964Y2720D01*
X12393822Y187743D01*
X12393524Y190783D01*
X12338117Y374299D01*
X12273934Y495010D01*
X12269349Y542625D01*
X12284924Y568546D01*
X12706137Y989759D01*
X12750331Y1008065D01*
X13533822Y1008065D01*
X13578016Y989759D01*
X13596322Y945565D01*
X13578016Y901371D01*
X13562778Y890177D01*
X13432167Y821895D01*
X13282770Y701777D01*
X13159549Y554928D01*
X13126609Y495010D01*
X13081288Y412571D01*
X13067198Y386942D01*
X13009234Y204217D01*
X12987866Y13714D01*
X12991321Y-27425D01*
X13002913Y-165470D01*
X13003907Y-177311D01*
X13056746Y-361583D01*
X13144370Y-532082D01*
X13263443Y-682314D01*
X13409428Y-806557D01*
X13412092Y-808046D01*
X13412095Y-808048D01*
X13511297Y-863490D01*
X13576765Y-900079D01*
X13579669Y-901023D01*
X13579670Y-901023D01*
X13756168Y-958371D01*
X13756173Y-958372D01*
X13759081Y-959317D01*
X13949430Y-982015D01*
X13952472Y-981781D01*
X13952475Y-981781D01*
X14137514Y-967543D01*
X14137519Y-967542D01*
X14140562Y-967308D01*
X14169182Y-959317D01*
X14322260Y-916577D01*
X14322264Y-916576D01*
X14325199Y-915756D01*
X14496305Y-829324D01*
X14498703Y-827451D01*
X14498707Y-827448D01*
X14597406Y-750335D01*
X14647365Y-711303D01*
X14692827Y-658635D01*
X14770630Y-568500D01*
X14770634Y-568495D01*
X14772624Y-566189D01*
X14793544Y-529364D01*
X14865801Y-402170D01*
X14865803Y-402165D01*
X14867312Y-399509D01*
X14927821Y-217612D01*
X14932542Y-180247D01*
X14951627Y-29167D01*
X14951627Y-29166D01*
X14951847Y-27425D01*
X14952230Y0D01*
X14951964Y2720D01*
X14933822Y187743D01*
X14933524Y190783D01*
X14878117Y374299D01*
X14788120Y543558D01*
X14666962Y692113D01*
X14519256Y814306D01*
X14516567Y815760D01*
X14516564Y815762D01*
X14378177Y890587D01*
X14348008Y927709D01*
X14352925Y975291D01*
X14390047Y1005460D01*
X14407903Y1008065D01*
X16073822Y1008065D01*
X16118016Y989759D01*
X16136322Y945565D01*
X16118016Y901371D01*
X16102778Y890177D01*
X15972167Y821895D01*
X15822770Y701777D01*
X15699549Y554928D01*
X15666609Y495010D01*
X15621288Y412571D01*
X15607198Y386942D01*
X15549234Y204217D01*
X15527866Y13714D01*
X15531321Y-27425D01*
X15542913Y-165470D01*
X15543907Y-177311D01*
X15596746Y-361583D01*
X15684370Y-532082D01*
X15803443Y-682314D01*
X15949428Y-806557D01*
X15952092Y-808046D01*
X15952095Y-808048D01*
X16051297Y-863490D01*
X16116765Y-900079D01*
X16119669Y-901023D01*
X16119670Y-901023D01*
X16296168Y-958371D01*
X16296173Y-958372D01*
X16299081Y-959317D01*
X16489430Y-982015D01*
X16492472Y-981781D01*
X16492475Y-981781D01*
X16677514Y-967543D01*
X16677519Y-967542D01*
X16680562Y-967308D01*
X16709182Y-959317D01*
X16862260Y-916577D01*
X16862264Y-916576D01*
X16865199Y-915756D01*
X17036305Y-829324D01*
X17038703Y-827451D01*
X17038707Y-827448D01*
X17137406Y-750335D01*
X17187365Y-711303D01*
X17232827Y-658635D01*
X17310630Y-568500D01*
X17310634Y-568495D01*
X17312624Y-566189D01*
X17333544Y-529364D01*
X17405801Y-402170D01*
X17405803Y-402165D01*
X17407312Y-399509D01*
X17467821Y-217612D01*
X17472542Y-180247D01*
X17491627Y-29167D01*
X17491627Y-29166D01*
X17491847Y-27425D01*
X17492230Y0D01*
X17491964Y2720D01*
X17473822Y187743D01*
X17473524Y190783D01*
X17418117Y374299D01*
X17328120Y543558D01*
X17206962Y692113D01*
X17059256Y814306D01*
X17056567Y815760D01*
X17056564Y815762D01*
X16918177Y890587D01*
X16888008Y927709D01*
X16892925Y975291D01*
X16930047Y1005460D01*
X16947903Y1008065D01*
X18613822Y1008065D01*
X18658016Y989759D01*
X18676322Y945565D01*
X18658016Y901371D01*
X18642778Y890177D01*
X18512167Y821895D01*
X18362770Y701777D01*
X18239549Y554928D01*
X18206609Y495010D01*
X18161288Y412571D01*
X18147198Y386942D01*
X18089234Y204217D01*
X18067866Y13714D01*
X18071321Y-27425D01*
X18082913Y-165470D01*
X18083907Y-177311D01*
X18136746Y-361583D01*
X18224370Y-532082D01*
X18343443Y-682314D01*
X18489428Y-806557D01*
X18492092Y-808046D01*
X18492095Y-808048D01*
X18591297Y-863490D01*
X18656765Y-900079D01*
X18659669Y-901023D01*
X18659670Y-901023D01*
X18836168Y-958371D01*
X18836173Y-958372D01*
X18839081Y-959317D01*
X19029430Y-982015D01*
X19032472Y-981781D01*
X19032475Y-981781D01*
X19217514Y-967543D01*
X19217519Y-967542D01*
X19220562Y-967308D01*
X19249182Y-959317D01*
X19402260Y-916577D01*
X19402264Y-916576D01*
X19405199Y-915756D01*
X19576305Y-829324D01*
X19578703Y-827451D01*
X19578707Y-827448D01*
X19677406Y-750335D01*
X19727365Y-711303D01*
X19772827Y-658635D01*
X19850630Y-568500D01*
X19850634Y-568495D01*
X19852624Y-566189D01*
X19873544Y-529364D01*
X19945801Y-402170D01*
X19945803Y-402165D01*
X19947312Y-399509D01*
X20007821Y-217612D01*
X20012542Y-180247D01*
X20031627Y-29167D01*
X20031627Y-29166D01*
X20031847Y-27425D01*
X20032230Y0D01*
X20031964Y2720D01*
X20013822Y187743D01*
X20013524Y190783D01*
X19958117Y374299D01*
X19868120Y543558D01*
X19746962Y692113D01*
X19599256Y814306D01*
X19596567Y815760D01*
X19596564Y815762D01*
X19458177Y890587D01*
X19428008Y927709D01*
X19432925Y975291D01*
X19470047Y1005460D01*
X19487903Y1008065D01*
X21153822Y1008065D01*
X21198016Y989759D01*
X21216322Y945565D01*
X21198016Y901371D01*
X21182778Y890177D01*
X21052167Y821895D01*
X20902770Y701777D01*
X20779549Y554928D01*
X20746609Y495010D01*
X20701288Y412571D01*
X20687198Y386942D01*
X20629234Y204217D01*
X20607866Y13714D01*
X20611321Y-27425D01*
X20622913Y-165470D01*
X20623907Y-177311D01*
X20676746Y-361583D01*
X20764370Y-532082D01*
X20883443Y-682314D01*
X21029428Y-806557D01*
X21032092Y-808046D01*
X21032095Y-808048D01*
X21131297Y-863490D01*
X21196765Y-900079D01*
X21199669Y-901023D01*
X21199670Y-901023D01*
X21376168Y-958371D01*
X21376173Y-958372D01*
X21379081Y-959317D01*
X21569430Y-982015D01*
X21572472Y-981781D01*
X21572475Y-981781D01*
X21757514Y-967543D01*
X21757519Y-967542D01*
X21760562Y-967308D01*
X21789182Y-959317D01*
X21942260Y-916577D01*
X21942264Y-916576D01*
X21945199Y-915756D01*
X22116305Y-829324D01*
X22118703Y-827451D01*
X22118707Y-827448D01*
X22217406Y-750335D01*
X22267365Y-711303D01*
X22312827Y-658635D01*
X22390630Y-568500D01*
X22390634Y-568495D01*
X22392624Y-566189D01*
X22413544Y-529364D01*
X22485801Y-402170D01*
X22485803Y-402165D01*
X22487312Y-399509D01*
X22547821Y-217612D01*
X22552542Y-180247D01*
X22571627Y-29167D01*
X22571627Y-29166D01*
X22571847Y-27425D01*
X22572230Y0D01*
X23384000Y0D01*
X23384238Y-2720D01*
X23412617Y-327085D01*
X23414628Y-350075D01*
X23415333Y-352708D01*
X23415334Y-352711D01*
X23481070Y-598039D01*
X23505580Y-689513D01*
X23506732Y-691984D01*
X23506733Y-691986D01*
X23635228Y-967543D01*
X23654093Y-1008000D01*
X23855654Y-1295860D01*
X24104140Y-1544346D01*
X24392000Y-1745907D01*
X24394471Y-1747059D01*
X24394474Y-1747061D01*
X24708014Y-1893267D01*
X24710487Y-1894420D01*
X24713120Y-1895125D01*
X24713124Y-1895127D01*
X25047289Y-1984666D01*
X25047292Y-1984667D01*
X25049925Y-1985372D01*
X25052641Y-1985610D01*
X25052643Y-1985610D01*
X25397280Y-2015762D01*
X25400000Y-2016000D01*
X25402720Y-2015762D01*
X25747357Y-1985610D01*
X25747359Y-1985610D01*
X25750075Y-1985372D01*
X25752708Y-1984667D01*
X25752711Y-1984666D01*
X26086876Y-1895127D01*
X26086880Y-1895125D01*
X26089513Y-1894420D01*
X26091986Y-1893267D01*
X26405526Y-1747061D01*
X26405529Y-1747059D01*
X26408000Y-1745907D01*
X26695860Y-1544346D01*
X26944346Y-1295860D01*
X27145907Y-1008000D01*
X27164773Y-967543D01*
X27293267Y-691986D01*
X27293268Y-691984D01*
X27294420Y-689513D01*
X27318931Y-598039D01*
X27384666Y-352711D01*
X27384667Y-352708D01*
X27385372Y-350075D01*
X27387384Y-327085D01*
X27415762Y-2720D01*
X27416000Y0D01*
X27402383Y155641D01*
X27385610Y347357D01*
X27385610Y347359D01*
X27385372Y350075D01*
X27379666Y371371D01*
X27295127Y686876D01*
X27295125Y686880D01*
X27294420Y689513D01*
X27280010Y720415D01*
X27147061Y1005526D01*
X27147059Y1005529D01*
X27145907Y1008000D01*
X26944346Y1295860D01*
X26695860Y1544346D01*
X26408000Y1745907D01*
X26405529Y1747059D01*
X26405526Y1747061D01*
X26091986Y1893267D01*
X26091984Y1893268D01*
X26089513Y1894420D01*
X26086880Y1895125D01*
X26086876Y1895127D01*
X25752711Y1984666D01*
X25752708Y1984667D01*
X25750075Y1985372D01*
X25747359Y1985610D01*
X25747357Y1985610D01*
X25402720Y2015762D01*
X25400000Y2016000D01*
X25397280Y2015762D01*
X25052643Y1985610D01*
X25052641Y1985610D01*
X25049925Y1985372D01*
X25047292Y1984667D01*
X25047289Y1984666D01*
X24713124Y1895127D01*
X24713120Y1895125D01*
X24710487Y1894420D01*
X24708016Y1893268D01*
X24708014Y1893267D01*
X24394474Y1747061D01*
X24394471Y1747059D01*
X24392000Y1745907D01*
X24104140Y1544346D01*
X23855654Y1295860D01*
X23654093Y1008000D01*
X23652941Y1005529D01*
X23652939Y1005526D01*
X23519990Y720415D01*
X23505580Y689513D01*
X23504875Y686880D01*
X23504873Y686876D01*
X23420334Y371371D01*
X23414628Y350075D01*
X23414390Y347359D01*
X23414390Y347357D01*
X23397617Y155641D01*
X23384000Y0D01*
X22572230Y0D01*
X22571964Y2720D01*
X22553822Y187743D01*
X22553524Y190783D01*
X22498117Y374299D01*
X22408120Y543558D01*
X22286962Y692113D01*
X22139256Y814306D01*
X22136567Y815760D01*
X22136564Y815762D01*
X21998177Y890587D01*
X21968008Y927709D01*
X21972925Y975291D01*
X22010047Y1005460D01*
X22027903Y1008065D01*
X22801126Y1008065D01*
X22809106Y1006705D01*
X22809176Y1007320D01*
X22816173Y1006523D01*
X22822811Y1004192D01*
X22854178Y1007683D01*
X22861074Y1008065D01*
X22869155Y1008065D01*
X22876699Y1009786D01*
X22883668Y1010965D01*
X22914632Y1014411D01*
X22920599Y1018147D01*
X22925176Y1019741D01*
X22929535Y1021839D01*
X22936398Y1023404D01*
X22960755Y1042813D01*
X22966539Y1046908D01*
X22970246Y1049229D01*
X22970248Y1049231D01*
X22973242Y1051105D01*
X22978913Y1056776D01*
X22984157Y1061461D01*
X23003147Y1076593D01*
X23003148Y1076594D01*
X23008652Y1080980D01*
X23011710Y1087320D01*
X23016100Y1092819D01*
X23016544Y1092464D01*
X23021305Y1099168D01*
X25266330Y3344194D01*
X25272934Y3348874D01*
X25272548Y3349360D01*
X25278059Y3353743D01*
X25284402Y3356789D01*
X25288796Y3362283D01*
X25288798Y3362285D01*
X25304107Y3381429D01*
X25308724Y3386588D01*
X25314434Y3392298D01*
X25316297Y3395263D01*
X25316303Y3395270D01*
X25318547Y3398842D01*
X25322655Y3404623D01*
X25337708Y3423445D01*
X25337708Y3423446D01*
X25342104Y3428942D01*
X25343682Y3435802D01*
X25345789Y3440161D01*
X25347390Y3444734D01*
X25351135Y3450692D01*
X25351926Y3457686D01*
X25354633Y3481628D01*
X25355826Y3488609D01*
X25356808Y3492880D01*
X25356809Y3492886D01*
X25357601Y3496332D01*
X25357601Y3504367D01*
X25357997Y3511388D01*
X25360723Y3535501D01*
X25361514Y3542496D01*
X25359194Y3549141D01*
X25358409Y3556137D01*
X25358975Y3556200D01*
X25357601Y3564302D01*
X25357601Y3766260D01*
X25375907Y3810454D01*
X25934424Y4368971D01*
X25941029Y4373652D01*
X25940643Y4374137D01*
X25946154Y4378520D01*
X25952496Y4381566D01*
X25956889Y4387060D01*
X25956891Y4387061D01*
X25972201Y4406206D01*
X25976818Y4411365D01*
X25982528Y4417075D01*
X25986639Y4423616D01*
X25990744Y4429392D01*
X26005802Y4448221D01*
X26005803Y4448224D01*
X26010198Y4453719D01*
X26011775Y4460577D01*
X26013883Y4464938D01*
X26015484Y4469510D01*
X26019230Y4475469D01*
X26021707Y4497378D01*
X26022729Y4506414D01*
X26023922Y4513396D01*
X26024902Y4517660D01*
X26025695Y4521109D01*
X26025695Y4529135D01*
X26026091Y4536156D01*
X26028818Y4560277D01*
X26029609Y4567273D01*
X26027288Y4573918D01*
X26026504Y4580914D01*
X26027069Y4580977D01*
X26025695Y4589082D01*
X26025695Y6589556D01*
X26031949Y6616807D01*
X26077620Y6711073D01*
X26079562Y6715081D01*
X26080451Y6720361D01*
X26097975Y6824525D01*
X26102397Y6850811D01*
X26102542Y6862671D01*
X26083030Y6998918D01*
X26048283Y7075340D01*
X26027906Y7120157D01*
X26027905Y7120159D01*
X26026062Y7124212D01*
X25936218Y7228482D01*
X25820720Y7303343D01*
X25816456Y7304618D01*
X25816452Y7304620D01*
X25693122Y7341504D01*
X25693119Y7341504D01*
X25688854Y7342780D01*
X25620990Y7343195D01*
X25555672Y7343594D01*
X25555671Y7343594D01*
X25551219Y7343621D01*
X25418881Y7305798D01*
X25302477Y7232353D01*
X25299534Y7229021D01*
X25299532Y7229019D01*
X25230747Y7151134D01*
X25211366Y7129189D01*
X25207117Y7120139D01*
X25200175Y7105353D01*
X25164822Y7073128D01*
X25117038Y7075340D01*
X25084813Y7110693D01*
X25081100Y7131915D01*
X25081100Y7568500D01*
X25087354Y7595751D01*
X25129975Y7683721D01*
X25134967Y7694025D01*
X25138268Y7713642D01*
X25157402Y7827379D01*
X25157802Y7829755D01*
X25157947Y7841615D01*
X25138435Y7977862D01*
X25081467Y8103156D01*
X24991623Y8207426D01*
X24876125Y8282287D01*
X24871861Y8283562D01*
X24871857Y8283564D01*
X24748527Y8320448D01*
X24748524Y8320448D01*
X24744259Y8321724D01*
X24676395Y8322139D01*
X24611077Y8322538D01*
X24611076Y8322538D01*
X24606624Y8322565D01*
X24474286Y8284742D01*
X24357882Y8211297D01*
X24354939Y8207965D01*
X24354937Y8207963D01*
X24300817Y8146683D01*
X24266771Y8108133D01*
X24208276Y7983544D01*
X24187101Y7847546D01*
X24187678Y7843133D01*
X24187678Y7843131D01*
X24189216Y7831373D01*
X24204947Y7711070D01*
X24206740Y7706995D01*
X24255689Y7595751D01*
X24260380Y7585089D01*
X24265874Y7578553D01*
X24328492Y7504061D01*
X24348944Y7479730D01*
X24352649Y7477264D01*
X24352651Y7477262D01*
X24428685Y7426650D01*
X24463518Y7403463D01*
X24529205Y7382941D01*
X24590641Y7363747D01*
X24590644Y7363747D01*
X24594893Y7362419D01*
X24599345Y7362337D01*
X24599347Y7362337D01*
X24613798Y7362072D01*
X24614746Y7362055D01*
X24658597Y7342943D01*
X24676100Y7299566D01*
X24676100Y3743640D01*
X24657794Y3699446D01*
X22666221Y1707872D01*
X22622027Y1689566D01*
X11167055Y1689566D01*
X11159076Y1690926D01*
X11159006Y1690310D01*
X11152011Y1691107D01*
X11145373Y1693438D01*
X11138381Y1692660D01*
X11114020Y1689949D01*
X11107108Y1689566D01*
X11099029Y1689566D01*
X11091478Y1687844D01*
X11084520Y1686667D01*
X11053552Y1683220D01*
X11047589Y1679487D01*
X11043013Y1677893D01*
X11038647Y1675792D01*
X11031786Y1674227D01*
X11026282Y1669841D01*
X11007429Y1654818D01*
X11001645Y1650723D01*
X10997938Y1648402D01*
X10997936Y1648400D01*
X10994942Y1646526D01*
X10989271Y1640855D01*
X10984027Y1636170D01*
X10959532Y1616651D01*
X10956473Y1610309D01*
X10952084Y1604811D01*
X10951639Y1605166D01*
X10946879Y1598463D01*
X10419222Y1070806D01*
X10375028Y1052500D01*
X9785199Y1052500D01*
X9777217Y1053861D01*
X9777147Y1053245D01*
X9770152Y1054042D01*
X9763514Y1056373D01*
X9756522Y1055595D01*
X9732152Y1052883D01*
X9725240Y1052500D01*
X9717169Y1052500D01*
X9713752Y1051720D01*
X9713748Y1051720D01*
X9709643Y1050783D01*
X9702653Y1049600D01*
X9678683Y1046933D01*
X9671692Y1046155D01*
X9665729Y1042422D01*
X9661158Y1040830D01*
X9656787Y1038726D01*
X9649926Y1037161D01*
X9644423Y1032776D01*
X9625571Y1017754D01*
X9619791Y1013662D01*
X9616084Y1011341D01*
X9616081Y1011339D01*
X9613082Y1009461D01*
X9607406Y1003785D01*
X9602162Y999100D01*
X9590440Y989759D01*
X9577672Y979585D01*
X9574614Y973245D01*
X9570224Y967746D01*
X9569779Y968101D01*
X9565020Y961399D01*
X9458354Y854733D01*
X9414160Y836427D01*
X9384434Y843949D01*
X9273318Y904028D01*
X9273319Y904028D01*
X9270629Y905482D01*
X9135323Y947366D01*
X9090420Y961266D01*
X9090417Y961267D01*
X9087505Y962168D01*
X9084472Y962487D01*
X9084471Y962487D01*
X9034434Y967746D01*
X8896857Y982206D01*
X8893824Y981930D01*
X8893820Y981930D01*
X8811118Y974403D01*
X8705948Y964832D01*
X8703019Y963970D01*
X8693832Y961266D01*
X8522050Y910708D01*
X8352167Y821895D01*
X8202770Y701777D01*
X8079549Y554928D01*
X8046609Y495010D01*
X8001288Y412571D01*
X7987198Y386942D01*
X7929234Y204217D01*
X7907866Y13714D01*
X4790886Y13714D01*
X4776116Y164345D01*
X5207314Y164345D01*
X5209897Y155189D01*
X5215591Y152000D01*
X6185569Y152000D01*
X6194359Y155641D01*
X6198000Y164431D01*
X6502000Y164431D01*
X6505641Y155641D01*
X6514431Y152000D01*
X7482546Y152000D01*
X7491336Y155641D01*
X7494042Y162174D01*
X7489799Y208346D01*
X7488758Y213964D01*
X7432745Y412571D01*
X7430702Y417893D01*
X7339430Y602976D01*
X7336444Y607848D01*
X7212980Y773186D01*
X7209157Y777431D01*
X7057628Y917503D01*
X7053093Y920983D01*
X6878571Y1031099D01*
X6873493Y1033687D01*
X6681816Y1110158D01*
X6676349Y1111777D01*
X6514193Y1144032D01*
X6504861Y1142176D01*
X6502000Y1137893D01*
X6502000Y164431D01*
X6198000Y164431D01*
X6198000Y1132446D01*
X6194359Y1141236D01*
X6189214Y1143367D01*
X6052873Y1119940D01*
X6047350Y1118461D01*
X5853750Y1047038D01*
X5848601Y1044582D01*
X5671255Y939072D01*
X5666633Y935713D01*
X5511488Y799655D01*
X5507555Y795510D01*
X5379804Y633459D01*
X5376694Y628670D01*
X5280606Y446039D01*
X5278427Y440779D01*
X5217230Y243689D01*
X5216046Y238118D01*
X5207314Y164345D01*
X4776116Y164345D01*
X4773822Y187743D01*
X4773524Y190783D01*
X4718117Y374299D01*
X4716681Y376999D01*
X4715517Y379824D01*
X4716524Y380239D01*
X4712284Y424256D01*
X4727860Y450180D01*
X6155275Y1877595D01*
X6199469Y1895901D01*
X16249114Y1895901D01*
X16254562Y1895663D01*
X16295551Y1892077D01*
X16335292Y1902725D01*
X16340614Y1903905D01*
X16375749Y1910100D01*
X16375751Y1910101D01*
X16381135Y1911050D01*
X16386807Y1914325D01*
X16401875Y1920566D01*
X16402020Y1920605D01*
X16408200Y1922261D01*
X16419045Y1929855D01*
X16441901Y1945858D01*
X16446498Y1948787D01*
X16477398Y1966628D01*
X16477399Y1966629D01*
X16482133Y1969362D01*
X16508585Y2000886D01*
X16512269Y2004906D01*
X16640690Y2133327D01*
X16684884Y2151633D01*
X16693037Y2151098D01*
X16766783Y2141389D01*
X16770847Y2141924D01*
X16914313Y2160812D01*
X16914314Y2160812D01*
X16918376Y2161347D01*
X16922158Y2162913D01*
X16922160Y2162914D01*
X17055855Y2218291D01*
X17055859Y2218293D01*
X17059639Y2219859D01*
X17104231Y2254076D01*
X17177695Y2310447D01*
X17177698Y2310450D01*
X17180943Y2312940D01*
X17274024Y2434245D01*
X17324995Y2557301D01*
X17330969Y2571723D01*
X17330970Y2571726D01*
X17332536Y2575507D01*
X17336703Y2607154D01*
X17351959Y2723036D01*
X17351959Y2723038D01*
X17352494Y2727100D01*
X17349527Y2749639D01*
X17333071Y2874630D01*
X17333071Y2874631D01*
X17332536Y2878693D01*
X17298014Y2962039D01*
X17275589Y3016177D01*
X17275589Y3016178D01*
X17274024Y3019955D01*
X17271532Y3023203D01*
X17213728Y3098535D01*
X17201347Y3144741D01*
X17225264Y3186167D01*
X17263312Y3199083D01*
X17865817Y3199083D01*
X17870875Y3200089D01*
X17896972Y3205280D01*
X17896974Y3205281D01*
X17903007Y3206481D01*
X17945181Y3234661D01*
X17973361Y3276835D01*
X17975729Y3288735D01*
X17980160Y3311014D01*
X17980759Y3314025D01*
X17980759Y5708080D01*
X17999065Y5752274D01*
X18043259Y5770580D01*
X18087453Y5752274D01*
X18237453Y5602274D01*
X18255759Y5558080D01*
X18255759Y3314025D01*
X18256358Y3311014D01*
X18260790Y3288735D01*
X18263157Y3276835D01*
X18291337Y3234661D01*
X18333511Y3206481D01*
X18339544Y3205281D01*
X18339546Y3205280D01*
X18365643Y3200089D01*
X18370701Y3199083D01*
X19135817Y3199083D01*
X19140875Y3200089D01*
X19166972Y3205280D01*
X19166974Y3205281D01*
X19173007Y3206481D01*
X19215181Y3234661D01*
X19243361Y3276835D01*
X19245729Y3288735D01*
X19250160Y3311014D01*
X19250759Y3314025D01*
X19525759Y3314025D01*
X19526358Y3311014D01*
X19530790Y3288735D01*
X19533157Y3276835D01*
X19561337Y3234661D01*
X19603511Y3206481D01*
X19609544Y3205281D01*
X19609546Y3205280D01*
X19635643Y3200089D01*
X19640701Y3199083D01*
X20405817Y3199083D01*
X20410875Y3200089D01*
X20436972Y3205280D01*
X20436974Y3205281D01*
X20443007Y3206481D01*
X20485181Y3234661D01*
X20513361Y3276835D01*
X20515729Y3288735D01*
X20520160Y3311014D01*
X20520759Y3314025D01*
X20520759Y5739141D01*
X20518147Y5752274D01*
X20514562Y5770296D01*
X20514561Y5770298D01*
X20513361Y5776331D01*
X20485181Y5818505D01*
X20443007Y5846685D01*
X20436974Y5847885D01*
X20436972Y5847886D01*
X20408828Y5853484D01*
X20405817Y5854083D01*
X19640701Y5854083D01*
X19637690Y5853484D01*
X19609546Y5847886D01*
X19609544Y5847885D01*
X19603511Y5846685D01*
X19561337Y5818505D01*
X19533157Y5776331D01*
X19531957Y5770298D01*
X19531956Y5770296D01*
X19528371Y5752274D01*
X19525759Y5739141D01*
X19525759Y3314025D01*
X19250759Y3314025D01*
X19250759Y5739141D01*
X19248147Y5752274D01*
X19244562Y5770296D01*
X19244561Y5770298D01*
X19243361Y5776331D01*
X19215181Y5818505D01*
X19173007Y5846685D01*
X19166974Y5847885D01*
X19166972Y5847886D01*
X19138828Y5853484D01*
X19135817Y5854083D01*
X18551762Y5854083D01*
X18507568Y5872389D01*
X18180973Y6198984D01*
X18176668Y6205058D01*
X18176095Y6204602D01*
X18171714Y6210110D01*
X18168667Y6216455D01*
X18145584Y6234915D01*
X18140425Y6239532D01*
X18135176Y6244781D01*
X18129173Y6248554D01*
X18123397Y6252659D01*
X18100612Y6270880D01*
X18093752Y6272457D01*
X18089992Y6274275D01*
X18086056Y6275653D01*
X18080097Y6279399D01*
X18073103Y6280190D01*
X18073102Y6280190D01*
X18051109Y6282676D01*
X18044132Y6283868D01*
X18037048Y6285497D01*
X18029674Y6285497D01*
X18022653Y6285893D01*
X17993507Y6289188D01*
X17986862Y6286867D01*
X17979868Y6286083D01*
X17979792Y6286761D01*
X17972340Y6285497D01*
X14035598Y6285497D01*
X14028259Y6286747D01*
X14028176Y6286020D01*
X14021185Y6286817D01*
X14014544Y6289149D01*
X14007551Y6288371D01*
X14007550Y6288371D01*
X13985166Y6285880D01*
X13978254Y6285497D01*
X13970833Y6285497D01*
X13967411Y6284716D01*
X13963926Y6284324D01*
X13963763Y6285769D01*
X13921337Y6292986D01*
X13893664Y6332005D01*
X13892635Y6354058D01*
X13900256Y6411945D01*
X13900791Y6416009D01*
X13900256Y6420073D01*
X13883427Y6547900D01*
X13895807Y6594106D01*
X13937234Y6618023D01*
X13946529Y6618548D01*
X14045939Y6616725D01*
X14109263Y6633989D01*
X14174429Y6651755D01*
X14174432Y6651756D01*
X14178730Y6652928D01*
X14182526Y6655259D01*
X14182529Y6655260D01*
X14292224Y6722614D01*
X14296022Y6724946D01*
X14361606Y6797402D01*
X14386157Y6824525D01*
X14432494Y6845083D01*
X20778756Y6845083D01*
X20822950Y6826777D01*
X21688950Y5960777D01*
X21707256Y5916583D01*
X21688950Y5872389D01*
X21644756Y5854083D01*
X20910701Y5854083D01*
X20907690Y5853484D01*
X20879546Y5847886D01*
X20879544Y5847885D01*
X20873511Y5846685D01*
X20831337Y5818505D01*
X20803157Y5776331D01*
X20801957Y5770298D01*
X20801956Y5770296D01*
X20798371Y5752274D01*
X20795759Y5739141D01*
X20795759Y3314025D01*
X20796358Y3311014D01*
X20800790Y3288735D01*
X20803157Y3276835D01*
X20831337Y3234661D01*
X20873511Y3206481D01*
X20879544Y3205281D01*
X20879546Y3205280D01*
X20905643Y3200089D01*
X20910701Y3199083D01*
X21675817Y3199083D01*
X21680875Y3200089D01*
X21706972Y3205280D01*
X21706974Y3205281D01*
X21713007Y3206481D01*
X21755181Y3234661D01*
X21783361Y3276835D01*
X21785729Y3288735D01*
X21790160Y3311014D01*
X21790759Y3314025D01*
X21790759Y5708080D01*
X21809065Y5752274D01*
X21853259Y5770580D01*
X21897453Y5752274D01*
X22047453Y5602274D01*
X22065759Y5558080D01*
X22065759Y3314025D01*
X22066358Y3311014D01*
X22070790Y3288735D01*
X22073157Y3276835D01*
X22101337Y3234661D01*
X22143511Y3206481D01*
X22149544Y3205281D01*
X22149546Y3205280D01*
X22175643Y3200089D01*
X22180701Y3199083D01*
X22945817Y3199083D01*
X22950875Y3200089D01*
X22976972Y3205280D01*
X22976974Y3205281D01*
X22983007Y3206481D01*
X23025181Y3234661D01*
X23053361Y3276835D01*
X23055729Y3288735D01*
X23060160Y3311014D01*
X23060759Y3314025D01*
X23060759Y5739141D01*
X23058147Y5752274D01*
X23054562Y5770296D01*
X23054561Y5770298D01*
X23053361Y5776331D01*
X23025181Y5818505D01*
X22983007Y5846685D01*
X22976974Y5847885D01*
X22976972Y5847886D01*
X22948828Y5853484D01*
X22945817Y5854083D01*
X22361762Y5854083D01*
X22317568Y5872389D01*
X21197568Y6992389D01*
X21179262Y7036583D01*
X21197568Y7080777D01*
X21241762Y7099083D01*
X21675817Y7099083D01*
X21680875Y7100089D01*
X21706972Y7105280D01*
X21706974Y7105281D01*
X21713007Y7106481D01*
X21755181Y7134661D01*
X21780888Y7173134D01*
X21820662Y7199710D01*
X21867578Y7190378D01*
X21893121Y7154972D01*
X21894315Y7150627D01*
X21936043Y7056686D01*
X21942469Y7047336D01*
X22014450Y6975480D01*
X22023814Y6969069D01*
X22117810Y6927514D01*
X22126785Y6925067D01*
X22146276Y6922795D01*
X22149916Y6922583D01*
X22398828Y6922583D01*
X22407618Y6926224D01*
X22411259Y6935014D01*
X22411259Y6935015D01*
X22715259Y6935015D01*
X22718900Y6926225D01*
X22727690Y6922584D01*
X22976572Y6922584D01*
X22980263Y6922803D01*
X23000276Y6925182D01*
X23009214Y6927638D01*
X23103156Y6969367D01*
X23112506Y6975793D01*
X23184362Y7047774D01*
X23190773Y7057138D01*
X23232328Y7151134D01*
X23234775Y7160109D01*
X23237047Y7179600D01*
X23237259Y7183240D01*
X23237259Y8262152D01*
X23233618Y8270942D01*
X23224828Y8274583D01*
X22727690Y8274583D01*
X22718900Y8270942D01*
X22715259Y8262152D01*
X22715259Y6935015D01*
X22411259Y6935015D01*
X22411259Y8591014D01*
X22715259Y8591014D01*
X22718900Y8582224D01*
X22727690Y8578583D01*
X23224827Y8578583D01*
X23233617Y8582224D01*
X23237258Y8591014D01*
X23237258Y9669896D01*
X23237039Y9673587D01*
X23234660Y9693600D01*
X23232204Y9702538D01*
X23190475Y9796480D01*
X23184049Y9805830D01*
X23112068Y9877686D01*
X23102704Y9884097D01*
X23008708Y9925652D01*
X22999733Y9928099D01*
X22980242Y9930371D01*
X22976602Y9930583D01*
X22727690Y9930583D01*
X22718900Y9926942D01*
X22715259Y9918152D01*
X22715259Y8591014D01*
X22411259Y8591014D01*
X22411259Y9918151D01*
X22407618Y9926941D01*
X22398828Y9930582D01*
X22149946Y9930582D01*
X22146255Y9930363D01*
X22126242Y9927984D01*
X22117304Y9925528D01*
X22023362Y9883799D01*
X22014012Y9877373D01*
X21942156Y9805392D01*
X21935745Y9796028D01*
X21894189Y9702031D01*
X21893171Y9698295D01*
X21863887Y9660471D01*
X21816434Y9654432D01*
X21780905Y9680008D01*
X21758602Y9713386D01*
X21758600Y9713388D01*
X21755181Y9718505D01*
X21713007Y9746685D01*
X21706974Y9747885D01*
X21706972Y9747886D01*
X21678828Y9753484D01*
X21675817Y9754083D01*
X20910701Y9754083D01*
X20907690Y9753484D01*
X20879546Y9747886D01*
X20879544Y9747885D01*
X20873511Y9746685D01*
X20831337Y9718505D01*
X20827918Y9713388D01*
X20805630Y9680032D01*
X20765856Y9653456D01*
X20718940Y9662788D01*
X20693397Y9698194D01*
X20692203Y9702539D01*
X20650475Y9796480D01*
X20644049Y9805830D01*
X20572068Y9877686D01*
X20562704Y9884097D01*
X20468708Y9925652D01*
X20459733Y9928099D01*
X20440242Y9930371D01*
X20436602Y9930583D01*
X20187690Y9930583D01*
X20178900Y9926942D01*
X20175259Y9918152D01*
X20175259Y8337083D01*
X20156953Y8292889D01*
X20112759Y8274583D01*
X18663759Y8274583D01*
X18619565Y8292889D01*
X18601259Y8337083D01*
X18601259Y8591014D01*
X18905259Y8591014D01*
X18908900Y8582224D01*
X18917690Y8578583D01*
X19858828Y8578583D01*
X19867618Y8582224D01*
X19871259Y8591014D01*
X19871259Y9918151D01*
X19867618Y9926941D01*
X19858828Y9930582D01*
X19609946Y9930582D01*
X19606255Y9930363D01*
X19586242Y9927984D01*
X19577304Y9925528D01*
X19483362Y9883799D01*
X19474009Y9877371D01*
X19432501Y9835791D01*
X19388323Y9817447D01*
X19344113Y9835714D01*
X19302068Y9877686D01*
X19292704Y9884097D01*
X19198708Y9925652D01*
X19189733Y9928099D01*
X19170242Y9930371D01*
X19166602Y9930583D01*
X18917690Y9930583D01*
X18908900Y9926942D01*
X18905259Y9918152D01*
X18905259Y8591014D01*
X18601259Y8591014D01*
X18601259Y9918151D01*
X18597618Y9926941D01*
X18588828Y9930582D01*
X18339946Y9930582D01*
X18336255Y9930363D01*
X18316242Y9927984D01*
X18307304Y9925528D01*
X18213362Y9883799D01*
X18204012Y9877373D01*
X18132156Y9805392D01*
X18125745Y9796028D01*
X18084189Y9702031D01*
X18083171Y9698295D01*
X18053887Y9660471D01*
X18006434Y9654432D01*
X17970905Y9680008D01*
X17948602Y9713386D01*
X17948600Y9713388D01*
X17945181Y9718505D01*
X17903007Y9746685D01*
X17896974Y9747885D01*
X17896972Y9747886D01*
X17868828Y9753484D01*
X17865817Y9754083D01*
X17100701Y9754083D01*
X17097690Y9753484D01*
X17069546Y9747886D01*
X17069544Y9747885D01*
X17063511Y9746685D01*
X17021337Y9718505D01*
X16993157Y9676331D01*
X16991957Y9670298D01*
X16991956Y9670296D01*
X16986765Y9644199D01*
X16985759Y9639141D01*
X16985759Y8768983D01*
X16967453Y8724789D01*
X16923259Y8706483D01*
X14018071Y8706483D01*
X14012625Y8706883D01*
X14008564Y8708277D01*
X13961952Y8706527D01*
X13959607Y8706483D01*
X13940936Y8706483D01*
X13938103Y8705955D01*
X13935238Y8705691D01*
X13935227Y8705810D01*
X13931339Y8705378D01*
X13924275Y8705113D01*
X13904366Y8704365D01*
X13899068Y8702089D01*
X13899064Y8702088D01*
X13891472Y8698826D01*
X13878248Y8694808D01*
X13864459Y8692240D01*
X13841480Y8678075D01*
X13833367Y8673861D01*
X13808563Y8663204D01*
X13804010Y8659464D01*
X13797491Y8652945D01*
X13786093Y8643935D01*
X13775696Y8637526D01*
X13772203Y8632932D01*
X13758020Y8614281D01*
X13752464Y8607918D01*
X13042799Y7898253D01*
X13038665Y7894684D01*
X13034808Y7892799D01*
X13030884Y7888569D01*
X13003082Y7858598D01*
X13001455Y7856909D01*
X12988256Y7843710D01*
X12986623Y7841330D01*
X12984789Y7839123D01*
X12984696Y7839200D01*
X12982258Y7836149D01*
X12963895Y7816354D01*
X12961757Y7810995D01*
X12961755Y7810992D01*
X12958696Y7803324D01*
X12952188Y7791134D01*
X12944250Y7779562D01*
X12942917Y7773943D01*
X12938019Y7753304D01*
X12935258Y7744574D01*
X12926893Y7723608D01*
X12926892Y7723604D01*
X12925257Y7719506D01*
X12924682Y7713642D01*
X12924682Y7704418D01*
X12922993Y7689987D01*
X12920174Y7678108D01*
X12920952Y7672392D01*
X12924111Y7649180D01*
X12924682Y7640752D01*
X12924682Y6856626D01*
X12911766Y6818578D01*
X12836401Y6720361D01*
X12794975Y6696444D01*
X12786817Y6695909D01*
X11133663Y6695909D01*
X11089469Y6714215D01*
X11071163Y6758409D01*
X11083376Y6793281D01*
X11083805Y6793623D01*
X11086862Y6799961D01*
X11091255Y6805464D01*
X11091699Y6805110D01*
X11096458Y6811811D01*
X11250845Y6966198D01*
X11296184Y6984494D01*
X11327266Y6983924D01*
X11327270Y6983924D01*
X11331713Y6983843D01*
X11407849Y7004600D01*
X11460203Y7018873D01*
X11460206Y7018874D01*
X11464504Y7020046D01*
X11468300Y7022377D01*
X11468303Y7022378D01*
X11577998Y7089732D01*
X11581796Y7092064D01*
X11674161Y7194107D01*
X11734173Y7317972D01*
X11738283Y7342397D01*
X11751634Y7421762D01*
X11757008Y7453702D01*
X11757153Y7465562D01*
X11737641Y7601809D01*
X11693717Y7698415D01*
X11682517Y7723048D01*
X11682516Y7723050D01*
X11680673Y7727103D01*
X11590829Y7831373D01*
X11475331Y7906234D01*
X11471067Y7907509D01*
X11471063Y7907511D01*
X11347733Y7944395D01*
X11347730Y7944395D01*
X11343465Y7945671D01*
X11275601Y7946086D01*
X11210283Y7946485D01*
X11210282Y7946485D01*
X11205830Y7946512D01*
X11073492Y7908689D01*
X10957088Y7835244D01*
X10954145Y7831912D01*
X10954143Y7831910D01*
X10902949Y7773943D01*
X10865977Y7732080D01*
X10807482Y7607491D01*
X10786307Y7471493D01*
X10786884Y7467080D01*
X10786884Y7467078D01*
X10788293Y7456302D01*
X10804153Y7335017D01*
X10850794Y7229019D01*
X10857675Y7213380D01*
X10858719Y7165556D01*
X10825640Y7131001D01*
X10800468Y7125708D01*
X7418237Y7125708D01*
X7410258Y7127068D01*
X7410188Y7126452D01*
X7403193Y7127249D01*
X7396555Y7129580D01*
X7389563Y7128802D01*
X7365202Y7126091D01*
X7358290Y7125708D01*
X7350211Y7125708D01*
X7342660Y7123986D01*
X7335702Y7122809D01*
X7304734Y7119362D01*
X7298771Y7115629D01*
X7294195Y7114035D01*
X7289829Y7111934D01*
X7282968Y7110369D01*
X7277464Y7105983D01*
X7258611Y7090960D01*
X7252827Y7086865D01*
X7249120Y7084544D01*
X7249118Y7084542D01*
X7246124Y7082668D01*
X7240453Y7076997D01*
X7235209Y7072312D01*
X7210714Y7052793D01*
X7207655Y7046451D01*
X7203266Y7040953D01*
X7202821Y7041308D01*
X7198061Y7034605D01*
X6135436Y5971980D01*
X6091242Y5953674D01*
X5259985Y5953674D01*
X5215791Y5971980D01*
X5186798Y6000973D01*
X5168492Y6045167D01*
X5169358Y6055536D01*
X5190550Y6181503D01*
X5190950Y6183879D01*
X5191095Y6195739D01*
X5171583Y6331986D01*
X5131532Y6420073D01*
X5116459Y6453225D01*
X5116458Y6453227D01*
X5114615Y6457280D01*
X5024771Y6561550D01*
X4909273Y6636411D01*
X4905009Y6637686D01*
X4905005Y6637688D01*
X4781675Y6674572D01*
X4781672Y6674572D01*
X4777407Y6675848D01*
X4709543Y6676263D01*
X4644225Y6676662D01*
X4644224Y6676662D01*
X4639772Y6676689D01*
X4507434Y6638866D01*
X4450174Y6602738D01*
X4428732Y6589209D01*
X4381587Y6581108D01*
X4342523Y6608716D01*
X4332881Y6642067D01*
X4332881Y8364769D01*
X4351187Y8408963D01*
X4357333Y8414353D01*
X4457687Y8491358D01*
X4457691Y8491362D01*
X4460936Y8493852D01*
X4552622Y8613339D01*
X4569027Y8652945D01*
X4608690Y8748699D01*
X4608690Y8748700D01*
X4610258Y8752485D01*
X4629917Y8901807D01*
X4610258Y9051129D01*
X4552622Y9190275D01*
X4460936Y9309762D01*
X4457691Y9312252D01*
X4457687Y9312256D01*
X4357333Y9389261D01*
X4333416Y9430687D01*
X4332881Y9438845D01*
X4332881Y9865921D01*
X4333280Y9871363D01*
X4334674Y9875422D01*
X4332925Y9922020D01*
X4332881Y9924364D01*
X4332881Y9943050D01*
X4332353Y9945886D01*
X4332088Y9948749D01*
X4332207Y9948760D01*
X4331775Y9952651D01*
X4330979Y9973856D01*
X4330763Y9979620D01*
X4325224Y9992514D01*
X4321206Y10005739D01*
X4319695Y10013851D01*
X4318638Y10019527D01*
X4304473Y10042506D01*
X4300259Y10050619D01*
X4289602Y10075423D01*
X4285862Y10079976D01*
X4279343Y10086495D01*
X4270333Y10097893D01*
X4266952Y10103377D01*
X4263924Y10108290D01*
X4240679Y10125966D01*
X4234316Y10131522D01*
X2164039Y12201799D01*
X2145733Y12245993D01*
X2153890Y12276865D01*
X2165801Y12297831D01*
X2165801Y12297832D01*
X2167312Y12300491D01*
X2227821Y12482388D01*
X2232542Y12519753D01*
X2251627Y12670833D01*
X2251627Y12670834D01*
X2251847Y12672575D01*
X2252159Y12694928D01*
X2252206Y12698262D01*
X2252206Y12698267D01*
X2252230Y12700000D01*
X2251827Y12704117D01*
X2250886Y12713714D01*
X2827866Y12713714D01*
X2831321Y12672575D01*
X2842913Y12534530D01*
X2843907Y12522689D01*
X2896746Y12338417D01*
X2984370Y12167918D01*
X3103443Y12017686D01*
X3249428Y11893443D01*
X3252092Y11891954D01*
X3252095Y11891952D01*
X3382402Y11819126D01*
X3416765Y11799921D01*
X3419669Y11798977D01*
X3419670Y11798977D01*
X3596168Y11741629D01*
X3596173Y11741628D01*
X3599081Y11740683D01*
X3789430Y11717985D01*
X3792472Y11718219D01*
X3792475Y11718219D01*
X3977514Y11732457D01*
X3977519Y11732458D01*
X3980562Y11732692D01*
X4000873Y11738363D01*
X4162260Y11783423D01*
X4162264Y11783424D01*
X4165199Y11784244D01*
X4336305Y11870676D01*
X4338703Y11872549D01*
X4338707Y11872552D01*
X4437406Y11949665D01*
X4487365Y11988697D01*
X4532827Y12041365D01*
X4610630Y12131500D01*
X4610634Y12131505D01*
X4612624Y12133811D01*
X4614132Y12136465D01*
X4705801Y12297830D01*
X4705803Y12297835D01*
X4707312Y12300491D01*
X4767821Y12482388D01*
X4772542Y12519753D01*
X4791627Y12670833D01*
X4791627Y12670834D01*
X4791847Y12672575D01*
X4792159Y12694928D01*
X4792206Y12698262D01*
X4792206Y12698267D01*
X4792230Y12700000D01*
X4791827Y12704117D01*
X4790886Y12713714D01*
X5367866Y12713714D01*
X5371321Y12672575D01*
X5382913Y12534530D01*
X5383907Y12522689D01*
X5436746Y12338417D01*
X5524370Y12167918D01*
X5643443Y12017686D01*
X5789428Y11893443D01*
X5792092Y11891954D01*
X5792095Y11891952D01*
X5922402Y11819126D01*
X5956765Y11799921D01*
X5959669Y11798977D01*
X5959670Y11798977D01*
X6136168Y11741629D01*
X6136173Y11741628D01*
X6139081Y11740683D01*
X6329430Y11717985D01*
X6332472Y11718219D01*
X6332475Y11718219D01*
X6517514Y11732457D01*
X6517519Y11732458D01*
X6520562Y11732692D01*
X6540873Y11738363D01*
X6702260Y11783423D01*
X6702264Y11783424D01*
X6705199Y11784244D01*
X6876305Y11870676D01*
X6878703Y11872549D01*
X6878707Y11872552D01*
X6977406Y11949665D01*
X7027365Y11988697D01*
X7072827Y12041365D01*
X7150630Y12131500D01*
X7150634Y12131505D01*
X7152624Y12133811D01*
X7154132Y12136465D01*
X7245801Y12297830D01*
X7245803Y12297835D01*
X7247312Y12300491D01*
X7307821Y12482388D01*
X7312542Y12519753D01*
X7331627Y12670833D01*
X7331627Y12670834D01*
X7331847Y12672575D01*
X7332159Y12694928D01*
X7332206Y12698262D01*
X7332206Y12698267D01*
X7332230Y12700000D01*
X7331827Y12704117D01*
X7330886Y12713714D01*
X7907866Y12713714D01*
X7911321Y12672575D01*
X7922913Y12534530D01*
X7923907Y12522689D01*
X7976746Y12338417D01*
X8064370Y12167918D01*
X8183443Y12017686D01*
X8329428Y11893443D01*
X8332092Y11891954D01*
X8332095Y11891952D01*
X8462402Y11819126D01*
X8496765Y11799921D01*
X8499669Y11798977D01*
X8499670Y11798977D01*
X8676168Y11741629D01*
X8676173Y11741628D01*
X8679081Y11740683D01*
X8869430Y11717985D01*
X8872472Y11718219D01*
X8872475Y11718219D01*
X9057514Y11732457D01*
X9057519Y11732458D01*
X9060562Y11732692D01*
X9080873Y11738363D01*
X9242260Y11783423D01*
X9242264Y11783424D01*
X9245199Y11784244D01*
X9416305Y11870676D01*
X9418703Y11872549D01*
X9418707Y11872552D01*
X9517406Y11949665D01*
X9567365Y11988697D01*
X9612827Y12041365D01*
X9690630Y12131500D01*
X9690634Y12131505D01*
X9692624Y12133811D01*
X9694132Y12136465D01*
X9785801Y12297830D01*
X9785803Y12297835D01*
X9787312Y12300491D01*
X9847821Y12482388D01*
X9852542Y12519753D01*
X9871627Y12670833D01*
X9871627Y12670834D01*
X9871847Y12672575D01*
X9872159Y12694928D01*
X9872206Y12698262D01*
X9872206Y12698267D01*
X9872230Y12700000D01*
X9871827Y12704117D01*
X9870886Y12713714D01*
X10447866Y12713714D01*
X10451321Y12672575D01*
X10462913Y12534530D01*
X10463907Y12522689D01*
X10516746Y12338417D01*
X10604370Y12167918D01*
X10723443Y12017686D01*
X10869428Y11893443D01*
X10872092Y11891954D01*
X10872095Y11891952D01*
X11002402Y11819126D01*
X11036765Y11799921D01*
X11039669Y11798977D01*
X11039670Y11798977D01*
X11216168Y11741629D01*
X11216173Y11741628D01*
X11219081Y11740683D01*
X11409430Y11717985D01*
X11412472Y11718219D01*
X11412475Y11718219D01*
X11597514Y11732457D01*
X11597519Y11732458D01*
X11600562Y11732692D01*
X11620873Y11738363D01*
X11782260Y11783423D01*
X11782264Y11783424D01*
X11785199Y11784244D01*
X11956305Y11870676D01*
X11958703Y11872549D01*
X11958707Y11872552D01*
X12057406Y11949665D01*
X12107365Y11988697D01*
X12152827Y12041365D01*
X12230630Y12131500D01*
X12230634Y12131505D01*
X12232624Y12133811D01*
X12234132Y12136465D01*
X12325801Y12297830D01*
X12325803Y12297835D01*
X12327312Y12300491D01*
X12387821Y12482388D01*
X12392542Y12519753D01*
X12411627Y12670833D01*
X12411627Y12670834D01*
X12411847Y12672575D01*
X12412159Y12694928D01*
X12412206Y12698262D01*
X12412206Y12698267D01*
X12412230Y12700000D01*
X12411827Y12704117D01*
X12410886Y12713714D01*
X12987866Y12713714D01*
X12991321Y12672575D01*
X13002913Y12534530D01*
X13003907Y12522689D01*
X13056746Y12338417D01*
X13144370Y12167918D01*
X13263443Y12017686D01*
X13409428Y11893443D01*
X13412092Y11891954D01*
X13412095Y11891952D01*
X13542402Y11819126D01*
X13576765Y11799921D01*
X13579669Y11798977D01*
X13579670Y11798977D01*
X13756168Y11741629D01*
X13756173Y11741628D01*
X13759081Y11740683D01*
X13949430Y11717985D01*
X13952472Y11718219D01*
X13952475Y11718219D01*
X14137514Y11732457D01*
X14137519Y11732458D01*
X14140562Y11732692D01*
X14160873Y11738363D01*
X14322260Y11783423D01*
X14322264Y11783424D01*
X14325199Y11784244D01*
X14496305Y11870676D01*
X14498703Y11872549D01*
X14498707Y11872552D01*
X14597406Y11949665D01*
X14647365Y11988697D01*
X14692827Y12041365D01*
X14770630Y12131500D01*
X14770634Y12131505D01*
X14772624Y12133811D01*
X14774132Y12136465D01*
X14865801Y12297830D01*
X14865803Y12297835D01*
X14867312Y12300491D01*
X14927821Y12482388D01*
X14932542Y12519753D01*
X14951627Y12670833D01*
X14951627Y12670834D01*
X14951847Y12672575D01*
X14952159Y12694928D01*
X14952206Y12698262D01*
X14952206Y12698267D01*
X14952230Y12700000D01*
X14951827Y12704117D01*
X14950886Y12713714D01*
X15527866Y12713714D01*
X15531321Y12672575D01*
X15542913Y12534530D01*
X15543907Y12522689D01*
X15596746Y12338417D01*
X15684370Y12167918D01*
X15803443Y12017686D01*
X15949428Y11893443D01*
X15952092Y11891954D01*
X15952095Y11891952D01*
X16082402Y11819126D01*
X16116765Y11799921D01*
X16119669Y11798977D01*
X16119670Y11798977D01*
X16296168Y11741629D01*
X16296173Y11741628D01*
X16299081Y11740683D01*
X16489430Y11717985D01*
X16492472Y11718219D01*
X16492475Y11718219D01*
X16677514Y11732457D01*
X16677519Y11732458D01*
X16680562Y11732692D01*
X16700873Y11738363D01*
X16862260Y11783423D01*
X16862264Y11783424D01*
X16865199Y11784244D01*
X17036305Y11870676D01*
X17038703Y11872549D01*
X17038707Y11872552D01*
X17137406Y11949665D01*
X17187365Y11988697D01*
X17232827Y12041365D01*
X17310630Y12131500D01*
X17310634Y12131505D01*
X17312624Y12133811D01*
X17314132Y12136465D01*
X17405801Y12297830D01*
X17405803Y12297835D01*
X17407312Y12300491D01*
X17467821Y12482388D01*
X17472542Y12519753D01*
X17491627Y12670833D01*
X17491627Y12670834D01*
X17491847Y12672575D01*
X17492159Y12694928D01*
X17492206Y12698262D01*
X17492206Y12698267D01*
X17492230Y12700000D01*
X17491827Y12704117D01*
X17490886Y12713714D01*
X18067866Y12713714D01*
X18071321Y12672575D01*
X18082913Y12534530D01*
X18083907Y12522689D01*
X18136746Y12338417D01*
X18224370Y12167918D01*
X18343443Y12017686D01*
X18489428Y11893443D01*
X18492092Y11891954D01*
X18492095Y11891952D01*
X18622402Y11819126D01*
X18656765Y11799921D01*
X18659669Y11798977D01*
X18659670Y11798977D01*
X18836168Y11741629D01*
X18836173Y11741628D01*
X18839081Y11740683D01*
X19029430Y11717985D01*
X19032472Y11718219D01*
X19032475Y11718219D01*
X19217514Y11732457D01*
X19217519Y11732458D01*
X19220562Y11732692D01*
X19240873Y11738363D01*
X19402260Y11783423D01*
X19402264Y11783424D01*
X19405199Y11784244D01*
X19576305Y11870676D01*
X19578703Y11872549D01*
X19578707Y11872552D01*
X19677406Y11949665D01*
X19727365Y11988697D01*
X19772827Y12041365D01*
X19850630Y12131500D01*
X19850634Y12131505D01*
X19852624Y12133811D01*
X19854132Y12136465D01*
X19945801Y12297830D01*
X19945803Y12297835D01*
X19947312Y12300491D01*
X20007821Y12482388D01*
X20012542Y12519753D01*
X20031627Y12670833D01*
X20031627Y12670834D01*
X20031847Y12672575D01*
X20032159Y12694928D01*
X20032206Y12698262D01*
X20032206Y12698267D01*
X20032230Y12700000D01*
X20031827Y12704117D01*
X20030886Y12713714D01*
X20607866Y12713714D01*
X20611321Y12672575D01*
X20622913Y12534530D01*
X20623907Y12522689D01*
X20676746Y12338417D01*
X20764370Y12167918D01*
X20883443Y12017686D01*
X21029428Y11893443D01*
X21032092Y11891954D01*
X21032095Y11891952D01*
X21162402Y11819126D01*
X21196765Y11799921D01*
X21199669Y11798977D01*
X21199670Y11798977D01*
X21376168Y11741629D01*
X21376173Y11741628D01*
X21379081Y11740683D01*
X21569430Y11717985D01*
X21572472Y11718219D01*
X21572475Y11718219D01*
X21757514Y11732457D01*
X21757519Y11732458D01*
X21760562Y11732692D01*
X21780873Y11738363D01*
X21942260Y11783423D01*
X21942264Y11783424D01*
X21945199Y11784244D01*
X22116305Y11870676D01*
X22118703Y11872549D01*
X22118707Y11872552D01*
X22217406Y11949665D01*
X22267365Y11988697D01*
X22312827Y12041365D01*
X22390630Y12131500D01*
X22390634Y12131505D01*
X22392624Y12133811D01*
X22394132Y12136465D01*
X22485801Y12297830D01*
X22485803Y12297835D01*
X22487312Y12300491D01*
X22547821Y12482388D01*
X22552542Y12519753D01*
X22554409Y12534530D01*
X22984288Y12534530D01*
X22985137Y12521566D01*
X22986031Y12515920D01*
X23036826Y12315911D01*
X23038729Y12310538D01*
X23125126Y12123129D01*
X23127977Y12118190D01*
X23247079Y11949665D01*
X23250784Y11945328D01*
X23398602Y11801329D01*
X23403035Y11797740D01*
X23574617Y11683093D01*
X23579633Y11680369D01*
X23769240Y11598908D01*
X23774657Y11597148D01*
X23965875Y11553880D01*
X23975252Y11555491D01*
X23978000Y11559379D01*
X23978000Y11568320D01*
X24282000Y11568320D01*
X24285641Y11559530D01*
X24291208Y11557224D01*
X24397714Y11572667D01*
X24403263Y11573999D01*
X24598672Y11640331D01*
X24603884Y11642652D01*
X24783933Y11743484D01*
X24788635Y11746715D01*
X24947299Y11878675D01*
X24951325Y11882701D01*
X25083285Y12041365D01*
X25086516Y12046067D01*
X25187348Y12226116D01*
X25189669Y12231328D01*
X25256001Y12426737D01*
X25257333Y12432286D01*
X25272327Y12535696D01*
X25269985Y12544918D01*
X25264805Y12548000D01*
X24294431Y12548000D01*
X24285641Y12544359D01*
X24282000Y12535569D01*
X24282000Y11568320D01*
X23978000Y11568320D01*
X23978000Y12535569D01*
X23974359Y12544359D01*
X23965569Y12548000D01*
X22995836Y12548000D01*
X22988161Y12544821D01*
X22984288Y12534530D01*
X22554409Y12534530D01*
X22571627Y12670833D01*
X22571627Y12670834D01*
X22571847Y12672575D01*
X22572159Y12694928D01*
X22572206Y12698262D01*
X22572206Y12698267D01*
X22572230Y12700000D01*
X22571827Y12704117D01*
X22556116Y12864345D01*
X22987314Y12864345D01*
X22989897Y12855189D01*
X22995591Y12852000D01*
X23965569Y12852000D01*
X23974359Y12855641D01*
X23978000Y12864431D01*
X23978000Y13832446D01*
X23974359Y13841236D01*
X23969214Y13843367D01*
X23832873Y13819940D01*
X23827350Y13818461D01*
X23633750Y13747038D01*
X23628601Y13744582D01*
X23451255Y13639072D01*
X23446633Y13635713D01*
X23291488Y13499655D01*
X23287555Y13495510D01*
X23159804Y13333459D01*
X23156694Y13328670D01*
X23060606Y13146039D01*
X23058427Y13140779D01*
X22997230Y12943689D01*
X22996046Y12938118D01*
X22987314Y12864345D01*
X22556116Y12864345D01*
X22553822Y12887743D01*
X22553524Y12890783D01*
X22498117Y13074299D01*
X22408120Y13243558D01*
X22286962Y13392113D01*
X22139256Y13514306D01*
X21970629Y13605482D01*
X21834451Y13647636D01*
X21790420Y13661266D01*
X21790417Y13661267D01*
X21787505Y13662168D01*
X21784472Y13662487D01*
X21784471Y13662487D01*
X21736787Y13667499D01*
X21596857Y13682206D01*
X21593824Y13681930D01*
X21593820Y13681930D01*
X21511118Y13674403D01*
X21405948Y13664832D01*
X21222050Y13610708D01*
X21052167Y13521895D01*
X20902770Y13401777D01*
X20779549Y13254928D01*
X20723277Y13152570D01*
X20694188Y13099656D01*
X20687198Y13086942D01*
X20629234Y12904217D01*
X20607866Y12713714D01*
X20030886Y12713714D01*
X20013822Y12887743D01*
X20013524Y12890783D01*
X19958117Y13074299D01*
X19868120Y13243558D01*
X19746962Y13392113D01*
X19599256Y13514306D01*
X19430629Y13605482D01*
X19294451Y13647636D01*
X19250420Y13661266D01*
X19250417Y13661267D01*
X19247505Y13662168D01*
X19244472Y13662487D01*
X19244471Y13662487D01*
X19196787Y13667499D01*
X19056857Y13682206D01*
X19053824Y13681930D01*
X19053820Y13681930D01*
X18971118Y13674403D01*
X18865948Y13664832D01*
X18682050Y13610708D01*
X18512167Y13521895D01*
X18362770Y13401777D01*
X18239549Y13254928D01*
X18183277Y13152570D01*
X18154188Y13099656D01*
X18147198Y13086942D01*
X18089234Y12904217D01*
X18067866Y12713714D01*
X17490886Y12713714D01*
X17473822Y12887743D01*
X17473524Y12890783D01*
X17418117Y13074299D01*
X17328120Y13243558D01*
X17206962Y13392113D01*
X17059256Y13514306D01*
X16890629Y13605482D01*
X16754451Y13647636D01*
X16710420Y13661266D01*
X16710417Y13661267D01*
X16707505Y13662168D01*
X16704472Y13662487D01*
X16704471Y13662487D01*
X16656787Y13667499D01*
X16516857Y13682206D01*
X16513824Y13681930D01*
X16513820Y13681930D01*
X16431118Y13674403D01*
X16325948Y13664832D01*
X16142050Y13610708D01*
X15972167Y13521895D01*
X15822770Y13401777D01*
X15699549Y13254928D01*
X15643277Y13152570D01*
X15614188Y13099656D01*
X15607198Y13086942D01*
X15549234Y12904217D01*
X15527866Y12713714D01*
X14950886Y12713714D01*
X14933822Y12887743D01*
X14933524Y12890783D01*
X14878117Y13074299D01*
X14788120Y13243558D01*
X14666962Y13392113D01*
X14519256Y13514306D01*
X14350629Y13605482D01*
X14214451Y13647636D01*
X14170420Y13661266D01*
X14170417Y13661267D01*
X14167505Y13662168D01*
X14164472Y13662487D01*
X14164471Y13662487D01*
X14116787Y13667499D01*
X13976857Y13682206D01*
X13973824Y13681930D01*
X13973820Y13681930D01*
X13891118Y13674403D01*
X13785948Y13664832D01*
X13602050Y13610708D01*
X13432167Y13521895D01*
X13282770Y13401777D01*
X13159549Y13254928D01*
X13103277Y13152570D01*
X13074188Y13099656D01*
X13067198Y13086942D01*
X13009234Y12904217D01*
X12987866Y12713714D01*
X12410886Y12713714D01*
X12393822Y12887743D01*
X12393524Y12890783D01*
X12338117Y13074299D01*
X12248120Y13243558D01*
X12126962Y13392113D01*
X11979256Y13514306D01*
X11810629Y13605482D01*
X11674451Y13647636D01*
X11630420Y13661266D01*
X11630417Y13661267D01*
X11627505Y13662168D01*
X11624472Y13662487D01*
X11624471Y13662487D01*
X11576787Y13667499D01*
X11436857Y13682206D01*
X11433824Y13681930D01*
X11433820Y13681930D01*
X11351118Y13674403D01*
X11245948Y13664832D01*
X11062050Y13610708D01*
X10892167Y13521895D01*
X10742770Y13401777D01*
X10619549Y13254928D01*
X10563277Y13152570D01*
X10534188Y13099656D01*
X10527198Y13086942D01*
X10469234Y12904217D01*
X10447866Y12713714D01*
X9870886Y12713714D01*
X9853822Y12887743D01*
X9853524Y12890783D01*
X9798117Y13074299D01*
X9708120Y13243558D01*
X9586962Y13392113D01*
X9439256Y13514306D01*
X9270629Y13605482D01*
X9134451Y13647636D01*
X9090420Y13661266D01*
X9090417Y13661267D01*
X9087505Y13662168D01*
X9084472Y13662487D01*
X9084471Y13662487D01*
X9036787Y13667499D01*
X8896857Y13682206D01*
X8893824Y13681930D01*
X8893820Y13681930D01*
X8811118Y13674403D01*
X8705948Y13664832D01*
X8522050Y13610708D01*
X8352167Y13521895D01*
X8202770Y13401777D01*
X8079549Y13254928D01*
X8023277Y13152570D01*
X7994188Y13099656D01*
X7987198Y13086942D01*
X7929234Y12904217D01*
X7907866Y12713714D01*
X7330886Y12713714D01*
X7313822Y12887743D01*
X7313524Y12890783D01*
X7258117Y13074299D01*
X7168120Y13243558D01*
X7046962Y13392113D01*
X6899256Y13514306D01*
X6730629Y13605482D01*
X6594451Y13647636D01*
X6550420Y13661266D01*
X6550417Y13661267D01*
X6547505Y13662168D01*
X6544472Y13662487D01*
X6544471Y13662487D01*
X6496787Y13667499D01*
X6356857Y13682206D01*
X6353824Y13681930D01*
X6353820Y13681930D01*
X6271118Y13674403D01*
X6165948Y13664832D01*
X5982050Y13610708D01*
X5812167Y13521895D01*
X5662770Y13401777D01*
X5539549Y13254928D01*
X5483277Y13152570D01*
X5454188Y13099656D01*
X5447198Y13086942D01*
X5389234Y12904217D01*
X5367866Y12713714D01*
X4790886Y12713714D01*
X4773822Y12887743D01*
X4773524Y12890783D01*
X4718117Y13074299D01*
X4628120Y13243558D01*
X4506962Y13392113D01*
X4359256Y13514306D01*
X4190629Y13605482D01*
X4054451Y13647636D01*
X4010420Y13661266D01*
X4010417Y13661267D01*
X4007505Y13662168D01*
X4004472Y13662487D01*
X4004471Y13662487D01*
X3956787Y13667499D01*
X3816857Y13682206D01*
X3813824Y13681930D01*
X3813820Y13681930D01*
X3731118Y13674403D01*
X3625948Y13664832D01*
X3442050Y13610708D01*
X3272167Y13521895D01*
X3122770Y13401777D01*
X2999549Y13254928D01*
X2943277Y13152570D01*
X2914188Y13099656D01*
X2907198Y13086942D01*
X2849234Y12904217D01*
X2827866Y12713714D01*
X2250886Y12713714D01*
X2233822Y12887743D01*
X2233524Y12890783D01*
X2178117Y13074299D01*
X2088120Y13243558D01*
X1966962Y13392113D01*
X1819256Y13514306D01*
X1650629Y13605482D01*
X1514451Y13647636D01*
X1470420Y13661266D01*
X1470417Y13661267D01*
X1467505Y13662168D01*
X1464472Y13662487D01*
X1464471Y13662487D01*
X1416787Y13667499D01*
X1276857Y13682206D01*
X1273824Y13681930D01*
X1273820Y13681930D01*
X1191118Y13674403D01*
X1085948Y13664832D01*
X902050Y13610708D01*
X732167Y13521895D01*
X582770Y13401777D01*
X459549Y13254928D01*
X403277Y13152570D01*
X374188Y13099656D01*
X367198Y13086942D01*
X309234Y12904217D01*
X287866Y12713714D01*
X291321Y12672575D01*
X302913Y12534530D01*
X303907Y12522689D01*
X356746Y12338417D01*
X444370Y12167918D01*
X563443Y12017686D01*
X709428Y11893443D01*
X712092Y11891954D01*
X712095Y11891952D01*
X842402Y11819126D01*
X876765Y11799921D01*
X879669Y11798977D01*
X879670Y11798977D01*
X1056168Y11741629D01*
X1056173Y11741628D01*
X1059081Y11740683D01*
X1249430Y11717985D01*
X1252472Y11718219D01*
X1252475Y11718219D01*
X1437514Y11732457D01*
X1437519Y11732458D01*
X1440562Y11732692D01*
X1460873Y11738363D01*
X1622260Y11783423D01*
X1622264Y11783424D01*
X1625199Y11784244D01*
X1651917Y11797740D01*
X1694256Y11819126D01*
X1741956Y11822712D01*
X1766629Y11807533D01*
X3754775Y9819386D01*
X3773081Y9775192D01*
X3773081Y9438845D01*
X3754775Y9394651D01*
X3748629Y9389261D01*
X3648275Y9312256D01*
X3648271Y9312252D01*
X3645026Y9309762D01*
X3553340Y9190275D01*
X3495704Y9051129D01*
X3476045Y8901807D01*
X3495704Y8752485D01*
X3497272Y8748700D01*
X3497272Y8748699D01*
X3536935Y8652945D01*
X3553340Y8613339D01*
X3645026Y8493852D01*
X3648271Y8491362D01*
X3648275Y8491358D01*
X3748629Y8414353D01*
X3772546Y8372927D01*
X3773081Y8364769D01*
X3773081Y6005874D01*
X3772681Y6000428D01*
X3771287Y5996367D01*
X3772184Y5972485D01*
X3773037Y5949755D01*
X3773081Y5947410D01*
X3773081Y5928739D01*
X3773609Y5925906D01*
X3773873Y5923041D01*
X3773754Y5923030D01*
X3774186Y5919142D01*
X3775199Y5892169D01*
X3777475Y5886871D01*
X3777476Y5886867D01*
X3780738Y5879275D01*
X3784756Y5866051D01*
X3787324Y5852262D01*
X3801487Y5829286D01*
X3805703Y5821170D01*
X3816360Y5796366D01*
X3820100Y5791813D01*
X3826619Y5785294D01*
X3835629Y5773896D01*
X3842038Y5763499D01*
X3846632Y5760006D01*
X3865283Y5745823D01*
X3871646Y5740267D01*
X4101232Y5510680D01*
X4119538Y5466486D01*
X4101232Y5422292D01*
X4063953Y5404371D01*
X4045799Y5402350D01*
X4038902Y5401968D01*
X4030821Y5401968D01*
X4023277Y5400247D01*
X4016308Y5399068D01*
X3994231Y5396611D01*
X3985343Y5395622D01*
X3985333Y5395710D01*
X3974543Y5393885D01*
X2035590Y5393885D01*
X1991396Y5412191D01*
X1762115Y5641472D01*
X1743809Y5685666D01*
X1744675Y5696035D01*
X1756094Y5763910D01*
X1766267Y5824378D01*
X1766412Y5836238D01*
X1746900Y5972485D01*
X1689932Y6097779D01*
X1600088Y6202049D01*
X1484590Y6276910D01*
X1480326Y6278185D01*
X1480322Y6278187D01*
X1356992Y6315071D01*
X1356989Y6315071D01*
X1352724Y6316347D01*
X1284860Y6316762D01*
X1219542Y6317161D01*
X1219541Y6317161D01*
X1215089Y6317188D01*
X1082751Y6279365D01*
X966347Y6205920D01*
X963404Y6202588D01*
X963402Y6202586D01*
X904692Y6136109D01*
X875236Y6102756D01*
X816741Y5978167D01*
X816056Y5973771D01*
X816056Y5973769D01*
X810831Y5940211D01*
X785943Y5899359D01*
X739459Y5888071D01*
X704881Y5905633D01*
X-1049194Y7659707D01*
X-1067500Y7703901D01*
X-1067500Y11694169D01*
X-1049194Y11738363D01*
X-1021809Y11754366D01*
X-972527Y11768126D01*
X-917740Y11783423D01*
X-917736Y11783424D01*
X-914801Y11784244D01*
X-743695Y11870676D01*
X-741297Y11872549D01*
X-741293Y11872552D01*
X-642594Y11949665D01*
X-592635Y11988697D01*
X-547173Y12041365D01*
X-469370Y12131500D01*
X-469366Y12131505D01*
X-467376Y12133811D01*
X-465868Y12136465D01*
X-374199Y12297830D01*
X-374197Y12297835D01*
X-372688Y12300491D01*
X-312179Y12482388D01*
X-307458Y12519753D01*
X-288373Y12670833D01*
X-288373Y12670834D01*
X-288153Y12672575D01*
X-287841Y12694928D01*
X-287794Y12698262D01*
X-287794Y12698267D01*
X-287770Y12700000D01*
X-288173Y12704117D01*
X-306178Y12887743D01*
X-306476Y12890783D01*
X-361883Y13074299D01*
X-451880Y13243558D01*
X-573038Y13392113D01*
X-720744Y13514306D01*
X-889371Y13605482D01*
X-1025549Y13647636D01*
X-1069580Y13661266D01*
X-1069583Y13661267D01*
X-1072495Y13662168D01*
X-1075528Y13662487D01*
X-1075529Y13662487D01*
X-1123213Y13667499D01*
X-1263143Y13682206D01*
X-1266176Y13681930D01*
X-1266180Y13681930D01*
X-1348882Y13674403D01*
X-1454052Y13664832D01*
X-1637950Y13610708D01*
X-1807833Y13521895D01*
X-1957230Y13401777D01*
X-2080451Y13254928D01*
X-2136723Y13152570D01*
X-2165812Y13099656D01*
X-2172802Y13086942D01*
X-2230766Y12904217D01*
X-2252134Y12713714D01*
X-2248679Y12672575D01*
X-2237087Y12534530D01*
X-2236093Y12522689D01*
X-2183254Y12338417D01*
X-2095630Y12167918D01*
X-1976557Y12017686D01*
X-1830572Y11893443D01*
X-1827908Y11891954D01*
X-1827905Y11891952D01*
X-1697598Y11819126D01*
X-1663235Y11799921D01*
X-1660331Y11798977D01*
X-1660330Y11798977D01*
X-1515686Y11751979D01*
X-1479312Y11720912D01*
X-1472500Y11692538D01*
X-1472500Y7639333D01*
X-1473860Y7631353D01*
X-1473245Y7631283D01*
X-1474042Y7624286D01*
X-1476373Y7617648D01*
X-1472882Y7586281D01*
X-1472500Y7579394D01*
X-1472500Y7571304D01*
X-1470779Y7563760D01*
X-1469600Y7556791D01*
X-1466154Y7525827D01*
X-1462418Y7519860D01*
X-1460824Y7515283D01*
X-1458726Y7510924D01*
X-1457161Y7504061D01*
X-1452775Y7498557D01*
X-1437752Y7479704D01*
X-1433657Y7473920D01*
X-1431336Y7470213D01*
X-1429460Y7467217D01*
X-1423789Y7461546D01*
X-1419104Y7456302D01*
X-1399585Y7431807D01*
X-1393243Y7428748D01*
X-1387745Y7424359D01*
X-1388100Y7423914D01*
X-1381397Y7419154D01*
X1907575Y4130182D01*
X1912256Y4123577D01*
X1912741Y4123963D01*
X1917124Y4118452D01*
X1920170Y4112110D01*
X1925664Y4107717D01*
X1925665Y4107715D01*
X1944810Y4092405D01*
X1949969Y4087788D01*
X1955679Y4082078D01*
X1958647Y4080213D01*
X1958649Y4080211D01*
X1962220Y4077967D01*
X1967996Y4073862D01*
X1986825Y4058804D01*
X1986828Y4058803D01*
X1992323Y4054408D01*
X1999181Y4052831D01*
X2003542Y4050723D01*
X2008114Y4049122D01*
X2014073Y4045376D01*
X2021066Y4044585D01*
X2021067Y4044585D01*
X2045018Y4041877D01*
X2052000Y4040684D01*
X2056264Y4039704D01*
X2059713Y4038911D01*
X2067739Y4038911D01*
X2074759Y4038515D01*
X2105877Y4034997D01*
X2112522Y4037318D01*
X2119518Y4038102D01*
X2119581Y4037537D01*
X2127686Y4038911D01*
X3125923Y4038911D01*
X3170117Y4020605D01*
X3188423Y3976411D01*
X3175508Y3938363D01*
X3148263Y3902856D01*
X3106682Y3848667D01*
X3105117Y3844890D01*
X3105117Y3844889D01*
X3052456Y3717752D01*
X3048170Y3707405D01*
X3047635Y3703343D01*
X3047635Y3703342D01*
X3036369Y3617767D01*
X3028212Y3555812D01*
X3028747Y3551748D01*
X3046769Y3414864D01*
X3048170Y3404219D01*
X3049736Y3400438D01*
X3049737Y3400435D01*
X3101076Y3276492D01*
X3106682Y3262957D01*
X3199763Y3141652D01*
X3203008Y3139162D01*
X3203011Y3139159D01*
X3238373Y3112025D01*
X3321067Y3048571D01*
X3324847Y3047005D01*
X3324851Y3047003D01*
X3458546Y2991626D01*
X3458548Y2991625D01*
X3462330Y2990059D01*
X3466392Y2989524D01*
X3466393Y2989524D01*
X3609859Y2970636D01*
X3613923Y2970101D01*
X3687664Y2979810D01*
X3733869Y2967430D01*
X3740016Y2962039D01*
X4697149Y2004906D01*
X4700833Y2000886D01*
X4727285Y1969362D01*
X4732019Y1966629D01*
X4732020Y1966628D01*
X4762920Y1948787D01*
X4767517Y1945858D01*
X4790373Y1929855D01*
X4801218Y1922261D01*
X4807398Y1920605D01*
X4807543Y1920566D01*
X4822611Y1914325D01*
X4828283Y1911050D01*
X4833667Y1910101D01*
X4833669Y1910100D01*
X4868804Y1903905D01*
X4874126Y1902725D01*
X4913867Y1892077D01*
X4954856Y1895663D01*
X4960304Y1895901D01*
X5087333Y1895901D01*
X5131527Y1877595D01*
X5149833Y1833401D01*
X5131527Y1789207D01*
X4260351Y918031D01*
X4216157Y899725D01*
X4192427Y904510D01*
X4190629Y905482D01*
X4187714Y906384D01*
X4187710Y906386D01*
X4010420Y961266D01*
X4010417Y961267D01*
X4007505Y962168D01*
X4004472Y962487D01*
X4004471Y962487D01*
X3954434Y967746D01*
X3816857Y982206D01*
X3813824Y981930D01*
X3813820Y981930D01*
X3731118Y974403D01*
X3625948Y964832D01*
X3623019Y963970D01*
X3613832Y961266D01*
X3442050Y910708D01*
X3272167Y821895D01*
X3122770Y701777D01*
X2999549Y554928D01*
X2966609Y495010D01*
X2921288Y412571D01*
X2907198Y386942D01*
X2849234Y204217D01*
X2827866Y13714D01*
X2831321Y-27425D01*
X2842913Y-165470D01*
X2843907Y-177311D01*
X2844749Y-180247D01*
X2886854Y-327085D01*
X2881439Y-374613D01*
X2844002Y-404391D01*
X2807461Y-403753D01*
X2732625Y-379437D01*
X2732624Y-379437D01*
X2729510Y-378425D01*
X2680107Y-373233D01*
X2589137Y-363671D01*
X2589129Y-363671D01*
X2587506Y-363500D01*
X2492494Y-363500D01*
X2490871Y-363671D01*
X2490863Y-363671D01*
X2399893Y-373233D01*
X2350490Y-378425D01*
X2169262Y-437310D01*
X2166431Y-438945D01*
X2166421Y-438949D01*
X2054738Y-503430D01*
X2007312Y-509674D01*
X1969362Y-480554D01*
X1963118Y-433128D01*
X1984666Y-352711D01*
X1984667Y-352708D01*
X1985372Y-350075D01*
X1987384Y-327085D01*
X2015762Y-2720D01*
X2016000Y0D01*
X2002383Y155641D01*
X1985610Y347357D01*
X1985610Y347359D01*
X1985372Y350075D01*
X1979666Y371371D01*
X1895127Y686876D01*
X1895125Y686880D01*
X1894420Y689513D01*
X1880010Y720415D01*
X1747061Y1005526D01*
X1747059Y1005529D01*
X1745907Y1008000D01*
X1544346Y1295860D01*
X1295860Y1544346D01*
X1008000Y1745907D01*
X1005529Y1747059D01*
X1005526Y1747061D01*
X691986Y1893267D01*
X691984Y1893268D01*
X689513Y1894420D01*
X686880Y1895125D01*
X686876Y1895127D01*
X352711Y1984666D01*
X352708Y1984667D01*
X350075Y1985372D01*
X347359Y1985610D01*
X347357Y1985610D01*
X2720Y2015762D01*
X0Y2016000D01*
X-2720Y2015762D01*
X-347357Y1985610D01*
X-347359Y1985610D01*
X-350075Y1985372D01*
X-352708Y1984667D01*
X-352711Y1984666D01*
X-686876Y1895127D01*
X-686880Y1895125D01*
X-689513Y1894420D01*
X-691984Y1893268D01*
X-691986Y1893267D01*
X-1005526Y1747061D01*
X-1005529Y1747059D01*
X-1008000Y1745907D01*
X-1295860Y1544346D01*
X-1544346Y1295860D01*
X-1745907Y1008000D01*
X-1747059Y1005529D01*
X-1747061Y1005526D01*
X-1880010Y720415D01*
X-1894420Y689513D01*
X-1895125Y686880D01*
X-1895127Y686876D01*
X-1979666Y371371D01*
X-1985372Y350075D01*
X-1985610Y347359D01*
X-1985610Y347357D01*
X-2002383Y155641D01*
X-2016000Y0D01*
X-2015762Y-2720D01*
X-1987383Y-327085D01*
X-1985372Y-350075D01*
X-1984667Y-352708D01*
X-1984666Y-352711D01*
X-1918930Y-598039D01*
X-1894420Y-689513D01*
X-1893268Y-691984D01*
X-1893267Y-691986D01*
X-1764772Y-967543D01*
X-1745907Y-1008000D01*
X-1544346Y-1295860D01*
X-1295860Y-1544346D01*
X-1008000Y-1745907D01*
X-1005529Y-1747059D01*
X-1005526Y-1747061D01*
X-691986Y-1893267D01*
X-689513Y-1894420D01*
X-686880Y-1895125D01*
X-686876Y-1895127D01*
X-352711Y-1984666D01*
X-352708Y-1984667D01*
X-350075Y-1985372D01*
X-347359Y-1985610D01*
X-347357Y-1985610D01*
X-2720Y-2015762D01*
X0Y-2016000D01*
X2720Y-2015762D01*
X347357Y-1985610D01*
X347359Y-1985610D01*
X350075Y-1985372D01*
X352708Y-1984667D01*
X352711Y-1984666D01*
X686876Y-1895127D01*
X686880Y-1895125D01*
X689513Y-1894420D01*
X691986Y-1893267D01*
X1005526Y-1747061D01*
X1005529Y-1747059D01*
X1008000Y-1745907D01*
X1295860Y-1544346D01*
X1526806Y-1313400D01*
X1571000Y-1295094D01*
X1615194Y-1313400D01*
X1633500Y-1357594D01*
X1633500Y-1365277D01*
X1634182Y-1368484D01*
X1634182Y-1368487D01*
X1664029Y-1508901D01*
X1673119Y-1551667D01*
X1750624Y-1725746D01*
X1862629Y-1879908D01*
X2004238Y-2007413D01*
X2007072Y-2009049D01*
X2163254Y-2099221D01*
X2169262Y-2102690D01*
X2271056Y-2135765D01*
X2324278Y-2153058D01*
X2350490Y-2161575D01*
X2389747Y-2165701D01*
X2490863Y-2176329D01*
X2490871Y-2176329D01*
X2492494Y-2176500D01*
X2587506Y-2176500D01*
X2589129Y-2176329D01*
X2589137Y-2176329D01*
X2690253Y-2165701D01*
X2729510Y-2161575D01*
X2746745Y-2155975D01*
X2808945Y-2135765D01*
X2856633Y-2139518D01*
X2887700Y-2175892D01*
X2887833Y-2214104D01*
X2849234Y-2335783D01*
X2848894Y-2338815D01*
X2835417Y-2458967D01*
X2812299Y-2500845D01*
X2773306Y-2514500D01*
X5072Y-2514500D01*
X0Y-2512399D01*
X-4426Y-2514232D01*
X-8471Y-2513987D01*
X-8472Y-2513987D01*
X-299318Y-2496394D01*
X-306810Y-2495484D01*
X-384669Y-2481216D01*
X-598044Y-2442114D01*
X-605362Y-2440310D01*
X-888049Y-2352221D01*
X-895092Y-2349551D01*
X-1165102Y-2228029D01*
X-1171785Y-2224521D01*
X-1425163Y-2071349D01*
X-1431374Y-2067062D01*
X-1664448Y-1884460D01*
X-1670097Y-1879455D01*
X-1879455Y-1670097D01*
X-1884460Y-1664448D01*
X-2067062Y-1431374D01*
X-2071349Y-1425163D01*
X-2224521Y-1171785D01*
X-2228029Y-1165102D01*
X-2243071Y-1131680D01*
X-2349551Y-895092D01*
X-2352224Y-888042D01*
X-2359874Y-863490D01*
X-2440310Y-605362D01*
X-2442115Y-598039D01*
X-2446927Y-571777D01*
X-2487072Y-352711D01*
X-2495484Y-306810D01*
X-2496394Y-299318D01*
X-2505305Y-152000D01*
X-2514232Y-4426D01*
X-2512399Y0D01*
X-2514500Y5072D01*
X-2514500Y12694928D01*
X-2512399Y12700000D01*
X-2514232Y12704426D01*
X-2513486Y12716748D01*
X-2496394Y12999318D01*
X-2495484Y13006810D01*
X-2449585Y13257274D01*
X-2442114Y13298044D01*
X-2440309Y13305367D01*
X-2352221Y13588049D01*
X-2349548Y13595099D01*
X-2345530Y13604025D01*
X-2228029Y13865102D01*
X-2224521Y13871785D01*
X-2071349Y14125163D01*
X-2067062Y14131374D01*
X-1884460Y14364448D01*
X-1879455Y14370097D01*
X-1670097Y14579455D01*
X-1664448Y14584460D01*
X-1431374Y14767062D01*
X-1425163Y14771349D01*
X-1171785Y14924521D01*
X-1165102Y14928029D01*
X-1030279Y14988708D01*
X-895092Y15049551D01*
X-888049Y15052221D01*
X-605362Y15140310D01*
X-598044Y15142114D01*
X-384669Y15181216D01*
X-306810Y15195484D01*
X-299318Y15196394D01*
X-155097Y15205118D01*
X-4426Y15214232D01*
X0Y15212399D01*
X5072Y15214500D01*
X233687Y15214500D01*
X277881Y15196194D01*
G37*
%TD.AperFunction*%
%TD*%
M02*
