%TF.GenerationSoftware,KiCad,Pcbnew,7.0.3*%
%TF.CreationDate,2023-05-19T16:22:07-07:00*%
%TF.ProjectId,StemmaG0,5374656d-6d61-4473-902e-6b696361645f,rev?*%
%TF.SameCoordinates,Original*%
%TF.FileFunction,Copper,L2,Bot*%
%TF.FilePolarity,Positive*%
%FSLAX46Y46*%
G04 Gerber Fmt 4.6, Leading zero omitted, Abs format (unit mm)*
G04 Created by KiCad (PCBNEW 7.0.3) date 2023-05-19 16:22:07*
%MOMM*%
%LPD*%
G01*
G04 APERTURE LIST*
%TA.AperFunction,ComponentPad*%
%ADD10C,1.700000*%
%TD*%
%TA.AperFunction,ComponentPad*%
%ADD11O,1.700000X1.700000*%
%TD*%
%TA.AperFunction,ComponentPad*%
%ADD12C,3.200000*%
%TD*%
%TA.AperFunction,CastellatedPad*%
%ADD13C,1.700000*%
%TD*%
%TA.AperFunction,CastellatedPad*%
%ADD14O,1.700000X1.700000*%
%TD*%
%TA.AperFunction,SMDPad,CuDef*%
%ADD15R,0.740000X2.400000*%
%TD*%
%TA.AperFunction,ViaPad*%
%ADD16C,0.906400*%
%TD*%
%TA.AperFunction,ViaPad*%
%ADD17C,0.889000*%
%TD*%
%TA.AperFunction,ViaPad*%
%ADD18C,0.600000*%
%TD*%
%TA.AperFunction,Conductor*%
%ADD19C,0.304800*%
%TD*%
%TA.AperFunction,Conductor*%
%ADD20C,0.406400*%
%TD*%
%TA.AperFunction,Conductor*%
%ADD21C,0.150000*%
%TD*%
%TA.AperFunction,Conductor*%
%ADD22C,0.127000*%
%TD*%
G04 APERTURE END LIST*
D10*
%TO.P,J1,1,Pin_1*%
%TO.N,/nRST*%
X26670000Y12700000D03*
D11*
%TO.P,J1,2,Pin_2*%
%TO.N,GND*%
X24130000Y12700000D03*
%TO.P,J1,3,Pin_3*%
%TO.N,/P0*%
X21590000Y12700000D03*
%TO.P,J1,4,Pin_4*%
%TO.N,/P1*%
X19050000Y12700000D03*
%TO.P,J1,5,Pin_5*%
%TO.N,/P2*%
X16510000Y12700000D03*
%TO.P,J1,6,Pin_6*%
%TO.N,/P3*%
X13970000Y12700000D03*
%TO.P,J1,7,Pin_7*%
%TO.N,/P4*%
X11430000Y12700000D03*
%TO.P,J1,8,Pin_8*%
%TO.N,/P5*%
X8890000Y12700000D03*
%TO.P,J1,9,Pin_9*%
%TO.N,/P6*%
X6350000Y12700000D03*
%TO.P,J1,10,Pin_10*%
%TO.N,/P7*%
X3810000Y12700000D03*
%TO.P,J1,11,Pin_11*%
%TO.N,3.3V*%
X1270000Y12700000D03*
%TO.P,J1,12,Pin_12*%
%TO.N,/SWCLK*%
X-1270000Y12700000D03*
%TD*%
D12*
%TO.P,U$19,P$1*%
%TO.N,N/C*%
X0Y0D03*
%TD*%
D10*
%TO.P,J2,1,Pin_1*%
%TO.N,VCC*%
X3810000Y0D03*
D11*
%TO.P,J2,2,Pin_2*%
%TO.N,GND*%
X6350000Y0D03*
%TO.P,J2,3,Pin_3*%
%TO.N,/SCL*%
X8890000Y0D03*
%TO.P,J2,4,Pin_4*%
%TO.N,/SDA*%
X11430000Y0D03*
%TO.P,J2,5,Pin_5*%
%TO.N,/B9*%
X13970000Y0D03*
%TO.P,J2,6,Pin_6*%
%TO.N,/A12*%
X16510000Y0D03*
%TO.P,J2,7,Pin_7*%
%TO.N,/A11*%
X19050000Y0D03*
%TO.P,J2,8,Pin_8*%
%TO.N,/A8*%
X21590000Y0D03*
%TD*%
D12*
%TO.P,U$21,P$1*%
%TO.N,N/C*%
X25400000Y0D03*
%TD*%
D13*
%TO.P,J4,1,Pin_1*%
%TO.N,VCC*%
X3810000Y-2540000D03*
%TO.P,J4,2,Pin_2*%
%TO.N,GND*%
X6350000Y-2540000D03*
%TO.P,J4,3,Pin_3*%
%TO.N,/SCL*%
X8890000Y-2540000D03*
%TO.P,J4,4,Pin_4*%
%TO.N,/SDA*%
X11430000Y-2540000D03*
%TO.P,J4,5,Pin_5*%
%TO.N,/B9*%
X13970000Y-2540000D03*
%TO.P,J4,6,Pin_6*%
%TO.N,/A12*%
X16510000Y-2540000D03*
%TO.P,J4,7,Pin_7*%
%TO.N,/A11*%
X19050000Y-2540000D03*
%TO.P,J4,8,Pin_8*%
%TO.N,/A8*%
X21590000Y-2540000D03*
%TD*%
%TO.P,J5,1,Pin_1*%
%TO.N,GND*%
X24130000Y15240000D03*
%TO.P,J5,2,Pin_2*%
%TO.N,/P0*%
X21590000Y15240000D03*
D14*
%TO.P,J5,3,Pin_3*%
%TO.N,/P1*%
X19050000Y15240000D03*
D13*
%TO.P,J5,4,Pin_4*%
%TO.N,/P2*%
X16510000Y15240000D03*
%TO.P,J5,5,Pin_5*%
%TO.N,/P3*%
X13970000Y15240000D03*
%TO.P,J5,6,Pin_6*%
%TO.N,/P4*%
X11430000Y15240000D03*
%TO.P,J5,7,Pin_7*%
%TO.N,/P5*%
X8890000Y15240000D03*
%TO.P,J5,8,Pin_8*%
%TO.N,/P6*%
X6350000Y15240000D03*
%TO.P,J5,9,Pin_9*%
%TO.N,/P7*%
X3810000Y15240000D03*
%TO.P,J5,10,Pin_10*%
%TO.N,3.3V*%
X1270000Y15240000D03*
%TD*%
D15*
%TO.P,J3,1,VTref*%
%TO.N,3.3V*%
X17483259Y8426583D03*
%TO.P,J3,2,SWDIO/TMS*%
%TO.N,/SWDIO*%
X17483259Y4526583D03*
%TO.P,J3,3,GND*%
%TO.N,GND*%
X18753259Y8426583D03*
%TO.P,J3,4,SWDCLK/TCK*%
%TO.N,/SWCLK*%
X18753259Y4526583D03*
%TO.P,J3,5,GND*%
%TO.N,GND*%
X20023259Y8426583D03*
%TO.P,J3,6,SWO/TDO*%
%TO.N,unconnected-(J3-SWO{slash}TDO-Pad6)*%
X20023259Y4526583D03*
%TO.P,J3,7,KEY*%
%TO.N,unconnected-(J3-KEY-Pad7)*%
X21293259Y8426583D03*
%TO.P,J3,8,NC/TDI*%
%TO.N,unconnected-(J3-NC{slash}TDI-Pad8)*%
X21293259Y4526583D03*
%TO.P,J3,9,GNDDetect*%
%TO.N,GND*%
X22563259Y8426583D03*
%TO.P,J3,10,~{RESET}*%
%TO.N,/nRST*%
X22563259Y4526583D03*
%TD*%
D16*
%TO.N,GND*%
X-1945217Y6479287D03*
D17*
%TO.N,3.3V*%
X6045924Y4938943D03*
X13323855Y6416009D03*
X4052981Y8901807D03*
D16*
%TO.N,VCC*%
X3613923Y3555812D03*
X16766783Y2727100D03*
D18*
%TO.N,/SCL*%
X4283334Y4644968D03*
X24672506Y7841615D03*
X8407277Y4244051D03*
%TO.N,/SDA*%
X25617101Y6862671D03*
X11094260Y5558504D03*
X1280971Y5836238D03*
%TO.N,/SDA_3V*%
X11271712Y7465562D03*
X4705654Y6195739D03*
%TO.N,/SWCLK*%
X11134753Y4378425D03*
%TO.N,/SWDIO*%
X11298232Y3593662D03*
%TO.N,/nRST*%
X13985938Y7098444D03*
X13771135Y10029271D03*
%TO.N,/B9*%
X13953606Y5198940D03*
X12958186Y3414864D03*
%TD*%
D19*
%TO.N,3.3V*%
X5461958Y4938943D02*
X4841968Y5558933D01*
X7512482Y6416009D02*
X7130552Y6034079D01*
X13966967Y8426583D02*
X13204582Y7664198D01*
X17483259Y8426583D02*
X13966967Y8426583D01*
X4052981Y8901807D02*
X4052981Y9917019D01*
X4841968Y5558933D02*
X4448818Y5558933D01*
X13323855Y6416009D02*
X7512482Y6416009D01*
X7130552Y6023571D02*
X6045924Y4938943D01*
X4448818Y5558933D02*
X4052981Y5954770D01*
X4052981Y5954770D02*
X4052981Y8901807D01*
X6045924Y4938943D02*
X5461958Y4938943D01*
X13204582Y7664198D02*
X13204582Y6535282D01*
X13204582Y6535282D02*
X13323855Y6416009D01*
X7130552Y6034079D02*
X7130552Y6023571D01*
X4052981Y9917019D02*
X1270000Y12700000D01*
D20*
%TO.N,VCC*%
X16266284Y2226601D02*
X6036601Y2226601D01*
X6036601Y2226601D02*
X3810000Y0D01*
X6036601Y2226601D02*
X4943134Y2226601D01*
X16766783Y2727100D02*
X16266284Y2226601D01*
X4943134Y2226601D02*
X3613923Y3555812D01*
X3810000Y0D02*
X3810000Y-2540000D01*
D21*
%TO.N,/SCL*%
X8407277Y4137355D02*
X8407277Y4244051D01*
X9740000Y850000D02*
X10484794Y850000D01*
X11121860Y1487066D02*
X22731793Y1487066D01*
X24878600Y3633873D02*
X24878600Y7635521D01*
X8890000Y0D02*
X9740000Y850000D01*
X8155088Y3885166D02*
X8407277Y4137355D01*
X4283334Y4644968D02*
X4299499Y4644968D01*
X24878600Y7635521D02*
X24672506Y7841615D01*
X10484794Y850000D02*
X11121860Y1487066D01*
X22731793Y1487066D02*
X24878600Y3633873D01*
X4299499Y4644968D02*
X5018886Y3925581D01*
X5059301Y3885166D02*
X8155088Y3885166D01*
X5018886Y3925581D02*
X5059301Y3885166D01*
%TO.N,/SDA*%
X22846324Y1210565D02*
X25155101Y3519343D01*
X1925824Y5191385D02*
X1280971Y5836238D01*
X25823195Y6656577D02*
X25617101Y6862671D01*
X4053652Y5199468D02*
X4045569Y5191385D01*
X8937548Y5558504D02*
X7639386Y4260342D01*
X11094260Y5558504D02*
X8937548Y5558504D01*
X25155101Y3876026D02*
X25823195Y4544120D01*
X25823195Y4544120D02*
X25823195Y6656577D01*
X4045569Y5191385D02*
X1925824Y5191385D01*
X7639386Y4260342D02*
X5589942Y4260342D01*
X12640565Y1210565D02*
X22846324Y1210565D01*
X25155101Y3519343D02*
X25155101Y3876026D01*
X4650816Y5199468D02*
X4053652Y5199468D01*
X11430000Y0D02*
X12640565Y1210565D01*
X5589942Y4260342D02*
X4650816Y5199468D01*
%TO.N,/SDA_3V*%
X5150219Y5751174D02*
X6201008Y5751174D01*
X11271712Y7273443D02*
X11271712Y7465562D01*
X6201008Y5751174D02*
X7373042Y6923208D01*
X10921477Y6923208D02*
X11271712Y7273443D01*
X4705654Y6195739D02*
X5150219Y5751174D01*
X7373042Y6923208D02*
X10921477Y6923208D01*
D22*
%TO.N,/SWCLK*%
X18015345Y6094497D02*
X18753259Y5356583D01*
D21*
X2082724Y4241411D02*
X-1270000Y7594135D01*
D22*
X12298455Y4400587D02*
X13992365Y6094497D01*
D21*
X11134753Y4378425D02*
X9587722Y4378425D01*
X12298455Y4400587D02*
X12276293Y4378425D01*
X8802959Y3593662D02*
X4501960Y3593662D01*
X4501960Y3593662D02*
X3854211Y4241411D01*
X12276293Y4378425D02*
X11134753Y4378425D01*
D22*
X13992365Y6094497D02*
X18015345Y6094497D01*
D21*
X3854211Y4241411D02*
X2082724Y4241411D01*
D22*
X18753259Y5356583D02*
X18753259Y4526583D01*
D21*
X9587722Y4378425D02*
X8802959Y3593662D01*
X-1270000Y7594135D02*
X-1270000Y12700000D01*
D22*
%TO.N,/SWDIO*%
X12020030Y2871864D02*
X15828540Y2871864D01*
X15828540Y2871864D02*
X17483259Y4526583D01*
X11298232Y3593662D02*
X12020030Y2871864D01*
D21*
%TO.N,/nRST*%
X24781446Y10811446D02*
X14553310Y10811446D01*
D22*
X20883759Y7036083D02*
X14048299Y7036083D01*
X22563259Y5356583D02*
X20883759Y7036083D01*
D21*
X14553310Y10811446D02*
X13771135Y10029271D01*
D22*
X22563259Y4526583D02*
X22563259Y5356583D01*
D21*
X26670000Y12700000D02*
X24781446Y10811446D01*
D22*
X14048299Y7036083D02*
X13985938Y7098444D01*
D21*
%TO.N,/B9*%
X12958186Y3414864D02*
X13953606Y4410284D01*
X13953606Y4410284D02*
X13953606Y5198940D01*
%TD*%
%TA.AperFunction,Conductor*%
%TO.N,GND*%
G36*
X277828Y15196194D02*
G01*
X295833Y15158126D01*
X306642Y15048378D01*
X326811Y14981889D01*
X362538Y14864117D01*
X362539Y14864116D01*
X453302Y14694308D01*
X453306Y14694302D01*
X575459Y14545459D01*
X724302Y14423306D01*
X724304Y14423305D01*
X724307Y14423303D01*
X768491Y14399687D01*
X894117Y14332538D01*
X1078376Y14276643D01*
X1270000Y14257770D01*
X1461624Y14276643D01*
X1645883Y14332538D01*
X1815698Y14423306D01*
X1964541Y14545459D01*
X2086694Y14694302D01*
X2177462Y14864117D01*
X2233357Y15048376D01*
X2236769Y15083023D01*
X2244167Y15158126D01*
X2266717Y15200313D01*
X2306366Y15214500D01*
X2773634Y15214500D01*
X2817828Y15196194D01*
X2835833Y15158126D01*
X2846642Y15048378D01*
X2866811Y14981889D01*
X2902538Y14864117D01*
X2902539Y14864116D01*
X2993302Y14694308D01*
X2993306Y14694302D01*
X3115459Y14545459D01*
X3264302Y14423306D01*
X3264304Y14423305D01*
X3264307Y14423303D01*
X3308491Y14399687D01*
X3434117Y14332538D01*
X3618376Y14276643D01*
X3810000Y14257770D01*
X4001624Y14276643D01*
X4185883Y14332538D01*
X4355698Y14423306D01*
X4504541Y14545459D01*
X4626694Y14694302D01*
X4717462Y14864117D01*
X4773357Y15048376D01*
X4776769Y15083023D01*
X4784167Y15158126D01*
X4806717Y15200313D01*
X4846366Y15214500D01*
X5313634Y15214500D01*
X5357828Y15196194D01*
X5375833Y15158126D01*
X5386642Y15048378D01*
X5406811Y14981889D01*
X5442538Y14864117D01*
X5442539Y14864116D01*
X5533302Y14694308D01*
X5533306Y14694302D01*
X5655459Y14545459D01*
X5804302Y14423306D01*
X5804304Y14423305D01*
X5804307Y14423303D01*
X5848491Y14399687D01*
X5974117Y14332538D01*
X6158376Y14276643D01*
X6350000Y14257770D01*
X6541624Y14276643D01*
X6725883Y14332538D01*
X6895698Y14423306D01*
X7044541Y14545459D01*
X7166694Y14694302D01*
X7257462Y14864117D01*
X7313357Y15048376D01*
X7316769Y15083023D01*
X7324167Y15158126D01*
X7346717Y15200313D01*
X7386366Y15214500D01*
X7853634Y15214500D01*
X7897828Y15196194D01*
X7915833Y15158126D01*
X7926642Y15048378D01*
X7946811Y14981889D01*
X7982538Y14864117D01*
X7982539Y14864116D01*
X8073302Y14694308D01*
X8073306Y14694302D01*
X8195459Y14545459D01*
X8344302Y14423306D01*
X8344304Y14423305D01*
X8344307Y14423303D01*
X8388491Y14399687D01*
X8514117Y14332538D01*
X8698376Y14276643D01*
X8890000Y14257770D01*
X9081624Y14276643D01*
X9265883Y14332538D01*
X9435698Y14423306D01*
X9584541Y14545459D01*
X9706694Y14694302D01*
X9797462Y14864117D01*
X9853357Y15048376D01*
X9856769Y15083023D01*
X9864167Y15158126D01*
X9886717Y15200313D01*
X9926366Y15214500D01*
X10393634Y15214500D01*
X10437828Y15196194D01*
X10455833Y15158126D01*
X10466642Y15048378D01*
X10486811Y14981889D01*
X10522538Y14864117D01*
X10522539Y14864116D01*
X10613302Y14694308D01*
X10613306Y14694302D01*
X10735459Y14545459D01*
X10884302Y14423306D01*
X10884304Y14423305D01*
X10884307Y14423303D01*
X10928491Y14399687D01*
X11054117Y14332538D01*
X11238376Y14276643D01*
X11430000Y14257770D01*
X11621624Y14276643D01*
X11805883Y14332538D01*
X11975698Y14423306D01*
X12124541Y14545459D01*
X12246694Y14694302D01*
X12337462Y14864117D01*
X12393357Y15048376D01*
X12396769Y15083023D01*
X12404167Y15158126D01*
X12426717Y15200313D01*
X12466366Y15214500D01*
X12933634Y15214500D01*
X12977828Y15196194D01*
X12995833Y15158126D01*
X13006642Y15048378D01*
X13026811Y14981889D01*
X13062538Y14864117D01*
X13062539Y14864116D01*
X13153302Y14694308D01*
X13153306Y14694302D01*
X13275459Y14545459D01*
X13424302Y14423306D01*
X13424304Y14423305D01*
X13424307Y14423303D01*
X13468491Y14399687D01*
X13594117Y14332538D01*
X13778376Y14276643D01*
X13970000Y14257770D01*
X14161624Y14276643D01*
X14345883Y14332538D01*
X14515698Y14423306D01*
X14664541Y14545459D01*
X14786694Y14694302D01*
X14877462Y14864117D01*
X14933357Y15048376D01*
X14936769Y15083023D01*
X14944167Y15158126D01*
X14966717Y15200313D01*
X15006366Y15214500D01*
X15473634Y15214500D01*
X15517828Y15196194D01*
X15535833Y15158126D01*
X15546642Y15048378D01*
X15566811Y14981889D01*
X15602538Y14864117D01*
X15602539Y14864116D01*
X15693302Y14694308D01*
X15693306Y14694302D01*
X15815459Y14545459D01*
X15964302Y14423306D01*
X15964304Y14423305D01*
X15964307Y14423303D01*
X16008491Y14399687D01*
X16134117Y14332538D01*
X16318376Y14276643D01*
X16510000Y14257770D01*
X16701624Y14276643D01*
X16885883Y14332538D01*
X17055698Y14423306D01*
X17204541Y14545459D01*
X17326694Y14694302D01*
X17417462Y14864117D01*
X17473357Y15048376D01*
X17476769Y15083023D01*
X17484167Y15158126D01*
X17506717Y15200313D01*
X17546366Y15214500D01*
X18013634Y15214500D01*
X18057828Y15196194D01*
X18075833Y15158126D01*
X18086642Y15048378D01*
X18106811Y14981889D01*
X18142538Y14864117D01*
X18142539Y14864116D01*
X18233302Y14694308D01*
X18233306Y14694302D01*
X18355459Y14545459D01*
X18504302Y14423306D01*
X18504304Y14423305D01*
X18504307Y14423303D01*
X18548491Y14399687D01*
X18674117Y14332538D01*
X18858376Y14276643D01*
X19050000Y14257770D01*
X19241624Y14276643D01*
X19425883Y14332538D01*
X19595698Y14423306D01*
X19744541Y14545459D01*
X19866694Y14694302D01*
X19957462Y14864117D01*
X20013357Y15048376D01*
X20016769Y15083023D01*
X20024167Y15158126D01*
X20046717Y15200313D01*
X20086366Y15214500D01*
X20553634Y15214500D01*
X20597828Y15196194D01*
X20615833Y15158126D01*
X20626642Y15048378D01*
X20646811Y14981889D01*
X20682538Y14864117D01*
X20682539Y14864116D01*
X20773302Y14694308D01*
X20773306Y14694302D01*
X20895459Y14545459D01*
X21044302Y14423306D01*
X21044304Y14423305D01*
X21044307Y14423303D01*
X21088491Y14399687D01*
X21214117Y14332538D01*
X21398376Y14276643D01*
X21590000Y14257770D01*
X21781624Y14276643D01*
X21965883Y14332538D01*
X22135698Y14423306D01*
X22284541Y14545459D01*
X22406694Y14694302D01*
X22497462Y14864117D01*
X22553357Y15048376D01*
X22556769Y15083023D01*
X22564167Y15158126D01*
X22586717Y15200313D01*
X22626366Y15214500D01*
X22916443Y15214500D01*
X22960637Y15196194D01*
X22978676Y15157766D01*
X22990787Y15027054D01*
X22990789Y15027042D01*
X23049317Y14821341D01*
X23144646Y14629896D01*
X23213610Y14538573D01*
X23684078Y15009039D01*
X23748239Y14909202D01*
X23856900Y14815048D01*
X23900222Y14795264D01*
X23425576Y14320617D01*
X23431579Y14315144D01*
X23613415Y14202556D01*
X23812843Y14125298D01*
X24023061Y14086001D01*
X24023069Y14086000D01*
X24236931Y14086000D01*
X24236936Y14086001D01*
X24419515Y14120131D01*
X24466321Y14110257D01*
X24492436Y14070180D01*
X24493500Y14058695D01*
X24493500Y13894943D01*
X24493700Y13894001D01*
X24493635Y13893653D01*
X24493842Y13891687D01*
X24493259Y13891626D01*
X24484977Y13846967D01*
X24445551Y13819878D01*
X24421080Y13819578D01*
X24282000Y13845576D01*
X24282000Y13180257D01*
X24272315Y13184680D01*
X24165763Y13200000D01*
X24094237Y13200000D01*
X23987685Y13184680D01*
X23978000Y13180257D01*
X23978000Y13845576D01*
X23812843Y13814703D01*
X23613415Y13737445D01*
X23431575Y13624854D01*
X23273528Y13480774D01*
X23273521Y13480767D01*
X23144649Y13310111D01*
X23144646Y13310105D01*
X23049317Y13118660D01*
X22990789Y12912959D01*
X22990787Y12912948D01*
X22985140Y12852001D01*
X22985141Y12852000D01*
X23653523Y12852000D01*
X23630000Y12771889D01*
X23630000Y12628111D01*
X23653523Y12548000D01*
X22985140Y12548000D01*
X22990787Y12487053D01*
X22990789Y12487042D01*
X23049317Y12281341D01*
X23144646Y12089896D01*
X23144649Y12089890D01*
X23273521Y11919234D01*
X23273528Y11919227D01*
X23431575Y11775147D01*
X23613415Y11662556D01*
X23812842Y11585298D01*
X23978000Y11554426D01*
X23978000Y12219744D01*
X23987685Y12215320D01*
X24094237Y12200000D01*
X24165763Y12200000D01*
X24272315Y12215320D01*
X24282000Y12219744D01*
X24282000Y11554426D01*
X24447157Y11585298D01*
X24646584Y11662556D01*
X24828424Y11775147D01*
X24986471Y11919227D01*
X24986478Y11919234D01*
X25115350Y12089890D01*
X25115353Y12089896D01*
X25210682Y12281341D01*
X25269210Y12487042D01*
X25269212Y12487053D01*
X25274859Y12548000D01*
X24606477Y12548000D01*
X24630000Y12628111D01*
X24630000Y12771889D01*
X24606477Y12852000D01*
X25274859Y12852000D01*
X25274859Y12852001D01*
X25269212Y12912948D01*
X25269210Y12912960D01*
X25241861Y13009081D01*
X25247374Y13056598D01*
X25284871Y13086299D01*
X25308508Y13088342D01*
X25324601Y13086651D01*
X25352474Y13083721D01*
X25352479Y13083721D01*
X25352494Y13083719D01*
X25352497Y13083719D01*
X25447501Y13083719D01*
X25447506Y13083719D01*
X25589510Y13098644D01*
X25675237Y13126499D01*
X25722922Y13122746D01*
X25753989Y13086372D01*
X25754357Y13048915D01*
X25706642Y12891623D01*
X25687770Y12700001D01*
X25687770Y12700000D01*
X25706642Y12508378D01*
X25762539Y12324114D01*
X25826097Y12205207D01*
X25830786Y12157602D01*
X25815171Y12131551D01*
X24715874Y11032252D01*
X24671680Y11013946D01*
X14598338Y11013946D01*
X14577695Y11017453D01*
X14576564Y11017849D01*
X14543683Y11014143D01*
X14540181Y11013946D01*
X14530493Y11013946D01*
X14521040Y11011789D01*
X14517592Y11011204D01*
X14484704Y11007497D01*
X14483692Y11006860D01*
X14464361Y10998853D01*
X14463194Y10998587D01*
X14463189Y10998585D01*
X14437319Y10977954D01*
X14434461Y10975926D01*
X14426257Y10970772D01*
X14419406Y10963922D01*
X14416795Y10961589D01*
X14390918Y10940953D01*
X14390914Y10940947D01*
X14390396Y10939870D01*
X14378282Y10922798D01*
X13963097Y10507613D01*
X13918903Y10489307D01*
X13901295Y10491839D01*
X13840222Y10509771D01*
X13840220Y10509771D01*
X13702050Y10509771D01*
X13702048Y10509771D01*
X13569480Y10470846D01*
X13569471Y10470842D01*
X13453240Y10396146D01*
X13362758Y10291724D01*
X13362755Y10291719D01*
X13305358Y10166038D01*
X13305357Y10166035D01*
X13285694Y10029272D01*
X13305357Y9892508D01*
X13305358Y9892505D01*
X13362755Y9766824D01*
X13362758Y9766819D01*
X13453240Y9662397D01*
X13569471Y9587701D01*
X13569476Y9587698D01*
X13702047Y9548772D01*
X13702049Y9548771D01*
X13702050Y9548771D01*
X13840221Y9548771D01*
X13840221Y9548772D01*
X13972794Y9587698D01*
X14052841Y9639141D01*
X14089029Y9662397D01*
X14116273Y9693838D01*
X14179514Y9766822D01*
X14236912Y9892506D01*
X14256576Y10029271D01*
X14236912Y10166036D01*
X14236276Y10170461D01*
X14238481Y10170779D01*
X14242782Y10210950D01*
X14253452Y10225212D01*
X14618881Y10590640D01*
X14663076Y10608946D01*
X24736420Y10608946D01*
X24757061Y10605439D01*
X24758190Y10605044D01*
X24782629Y10607798D01*
X24791076Y10608749D01*
X24794578Y10608946D01*
X24804261Y10608946D01*
X24804263Y10608946D01*
X24813715Y10611105D01*
X24817144Y10611688D01*
X24850047Y10615394D01*
X24851052Y10616027D01*
X24870404Y10624043D01*
X24871567Y10624308D01*
X24897464Y10644961D01*
X24900282Y10646960D01*
X24908501Y10652123D01*
X24915343Y10658967D01*
X24917959Y10661304D01*
X24943836Y10681940D01*
X24943835Y10681940D01*
X24943839Y10681942D01*
X24944356Y10683018D01*
X24956472Y10700096D01*
X26101550Y11845174D01*
X26145743Y11863479D01*
X26175202Y11856100D01*
X26294117Y11792538D01*
X26478376Y11736643D01*
X26670000Y11717770D01*
X26861624Y11736643D01*
X27045883Y11792538D01*
X27215698Y11883306D01*
X27364541Y12005459D01*
X27486694Y12154302D01*
X27577462Y12324117D01*
X27633357Y12508376D01*
X27652230Y12700000D01*
X27651730Y12705072D01*
X27633357Y12891623D01*
X27626885Y12912959D01*
X27577462Y13075883D01*
X27486694Y13245698D01*
X27364541Y13394541D01*
X27215698Y13516694D01*
X27215692Y13516698D01*
X27078842Y13589845D01*
X27045883Y13607462D01*
X26928111Y13643189D01*
X26861622Y13663358D01*
X26670000Y13682230D01*
X26478377Y13663358D01*
X26341452Y13621821D01*
X26293847Y13626510D01*
X26263500Y13663487D01*
X26266108Y13705356D01*
X26265868Y13705434D01*
X26266172Y13706371D01*
X26266215Y13707057D01*
X26266881Y13708553D01*
X26290481Y13819578D01*
X26306500Y13894942D01*
X26306500Y14085496D01*
X26266881Y14271886D01*
X26266878Y14271894D01*
X26204406Y14412206D01*
X26189376Y14445965D01*
X26189374Y14445968D01*
X26189373Y14445970D01*
X26077371Y14600127D01*
X26077365Y14600133D01*
X26016851Y14654619D01*
X25935762Y14727632D01*
X25770738Y14822909D01*
X25770734Y14822911D01*
X25770733Y14822911D01*
X25704377Y14844471D01*
X25589510Y14881794D01*
X25589512Y14881794D01*
X25447508Y14896719D01*
X25447506Y14896719D01*
X25352494Y14896719D01*
X25352488Y14896719D01*
X25320367Y14893343D01*
X25274501Y14906930D01*
X25251677Y14948969D01*
X25253721Y14972606D01*
X25269210Y15027045D01*
X25269212Y15027053D01*
X25277580Y15117368D01*
X25299884Y15159685D01*
X25345579Y15173835D01*
X25349735Y15173309D01*
X25526199Y15144892D01*
X25529406Y15144198D01*
X25843906Y15058476D01*
X25847039Y15057439D01*
X25967791Y15010250D01*
X26150622Y14938801D01*
X26153652Y14937427D01*
X26304649Y14859013D01*
X26442910Y14787213D01*
X26445764Y14785532D01*
X26717439Y14605430D01*
X26720104Y14603450D01*
X26971102Y14395510D01*
X26973534Y14393267D01*
X27201021Y14159840D01*
X27203208Y14157343D01*
X27404607Y13901072D01*
X27406520Y13898351D01*
X27579546Y13622149D01*
X27581160Y13619240D01*
X27723871Y13326207D01*
X27725166Y13323143D01*
X27835937Y13016614D01*
X27836900Y13013429D01*
X27912704Y12704116D01*
X27914500Y12689239D01*
X27914500Y946D01*
X27914443Y-941D01*
X27896280Y-301202D01*
X27895825Y-304951D01*
X27841774Y-599896D01*
X27840870Y-603563D01*
X27751661Y-889844D01*
X27750322Y-893376D01*
X27627254Y-1166823D01*
X27625498Y-1170167D01*
X27470372Y-1426779D01*
X27468227Y-1429887D01*
X27283294Y-1665935D01*
X27280790Y-1668762D01*
X27068762Y-1880790D01*
X27065935Y-1883294D01*
X26829887Y-2068227D01*
X26826779Y-2070372D01*
X26570167Y-2225498D01*
X26566823Y-2227254D01*
X26293376Y-2350322D01*
X26289844Y-2351661D01*
X26003563Y-2440870D01*
X25999896Y-2441774D01*
X25856181Y-2468111D01*
X25704947Y-2495825D01*
X25701202Y-2496280D01*
X25400942Y-2514443D01*
X25399055Y-2514500D01*
X22626366Y-2514500D01*
X22582172Y-2496194D01*
X22564167Y-2458126D01*
X22555382Y-2368945D01*
X22553357Y-2348376D01*
X22497462Y-2164117D01*
X22406694Y-1994302D01*
X22284541Y-1845459D01*
X22135698Y-1723306D01*
X22135692Y-1723302D01*
X22028364Y-1665935D01*
X21965883Y-1632538D01*
X21848111Y-1596811D01*
X21781622Y-1576642D01*
X21590000Y-1557770D01*
X21398377Y-1576642D01*
X21315023Y-1601928D01*
X21214117Y-1632538D01*
X21214115Y-1632538D01*
X21214115Y-1632539D01*
X21044307Y-1723302D01*
X21044301Y-1723306D01*
X20895459Y-1845459D01*
X20773306Y-1994301D01*
X20773302Y-1994307D01*
X20683897Y-2161574D01*
X20682538Y-2164117D01*
X20663385Y-2227254D01*
X20626642Y-2348377D01*
X20615833Y-2458126D01*
X20593283Y-2500313D01*
X20553634Y-2514500D01*
X20086366Y-2514500D01*
X20042172Y-2496194D01*
X20024167Y-2458126D01*
X20015382Y-2368945D01*
X20013357Y-2348376D01*
X19957462Y-2164117D01*
X19866694Y-1994302D01*
X19744541Y-1845459D01*
X19595698Y-1723306D01*
X19595692Y-1723302D01*
X19488364Y-1665935D01*
X19425883Y-1632538D01*
X19308111Y-1596811D01*
X19241622Y-1576642D01*
X19050000Y-1557770D01*
X18858377Y-1576642D01*
X18775023Y-1601928D01*
X18674117Y-1632538D01*
X18674115Y-1632538D01*
X18674115Y-1632539D01*
X18504307Y-1723302D01*
X18504301Y-1723306D01*
X18355459Y-1845459D01*
X18233306Y-1994301D01*
X18233302Y-1994307D01*
X18143897Y-2161574D01*
X18142538Y-2164117D01*
X18123385Y-2227254D01*
X18086642Y-2348377D01*
X18075833Y-2458126D01*
X18053283Y-2500313D01*
X18013634Y-2514500D01*
X17546366Y-2514500D01*
X17502172Y-2496194D01*
X17484167Y-2458126D01*
X17475382Y-2368945D01*
X17473357Y-2348376D01*
X17417462Y-2164117D01*
X17326694Y-1994302D01*
X17204541Y-1845459D01*
X17055698Y-1723306D01*
X17055692Y-1723302D01*
X16948364Y-1665935D01*
X16885883Y-1632538D01*
X16768111Y-1596811D01*
X16701622Y-1576642D01*
X16510000Y-1557770D01*
X16318377Y-1576642D01*
X16235023Y-1601928D01*
X16134117Y-1632538D01*
X16134115Y-1632538D01*
X16134115Y-1632539D01*
X15964307Y-1723302D01*
X15964301Y-1723306D01*
X15815459Y-1845459D01*
X15693306Y-1994301D01*
X15693302Y-1994307D01*
X15603897Y-2161574D01*
X15602538Y-2164117D01*
X15583385Y-2227254D01*
X15546642Y-2348377D01*
X15535833Y-2458126D01*
X15513283Y-2500313D01*
X15473634Y-2514500D01*
X15006366Y-2514500D01*
X14962172Y-2496194D01*
X14944167Y-2458126D01*
X14935382Y-2368945D01*
X14933357Y-2348376D01*
X14877462Y-2164117D01*
X14786694Y-1994302D01*
X14664541Y-1845459D01*
X14515698Y-1723306D01*
X14515692Y-1723302D01*
X14408364Y-1665935D01*
X14345883Y-1632538D01*
X14228111Y-1596811D01*
X14161622Y-1576642D01*
X13970000Y-1557770D01*
X13778377Y-1576642D01*
X13695023Y-1601928D01*
X13594117Y-1632538D01*
X13594115Y-1632538D01*
X13594115Y-1632539D01*
X13424307Y-1723302D01*
X13424301Y-1723306D01*
X13275459Y-1845459D01*
X13153306Y-1994301D01*
X13153302Y-1994307D01*
X13063897Y-2161574D01*
X13062538Y-2164117D01*
X13043385Y-2227254D01*
X13006642Y-2348377D01*
X12995833Y-2458126D01*
X12973283Y-2500313D01*
X12933634Y-2514500D01*
X12466366Y-2514500D01*
X12422172Y-2496194D01*
X12404167Y-2458126D01*
X12395382Y-2368945D01*
X12393357Y-2348376D01*
X12337462Y-2164117D01*
X12246694Y-1994302D01*
X12124541Y-1845459D01*
X11975698Y-1723306D01*
X11975692Y-1723302D01*
X11868364Y-1665935D01*
X11805883Y-1632538D01*
X11688111Y-1596811D01*
X11621622Y-1576642D01*
X11430000Y-1557770D01*
X11238377Y-1576642D01*
X11155023Y-1601928D01*
X11054117Y-1632538D01*
X11054115Y-1632538D01*
X11054115Y-1632539D01*
X10884307Y-1723302D01*
X10884301Y-1723306D01*
X10735459Y-1845459D01*
X10613306Y-1994301D01*
X10613302Y-1994307D01*
X10523897Y-2161574D01*
X10522538Y-2164117D01*
X10503385Y-2227254D01*
X10466642Y-2348377D01*
X10455833Y-2458126D01*
X10433283Y-2500313D01*
X10393634Y-2514500D01*
X9926366Y-2514500D01*
X9882172Y-2496194D01*
X9864167Y-2458126D01*
X9855382Y-2368945D01*
X9853357Y-2348376D01*
X9797462Y-2164117D01*
X9706694Y-1994302D01*
X9584541Y-1845459D01*
X9435698Y-1723306D01*
X9435692Y-1723302D01*
X9328364Y-1665935D01*
X9265883Y-1632538D01*
X9148111Y-1596811D01*
X9081622Y-1576642D01*
X8890000Y-1557770D01*
X8698377Y-1576642D01*
X8615023Y-1601928D01*
X8514117Y-1632538D01*
X8514115Y-1632538D01*
X8514115Y-1632539D01*
X8344307Y-1723302D01*
X8344301Y-1723306D01*
X8195459Y-1845459D01*
X8073306Y-1994301D01*
X8073302Y-1994307D01*
X7983897Y-2161574D01*
X7982538Y-2164117D01*
X7963385Y-2227254D01*
X7926642Y-2348377D01*
X7915833Y-2458126D01*
X7893283Y-2500313D01*
X7853634Y-2514500D01*
X7563557Y-2514500D01*
X7519363Y-2496194D01*
X7501324Y-2457766D01*
X7489212Y-2327053D01*
X7489210Y-2327041D01*
X7430682Y-2121340D01*
X7335353Y-1929895D01*
X7266388Y-1838571D01*
X6795921Y-2309038D01*
X6731761Y-2209202D01*
X6623100Y-2115048D01*
X6579775Y-2095262D01*
X7054423Y-1620615D01*
X7048420Y-1615143D01*
X6866584Y-1502555D01*
X6667156Y-1425297D01*
X6456938Y-1386000D01*
X6243061Y-1386000D01*
X6032843Y-1425297D01*
X5833412Y-1502556D01*
X5833410Y-1502557D01*
X5651585Y-1615139D01*
X5651581Y-1615142D01*
X5645575Y-1620615D01*
X6120223Y-2095262D01*
X6076900Y-2115048D01*
X5968239Y-2209202D01*
X5904078Y-2309038D01*
X5433610Y-1838571D01*
X5364648Y-1929891D01*
X5269317Y-2121340D01*
X5210789Y-2327041D01*
X5210787Y-2327053D01*
X5198676Y-2457766D01*
X5176371Y-2500083D01*
X5136443Y-2514500D01*
X4846366Y-2514500D01*
X4802172Y-2496194D01*
X4784167Y-2458126D01*
X4775382Y-2368945D01*
X4773357Y-2348376D01*
X4717462Y-2164117D01*
X4626694Y-1994302D01*
X4504541Y-1845459D01*
X4355698Y-1723306D01*
X4355692Y-1723302D01*
X4185885Y-1632539D01*
X4185878Y-1632536D01*
X4185044Y-1632283D01*
X4184817Y-1632096D01*
X4183046Y-1631363D01*
X4183268Y-1630825D01*
X4148073Y-1601928D01*
X4140700Y-1572478D01*
X4140700Y-967521D01*
X4159006Y-923327D01*
X4183130Y-908870D01*
X4183036Y-908642D01*
X4184579Y-908002D01*
X4185069Y-907709D01*
X4185880Y-907463D01*
X4185880Y-907462D01*
X4185883Y-907462D01*
X4355698Y-816694D01*
X4504541Y-694541D01*
X4626694Y-545698D01*
X4717462Y-375883D01*
X4773357Y-191624D01*
X4777260Y-152000D01*
X5205140Y-152000D01*
X5210787Y-212947D01*
X5210789Y-212958D01*
X5269317Y-418659D01*
X5364646Y-610104D01*
X5364649Y-610110D01*
X5493521Y-780766D01*
X5493528Y-780773D01*
X5651575Y-924853D01*
X5833415Y-1037444D01*
X6032842Y-1114702D01*
X6198000Y-1145574D01*
X6198000Y-480256D01*
X6207685Y-484680D01*
X6314237Y-500000D01*
X6385763Y-500000D01*
X6492315Y-484680D01*
X6502000Y-480256D01*
X6502000Y-1145574D01*
X6667157Y-1114702D01*
X6866584Y-1037444D01*
X7048424Y-924853D01*
X7206471Y-780773D01*
X7206478Y-780766D01*
X7335350Y-610110D01*
X7335353Y-610104D01*
X7430682Y-418659D01*
X7489210Y-212958D01*
X7489212Y-212947D01*
X7494859Y-152000D01*
X6826477Y-152000D01*
X6850000Y-71889D01*
X6850000Y0D01*
X7907770Y0D01*
X7926642Y-191622D01*
X7946811Y-258111D01*
X7982538Y-375883D01*
X7982539Y-375884D01*
X8073302Y-545692D01*
X8073306Y-545698D01*
X8195459Y-694541D01*
X8344302Y-816694D01*
X8344304Y-816695D01*
X8344307Y-816697D01*
X8388491Y-840313D01*
X8514117Y-907462D01*
X8698376Y-963357D01*
X8890000Y-982230D01*
X9081624Y-963357D01*
X9265883Y-907462D01*
X9435698Y-816694D01*
X9584541Y-694541D01*
X9706694Y-545698D01*
X9797462Y-375883D01*
X9853357Y-191624D01*
X9872230Y0D01*
X9853357Y191624D01*
X9797462Y375883D01*
X9733901Y494796D01*
X9729213Y542400D01*
X9744827Y568449D01*
X9805573Y629195D01*
X9849767Y647500D01*
X10439768Y647500D01*
X10460409Y643993D01*
X10461538Y643598D01*
X10485977Y646352D01*
X10494424Y647303D01*
X10497926Y647500D01*
X10507609Y647500D01*
X10507611Y647500D01*
X10517063Y649659D01*
X10520492Y650242D01*
X10544622Y652960D01*
X10560397Y654736D01*
X10560605Y652881D01*
X10599520Y650700D01*
X10631400Y615037D01*
X10628724Y567276D01*
X10620724Y554738D01*
X10613309Y545704D01*
X10613302Y545693D01*
X10522947Y376649D01*
X10522538Y375883D01*
X10502369Y309396D01*
X10466642Y191623D01*
X10447770Y1D01*
X10447770Y0D01*
X10466642Y-191622D01*
X10486811Y-258111D01*
X10522538Y-375883D01*
X10522539Y-375884D01*
X10613302Y-545692D01*
X10613306Y-545698D01*
X10735459Y-694541D01*
X10884302Y-816694D01*
X10884304Y-816695D01*
X10884307Y-816697D01*
X10928491Y-840313D01*
X11054117Y-907462D01*
X11238376Y-963357D01*
X11430000Y-982230D01*
X11621624Y-963357D01*
X11805883Y-907462D01*
X11975698Y-816694D01*
X12124541Y-694541D01*
X12246694Y-545698D01*
X12337462Y-375883D01*
X12393357Y-191624D01*
X12412230Y0D01*
X12393357Y191624D01*
X12337462Y375883D01*
X12273900Y494797D01*
X12269212Y542399D01*
X12284825Y568449D01*
X12706136Y989759D01*
X12750331Y1008065D01*
X13532819Y1008065D01*
X13577013Y989759D01*
X13595319Y945565D01*
X13577013Y901371D01*
X13562282Y890447D01*
X13552477Y885205D01*
X13424307Y816698D01*
X13424301Y816694D01*
X13275459Y694541D01*
X13153306Y545699D01*
X13153302Y545693D01*
X13062947Y376649D01*
X13062538Y375883D01*
X13042369Y309396D01*
X13006642Y191623D01*
X12987770Y1D01*
X12987770Y0D01*
X13006642Y-191622D01*
X13026811Y-258111D01*
X13062538Y-375883D01*
X13062539Y-375884D01*
X13153302Y-545692D01*
X13153306Y-545698D01*
X13275459Y-694541D01*
X13424302Y-816694D01*
X13424304Y-816695D01*
X13424307Y-816697D01*
X13468491Y-840313D01*
X13594117Y-907462D01*
X13778376Y-963357D01*
X13820655Y-967521D01*
X13969999Y-982230D01*
X13969999Y-982229D01*
X13970000Y-982230D01*
X14161624Y-963357D01*
X14345883Y-907462D01*
X14515698Y-816694D01*
X14664541Y-694541D01*
X14786694Y-545698D01*
X14877462Y-375883D01*
X14933357Y-191624D01*
X14952230Y0D01*
X14933357Y191624D01*
X14877462Y375883D01*
X14792052Y535674D01*
X14786697Y545693D01*
X14786693Y545699D01*
X14733831Y610111D01*
X14664541Y694541D01*
X14515698Y816694D01*
X14515692Y816698D01*
X14410692Y872821D01*
X14377718Y890446D01*
X14347372Y927422D01*
X14352061Y975027D01*
X14389038Y1005374D01*
X14407181Y1008065D01*
X16072819Y1008065D01*
X16117013Y989759D01*
X16135319Y945565D01*
X16117013Y901371D01*
X16102282Y890447D01*
X16092477Y885205D01*
X15964307Y816698D01*
X15964301Y816694D01*
X15815459Y694541D01*
X15693306Y545699D01*
X15693302Y545693D01*
X15602947Y376649D01*
X15602538Y375883D01*
X15582369Y309396D01*
X15546642Y191623D01*
X15527770Y1D01*
X15527770Y0D01*
X15546642Y-191622D01*
X15566811Y-258111D01*
X15602538Y-375883D01*
X15602539Y-375884D01*
X15693302Y-545692D01*
X15693306Y-545698D01*
X15815459Y-694541D01*
X15964302Y-816694D01*
X15964304Y-816695D01*
X15964307Y-816697D01*
X16008491Y-840313D01*
X16134117Y-907462D01*
X16318376Y-963357D01*
X16510000Y-982230D01*
X16701624Y-963357D01*
X16885883Y-907462D01*
X17055698Y-816694D01*
X17204541Y-694541D01*
X17326694Y-545698D01*
X17417462Y-375883D01*
X17473357Y-191624D01*
X17492230Y0D01*
X17473357Y191624D01*
X17417462Y375883D01*
X17332052Y535674D01*
X17326697Y545693D01*
X17326693Y545699D01*
X17273831Y610111D01*
X17204541Y694541D01*
X17055698Y816694D01*
X17055692Y816698D01*
X16950692Y872821D01*
X16917718Y890446D01*
X16887372Y927422D01*
X16892061Y975027D01*
X16929038Y1005374D01*
X16947181Y1008065D01*
X18612819Y1008065D01*
X18657013Y989759D01*
X18675319Y945565D01*
X18657013Y901371D01*
X18642282Y890447D01*
X18632477Y885205D01*
X18504307Y816698D01*
X18504301Y816694D01*
X18355459Y694541D01*
X18233306Y545699D01*
X18233302Y545693D01*
X18142947Y376649D01*
X18142538Y375883D01*
X18122369Y309396D01*
X18086642Y191623D01*
X18067770Y1D01*
X18067770Y0D01*
X18086642Y-191622D01*
X18106811Y-258111D01*
X18142538Y-375883D01*
X18142539Y-375884D01*
X18233302Y-545692D01*
X18233306Y-545698D01*
X18355459Y-694541D01*
X18504302Y-816694D01*
X18504304Y-816695D01*
X18504307Y-816697D01*
X18548491Y-840313D01*
X18674117Y-907462D01*
X18858376Y-963357D01*
X19050000Y-982230D01*
X19241624Y-963357D01*
X19425883Y-907462D01*
X19595698Y-816694D01*
X19744541Y-694541D01*
X19866694Y-545698D01*
X19957462Y-375883D01*
X20013357Y-191624D01*
X20032230Y0D01*
X20013357Y191624D01*
X19957462Y375883D01*
X19872052Y535674D01*
X19866697Y545693D01*
X19866693Y545699D01*
X19813831Y610111D01*
X19744541Y694541D01*
X19595698Y816694D01*
X19595692Y816698D01*
X19490692Y872821D01*
X19457718Y890446D01*
X19427372Y927422D01*
X19432061Y975027D01*
X19469038Y1005374D01*
X19487181Y1008065D01*
X21152819Y1008065D01*
X21197013Y989759D01*
X21215319Y945565D01*
X21197013Y901371D01*
X21182282Y890447D01*
X21172477Y885205D01*
X21044307Y816698D01*
X21044301Y816694D01*
X20895459Y694541D01*
X20773306Y545699D01*
X20773302Y545693D01*
X20682947Y376649D01*
X20682538Y375883D01*
X20662369Y309396D01*
X20626642Y191623D01*
X20607770Y1D01*
X20607770Y0D01*
X20626642Y-191622D01*
X20646811Y-258111D01*
X20682538Y-375883D01*
X20682539Y-375884D01*
X20773302Y-545692D01*
X20773306Y-545698D01*
X20895459Y-694541D01*
X21044302Y-816694D01*
X21044304Y-816695D01*
X21044307Y-816697D01*
X21088491Y-840313D01*
X21214117Y-907462D01*
X21398376Y-963357D01*
X21590000Y-982230D01*
X21781624Y-963357D01*
X21965883Y-907462D01*
X22135698Y-816694D01*
X22284541Y-694541D01*
X22406694Y-545698D01*
X22497462Y-375883D01*
X22553357Y-191624D01*
X22572230Y-2D01*
X23384000Y-2D01*
X23414627Y-350071D01*
X23414630Y-350087D01*
X23505578Y-689509D01*
X23505579Y-689511D01*
X23654092Y-1007999D01*
X23855654Y-1295861D01*
X24104138Y-1544345D01*
X24150265Y-1576643D01*
X24392000Y-1745907D01*
X24391999Y-1745907D01*
X24551243Y-1820163D01*
X24710487Y-1894420D01*
X24710489Y-1894420D01*
X24710490Y-1894421D01*
X25049912Y-1985369D01*
X25049918Y-1985370D01*
X25049925Y-1985372D01*
X25259970Y-2003748D01*
X25399998Y-2016000D01*
X25400000Y-2016000D01*
X25400002Y-2016000D01*
X25516691Y-2005790D01*
X25750075Y-1985372D01*
X25750084Y-1985369D01*
X25750087Y-1985369D01*
X26089509Y-1894421D01*
X26089508Y-1894421D01*
X26089513Y-1894420D01*
X26408000Y-1745907D01*
X26695860Y-1544346D01*
X26944346Y-1295860D01*
X27145907Y-1008000D01*
X27294420Y-689513D01*
X27356486Y-457880D01*
X27385369Y-350087D01*
X27385370Y-350082D01*
X27385372Y-350075D01*
X27405790Y-116691D01*
X27416000Y-2D01*
X27416000Y3D01*
X27397368Y212959D01*
X27385372Y350075D01*
X27378456Y375885D01*
X27294421Y689510D01*
X27294420Y689512D01*
X27290104Y698767D01*
X27145907Y1008000D01*
X27125317Y1037406D01*
X26944345Y1295862D01*
X26695861Y1544346D01*
X26497674Y1683117D01*
X26408000Y1745907D01*
X26407998Y1745908D01*
X26408000Y1745908D01*
X26089511Y1894421D01*
X26089509Y1894422D01*
X25750087Y1985370D01*
X25750071Y1985373D01*
X25400002Y2016000D01*
X25399998Y2016000D01*
X25049928Y1985373D01*
X25049912Y1985370D01*
X24710490Y1894422D01*
X24710488Y1894421D01*
X24392000Y1745908D01*
X24104138Y1544346D01*
X23855654Y1295862D01*
X23654092Y1008000D01*
X23505579Y689512D01*
X23505578Y689510D01*
X23414630Y350088D01*
X23414627Y350072D01*
X23384000Y3D01*
X23384000Y-2D01*
X22572230Y-2D01*
X22572230Y0D01*
X22553357Y191624D01*
X22497462Y375883D01*
X22412052Y535674D01*
X22406697Y545693D01*
X22406693Y545699D01*
X22353831Y610111D01*
X22284541Y694541D01*
X22135698Y816694D01*
X22135692Y816698D01*
X22030692Y872821D01*
X21997718Y890446D01*
X21967372Y927422D01*
X21972061Y975027D01*
X22009038Y1005374D01*
X22027181Y1008065D01*
X22801298Y1008065D01*
X22821939Y1004558D01*
X22823068Y1004163D01*
X22847507Y1006917D01*
X22855954Y1007868D01*
X22859456Y1008065D01*
X22869139Y1008065D01*
X22869141Y1008065D01*
X22878593Y1010224D01*
X22882022Y1010807D01*
X22914925Y1014513D01*
X22915930Y1015146D01*
X22935282Y1023162D01*
X22936445Y1023427D01*
X22962342Y1044080D01*
X22965160Y1046079D01*
X22973379Y1051242D01*
X22980221Y1058086D01*
X22982837Y1060423D01*
X23008714Y1081059D01*
X23008713Y1081059D01*
X23008717Y1081061D01*
X23009234Y1082137D01*
X23021350Y1099215D01*
X25266451Y3344317D01*
X25283529Y3356433D01*
X25284605Y3356950D01*
X25300018Y3376278D01*
X25305243Y3382830D01*
X25307582Y3385447D01*
X25309790Y3387655D01*
X25314424Y3392288D01*
X25319579Y3400495D01*
X25321597Y3403340D01*
X25342239Y3429222D01*
X25342504Y3430385D01*
X25350522Y3449739D01*
X25351152Y3450741D01*
X25354858Y3483637D01*
X25355442Y3487072D01*
X25357601Y3496526D01*
X25357601Y3506215D01*
X25357798Y3509716D01*
X25358767Y3518326D01*
X25361503Y3542599D01*
X25361502Y3542602D01*
X25361108Y3543730D01*
X25357601Y3564370D01*
X25357601Y3766261D01*
X25375906Y3810454D01*
X25934545Y4369094D01*
X25951623Y4381210D01*
X25952699Y4381727D01*
X25960299Y4391258D01*
X25973337Y4407607D01*
X25975676Y4410224D01*
X25982518Y4417065D01*
X25987681Y4425284D01*
X25989680Y4428102D01*
X26010333Y4453999D01*
X26010598Y4455162D01*
X26018614Y4474514D01*
X26019247Y4475519D01*
X26022953Y4508416D01*
X26023535Y4511843D01*
X26025695Y4521303D01*
X26025695Y4530988D01*
X26025892Y4534485D01*
X26029598Y4567376D01*
X26029202Y4568508D01*
X26025695Y4589151D01*
X26025695Y6587098D01*
X26031342Y6613059D01*
X26082878Y6725906D01*
X26102542Y6862671D01*
X26082878Y6999436D01*
X26025480Y7125120D01*
X26025477Y7125124D01*
X25934995Y7229546D01*
X25818764Y7304242D01*
X25818755Y7304246D01*
X25686188Y7343171D01*
X25686186Y7343171D01*
X25548016Y7343171D01*
X25548014Y7343171D01*
X25415446Y7304246D01*
X25415437Y7304242D01*
X25299206Y7229546D01*
X25208724Y7125124D01*
X25208721Y7125119D01*
X25200452Y7107012D01*
X25165441Y7074416D01*
X25117637Y7076123D01*
X25085041Y7111134D01*
X25081100Y7132975D01*
X25081100Y7566042D01*
X25086747Y7592003D01*
X25138283Y7704850D01*
X25157947Y7841615D01*
X25138283Y7978380D01*
X25080885Y8104064D01*
X25059818Y8128377D01*
X24990400Y8208490D01*
X24874169Y8283186D01*
X24874160Y8283190D01*
X24741593Y8322115D01*
X24741591Y8322115D01*
X24603421Y8322115D01*
X24603419Y8322115D01*
X24470851Y8283190D01*
X24470842Y8283186D01*
X24354611Y8208490D01*
X24264129Y8104068D01*
X24264126Y8104063D01*
X24206729Y7978382D01*
X24206728Y7978379D01*
X24187065Y7841615D01*
X24206728Y7704852D01*
X24206729Y7704849D01*
X24264126Y7579168D01*
X24264129Y7579163D01*
X24354611Y7474741D01*
X24441181Y7419107D01*
X24470847Y7400042D01*
X24603418Y7361116D01*
X24603420Y7361115D01*
X24603421Y7361115D01*
X24613600Y7361115D01*
X24657794Y7342809D01*
X24676100Y7298615D01*
X24676100Y3743640D01*
X24657794Y3699446D01*
X22666221Y1707872D01*
X22622027Y1689566D01*
X11166888Y1689566D01*
X11146245Y1693073D01*
X11145114Y1693469D01*
X11112233Y1689763D01*
X11108731Y1689566D01*
X11099043Y1689566D01*
X11089590Y1687409D01*
X11086142Y1686824D01*
X11053254Y1683117D01*
X11052242Y1682480D01*
X11032911Y1674473D01*
X11031744Y1674207D01*
X11031739Y1674205D01*
X11005869Y1653574D01*
X11003011Y1651546D01*
X10994807Y1646392D01*
X10987956Y1639542D01*
X10985345Y1637209D01*
X10959468Y1616573D01*
X10959464Y1616567D01*
X10958946Y1615490D01*
X10946832Y1598418D01*
X10419222Y1070806D01*
X10375028Y1052500D01*
X9785031Y1052500D01*
X9764388Y1056007D01*
X9763254Y1056404D01*
X9730364Y1052697D01*
X9726862Y1052500D01*
X9717183Y1052500D01*
X9717179Y1052500D01*
X9717177Y1052499D01*
X9707738Y1050346D01*
X9704287Y1049759D01*
X9671398Y1046052D01*
X9671393Y1046050D01*
X9670377Y1045411D01*
X9651052Y1037406D01*
X9649880Y1037139D01*
X9649877Y1037137D01*
X9624010Y1016511D01*
X9621157Y1014487D01*
X9612947Y1009327D01*
X9612946Y1009326D01*
X9606091Y1002472D01*
X9603480Y1000139D01*
X9577608Y979507D01*
X9577604Y979501D01*
X9577087Y978426D01*
X9564973Y961354D01*
X9458449Y854830D01*
X9414255Y836524D01*
X9384793Y843904D01*
X9307523Y885205D01*
X9265883Y907462D01*
X9137269Y946477D01*
X9081622Y963358D01*
X8890000Y982230D01*
X8698377Y963358D01*
X8580604Y927631D01*
X8514117Y907462D01*
X8514115Y907462D01*
X8514115Y907461D01*
X8344307Y816698D01*
X8344301Y816694D01*
X8195459Y694541D01*
X8073306Y545699D01*
X8073302Y545693D01*
X7982947Y376649D01*
X7982538Y375883D01*
X7962369Y309396D01*
X7926642Y191623D01*
X7907770Y1D01*
X7907770Y0D01*
X6850000Y0D01*
X6850000Y71889D01*
X6826477Y152000D01*
X7494859Y152000D01*
X7494859Y152001D01*
X7489212Y212948D01*
X7489210Y212959D01*
X7430682Y418660D01*
X7335353Y610105D01*
X7335350Y610111D01*
X7206478Y780767D01*
X7206471Y780774D01*
X7048424Y924854D01*
X6866584Y1037445D01*
X6667156Y1114703D01*
X6502000Y1145576D01*
X6502000Y480257D01*
X6492315Y484680D01*
X6385763Y500000D01*
X6314237Y500000D01*
X6207685Y484680D01*
X6198000Y480257D01*
X6198000Y1145576D01*
X6032843Y1114703D01*
X5833415Y1037445D01*
X5651575Y924854D01*
X5493528Y780774D01*
X5493521Y780767D01*
X5364649Y610111D01*
X5364646Y610105D01*
X5269317Y418660D01*
X5210789Y212959D01*
X5210787Y212948D01*
X5205140Y152001D01*
X5205141Y152000D01*
X5873523Y152000D01*
X5850000Y71889D01*
X5850000Y-71889D01*
X5873523Y-152000D01*
X5205140Y-152000D01*
X4777260Y-152000D01*
X4792230Y0D01*
X4773357Y191624D01*
X4717462Y375883D01*
X4717051Y376651D01*
X4717023Y376941D01*
X4716287Y378718D01*
X4716826Y378942D01*
X4712366Y424255D01*
X4727978Y450300D01*
X6155274Y1877595D01*
X6199469Y1895901D01*
X16250478Y1895901D01*
X16253199Y1895783D01*
X16295551Y1892077D01*
X16336627Y1903085D01*
X16339243Y1903665D01*
X16381135Y1911050D01*
X16386803Y1914323D01*
X16401881Y1920568D01*
X16402958Y1920857D01*
X16408200Y1922261D01*
X16443023Y1946646D01*
X16445312Y1948104D01*
X16482133Y1969362D01*
X16509471Y2001945D01*
X16511281Y2003920D01*
X16640689Y2133328D01*
X16684882Y2151633D01*
X16693037Y2151099D01*
X16739625Y2144965D01*
X16766782Y2141389D01*
X16766783Y2141389D01*
X16766785Y2141389D01*
X16918369Y2161346D01*
X16918369Y2161347D01*
X16918376Y2161347D01*
X17059639Y2219859D01*
X17180943Y2312940D01*
X17274024Y2434244D01*
X17332536Y2575507D01*
X17332549Y2575607D01*
X17352494Y2727098D01*
X17352494Y2727103D01*
X17332537Y2878687D01*
X17332536Y2878689D01*
X17332536Y2878693D01*
X17274024Y3019955D01*
X17274023Y3019957D01*
X17213727Y3098535D01*
X17201346Y3144741D01*
X17225263Y3186167D01*
X17263311Y3199083D01*
X17865816Y3199083D01*
X17865817Y3199083D01*
X17903007Y3206481D01*
X17945181Y3234661D01*
X17973361Y3276835D01*
X17980759Y3314025D01*
X17980759Y5708080D01*
X17999065Y5752274D01*
X18043259Y5770580D01*
X18087453Y5752274D01*
X18237453Y5602274D01*
X18255759Y5558080D01*
X18255759Y3314025D01*
X18256350Y3311056D01*
X18263157Y3276835D01*
X18263157Y3276834D01*
X18291336Y3234661D01*
X18319516Y3215833D01*
X18333511Y3206481D01*
X18370701Y3199083D01*
X18370702Y3199083D01*
X19135816Y3199083D01*
X19135817Y3199083D01*
X19173007Y3206481D01*
X19215181Y3234661D01*
X19243361Y3276835D01*
X19250759Y3314025D01*
X19525759Y3314025D01*
X19526350Y3311056D01*
X19533157Y3276835D01*
X19533157Y3276834D01*
X19561336Y3234661D01*
X19589516Y3215833D01*
X19603511Y3206481D01*
X19640701Y3199083D01*
X19640702Y3199083D01*
X20405816Y3199083D01*
X20405817Y3199083D01*
X20443007Y3206481D01*
X20485181Y3234661D01*
X20513361Y3276835D01*
X20520759Y3314025D01*
X20520759Y5739141D01*
X20513361Y5776331D01*
X20506811Y5786134D01*
X20485181Y5818506D01*
X20443007Y5846685D01*
X20438603Y5847561D01*
X20405817Y5854083D01*
X19640701Y5854083D01*
X19625017Y5850963D01*
X19603510Y5846685D01*
X19603509Y5846685D01*
X19561336Y5818506D01*
X19533157Y5776333D01*
X19533157Y5776332D01*
X19528371Y5752274D01*
X19525759Y5739141D01*
X19525759Y3314025D01*
X19250759Y3314025D01*
X19250759Y5739141D01*
X19243361Y5776331D01*
X19236811Y5786134D01*
X19215181Y5818506D01*
X19173007Y5846685D01*
X19168603Y5847561D01*
X19135817Y5854083D01*
X19135816Y5854083D01*
X18551762Y5854083D01*
X18507568Y5872389D01*
X18180858Y6199099D01*
X18168742Y6216175D01*
X18168515Y6216646D01*
X18144192Y6236043D01*
X18141577Y6238380D01*
X18135185Y6244772D01*
X18127531Y6249581D01*
X18124669Y6251612D01*
X18100348Y6271008D01*
X18100345Y6271009D01*
X18099829Y6271127D01*
X18080496Y6279136D01*
X18080050Y6279416D01*
X18080052Y6279416D01*
X18049134Y6282899D01*
X18045679Y6283486D01*
X18036867Y6285497D01*
X18036866Y6285497D01*
X18027828Y6285497D01*
X18024326Y6285694D01*
X17994945Y6289004D01*
X17993410Y6289177D01*
X17993409Y6289177D01*
X17992915Y6289004D01*
X17972273Y6285497D01*
X14035437Y6285497D01*
X14014795Y6289004D01*
X14014300Y6289177D01*
X13983384Y6285694D01*
X13979882Y6285497D01*
X13970844Y6285497D01*
X13968500Y6284962D01*
X13967542Y6285125D01*
X13967358Y6285104D01*
X13967352Y6285158D01*
X13921341Y6292980D01*
X13893664Y6331996D01*
X13892634Y6354053D01*
X13900791Y6416009D01*
X13900121Y6421097D01*
X13883508Y6547286D01*
X13895888Y6593491D01*
X13937315Y6617409D01*
X13945473Y6617944D01*
X14055024Y6617944D01*
X14055024Y6617945D01*
X14187597Y6656871D01*
X14246482Y6694714D01*
X14303832Y6731570D01*
X14307732Y6736070D01*
X14358599Y6794774D01*
X14383501Y6823512D01*
X14426276Y6844924D01*
X14430735Y6845083D01*
X20778756Y6845083D01*
X20822950Y6826777D01*
X21688950Y5960777D01*
X21707256Y5916583D01*
X21688950Y5872389D01*
X21644756Y5854083D01*
X20910701Y5854083D01*
X20895017Y5850963D01*
X20873510Y5846685D01*
X20873509Y5846685D01*
X20831336Y5818506D01*
X20803157Y5776333D01*
X20803157Y5776332D01*
X20798371Y5752274D01*
X20795759Y5739141D01*
X20795759Y3314025D01*
X20796350Y3311056D01*
X20803157Y3276835D01*
X20803157Y3276834D01*
X20831336Y3234661D01*
X20859516Y3215833D01*
X20873511Y3206481D01*
X20910701Y3199083D01*
X20910702Y3199083D01*
X21675816Y3199083D01*
X21675817Y3199083D01*
X21713007Y3206481D01*
X21755181Y3234661D01*
X21783361Y3276835D01*
X21790759Y3314025D01*
X21790759Y5708081D01*
X21809065Y5752274D01*
X21853259Y5770580D01*
X21897453Y5752274D01*
X22047453Y5602274D01*
X22065759Y5558081D01*
X22065759Y3314025D01*
X22066350Y3311056D01*
X22073157Y3276835D01*
X22073157Y3276834D01*
X22101336Y3234661D01*
X22129516Y3215833D01*
X22143511Y3206481D01*
X22180701Y3199083D01*
X22180702Y3199083D01*
X22945816Y3199083D01*
X22945817Y3199083D01*
X22983007Y3206481D01*
X23025181Y3234661D01*
X23053361Y3276835D01*
X23060759Y3314025D01*
X23060759Y5739141D01*
X23053361Y5776331D01*
X23046811Y5786134D01*
X23025181Y5818506D01*
X22983007Y5846685D01*
X22978603Y5847561D01*
X22945817Y5854083D01*
X22945816Y5854083D01*
X22361762Y5854083D01*
X22317568Y5872389D01*
X21197568Y6992389D01*
X21179262Y7036583D01*
X21197568Y7080777D01*
X21241762Y7099083D01*
X21675816Y7099083D01*
X21675817Y7099083D01*
X21713007Y7106481D01*
X21755181Y7134661D01*
X21780394Y7172396D01*
X21820167Y7198971D01*
X21867084Y7189639D01*
X21888826Y7159423D01*
X21890309Y7160077D01*
X21938116Y7051805D01*
X22018480Y6971441D01*
X22122453Y6925532D01*
X22147870Y6922584D01*
X22411258Y6922584D01*
X22411259Y6922585D01*
X22411259Y8274583D01*
X22715259Y8274583D01*
X22715259Y6922584D01*
X22978647Y6922584D01*
X23004066Y6925533D01*
X23004067Y6925533D01*
X23108037Y6971441D01*
X23188401Y7051805D01*
X23234310Y7155778D01*
X23237259Y7181195D01*
X23237259Y8274583D01*
X22715259Y8274583D01*
X22411259Y8274583D01*
X22411259Y9930583D01*
X22715259Y9930583D01*
X22715259Y8578583D01*
X23237258Y8578583D01*
X23237258Y9671972D01*
X23234309Y9697391D01*
X23234309Y9697392D01*
X23188401Y9801362D01*
X23108037Y9881726D01*
X23004064Y9927635D01*
X22978648Y9930583D01*
X22715259Y9930583D01*
X22411259Y9930583D01*
X22147870Y9930583D01*
X22122451Y9927634D01*
X22122450Y9927634D01*
X22018480Y9881726D01*
X21938116Y9801362D01*
X21890310Y9693090D01*
X21888616Y9693838D01*
X21863384Y9661237D01*
X21815932Y9655192D01*
X21780394Y9680771D01*
X21755181Y9718506D01*
X21713007Y9746685D01*
X21713006Y9746686D01*
X21675817Y9754083D01*
X20910701Y9754083D01*
X20892105Y9750384D01*
X20873510Y9746685D01*
X20873509Y9746685D01*
X20831335Y9718505D01*
X20806122Y9680771D01*
X20766348Y9654196D01*
X20719432Y9663529D01*
X20697694Y9693746D01*
X20696209Y9693089D01*
X20648401Y9801362D01*
X20568037Y9881726D01*
X20464064Y9927635D01*
X20438648Y9930583D01*
X20175259Y9930583D01*
X20175259Y8337083D01*
X20156953Y8292889D01*
X20112759Y8274583D01*
X18663759Y8274583D01*
X18619565Y8292889D01*
X18601259Y8337083D01*
X18601259Y9930583D01*
X18905259Y9930583D01*
X18905259Y8578583D01*
X19871259Y8578583D01*
X19871259Y9930583D01*
X19607870Y9930583D01*
X19582451Y9927634D01*
X19582450Y9927634D01*
X19478480Y9881726D01*
X19432453Y9835698D01*
X19388259Y9817392D01*
X19344065Y9835698D01*
X19298037Y9881726D01*
X19194064Y9927635D01*
X19168648Y9930583D01*
X18905259Y9930583D01*
X18601259Y9930583D01*
X18337870Y9930583D01*
X18312451Y9927634D01*
X18312450Y9927634D01*
X18208480Y9881726D01*
X18128116Y9801362D01*
X18080310Y9693090D01*
X18078616Y9693838D01*
X18053384Y9661237D01*
X18005932Y9655192D01*
X17970394Y9680771D01*
X17945181Y9718506D01*
X17903007Y9746685D01*
X17903006Y9746686D01*
X17865817Y9754083D01*
X17100701Y9754083D01*
X17082105Y9750384D01*
X17063510Y9746685D01*
X17063509Y9746685D01*
X17021336Y9718506D01*
X16993157Y9676333D01*
X16993157Y9676332D01*
X16985759Y9639141D01*
X16985759Y8768983D01*
X16967453Y8724789D01*
X16923259Y8706483D01*
X14022818Y8706483D01*
X14012099Y8708231D01*
X14012039Y8707800D01*
X14006304Y8708601D01*
X13977639Y8707275D01*
X13961209Y8706516D01*
X13959794Y8706483D01*
X13941025Y8706483D01*
X13936761Y8705685D01*
X13932460Y8705187D01*
X13901776Y8703769D01*
X13901769Y8703767D01*
X13890242Y8698678D01*
X13876489Y8694419D01*
X13864107Y8692104D01*
X13864102Y8692102D01*
X13837977Y8675927D01*
X13834146Y8673908D01*
X13806045Y8661499D01*
X13797130Y8652585D01*
X13785844Y8643646D01*
X13775133Y8637014D01*
X13756619Y8612499D01*
X13753776Y8609231D01*
X13046156Y7901612D01*
X13037344Y7895269D01*
X13037605Y7894923D01*
X13032982Y7891432D01*
X13002580Y7858083D01*
X13001585Y7857040D01*
X12988324Y7843779D01*
X12988319Y7843773D01*
X12985870Y7840198D01*
X12983183Y7836807D01*
X12962485Y7814102D01*
X12962484Y7814099D01*
X12957933Y7802352D01*
X12951219Y7789613D01*
X12944096Y7779214D01*
X12944095Y7779213D01*
X12937062Y7749309D01*
X12935780Y7745170D01*
X12924682Y7716521D01*
X12924682Y7703921D01*
X12923022Y7689612D01*
X12920138Y7677350D01*
X12924382Y7646923D01*
X12924682Y7642600D01*
X12924682Y6856625D01*
X12911767Y6818579D01*
X12836401Y6720361D01*
X12794976Y6696444D01*
X12786818Y6695909D01*
X11135664Y6695909D01*
X11091470Y6714215D01*
X11073164Y6758409D01*
X11082932Y6786330D01*
X11080811Y6787351D01*
X11083868Y6793703D01*
X11083870Y6793704D01*
X11084387Y6794780D01*
X11096503Y6811858D01*
X11251402Y6966756D01*
X11295597Y6985062D01*
X11340798Y6985062D01*
X11340798Y6985063D01*
X11473371Y7023989D01*
X11551837Y7074416D01*
X11589606Y7098688D01*
X11589608Y7098690D01*
X11680091Y7203113D01*
X11737489Y7328797D01*
X11757153Y7465562D01*
X11737489Y7602327D01*
X11680091Y7728011D01*
X11663468Y7747195D01*
X11589606Y7832437D01*
X11473375Y7907133D01*
X11473366Y7907137D01*
X11340799Y7946062D01*
X11340797Y7946062D01*
X11202627Y7946062D01*
X11202625Y7946062D01*
X11070057Y7907137D01*
X11070048Y7907133D01*
X10953817Y7832437D01*
X10863335Y7728015D01*
X10863332Y7728010D01*
X10805935Y7602329D01*
X10805934Y7602326D01*
X10786271Y7465562D01*
X10805934Y7328799D01*
X10805935Y7328797D01*
X10852386Y7227083D01*
X10858283Y7214172D01*
X10859990Y7166367D01*
X10827395Y7131356D01*
X10801431Y7125708D01*
X7418070Y7125708D01*
X7397427Y7129215D01*
X7396296Y7129611D01*
X7363415Y7125905D01*
X7359913Y7125708D01*
X7350225Y7125708D01*
X7340772Y7123551D01*
X7337324Y7122966D01*
X7304436Y7119259D01*
X7303424Y7118622D01*
X7284093Y7110615D01*
X7282926Y7110349D01*
X7282921Y7110347D01*
X7257051Y7089716D01*
X7254193Y7087688D01*
X7245989Y7082534D01*
X7239138Y7075684D01*
X7236527Y7073351D01*
X7210650Y7052715D01*
X7210646Y7052709D01*
X7210128Y7051632D01*
X7198014Y7034560D01*
X6135436Y5971980D01*
X6091242Y5953674D01*
X5259985Y5953674D01*
X5215791Y5971980D01*
X5187975Y5999796D01*
X5169669Y6043990D01*
X5171183Y6054494D01*
X5170795Y6054549D01*
X5177141Y6098691D01*
X5191095Y6195739D01*
X5171431Y6332504D01*
X5114033Y6458188D01*
X5078427Y6499280D01*
X5023548Y6562614D01*
X4907317Y6637310D01*
X4907308Y6637314D01*
X4774741Y6676239D01*
X4774739Y6676239D01*
X4636569Y6676239D01*
X4636567Y6676239D01*
X4503999Y6637314D01*
X4503990Y6637310D01*
X4429171Y6589226D01*
X4382096Y6580732D01*
X4342803Y6608014D01*
X4332881Y6641804D01*
X4332881Y8364770D01*
X4351187Y8408964D01*
X4357326Y8414350D01*
X4460936Y8493852D01*
X4552622Y8613339D01*
X4610258Y8752485D01*
X4629917Y8901807D01*
X4610258Y9051129D01*
X4552622Y9190275D01*
X4460936Y9309762D01*
X4357332Y9389261D01*
X4333416Y9430686D01*
X4332881Y9438844D01*
X4332881Y9861169D01*
X4334629Y9871887D01*
X4334198Y9871947D01*
X4334998Y9877682D01*
X4334313Y9892506D01*
X4332913Y9922778D01*
X4332881Y9924193D01*
X4332881Y9942952D01*
X4332881Y9942954D01*
X4332080Y9947232D01*
X4331584Y9951518D01*
X4330166Y9982212D01*
X4325075Y9993742D01*
X4320815Y10007502D01*
X4318501Y10019881D01*
X4318501Y10019882D01*
X4302326Y10046005D01*
X4300305Y10049839D01*
X4287897Y10077942D01*
X4278988Y10086850D01*
X4270044Y10098141D01*
X4263412Y10108852D01*
X4263411Y10108854D01*
X4238894Y10127368D01*
X4235626Y10130212D01*
X2162956Y12202882D01*
X2144650Y12247076D01*
X2152030Y12276539D01*
X2154597Y12281341D01*
X2177462Y12324117D01*
X2233357Y12508376D01*
X2252230Y12700000D01*
X2827770Y12700000D01*
X2846642Y12508378D01*
X2866811Y12441889D01*
X2902538Y12324117D01*
X2902539Y12324116D01*
X2993302Y12154308D01*
X2993306Y12154302D01*
X3115459Y12005459D01*
X3264302Y11883306D01*
X3264304Y11883305D01*
X3264307Y11883303D01*
X3274324Y11877949D01*
X3434117Y11792538D01*
X3618376Y11736643D01*
X3810000Y11717770D01*
X4001624Y11736643D01*
X4185883Y11792538D01*
X4355698Y11883306D01*
X4504541Y12005459D01*
X4626694Y12154302D01*
X4717462Y12324117D01*
X4773357Y12508376D01*
X4792230Y12700000D01*
X5367770Y12700000D01*
X5386642Y12508378D01*
X5406811Y12441889D01*
X5442538Y12324117D01*
X5442539Y12324116D01*
X5533302Y12154308D01*
X5533306Y12154302D01*
X5655459Y12005459D01*
X5804302Y11883306D01*
X5804304Y11883305D01*
X5804307Y11883303D01*
X5814324Y11877949D01*
X5974117Y11792538D01*
X6158376Y11736643D01*
X6350000Y11717770D01*
X6541624Y11736643D01*
X6725883Y11792538D01*
X6895698Y11883306D01*
X7044541Y12005459D01*
X7166694Y12154302D01*
X7257462Y12324117D01*
X7313357Y12508376D01*
X7332230Y12700000D01*
X7907770Y12700000D01*
X7926642Y12508378D01*
X7946811Y12441889D01*
X7982538Y12324117D01*
X7982539Y12324116D01*
X8073302Y12154308D01*
X8073306Y12154302D01*
X8195459Y12005459D01*
X8344302Y11883306D01*
X8344304Y11883305D01*
X8344307Y11883303D01*
X8354324Y11877949D01*
X8514117Y11792538D01*
X8698376Y11736643D01*
X8890000Y11717770D01*
X9081624Y11736643D01*
X9265883Y11792538D01*
X9435698Y11883306D01*
X9584541Y12005459D01*
X9706694Y12154302D01*
X9797462Y12324117D01*
X9853357Y12508376D01*
X9872230Y12700000D01*
X10447770Y12700000D01*
X10466642Y12508378D01*
X10486811Y12441889D01*
X10522538Y12324117D01*
X10522539Y12324116D01*
X10613302Y12154308D01*
X10613306Y12154302D01*
X10735459Y12005459D01*
X10884302Y11883306D01*
X10884304Y11883305D01*
X10884307Y11883303D01*
X10894324Y11877949D01*
X11054117Y11792538D01*
X11238376Y11736643D01*
X11430000Y11717770D01*
X11621624Y11736643D01*
X11805883Y11792538D01*
X11975698Y11883306D01*
X12124541Y12005459D01*
X12246694Y12154302D01*
X12337462Y12324117D01*
X12393357Y12508376D01*
X12412230Y12700000D01*
X12987770Y12700000D01*
X13006642Y12508378D01*
X13026811Y12441889D01*
X13062538Y12324117D01*
X13062539Y12324116D01*
X13153302Y12154308D01*
X13153306Y12154302D01*
X13275459Y12005459D01*
X13424302Y11883306D01*
X13424304Y11883305D01*
X13424307Y11883303D01*
X13434324Y11877949D01*
X13594117Y11792538D01*
X13778376Y11736643D01*
X13970000Y11717770D01*
X14161624Y11736643D01*
X14345883Y11792538D01*
X14515698Y11883306D01*
X14664541Y12005459D01*
X14786694Y12154302D01*
X14877462Y12324117D01*
X14933357Y12508376D01*
X14952230Y12700000D01*
X15527770Y12700000D01*
X15546642Y12508378D01*
X15566811Y12441889D01*
X15602538Y12324117D01*
X15602539Y12324116D01*
X15693302Y12154308D01*
X15693306Y12154302D01*
X15815459Y12005459D01*
X15964302Y11883306D01*
X15964304Y11883305D01*
X15964307Y11883303D01*
X15974324Y11877949D01*
X16134117Y11792538D01*
X16318376Y11736643D01*
X16510000Y11717770D01*
X16701624Y11736643D01*
X16885883Y11792538D01*
X17055698Y11883306D01*
X17204541Y12005459D01*
X17326694Y12154302D01*
X17417462Y12324117D01*
X17473357Y12508376D01*
X17492230Y12700000D01*
X18067770Y12700000D01*
X18086642Y12508378D01*
X18106811Y12441889D01*
X18142538Y12324117D01*
X18142539Y12324116D01*
X18233302Y12154308D01*
X18233306Y12154302D01*
X18355459Y12005459D01*
X18504302Y11883306D01*
X18504304Y11883305D01*
X18504307Y11883303D01*
X18514324Y11877949D01*
X18674117Y11792538D01*
X18858376Y11736643D01*
X19050000Y11717770D01*
X19241624Y11736643D01*
X19425883Y11792538D01*
X19595698Y11883306D01*
X19744541Y12005459D01*
X19866694Y12154302D01*
X19957462Y12324117D01*
X20013357Y12508376D01*
X20032230Y12700000D01*
X20607770Y12700000D01*
X20626642Y12508378D01*
X20646811Y12441889D01*
X20682538Y12324117D01*
X20682539Y12324116D01*
X20773302Y12154308D01*
X20773306Y12154302D01*
X20895459Y12005459D01*
X21044302Y11883306D01*
X21044304Y11883305D01*
X21044307Y11883303D01*
X21054324Y11877949D01*
X21214117Y11792538D01*
X21398376Y11736643D01*
X21590000Y11717770D01*
X21781624Y11736643D01*
X21965883Y11792538D01*
X22135698Y11883306D01*
X22284541Y12005459D01*
X22406694Y12154302D01*
X22497462Y12324117D01*
X22553357Y12508376D01*
X22572230Y12700000D01*
X22571730Y12705072D01*
X22553357Y12891623D01*
X22546885Y12912959D01*
X22497462Y13075883D01*
X22406694Y13245698D01*
X22284541Y13394541D01*
X22135698Y13516694D01*
X22135692Y13516698D01*
X21998842Y13589845D01*
X21965883Y13607462D01*
X21848111Y13643189D01*
X21781622Y13663358D01*
X21590000Y13682230D01*
X21398377Y13663358D01*
X21280604Y13627631D01*
X21214117Y13607462D01*
X21214115Y13607462D01*
X21214115Y13607461D01*
X21044307Y13516698D01*
X21044301Y13516694D01*
X20895459Y13394541D01*
X20773306Y13245699D01*
X20773302Y13245693D01*
X20694704Y13098644D01*
X20682538Y13075883D01*
X20663593Y13013429D01*
X20626642Y12891623D01*
X20607770Y12700001D01*
X20607770Y12700000D01*
X20032230Y12700000D01*
X20031730Y12705072D01*
X20013357Y12891623D01*
X20006885Y12912959D01*
X19957462Y13075883D01*
X19866694Y13245698D01*
X19744541Y13394541D01*
X19595698Y13516694D01*
X19595692Y13516698D01*
X19458842Y13589845D01*
X19425883Y13607462D01*
X19308111Y13643189D01*
X19241622Y13663358D01*
X19050000Y13682230D01*
X18858377Y13663358D01*
X18740604Y13627631D01*
X18674117Y13607462D01*
X18674115Y13607462D01*
X18674115Y13607461D01*
X18504307Y13516698D01*
X18504301Y13516694D01*
X18355459Y13394541D01*
X18233306Y13245699D01*
X18233302Y13245693D01*
X18154704Y13098644D01*
X18142538Y13075883D01*
X18123593Y13013429D01*
X18086642Y12891623D01*
X18067770Y12700001D01*
X18067770Y12700000D01*
X17492230Y12700000D01*
X17491730Y12705072D01*
X17473357Y12891623D01*
X17466885Y12912959D01*
X17417462Y13075883D01*
X17326694Y13245698D01*
X17204541Y13394541D01*
X17055698Y13516694D01*
X17055692Y13516698D01*
X16918842Y13589845D01*
X16885883Y13607462D01*
X16768111Y13643189D01*
X16701622Y13663358D01*
X16510000Y13682230D01*
X16318377Y13663358D01*
X16200604Y13627631D01*
X16134117Y13607462D01*
X16134115Y13607462D01*
X16134115Y13607461D01*
X15964307Y13516698D01*
X15964301Y13516694D01*
X15815459Y13394541D01*
X15693306Y13245699D01*
X15693302Y13245693D01*
X15614704Y13098644D01*
X15602538Y13075883D01*
X15583593Y13013429D01*
X15546642Y12891623D01*
X15527770Y12700001D01*
X15527770Y12700000D01*
X14952230Y12700000D01*
X14951730Y12705072D01*
X14933357Y12891623D01*
X14926885Y12912959D01*
X14877462Y13075883D01*
X14786694Y13245698D01*
X14664541Y13394541D01*
X14515698Y13516694D01*
X14515692Y13516698D01*
X14378842Y13589845D01*
X14345883Y13607462D01*
X14228111Y13643189D01*
X14161622Y13663358D01*
X13970000Y13682230D01*
X13778377Y13663358D01*
X13660604Y13627631D01*
X13594117Y13607462D01*
X13594115Y13607462D01*
X13594115Y13607461D01*
X13424307Y13516698D01*
X13424301Y13516694D01*
X13275459Y13394541D01*
X13153306Y13245699D01*
X13153302Y13245693D01*
X13074704Y13098644D01*
X13062538Y13075883D01*
X13043593Y13013429D01*
X13006642Y12891623D01*
X12987770Y12700001D01*
X12987770Y12700000D01*
X12412230Y12700000D01*
X12411730Y12705072D01*
X12393357Y12891623D01*
X12386885Y12912959D01*
X12337462Y13075883D01*
X12246694Y13245698D01*
X12124541Y13394541D01*
X11975698Y13516694D01*
X11975692Y13516698D01*
X11838842Y13589845D01*
X11805883Y13607462D01*
X11688111Y13643189D01*
X11621622Y13663358D01*
X11430000Y13682230D01*
X11238377Y13663358D01*
X11120604Y13627631D01*
X11054117Y13607462D01*
X11054115Y13607462D01*
X11054115Y13607461D01*
X10884307Y13516698D01*
X10884301Y13516694D01*
X10735459Y13394541D01*
X10613306Y13245699D01*
X10613302Y13245693D01*
X10534704Y13098644D01*
X10522538Y13075883D01*
X10503593Y13013429D01*
X10466642Y12891623D01*
X10447770Y12700001D01*
X10447770Y12700000D01*
X9872230Y12700000D01*
X9871730Y12705072D01*
X9853357Y12891623D01*
X9846885Y12912959D01*
X9797462Y13075883D01*
X9706694Y13245698D01*
X9584541Y13394541D01*
X9435698Y13516694D01*
X9435692Y13516698D01*
X9298842Y13589845D01*
X9265883Y13607462D01*
X9148111Y13643189D01*
X9081622Y13663358D01*
X8890000Y13682230D01*
X8698377Y13663358D01*
X8580604Y13627631D01*
X8514117Y13607462D01*
X8514115Y13607462D01*
X8514115Y13607461D01*
X8344307Y13516698D01*
X8344301Y13516694D01*
X8195459Y13394541D01*
X8073306Y13245699D01*
X8073302Y13245693D01*
X7994704Y13098644D01*
X7982538Y13075883D01*
X7963593Y13013429D01*
X7926642Y12891623D01*
X7907770Y12700001D01*
X7907770Y12700000D01*
X7332230Y12700000D01*
X7331730Y12705072D01*
X7313357Y12891623D01*
X7306885Y12912959D01*
X7257462Y13075883D01*
X7166694Y13245698D01*
X7044541Y13394541D01*
X6895698Y13516694D01*
X6895692Y13516698D01*
X6758842Y13589845D01*
X6725883Y13607462D01*
X6608111Y13643189D01*
X6541622Y13663358D01*
X6350000Y13682230D01*
X6158377Y13663358D01*
X6040604Y13627631D01*
X5974117Y13607462D01*
X5974115Y13607462D01*
X5974115Y13607461D01*
X5804307Y13516698D01*
X5804301Y13516694D01*
X5655459Y13394541D01*
X5533306Y13245699D01*
X5533302Y13245693D01*
X5454704Y13098644D01*
X5442538Y13075883D01*
X5423593Y13013429D01*
X5386642Y12891623D01*
X5367770Y12700001D01*
X5367770Y12700000D01*
X4792230Y12700000D01*
X4791730Y12705072D01*
X4773357Y12891623D01*
X4766885Y12912959D01*
X4717462Y13075883D01*
X4626694Y13245698D01*
X4504541Y13394541D01*
X4355698Y13516694D01*
X4355692Y13516698D01*
X4218842Y13589845D01*
X4185883Y13607462D01*
X4068111Y13643189D01*
X4001622Y13663358D01*
X3810000Y13682230D01*
X3618377Y13663358D01*
X3500604Y13627631D01*
X3434117Y13607462D01*
X3434115Y13607462D01*
X3434115Y13607461D01*
X3264307Y13516698D01*
X3264301Y13516694D01*
X3115459Y13394541D01*
X2993306Y13245699D01*
X2993302Y13245693D01*
X2914704Y13098644D01*
X2902538Y13075883D01*
X2883593Y13013429D01*
X2846642Y12891623D01*
X2827770Y12700001D01*
X2827770Y12700000D01*
X2252230Y12700000D01*
X2251730Y12705072D01*
X2233357Y12891623D01*
X2226885Y12912959D01*
X2177462Y13075883D01*
X2086694Y13245698D01*
X1964541Y13394541D01*
X1815698Y13516694D01*
X1815692Y13516698D01*
X1678842Y13589845D01*
X1645883Y13607462D01*
X1528111Y13643189D01*
X1461622Y13663358D01*
X1270000Y13682230D01*
X1078377Y13663358D01*
X960604Y13627631D01*
X894117Y13607462D01*
X894115Y13607462D01*
X894115Y13607461D01*
X724307Y13516698D01*
X724301Y13516694D01*
X575459Y13394541D01*
X453306Y13245699D01*
X453302Y13245693D01*
X374704Y13098644D01*
X362538Y13075883D01*
X343593Y13013429D01*
X306642Y12891623D01*
X287770Y12700001D01*
X287770Y12700000D01*
X306642Y12508378D01*
X326811Y12441889D01*
X362538Y12324117D01*
X362539Y12324116D01*
X453302Y12154308D01*
X453306Y12154302D01*
X575459Y12005459D01*
X724302Y11883306D01*
X724304Y11883305D01*
X724307Y11883303D01*
X734324Y11877949D01*
X894117Y11792538D01*
X1078376Y11736643D01*
X1270000Y11717770D01*
X1461624Y11736643D01*
X1645883Y11792538D01*
X1693461Y11817971D01*
X1741066Y11822659D01*
X1767118Y11807044D01*
X3754775Y9819387D01*
X3773081Y9775194D01*
X3773081Y9438844D01*
X3754775Y9394650D01*
X3748635Y9389265D01*
X3645026Y9309762D01*
X3553340Y9190275D01*
X3495703Y9051126D01*
X3495702Y9051123D01*
X3476045Y8901810D01*
X3476045Y8901805D01*
X3495702Y8752492D01*
X3495703Y8752489D01*
X3495704Y8752485D01*
X3553340Y8613339D01*
X3645026Y8493852D01*
X3748629Y8414354D01*
X3772546Y8372928D01*
X3773081Y8364770D01*
X3773081Y6010625D01*
X3771332Y5999906D01*
X3771763Y5999845D01*
X3770962Y5994108D01*
X3771939Y5973005D01*
X3773048Y5949000D01*
X3773081Y5947584D01*
X3773081Y5928835D01*
X3773727Y5925379D01*
X3773878Y5924569D01*
X3774376Y5920270D01*
X3775795Y5889579D01*
X3780886Y5878048D01*
X3785145Y5864292D01*
X3787460Y5851908D01*
X3803633Y5825789D01*
X3805654Y5821956D01*
X3818065Y5793848D01*
X3826973Y5784940D01*
X3835917Y5773649D01*
X3841330Y5764906D01*
X3842550Y5762937D01*
X3848481Y5758458D01*
X3867066Y5744423D01*
X3870334Y5741579D01*
X4101196Y5510717D01*
X4119502Y5466523D01*
X4101196Y5422329D01*
X4064001Y5404416D01*
X4044023Y5402165D01*
X4040521Y5401968D01*
X4030833Y5401968D01*
X4021391Y5399813D01*
X4017937Y5399226D01*
X4005724Y5397850D01*
X3985051Y5395520D01*
X3985050Y5395520D01*
X3978055Y5394731D01*
X3977992Y5395284D01*
X3969760Y5393885D01*
X2035590Y5393885D01*
X1991396Y5412191D01*
X1763292Y5640295D01*
X1744986Y5684489D01*
X1746500Y5694993D01*
X1746112Y5695048D01*
X1753386Y5745643D01*
X1766412Y5836238D01*
X1746748Y5973003D01*
X1689350Y6098687D01*
X1689347Y6098691D01*
X1598865Y6203113D01*
X1482634Y6277809D01*
X1482625Y6277813D01*
X1350058Y6316738D01*
X1350056Y6316738D01*
X1211886Y6316738D01*
X1211884Y6316738D01*
X1079316Y6277813D01*
X1079307Y6277809D01*
X963076Y6203113D01*
X872594Y6098691D01*
X872591Y6098686D01*
X815194Y5973005D01*
X815193Y5973003D01*
X810627Y5941242D01*
X786217Y5900104D01*
X739867Y5888274D01*
X704569Y5905944D01*
X-1049194Y7659707D01*
X-1067500Y7703901D01*
X-1067500Y11693590D01*
X-1049194Y11737784D01*
X-1023145Y11753399D01*
X-894117Y11792538D01*
X-724302Y11883306D01*
X-575459Y12005459D01*
X-453306Y12154302D01*
X-362538Y12324117D01*
X-306643Y12508376D01*
X-287770Y12700000D01*
X-288270Y12705072D01*
X-306643Y12891623D01*
X-313115Y12912959D01*
X-362538Y13075883D01*
X-453306Y13245698D01*
X-575459Y13394541D01*
X-724302Y13516694D01*
X-724308Y13516698D01*
X-861158Y13589845D01*
X-894117Y13607462D01*
X-1011889Y13643189D01*
X-1078378Y13663358D01*
X-1270000Y13682230D01*
X-1461623Y13663358D01*
X-1579396Y13627631D01*
X-1645883Y13607462D01*
X-1645885Y13607462D01*
X-1645885Y13607461D01*
X-1815693Y13516698D01*
X-1815699Y13516694D01*
X-1964541Y13394541D01*
X-2086694Y13245699D01*
X-2086698Y13245693D01*
X-2165296Y13098644D01*
X-2177462Y13075883D01*
X-2196407Y13013429D01*
X-2233358Y12891623D01*
X-2252230Y12700001D01*
X-2252230Y12700000D01*
X-2233358Y12508378D01*
X-2213189Y12441889D01*
X-2177462Y12324117D01*
X-2177461Y12324116D01*
X-2086698Y12154308D01*
X-2086694Y12154302D01*
X-1964541Y12005459D01*
X-1815698Y11883306D01*
X-1815696Y11883305D01*
X-1815693Y11883303D01*
X-1805676Y11877949D01*
X-1645883Y11792538D01*
X-1516857Y11753399D01*
X-1479880Y11723052D01*
X-1472500Y11693590D01*
X-1472500Y7639162D01*
X-1476007Y7618519D01*
X-1476402Y7617391D01*
X-1472697Y7584507D01*
X-1472500Y7581006D01*
X-1472500Y7571317D01*
X-1470345Y7561874D01*
X-1469758Y7558420D01*
X-1466052Y7525534D01*
X-1465417Y7524524D01*
X-1457406Y7505186D01*
X-1457139Y7504015D01*
X-1457138Y7504012D01*
X-1436507Y7478143D01*
X-1434478Y7475283D01*
X-1429325Y7467081D01*
X-1429324Y7467080D01*
X-1422481Y7460238D01*
X-1420145Y7457625D01*
X-1399504Y7431742D01*
X-1398428Y7431224D01*
X-1381350Y7419107D01*
X1907694Y4130063D01*
X1919810Y4112989D01*
X1920331Y4111907D01*
X1946209Y4091270D01*
X1948824Y4088933D01*
X1955668Y4082089D01*
X1955671Y4082087D01*
X1963874Y4076932D01*
X1966732Y4074904D01*
X1992601Y4054274D01*
X1992602Y4054274D01*
X1992603Y4054273D01*
X1993760Y4054009D01*
X2013114Y4045993D01*
X2014123Y4045359D01*
X2047015Y4041653D01*
X2050461Y4041067D01*
X2059907Y4038911D01*
X2069586Y4038911D01*
X2073088Y4038714D01*
X2105979Y4035008D01*
X2105979Y4035009D01*
X2105980Y4035008D01*
X2107111Y4035404D01*
X2127755Y4038911D01*
X3125924Y4038911D01*
X3170118Y4020605D01*
X3188424Y3976411D01*
X3175509Y3938365D01*
X3148263Y3902856D01*
X3106681Y3848666D01*
X3048170Y3707405D01*
X3048168Y3707399D01*
X3028212Y3555815D01*
X3028212Y3555810D01*
X3048168Y3404226D01*
X3048169Y3404221D01*
X3048170Y3404219D01*
X3094341Y3292750D01*
X3106682Y3262956D01*
X3106682Y3262955D01*
X3199762Y3141652D01*
X3321065Y3048572D01*
X3321066Y3048572D01*
X3321067Y3048571D01*
X3462330Y2990059D01*
X3462334Y2990059D01*
X3462336Y2990058D01*
X3613921Y2970101D01*
X3613923Y2970101D01*
X3613924Y2970101D01*
X3632320Y2972524D01*
X3687663Y2979810D01*
X3733869Y2967430D01*
X3740016Y2962039D01*
X4698107Y2003948D01*
X4699950Y2001938D01*
X4713852Y1985370D01*
X4727285Y1969362D01*
X4764094Y1948111D01*
X4766385Y1946652D01*
X4801218Y1922261D01*
X4804427Y1921402D01*
X4807536Y1920568D01*
X4822615Y1914323D01*
X4828283Y1911050D01*
X4870163Y1903667D01*
X4872803Y1903081D01*
X4913867Y1892077D01*
X4956218Y1895783D01*
X4958940Y1895901D01*
X5087333Y1895901D01*
X5131527Y1877595D01*
X5149833Y1833401D01*
X5131527Y1789207D01*
X4260300Y917982D01*
X4216106Y899676D01*
X4188819Y906510D01*
X4188727Y906285D01*
X4187212Y906913D01*
X4186646Y907054D01*
X4185885Y907461D01*
X4185884Y907462D01*
X4185883Y907462D01*
X4060276Y945565D01*
X4001622Y963358D01*
X3810000Y982230D01*
X3618377Y963358D01*
X3500604Y927631D01*
X3434117Y907462D01*
X3434115Y907462D01*
X3434115Y907461D01*
X3264307Y816698D01*
X3264301Y816694D01*
X3115459Y694541D01*
X2993306Y545699D01*
X2993302Y545693D01*
X2902947Y376649D01*
X2902538Y375883D01*
X2882369Y309396D01*
X2846642Y191623D01*
X2827770Y1D01*
X2827770Y0D01*
X2846642Y-191622D01*
X2887553Y-326484D01*
X2882864Y-374089D01*
X2845887Y-404436D01*
X2808431Y-404068D01*
X2729511Y-378425D01*
X2729512Y-378425D01*
X2587508Y-363500D01*
X2587506Y-363500D01*
X2492494Y-363500D01*
X2492491Y-363500D01*
X2350489Y-378425D01*
X2169266Y-437308D01*
X2169263Y-437309D01*
X2169262Y-437310D01*
X2134317Y-457485D01*
X2054738Y-503430D01*
X2007311Y-509673D01*
X1969361Y-480553D01*
X1963118Y-433126D01*
X1965309Y-424952D01*
X1985372Y-350075D01*
X2016000Y0D01*
X2009710Y71889D01*
X1997368Y212959D01*
X1985372Y350075D01*
X1978456Y375885D01*
X1894421Y689510D01*
X1894420Y689512D01*
X1890104Y698767D01*
X1745907Y1008000D01*
X1725317Y1037406D01*
X1544345Y1295862D01*
X1295861Y1544346D01*
X1097674Y1683117D01*
X1008000Y1745907D01*
X1007998Y1745908D01*
X1008000Y1745908D01*
X689511Y1894421D01*
X689509Y1894422D01*
X350087Y1985370D01*
X350071Y1985373D01*
X2Y2016000D01*
X-2Y2016000D01*
X-350072Y1985373D01*
X-350088Y1985370D01*
X-689510Y1894422D01*
X-689512Y1894421D01*
X-1008000Y1745908D01*
X-1295862Y1544346D01*
X-1544346Y1295862D01*
X-1745908Y1008000D01*
X-1894421Y689512D01*
X-1894422Y689510D01*
X-1985370Y350088D01*
X-1985373Y350072D01*
X-2016000Y3D01*
X-2016000Y-2D01*
X-1985373Y-350071D01*
X-1985370Y-350087D01*
X-1894422Y-689509D01*
X-1894421Y-689511D01*
X-1745908Y-1007999D01*
X-1544346Y-1295861D01*
X-1295862Y-1544345D01*
X-1249735Y-1576643D01*
X-1008000Y-1745907D01*
X-1008001Y-1745907D01*
X-848757Y-1820163D01*
X-689513Y-1894420D01*
X-689511Y-1894420D01*
X-689510Y-1894421D01*
X-350088Y-1985369D01*
X-350082Y-1985370D01*
X-350075Y-1985372D01*
X-140031Y-2003748D01*
X-2Y-2016000D01*
X0Y-2016000D01*
X2Y-2016000D01*
X116691Y-2005790D01*
X350075Y-1985372D01*
X350084Y-1985369D01*
X350087Y-1985369D01*
X689509Y-1894421D01*
X689508Y-1894421D01*
X689513Y-1894420D01*
X1008000Y-1745907D01*
X1295860Y-1544346D01*
X1410319Y-1429887D01*
X1526806Y-1313401D01*
X1571000Y-1295095D01*
X1615194Y-1313401D01*
X1633500Y-1357595D01*
X1633500Y-1365276D01*
X1673118Y-1551666D01*
X1673121Y-1551674D01*
X1750623Y-1725744D01*
X1750626Y-1725750D01*
X1862628Y-1879907D01*
X1862634Y-1879913D01*
X1878746Y-1894420D01*
X2004238Y-2007413D01*
X2169262Y-2102690D01*
X2350490Y-2161575D01*
X2492494Y-2176500D01*
X2492499Y-2176500D01*
X2587501Y-2176500D01*
X2587506Y-2176500D01*
X2729510Y-2161575D01*
X2808432Y-2135931D01*
X2856118Y-2139684D01*
X2887185Y-2176058D01*
X2887553Y-2213515D01*
X2846642Y-2348377D01*
X2835833Y-2458126D01*
X2813283Y-2500313D01*
X2773634Y-2514500D01*
X945Y-2514500D01*
X-942Y-2514443D01*
X-301203Y-2496280D01*
X-304946Y-2495825D01*
X-512632Y-2457766D01*
X-599897Y-2441774D01*
X-603564Y-2440870D01*
X-889845Y-2351661D01*
X-893377Y-2350322D01*
X-1166824Y-2227254D01*
X-1170168Y-2225498D01*
X-1373319Y-2102690D01*
X-1426784Y-2070369D01*
X-1429883Y-2068231D01*
X-1606460Y-1929891D01*
X-1665936Y-1883294D01*
X-1668755Y-1880797D01*
X-1880799Y-1668753D01*
X-1883295Y-1665935D01*
X-1909460Y-1632538D01*
X-2068234Y-1429878D01*
X-2070368Y-1426786D01*
X-2225499Y-1170167D01*
X-2227252Y-1166830D01*
X-2350324Y-893375D01*
X-2351662Y-889844D01*
X-2374456Y-816697D01*
X-2440872Y-603560D01*
X-2441773Y-599905D01*
X-2495829Y-304931D01*
X-2496280Y-301216D01*
X-2514443Y-941D01*
X-2514500Y946D01*
X-2514500Y12699056D01*
X-2514443Y12700943D01*
X-2514038Y12707641D01*
X-2496280Y13001219D01*
X-2495829Y13004930D01*
X-2441772Y13299910D01*
X-2440871Y13303564D01*
X-2438832Y13310105D01*
X-2351661Y13589850D01*
X-2350323Y13593377D01*
X-2343984Y13607461D01*
X-2227249Y13866838D01*
X-2225503Y13870162D01*
X-2070363Y14126795D01*
X-2068240Y14129872D01*
X-1883289Y14365944D01*
X-1880807Y14368746D01*
X-1668746Y14580807D01*
X-1665944Y14583289D01*
X-1429872Y14768240D01*
X-1426795Y14770363D01*
X-1170162Y14925503D01*
X-1166838Y14927249D01*
X-893371Y15050326D01*
X-889850Y15051661D01*
X-603557Y15140873D01*
X-599910Y15141772D01*
X-304930Y15195829D01*
X-301219Y15196280D01*
X-943Y15214443D01*
X945Y15214500D01*
X8285Y15214500D01*
X233634Y15214500D01*
X277828Y15196194D01*
G37*
%TD.AperFunction*%
%TD*%
M02*
