%TF.GenerationSoftware,KiCad,Pcbnew,(6.0.9)*%
%TF.CreationDate,2022-11-11T15:07:43-08:00*%
%TF.ProjectId,StemmaG0,5374656d-6d61-4473-902e-6b696361645f,rev?*%
%TF.SameCoordinates,Original*%
%TF.FileFunction,Copper,L1,Top*%
%TF.FilePolarity,Positive*%
%FSLAX46Y46*%
G04 Gerber Fmt 4.6, Leading zero omitted, Abs format (unit mm)*
G04 Created by KiCad (PCBNEW (6.0.9)) date 2022-11-11 15:07:43*
%MOMM*%
%LPD*%
G01*
G04 APERTURE LIST*
G04 Aperture macros list*
%AMRoundRect*
0 Rectangle with rounded corners*
0 $1 Rounding radius*
0 $2 $3 $4 $5 $6 $7 $8 $9 X,Y pos of 4 corners*
0 Add a 4 corners polygon primitive as box body*
4,1,4,$2,$3,$4,$5,$6,$7,$8,$9,$2,$3,0*
0 Add four circle primitives for the rounded corners*
1,1,$1+$1,$2,$3*
1,1,$1+$1,$4,$5*
1,1,$1+$1,$6,$7*
1,1,$1+$1,$8,$9*
0 Add four rect primitives between the rounded corners*
20,1,$1+$1,$2,$3,$4,$5,0*
20,1,$1+$1,$4,$5,$6,$7,0*
20,1,$1+$1,$6,$7,$8,$9,0*
20,1,$1+$1,$8,$9,$2,$3,0*%
G04 Aperture macros list end*
%TA.AperFunction,EtchedComponent*%
%ADD10C,0.010000*%
%TD*%
%TA.AperFunction,SMDPad,CuDef*%
%ADD11RoundRect,0.200000X0.200000X0.275000X-0.200000X0.275000X-0.200000X-0.275000X0.200000X-0.275000X0*%
%TD*%
%TA.AperFunction,ComponentPad*%
%ADD12C,1.700000*%
%TD*%
%TA.AperFunction,ComponentPad*%
%ADD13O,1.700000X1.700000*%
%TD*%
%TA.AperFunction,SMDPad,CuDef*%
%ADD14R,0.500000X0.800000*%
%TD*%
%TA.AperFunction,SMDPad,CuDef*%
%ADD15R,0.400000X0.800000*%
%TD*%
%TA.AperFunction,SMDPad,CuDef*%
%ADD16R,0.500000X0.500000*%
%TD*%
%TA.AperFunction,SMDPad,CuDef*%
%ADD17R,0.500000X0.400000*%
%TD*%
%TA.AperFunction,SMDPad,CuDef*%
%ADD18RoundRect,0.218750X-0.218750X-0.256250X0.218750X-0.256250X0.218750X0.256250X-0.218750X0.256250X0*%
%TD*%
%TA.AperFunction,ComponentPad*%
%ADD19C,3.200000*%
%TD*%
%TA.AperFunction,SMDPad,CuDef*%
%ADD20R,1.550000X0.600000*%
%TD*%
%TA.AperFunction,SMDPad,CuDef*%
%ADD21R,1.800000X1.200000*%
%TD*%
%TA.AperFunction,SMDPad,CuDef*%
%ADD22RoundRect,0.218750X0.218750X0.256250X-0.218750X0.256250X-0.218750X-0.256250X0.218750X-0.256250X0*%
%TD*%
%TA.AperFunction,SMDPad,CuDef*%
%ADD23RoundRect,0.100000X0.637500X0.100000X-0.637500X0.100000X-0.637500X-0.100000X0.637500X-0.100000X0*%
%TD*%
%TA.AperFunction,CastellatedPad*%
%ADD24C,1.700000*%
%TD*%
%TA.AperFunction,SMDPad,CuDef*%
%ADD25RoundRect,0.150000X0.150000X-0.512500X0.150000X0.512500X-0.150000X0.512500X-0.150000X-0.512500X0*%
%TD*%
%TA.AperFunction,SMDPad,CuDef*%
%ADD26RoundRect,0.225000X0.250000X-0.225000X0.250000X0.225000X-0.250000X0.225000X-0.250000X-0.225000X0*%
%TD*%
%TA.AperFunction,SMDPad,CuDef*%
%ADD27R,1.240000X1.500000*%
%TD*%
%TA.AperFunction,CastellatedPad*%
%ADD28O,1.700000X1.700000*%
%TD*%
%TA.AperFunction,SMDPad,CuDef*%
%ADD29RoundRect,0.200000X-0.200000X-0.275000X0.200000X-0.275000X0.200000X0.275000X-0.200000X0.275000X0*%
%TD*%
%TA.AperFunction,ViaPad*%
%ADD30C,0.906400*%
%TD*%
%TA.AperFunction,ViaPad*%
%ADD31C,0.889000*%
%TD*%
%TA.AperFunction,ViaPad*%
%ADD32C,0.600000*%
%TD*%
%TA.AperFunction,Conductor*%
%ADD33C,0.406400*%
%TD*%
%TA.AperFunction,Conductor*%
%ADD34C,0.304800*%
%TD*%
%TA.AperFunction,Conductor*%
%ADD35C,0.127000*%
%TD*%
%TA.AperFunction,Conductor*%
%ADD36C,0.150000*%
%TD*%
G04 APERTURE END LIST*
%TO.C,G\u002A\u002A\u002A*%
G36*
X23505460Y2994199D02*
G01*
X23516318Y2994027D01*
X23525792Y2993667D01*
X23534397Y2993078D01*
X23542650Y2992217D01*
X23551065Y2991042D01*
X23560161Y2989512D01*
X23567691Y2988115D01*
X23587870Y2983739D01*
X23608818Y2978230D01*
X23629544Y2971875D01*
X23649061Y2964959D01*
X23652962Y2963442D01*
X23667766Y2957547D01*
X23682295Y2951672D01*
X23696681Y2945753D01*
X23711056Y2939730D01*
X23725555Y2933541D01*
X23740310Y2927123D01*
X23755454Y2920416D01*
X23771120Y2913356D01*
X23787440Y2905883D01*
X23804548Y2897933D01*
X23822577Y2889447D01*
X23841659Y2880361D01*
X23861927Y2870613D01*
X23883514Y2860143D01*
X23906554Y2848887D01*
X23931178Y2836785D01*
X23957521Y2823774D01*
X23985714Y2809792D01*
X24015892Y2794778D01*
X24023681Y2790896D01*
X24049685Y2777956D01*
X24073715Y2766050D01*
X24095942Y2755100D01*
X24116540Y2745025D01*
X24135680Y2735746D01*
X24153536Y2727183D01*
X24170280Y2719257D01*
X24186085Y2711888D01*
X24201122Y2704996D01*
X24215564Y2698503D01*
X24229585Y2692327D01*
X24243356Y2686390D01*
X24257049Y2680612D01*
X24270839Y2674913D01*
X24284895Y2669214D01*
X24299393Y2663435D01*
X24302407Y2662244D01*
X24311135Y2658767D01*
X24319116Y2655521D01*
X24326075Y2652624D01*
X24331740Y2650191D01*
X24335837Y2648340D01*
X24338094Y2647186D01*
X24338449Y2646900D01*
X24337796Y2645521D01*
X24335605Y2642812D01*
X24332150Y2639040D01*
X24327707Y2634475D01*
X24322552Y2629388D01*
X24316960Y2624046D01*
X24311205Y2618721D01*
X24305563Y2613680D01*
X24300309Y2609194D01*
X24298117Y2607406D01*
X24272620Y2588343D01*
X24244942Y2570248D01*
X24215127Y2553138D01*
X24183218Y2537032D01*
X24149258Y2521948D01*
X24113292Y2507904D01*
X24075363Y2494917D01*
X24035514Y2483006D01*
X23993789Y2472189D01*
X23950232Y2462484D01*
X23943248Y2461065D01*
X23913349Y2455474D01*
X23885359Y2451082D01*
X23859092Y2447876D01*
X23834364Y2445844D01*
X23810990Y2444972D01*
X23788786Y2445246D01*
X23767566Y2446654D01*
X23757702Y2447725D01*
X23735254Y2451356D01*
X23714561Y2456520D01*
X23695652Y2463200D01*
X23678554Y2471379D01*
X23663297Y2481041D01*
X23649909Y2492170D01*
X23638417Y2504748D01*
X23628851Y2518759D01*
X23625275Y2525344D01*
X23620949Y2534902D01*
X23617450Y2544941D01*
X23614644Y2555964D01*
X23612400Y2568473D01*
X23610904Y2580032D01*
X23610023Y2587885D01*
X23586438Y2589941D01*
X23579067Y2590580D01*
X23572473Y2591146D01*
X23567054Y2591604D01*
X23563209Y2591921D01*
X23561334Y2592064D01*
X23561270Y2592067D01*
X23560249Y2592781D01*
X23560401Y2593294D01*
X23559779Y2593812D01*
X23557472Y2593944D01*
X23554175Y2593748D01*
X23550583Y2593281D01*
X23547390Y2592601D01*
X23545920Y2592100D01*
X23544031Y2591580D01*
X23540155Y2590736D01*
X23534687Y2589649D01*
X23528026Y2588395D01*
X23520568Y2587053D01*
X23518705Y2586727D01*
X23490767Y2582096D01*
X23464225Y2578197D01*
X23438206Y2574913D01*
X23411841Y2572128D01*
X23403800Y2571379D01*
X23396110Y2570833D01*
X23386783Y2570410D01*
X23376281Y2570111D01*
X23365069Y2569936D01*
X23353611Y2569885D01*
X23342368Y2569958D01*
X23331805Y2570156D01*
X23322385Y2570479D01*
X23314572Y2570926D01*
X23310062Y2571342D01*
X23285093Y2574652D01*
X23260799Y2578728D01*
X23236538Y2583703D01*
X23211667Y2589712D01*
X23185542Y2596889D01*
X23180237Y2598439D01*
X23172489Y2600767D01*
X23166779Y2602600D01*
X23162808Y2604059D01*
X23160272Y2605264D01*
X23158872Y2606335D01*
X23158376Y2607148D01*
X23158048Y2608901D01*
X23157509Y2612773D01*
X23156793Y2618477D01*
X23155935Y2625726D01*
X23154968Y2634233D01*
X23153926Y2643709D01*
X23152867Y2653646D01*
X23151635Y2665534D01*
X23150673Y2675223D01*
X23149965Y2682916D01*
X23149499Y2688815D01*
X23149259Y2693126D01*
X23149233Y2696049D01*
X23149406Y2697790D01*
X23149765Y2698551D01*
X23149797Y2698573D01*
X23151924Y2699358D01*
X23155300Y2700126D01*
X23156317Y2700297D01*
X23160173Y2700993D01*
X23166019Y2702178D01*
X23173495Y2703771D01*
X23182240Y2705690D01*
X23191895Y2707852D01*
X23202097Y2710176D01*
X23212488Y2712579D01*
X23222706Y2714980D01*
X23232392Y2717297D01*
X23241184Y2719448D01*
X23247772Y2721105D01*
X23282959Y2730486D01*
X23315870Y2740030D01*
X23346645Y2749785D01*
X23375424Y2759797D01*
X23402348Y2770114D01*
X23427556Y2780783D01*
X23431620Y2782607D01*
X23455851Y2794419D01*
X23480526Y2808044D01*
X23505056Y2823106D01*
X23528851Y2839229D01*
X23551323Y2856039D01*
X23566481Y2868468D01*
X23572537Y2873735D01*
X23578823Y2879362D01*
X23585092Y2885111D01*
X23591100Y2890745D01*
X23596600Y2896028D01*
X23601347Y2900723D01*
X23605095Y2904592D01*
X23607599Y2907399D01*
X23608612Y2908906D01*
X23608590Y2909068D01*
X23606820Y2909942D01*
X23603060Y2911271D01*
X23597675Y2912951D01*
X23591027Y2914873D01*
X23583480Y2916930D01*
X23575397Y2919015D01*
X23571924Y2919875D01*
X23547957Y2924815D01*
X23523888Y2927904D01*
X23499483Y2929137D01*
X23474508Y2928507D01*
X23448728Y2926009D01*
X23421910Y2921635D01*
X23393817Y2915380D01*
X23393149Y2915213D01*
X23364590Y2907073D01*
X23337207Y2897327D01*
X23311101Y2886052D01*
X23286376Y2873327D01*
X23263131Y2859232D01*
X23241468Y2843844D01*
X23221490Y2827243D01*
X23203296Y2809508D01*
X23186989Y2790717D01*
X23172670Y2770949D01*
X23160441Y2750283D01*
X23150402Y2728797D01*
X23149201Y2725789D01*
X23145417Y2716113D01*
X23094692Y2667836D01*
X23085430Y2659014D01*
X23076705Y2650689D01*
X23068670Y2643009D01*
X23061483Y2636124D01*
X23055298Y2630183D01*
X23050271Y2625336D01*
X23046557Y2621733D01*
X23044313Y2619521D01*
X23043677Y2618850D01*
X23044690Y2618235D01*
X23047708Y2616737D01*
X23052523Y2614452D01*
X23058927Y2611475D01*
X23066712Y2607903D01*
X23075672Y2603831D01*
X23085597Y2599355D01*
X23096280Y2594570D01*
X23098835Y2593431D01*
X23154283Y2568719D01*
X23160056Y2548073D01*
X23162835Y2538487D01*
X23166210Y2527408D01*
X23169971Y2515478D01*
X23173910Y2503340D01*
X23177820Y2491636D01*
X23181491Y2481010D01*
X23184576Y2472478D01*
X23186444Y2467785D01*
X23187993Y2464880D01*
X23189590Y2463229D01*
X23191542Y2462317D01*
X23194046Y2461917D01*
X23198613Y2461596D01*
X23204890Y2461351D01*
X23212522Y2461184D01*
X23221155Y2461092D01*
X23230436Y2461075D01*
X23240009Y2461133D01*
X23249522Y2461265D01*
X23258619Y2461469D01*
X23266948Y2461745D01*
X23274153Y2462093D01*
X23279824Y2462506D01*
X23335690Y2468550D01*
X23369934Y2473136D01*
X23384581Y2475343D01*
X23397204Y2477503D01*
X23408195Y2479723D01*
X23417943Y2482111D01*
X23426840Y2484772D01*
X23435276Y2487814D01*
X23443642Y2491345D01*
X23452329Y2495471D01*
X23453391Y2496001D01*
X23472553Y2506811D01*
X23491344Y2519784D01*
X23509449Y2534661D01*
X23526551Y2551186D01*
X23540196Y2566497D01*
X23546524Y2574120D01*
X23546524Y2569944D01*
X23546871Y2564843D01*
X23547827Y2558037D01*
X23549271Y2550125D01*
X23551078Y2541706D01*
X23553126Y2533380D01*
X23555290Y2525747D01*
X23556217Y2522851D01*
X23564237Y2502485D01*
X23574176Y2483579D01*
X23586004Y2466158D01*
X23599690Y2450250D01*
X23615205Y2435882D01*
X23632518Y2423079D01*
X23651599Y2411869D01*
X23672417Y2402278D01*
X23694943Y2394333D01*
X23704972Y2391476D01*
X23722885Y2387268D01*
X23741322Y2384077D01*
X23760718Y2381854D01*
X23781509Y2380550D01*
X23804129Y2380114D01*
X23804758Y2380114D01*
X23822304Y2380323D01*
X23839346Y2380973D01*
X23856281Y2382108D01*
X23873506Y2383774D01*
X23891416Y2386015D01*
X23910410Y2388874D01*
X23930882Y2392397D01*
X23953231Y2396628D01*
X23954739Y2396925D01*
X23997062Y2405970D01*
X24038033Y2416130D01*
X24077571Y2427366D01*
X24115591Y2439642D01*
X24152012Y2452919D01*
X24186752Y2467161D01*
X24219727Y2482329D01*
X24250855Y2498387D01*
X24280053Y2515296D01*
X24307240Y2533020D01*
X24332331Y2551521D01*
X24355246Y2570761D01*
X24371420Y2586121D01*
X24376952Y2591830D01*
X24382609Y2597923D01*
X24387834Y2603782D01*
X24392067Y2608790D01*
X24393191Y2610203D01*
X24396651Y2614640D01*
X24399719Y2618560D01*
X24401986Y2621443D01*
X24402867Y2622550D01*
X24403808Y2623563D01*
X24404950Y2624094D01*
X24406803Y2624142D01*
X24409878Y2623702D01*
X24414687Y2622773D01*
X24416172Y2622473D01*
X24451751Y2616494D01*
X24487549Y2612912D01*
X24523627Y2611721D01*
X24560043Y2612920D01*
X24565548Y2613306D01*
X24594455Y2615730D01*
X24625594Y2618827D01*
X24658880Y2622582D01*
X24694225Y2626981D01*
X24731543Y2632008D01*
X24770747Y2637649D01*
X24811751Y2643889D01*
X24854469Y2650712D01*
X24898814Y2658104D01*
X24944699Y2666049D01*
X24992037Y2674533D01*
X25040744Y2683541D01*
X25090731Y2693058D01*
X25141912Y2703069D01*
X25194201Y2713558D01*
X25247512Y2724511D01*
X25301757Y2735913D01*
X25356851Y2747749D01*
X25409191Y2759226D01*
X25424446Y2762604D01*
X25437549Y2765446D01*
X25448718Y2767704D01*
X25458168Y2769333D01*
X25466119Y2770287D01*
X25472785Y2770520D01*
X25478385Y2769985D01*
X25483135Y2768636D01*
X25487252Y2766427D01*
X25490954Y2763313D01*
X25494458Y2759246D01*
X25497979Y2754182D01*
X25501736Y2748073D01*
X25505946Y2740873D01*
X25507413Y2738350D01*
X25520191Y2715798D01*
X25532168Y2693427D01*
X25543208Y2671521D01*
X25553176Y2650366D01*
X25561937Y2630248D01*
X25569355Y2611451D01*
X25574108Y2597928D01*
X25579409Y2579958D01*
X25583083Y2563188D01*
X25585140Y2547697D01*
X25585590Y2533562D01*
X25584441Y2520862D01*
X25581704Y2509676D01*
X25577387Y2500081D01*
X25571499Y2492156D01*
X25564052Y2485979D01*
X25560443Y2483916D01*
X25556969Y2482284D01*
X25553180Y2480786D01*
X25548954Y2479412D01*
X25544168Y2478151D01*
X25538701Y2476995D01*
X25532428Y2475934D01*
X25525228Y2474957D01*
X25516978Y2474057D01*
X25507557Y2473222D01*
X25496840Y2472443D01*
X25484706Y2471710D01*
X25471032Y2471015D01*
X25455696Y2470347D01*
X25438575Y2469696D01*
X25419547Y2469053D01*
X25398489Y2468408D01*
X25375279Y2467752D01*
X25349794Y2467075D01*
X25345086Y2466954D01*
X25303231Y2465809D01*
X25263604Y2464582D01*
X25226014Y2463261D01*
X25190271Y2461836D01*
X25156185Y2460297D01*
X25123564Y2458633D01*
X25092220Y2456833D01*
X25061961Y2454887D01*
X25032597Y2452784D01*
X25003938Y2450514D01*
X24975794Y2448067D01*
X24947973Y2445432D01*
X24938686Y2444504D01*
X24894561Y2439762D01*
X24851887Y2434586D01*
X24810408Y2428918D01*
X24769868Y2422700D01*
X24730010Y2415874D01*
X24690577Y2408381D01*
X24651314Y2400164D01*
X24611962Y2391165D01*
X24572266Y2381325D01*
X24531969Y2370586D01*
X24490814Y2358890D01*
X24448546Y2346179D01*
X24404906Y2332396D01*
X24359639Y2317481D01*
X24323643Y2305234D01*
X24306548Y2299231D01*
X24290252Y2293257D01*
X24274524Y2287200D01*
X24259135Y2280952D01*
X24243856Y2274402D01*
X24228458Y2267442D01*
X24212710Y2259960D01*
X24196383Y2251847D01*
X24179248Y2242994D01*
X24161075Y2233290D01*
X24141634Y2222626D01*
X24120697Y2210891D01*
X24098034Y2197977D01*
X24090810Y2193825D01*
X24070711Y2182261D01*
X24052550Y2171828D01*
X24036172Y2162443D01*
X24021425Y2154020D01*
X24008154Y2146476D01*
X23996208Y2139725D01*
X23985431Y2133682D01*
X23975670Y2128264D01*
X23966773Y2123385D01*
X23958585Y2118961D01*
X23950953Y2114907D01*
X23943723Y2111138D01*
X23936743Y2107570D01*
X23929858Y2104119D01*
X23922916Y2100698D01*
X23915762Y2097225D01*
X23915134Y2096922D01*
X23892012Y2086143D01*
X23870200Y2076799D01*
X23849229Y2068755D01*
X23828626Y2061876D01*
X23807924Y2056028D01*
X23786650Y2051076D01*
X23764334Y2046887D01*
X23740507Y2043324D01*
X23718277Y2040641D01*
X23704224Y2039352D01*
X23688471Y2038337D01*
X23671723Y2037616D01*
X23654685Y2037206D01*
X23638062Y2037126D01*
X23622559Y2037396D01*
X23612443Y2037820D01*
X23585170Y2040098D01*
X23557585Y2043911D01*
X23530096Y2049157D01*
X23503109Y2055733D01*
X23477033Y2063537D01*
X23452274Y2072467D01*
X23429240Y2082419D01*
X23423032Y2085437D01*
X23395267Y2100610D01*
X23368105Y2118083D01*
X23341594Y2137802D01*
X23315782Y2159714D01*
X23290716Y2183765D01*
X23266444Y2209899D01*
X23243015Y2238064D01*
X23220477Y2268205D01*
X23198876Y2300268D01*
X23178262Y2334199D01*
X23158682Y2369944D01*
X23143222Y2401011D01*
X23136935Y2414696D01*
X23130893Y2428878D01*
X23124924Y2444001D01*
X23118853Y2460507D01*
X23112507Y2478839D01*
X23111017Y2483280D01*
X23108388Y2491319D01*
X23105609Y2500092D01*
X23102803Y2509192D01*
X23100089Y2518209D01*
X23097589Y2526735D01*
X23095424Y2534359D01*
X23093713Y2540675D01*
X23092579Y2545272D01*
X23092301Y2546603D01*
X23091558Y2550567D01*
X23021404Y2578876D01*
X23009068Y2583863D01*
X22997409Y2588594D01*
X22986617Y2592989D01*
X22976885Y2596970D01*
X22968405Y2600458D01*
X22961368Y2603375D01*
X22955967Y2605640D01*
X22952392Y2607175D01*
X22950835Y2607902D01*
X22950784Y2607941D01*
X22951587Y2608849D01*
X22954056Y2611234D01*
X22958050Y2614967D01*
X22963427Y2619918D01*
X22970045Y2625957D01*
X22977762Y2632956D01*
X22986435Y2640786D01*
X22995923Y2649316D01*
X23006083Y2658418D01*
X23014784Y2666188D01*
X23027133Y2677204D01*
X23037800Y2686733D01*
X23046914Y2694897D01*
X23054600Y2701818D01*
X23060985Y2707616D01*
X23066195Y2712414D01*
X23070358Y2716333D01*
X23073599Y2719494D01*
X23076046Y2722018D01*
X23077824Y2724027D01*
X23079061Y2725643D01*
X23079883Y2726987D01*
X23080416Y2728180D01*
X23080787Y2729344D01*
X23080850Y2729572D01*
X23083048Y2736618D01*
X23086168Y2745172D01*
X23089964Y2754629D01*
X23094186Y2764380D01*
X23098585Y2773820D01*
X23100846Y2778376D01*
X23111971Y2798333D01*
X23124735Y2817576D01*
X23139372Y2836423D01*
X23156114Y2855193D01*
X23160621Y2859875D01*
X23179652Y2878231D01*
X23199291Y2894854D01*
X23219950Y2910041D01*
X23242041Y2924089D01*
X23265977Y2937296D01*
X23273172Y2940936D01*
X23296505Y2951864D01*
X23319824Y2961407D01*
X23343550Y2969695D01*
X23368106Y2976854D01*
X23393911Y2983014D01*
X23421387Y2988303D01*
X23437319Y2990879D01*
X23444120Y2991880D01*
X23450061Y2992657D01*
X23455621Y2993239D01*
X23461279Y2993654D01*
X23467512Y2993932D01*
X23474800Y2994101D01*
X23483620Y2994191D01*
X23492700Y2994226D01*
X23505460Y2994199D01*
G37*
D10*
X23505460Y2994199D02*
X23516318Y2994027D01*
X23525792Y2993667D01*
X23534397Y2993078D01*
X23542650Y2992217D01*
X23551065Y2991042D01*
X23560161Y2989512D01*
X23567691Y2988115D01*
X23587870Y2983739D01*
X23608818Y2978230D01*
X23629544Y2971875D01*
X23649061Y2964959D01*
X23652962Y2963442D01*
X23667766Y2957547D01*
X23682295Y2951672D01*
X23696681Y2945753D01*
X23711056Y2939730D01*
X23725555Y2933541D01*
X23740310Y2927123D01*
X23755454Y2920416D01*
X23771120Y2913356D01*
X23787440Y2905883D01*
X23804548Y2897933D01*
X23822577Y2889447D01*
X23841659Y2880361D01*
X23861927Y2870613D01*
X23883514Y2860143D01*
X23906554Y2848887D01*
X23931178Y2836785D01*
X23957521Y2823774D01*
X23985714Y2809792D01*
X24015892Y2794778D01*
X24023681Y2790896D01*
X24049685Y2777956D01*
X24073715Y2766050D01*
X24095942Y2755100D01*
X24116540Y2745025D01*
X24135680Y2735746D01*
X24153536Y2727183D01*
X24170280Y2719257D01*
X24186085Y2711888D01*
X24201122Y2704996D01*
X24215564Y2698503D01*
X24229585Y2692327D01*
X24243356Y2686390D01*
X24257049Y2680612D01*
X24270839Y2674913D01*
X24284895Y2669214D01*
X24299393Y2663435D01*
X24302407Y2662244D01*
X24311135Y2658767D01*
X24319116Y2655521D01*
X24326075Y2652624D01*
X24331740Y2650191D01*
X24335837Y2648340D01*
X24338094Y2647186D01*
X24338449Y2646900D01*
X24337796Y2645521D01*
X24335605Y2642812D01*
X24332150Y2639040D01*
X24327707Y2634475D01*
X24322552Y2629388D01*
X24316960Y2624046D01*
X24311205Y2618721D01*
X24305563Y2613680D01*
X24300309Y2609194D01*
X24298117Y2607406D01*
X24272620Y2588343D01*
X24244942Y2570248D01*
X24215127Y2553138D01*
X24183218Y2537032D01*
X24149258Y2521948D01*
X24113292Y2507904D01*
X24075363Y2494917D01*
X24035514Y2483006D01*
X23993789Y2472189D01*
X23950232Y2462484D01*
X23943248Y2461065D01*
X23913349Y2455474D01*
X23885359Y2451082D01*
X23859092Y2447876D01*
X23834364Y2445844D01*
X23810990Y2444972D01*
X23788786Y2445246D01*
X23767566Y2446654D01*
X23757702Y2447725D01*
X23735254Y2451356D01*
X23714561Y2456520D01*
X23695652Y2463200D01*
X23678554Y2471379D01*
X23663297Y2481041D01*
X23649909Y2492170D01*
X23638417Y2504748D01*
X23628851Y2518759D01*
X23625275Y2525344D01*
X23620949Y2534902D01*
X23617450Y2544941D01*
X23614644Y2555964D01*
X23612400Y2568473D01*
X23610904Y2580032D01*
X23610023Y2587885D01*
X23586438Y2589941D01*
X23579067Y2590580D01*
X23572473Y2591146D01*
X23567054Y2591604D01*
X23563209Y2591921D01*
X23561334Y2592064D01*
X23561270Y2592067D01*
X23560249Y2592781D01*
X23560401Y2593294D01*
X23559779Y2593812D01*
X23557472Y2593944D01*
X23554175Y2593748D01*
X23550583Y2593281D01*
X23547390Y2592601D01*
X23545920Y2592100D01*
X23544031Y2591580D01*
X23540155Y2590736D01*
X23534687Y2589649D01*
X23528026Y2588395D01*
X23520568Y2587053D01*
X23518705Y2586727D01*
X23490767Y2582096D01*
X23464225Y2578197D01*
X23438206Y2574913D01*
X23411841Y2572128D01*
X23403800Y2571379D01*
X23396110Y2570833D01*
X23386783Y2570410D01*
X23376281Y2570111D01*
X23365069Y2569936D01*
X23353611Y2569885D01*
X23342368Y2569958D01*
X23331805Y2570156D01*
X23322385Y2570479D01*
X23314572Y2570926D01*
X23310062Y2571342D01*
X23285093Y2574652D01*
X23260799Y2578728D01*
X23236538Y2583703D01*
X23211667Y2589712D01*
X23185542Y2596889D01*
X23180237Y2598439D01*
X23172489Y2600767D01*
X23166779Y2602600D01*
X23162808Y2604059D01*
X23160272Y2605264D01*
X23158872Y2606335D01*
X23158376Y2607148D01*
X23158048Y2608901D01*
X23157509Y2612773D01*
X23156793Y2618477D01*
X23155935Y2625726D01*
X23154968Y2634233D01*
X23153926Y2643709D01*
X23152867Y2653646D01*
X23151635Y2665534D01*
X23150673Y2675223D01*
X23149965Y2682916D01*
X23149499Y2688815D01*
X23149259Y2693126D01*
X23149233Y2696049D01*
X23149406Y2697790D01*
X23149765Y2698551D01*
X23149797Y2698573D01*
X23151924Y2699358D01*
X23155300Y2700126D01*
X23156317Y2700297D01*
X23160173Y2700993D01*
X23166019Y2702178D01*
X23173495Y2703771D01*
X23182240Y2705690D01*
X23191895Y2707852D01*
X23202097Y2710176D01*
X23212488Y2712579D01*
X23222706Y2714980D01*
X23232392Y2717297D01*
X23241184Y2719448D01*
X23247772Y2721105D01*
X23282959Y2730486D01*
X23315870Y2740030D01*
X23346645Y2749785D01*
X23375424Y2759797D01*
X23402348Y2770114D01*
X23427556Y2780783D01*
X23431620Y2782607D01*
X23455851Y2794419D01*
X23480526Y2808044D01*
X23505056Y2823106D01*
X23528851Y2839229D01*
X23551323Y2856039D01*
X23566481Y2868468D01*
X23572537Y2873735D01*
X23578823Y2879362D01*
X23585092Y2885111D01*
X23591100Y2890745D01*
X23596600Y2896028D01*
X23601347Y2900723D01*
X23605095Y2904592D01*
X23607599Y2907399D01*
X23608612Y2908906D01*
X23608590Y2909068D01*
X23606820Y2909942D01*
X23603060Y2911271D01*
X23597675Y2912951D01*
X23591027Y2914873D01*
X23583480Y2916930D01*
X23575397Y2919015D01*
X23571924Y2919875D01*
X23547957Y2924815D01*
X23523888Y2927904D01*
X23499483Y2929137D01*
X23474508Y2928507D01*
X23448728Y2926009D01*
X23421910Y2921635D01*
X23393817Y2915380D01*
X23393149Y2915213D01*
X23364590Y2907073D01*
X23337207Y2897327D01*
X23311101Y2886052D01*
X23286376Y2873327D01*
X23263131Y2859232D01*
X23241468Y2843844D01*
X23221490Y2827243D01*
X23203296Y2809508D01*
X23186989Y2790717D01*
X23172670Y2770949D01*
X23160441Y2750283D01*
X23150402Y2728797D01*
X23149201Y2725789D01*
X23145417Y2716113D01*
X23094692Y2667836D01*
X23085430Y2659014D01*
X23076705Y2650689D01*
X23068670Y2643009D01*
X23061483Y2636124D01*
X23055298Y2630183D01*
X23050271Y2625336D01*
X23046557Y2621733D01*
X23044313Y2619521D01*
X23043677Y2618850D01*
X23044690Y2618235D01*
X23047708Y2616737D01*
X23052523Y2614452D01*
X23058927Y2611475D01*
X23066712Y2607903D01*
X23075672Y2603831D01*
X23085597Y2599355D01*
X23096280Y2594570D01*
X23098835Y2593431D01*
X23154283Y2568719D01*
X23160056Y2548073D01*
X23162835Y2538487D01*
X23166210Y2527408D01*
X23169971Y2515478D01*
X23173910Y2503340D01*
X23177820Y2491636D01*
X23181491Y2481010D01*
X23184576Y2472478D01*
X23186444Y2467785D01*
X23187993Y2464880D01*
X23189590Y2463229D01*
X23191542Y2462317D01*
X23194046Y2461917D01*
X23198613Y2461596D01*
X23204890Y2461351D01*
X23212522Y2461184D01*
X23221155Y2461092D01*
X23230436Y2461075D01*
X23240009Y2461133D01*
X23249522Y2461265D01*
X23258619Y2461469D01*
X23266948Y2461745D01*
X23274153Y2462093D01*
X23279824Y2462506D01*
X23335690Y2468550D01*
X23369934Y2473136D01*
X23384581Y2475343D01*
X23397204Y2477503D01*
X23408195Y2479723D01*
X23417943Y2482111D01*
X23426840Y2484772D01*
X23435276Y2487814D01*
X23443642Y2491345D01*
X23452329Y2495471D01*
X23453391Y2496001D01*
X23472553Y2506811D01*
X23491344Y2519784D01*
X23509449Y2534661D01*
X23526551Y2551186D01*
X23540196Y2566497D01*
X23546524Y2574120D01*
X23546524Y2569944D01*
X23546871Y2564843D01*
X23547827Y2558037D01*
X23549271Y2550125D01*
X23551078Y2541706D01*
X23553126Y2533380D01*
X23555290Y2525747D01*
X23556217Y2522851D01*
X23564237Y2502485D01*
X23574176Y2483579D01*
X23586004Y2466158D01*
X23599690Y2450250D01*
X23615205Y2435882D01*
X23632518Y2423079D01*
X23651599Y2411869D01*
X23672417Y2402278D01*
X23694943Y2394333D01*
X23704972Y2391476D01*
X23722885Y2387268D01*
X23741322Y2384077D01*
X23760718Y2381854D01*
X23781509Y2380550D01*
X23804129Y2380114D01*
X23804758Y2380114D01*
X23822304Y2380323D01*
X23839346Y2380973D01*
X23856281Y2382108D01*
X23873506Y2383774D01*
X23891416Y2386015D01*
X23910410Y2388874D01*
X23930882Y2392397D01*
X23953231Y2396628D01*
X23954739Y2396925D01*
X23997062Y2405970D01*
X24038033Y2416130D01*
X24077571Y2427366D01*
X24115591Y2439642D01*
X24152012Y2452919D01*
X24186752Y2467161D01*
X24219727Y2482329D01*
X24250855Y2498387D01*
X24280053Y2515296D01*
X24307240Y2533020D01*
X24332331Y2551521D01*
X24355246Y2570761D01*
X24371420Y2586121D01*
X24376952Y2591830D01*
X24382609Y2597923D01*
X24387834Y2603782D01*
X24392067Y2608790D01*
X24393191Y2610203D01*
X24396651Y2614640D01*
X24399719Y2618560D01*
X24401986Y2621443D01*
X24402867Y2622550D01*
X24403808Y2623563D01*
X24404950Y2624094D01*
X24406803Y2624142D01*
X24409878Y2623702D01*
X24414687Y2622773D01*
X24416172Y2622473D01*
X24451751Y2616494D01*
X24487549Y2612912D01*
X24523627Y2611721D01*
X24560043Y2612920D01*
X24565548Y2613306D01*
X24594455Y2615730D01*
X24625594Y2618827D01*
X24658880Y2622582D01*
X24694225Y2626981D01*
X24731543Y2632008D01*
X24770747Y2637649D01*
X24811751Y2643889D01*
X24854469Y2650712D01*
X24898814Y2658104D01*
X24944699Y2666049D01*
X24992037Y2674533D01*
X25040744Y2683541D01*
X25090731Y2693058D01*
X25141912Y2703069D01*
X25194201Y2713558D01*
X25247512Y2724511D01*
X25301757Y2735913D01*
X25356851Y2747749D01*
X25409191Y2759226D01*
X25424446Y2762604D01*
X25437549Y2765446D01*
X25448718Y2767704D01*
X25458168Y2769333D01*
X25466119Y2770287D01*
X25472785Y2770520D01*
X25478385Y2769985D01*
X25483135Y2768636D01*
X25487252Y2766427D01*
X25490954Y2763313D01*
X25494458Y2759246D01*
X25497979Y2754182D01*
X25501736Y2748073D01*
X25505946Y2740873D01*
X25507413Y2738350D01*
X25520191Y2715798D01*
X25532168Y2693427D01*
X25543208Y2671521D01*
X25553176Y2650366D01*
X25561937Y2630248D01*
X25569355Y2611451D01*
X25574108Y2597928D01*
X25579409Y2579958D01*
X25583083Y2563188D01*
X25585140Y2547697D01*
X25585590Y2533562D01*
X25584441Y2520862D01*
X25581704Y2509676D01*
X25577387Y2500081D01*
X25571499Y2492156D01*
X25564052Y2485979D01*
X25560443Y2483916D01*
X25556969Y2482284D01*
X25553180Y2480786D01*
X25548954Y2479412D01*
X25544168Y2478151D01*
X25538701Y2476995D01*
X25532428Y2475934D01*
X25525228Y2474957D01*
X25516978Y2474057D01*
X25507557Y2473222D01*
X25496840Y2472443D01*
X25484706Y2471710D01*
X25471032Y2471015D01*
X25455696Y2470347D01*
X25438575Y2469696D01*
X25419547Y2469053D01*
X25398489Y2468408D01*
X25375279Y2467752D01*
X25349794Y2467075D01*
X25345086Y2466954D01*
X25303231Y2465809D01*
X25263604Y2464582D01*
X25226014Y2463261D01*
X25190271Y2461836D01*
X25156185Y2460297D01*
X25123564Y2458633D01*
X25092220Y2456833D01*
X25061961Y2454887D01*
X25032597Y2452784D01*
X25003938Y2450514D01*
X24975794Y2448067D01*
X24947973Y2445432D01*
X24938686Y2444504D01*
X24894561Y2439762D01*
X24851887Y2434586D01*
X24810408Y2428918D01*
X24769868Y2422700D01*
X24730010Y2415874D01*
X24690577Y2408381D01*
X24651314Y2400164D01*
X24611962Y2391165D01*
X24572266Y2381325D01*
X24531969Y2370586D01*
X24490814Y2358890D01*
X24448546Y2346179D01*
X24404906Y2332396D01*
X24359639Y2317481D01*
X24323643Y2305234D01*
X24306548Y2299231D01*
X24290252Y2293257D01*
X24274524Y2287200D01*
X24259135Y2280952D01*
X24243856Y2274402D01*
X24228458Y2267442D01*
X24212710Y2259960D01*
X24196383Y2251847D01*
X24179248Y2242994D01*
X24161075Y2233290D01*
X24141634Y2222626D01*
X24120697Y2210891D01*
X24098034Y2197977D01*
X24090810Y2193825D01*
X24070711Y2182261D01*
X24052550Y2171828D01*
X24036172Y2162443D01*
X24021425Y2154020D01*
X24008154Y2146476D01*
X23996208Y2139725D01*
X23985431Y2133682D01*
X23975670Y2128264D01*
X23966773Y2123385D01*
X23958585Y2118961D01*
X23950953Y2114907D01*
X23943723Y2111138D01*
X23936743Y2107570D01*
X23929858Y2104119D01*
X23922916Y2100698D01*
X23915762Y2097225D01*
X23915134Y2096922D01*
X23892012Y2086143D01*
X23870200Y2076799D01*
X23849229Y2068755D01*
X23828626Y2061876D01*
X23807924Y2056028D01*
X23786650Y2051076D01*
X23764334Y2046887D01*
X23740507Y2043324D01*
X23718277Y2040641D01*
X23704224Y2039352D01*
X23688471Y2038337D01*
X23671723Y2037616D01*
X23654685Y2037206D01*
X23638062Y2037126D01*
X23622559Y2037396D01*
X23612443Y2037820D01*
X23585170Y2040098D01*
X23557585Y2043911D01*
X23530096Y2049157D01*
X23503109Y2055733D01*
X23477033Y2063537D01*
X23452274Y2072467D01*
X23429240Y2082419D01*
X23423032Y2085437D01*
X23395267Y2100610D01*
X23368105Y2118083D01*
X23341594Y2137802D01*
X23315782Y2159714D01*
X23290716Y2183765D01*
X23266444Y2209899D01*
X23243015Y2238064D01*
X23220477Y2268205D01*
X23198876Y2300268D01*
X23178262Y2334199D01*
X23158682Y2369944D01*
X23143222Y2401011D01*
X23136935Y2414696D01*
X23130893Y2428878D01*
X23124924Y2444001D01*
X23118853Y2460507D01*
X23112507Y2478839D01*
X23111017Y2483280D01*
X23108388Y2491319D01*
X23105609Y2500092D01*
X23102803Y2509192D01*
X23100089Y2518209D01*
X23097589Y2526735D01*
X23095424Y2534359D01*
X23093713Y2540675D01*
X23092579Y2545272D01*
X23092301Y2546603D01*
X23091558Y2550567D01*
X23021404Y2578876D01*
X23009068Y2583863D01*
X22997409Y2588594D01*
X22986617Y2592989D01*
X22976885Y2596970D01*
X22968405Y2600458D01*
X22961368Y2603375D01*
X22955967Y2605640D01*
X22952392Y2607175D01*
X22950835Y2607902D01*
X22950784Y2607941D01*
X22951587Y2608849D01*
X22954056Y2611234D01*
X22958050Y2614967D01*
X22963427Y2619918D01*
X22970045Y2625957D01*
X22977762Y2632956D01*
X22986435Y2640786D01*
X22995923Y2649316D01*
X23006083Y2658418D01*
X23014784Y2666188D01*
X23027133Y2677204D01*
X23037800Y2686733D01*
X23046914Y2694897D01*
X23054600Y2701818D01*
X23060985Y2707616D01*
X23066195Y2712414D01*
X23070358Y2716333D01*
X23073599Y2719494D01*
X23076046Y2722018D01*
X23077824Y2724027D01*
X23079061Y2725643D01*
X23079883Y2726987D01*
X23080416Y2728180D01*
X23080787Y2729344D01*
X23080850Y2729572D01*
X23083048Y2736618D01*
X23086168Y2745172D01*
X23089964Y2754629D01*
X23094186Y2764380D01*
X23098585Y2773820D01*
X23100846Y2778376D01*
X23111971Y2798333D01*
X23124735Y2817576D01*
X23139372Y2836423D01*
X23156114Y2855193D01*
X23160621Y2859875D01*
X23179652Y2878231D01*
X23199291Y2894854D01*
X23219950Y2910041D01*
X23242041Y2924089D01*
X23265977Y2937296D01*
X23273172Y2940936D01*
X23296505Y2951864D01*
X23319824Y2961407D01*
X23343550Y2969695D01*
X23368106Y2976854D01*
X23393911Y2983014D01*
X23421387Y2988303D01*
X23437319Y2990879D01*
X23444120Y2991880D01*
X23450061Y2992657D01*
X23455621Y2993239D01*
X23461279Y2993654D01*
X23467512Y2993932D01*
X23474800Y2994101D01*
X23483620Y2994191D01*
X23492700Y2994226D01*
X23505460Y2994199D01*
%TD*%
D11*
%TO.P,R1,1,1*%
%TO.N,3.3V*%
X4982314Y10142017D03*
%TO.P,R1,2,2*%
%TO.N,Net-(D1-Pad2)*%
X3332314Y10142017D03*
%TD*%
D12*
%TO.P,J1,1,Pin_1*%
%TO.N,/nRST*%
X26670000Y12700000D03*
D13*
%TO.P,J1,2,Pin_2*%
%TO.N,GND*%
X24130000Y12700000D03*
%TO.P,J1,3,Pin_3*%
%TO.N,/P0*%
X21590000Y12700000D03*
%TO.P,J1,4,Pin_4*%
%TO.N,/P1*%
X19050000Y12700000D03*
%TO.P,J1,5,Pin_5*%
%TO.N,/P2*%
X16510000Y12700000D03*
%TO.P,J1,6,Pin_6*%
%TO.N,/P3*%
X13970000Y12700000D03*
%TO.P,J1,7,Pin_7*%
%TO.N,/P4*%
X11430000Y12700000D03*
%TO.P,J1,8,Pin_8*%
%TO.N,/P5*%
X8890000Y12700000D03*
%TO.P,J1,9,Pin_9*%
%TO.N,/P6*%
X6350000Y12700000D03*
%TO.P,J1,10,Pin_10*%
%TO.N,/P7*%
X3810000Y12700000D03*
%TO.P,J1,11,Pin_11*%
%TO.N,3.3V*%
X1270000Y12700000D03*
%TO.P,J1,12,Pin_12*%
%TO.N,/SWDIO*%
X-1270000Y12700000D03*
%TD*%
D14*
%TO.P,R3,1,1*%
%TO.N,VCC*%
X7514279Y8689342D03*
D15*
%TO.P,R3,2,1*%
%TO.N,3.3V*%
X6714279Y8689342D03*
%TO.P,R3,3,1*%
%TO.N,VCC*%
X5914279Y8689342D03*
D14*
%TO.P,R3,4,1*%
%TO.N,3.3V*%
X5114279Y8689342D03*
%TO.P,R3,5,2*%
%TO.N,/SDA_3V*%
X5114279Y6889342D03*
D15*
%TO.P,R3,6,2*%
%TO.N,/SDA*%
X5914279Y6889342D03*
%TO.P,R3,7,2*%
%TO.N,/SCL_3V*%
X6714279Y6889342D03*
D14*
%TO.P,R3,8,2*%
%TO.N,/SCL*%
X7514279Y6889342D03*
%TD*%
D16*
%TO.P,Q2,1,S*%
%TO.N,/SCL_3V*%
X6948888Y4131035D03*
D17*
%TO.P,Q2,2,G*%
%TO.N,3.3V*%
X6948888Y4881035D03*
D16*
%TO.P,Q2,3,D*%
%TO.N,/SDA*%
X6948888Y5631035D03*
%TO.P,Q2,4,S*%
%TO.N,/SDA_3V*%
X5148888Y5631035D03*
D17*
%TO.P,Q2,5,G*%
%TO.N,3.3V*%
X5148888Y4881035D03*
D16*
%TO.P,Q2,6,D*%
%TO.N,/SCL*%
X5148888Y4131035D03*
%TD*%
D18*
%TO.P,D1,1,K*%
%TO.N,GND*%
X355500Y10160000D03*
%TO.P,D1,2,A*%
%TO.N,Net-(D1-Pad2)*%
X1930500Y10160000D03*
%TD*%
D19*
%TO.P,U$19,P$1*%
%TO.N,N/C*%
X0Y0D03*
%TD*%
D20*
%TO.P,CONN3,1,GND*%
%TO.N,GND*%
X22886000Y4850000D03*
%TO.P,CONN3,2,V+*%
%TO.N,VCC*%
X22886000Y5850000D03*
%TO.P,CONN3,3,SDA*%
%TO.N,/SDA*%
X22886000Y6850000D03*
%TO.P,CONN3,4,SCL*%
%TO.N,/SCL*%
X22886000Y7850000D03*
D21*
%TO.P,CONN3,MT1*%
%TO.N,N/C*%
X26786000Y3550000D03*
%TO.P,CONN3,MT2*%
X26786000Y9150000D03*
%TD*%
D12*
%TO.P,J2,1,Pin_1*%
%TO.N,VCC*%
X3810000Y0D03*
D13*
%TO.P,J2,2,Pin_2*%
%TO.N,GND*%
X6350000Y0D03*
%TO.P,J2,3,Pin_3*%
%TO.N,/SCL*%
X8890000Y0D03*
%TO.P,J2,4,Pin_4*%
%TO.N,/SDA*%
X11430000Y0D03*
%TO.P,J2,5,Pin_5*%
%TO.N,/B9*%
X13970000Y0D03*
%TO.P,J2,6,Pin_6*%
%TO.N,/A12*%
X16510000Y0D03*
%TO.P,J2,7,Pin_7*%
%TO.N,/A11*%
X19050000Y0D03*
%TO.P,J2,8,Pin_8*%
%TO.N,/A8*%
X21590000Y0D03*
%TD*%
D22*
%TO.P,D2,1,K*%
%TO.N,Net-(D2-Pad1)*%
X9166861Y2688827D03*
%TO.P,D2,2,A*%
%TO.N,3.3V*%
X7591861Y2688827D03*
%TD*%
D23*
%TO.P,U1,1,PB7/PB8/I2C1_SDA*%
%TO.N,/SDA_3V*%
X15562500Y4060000D03*
%TO.P,U1,2,PB9/PC14-OSC32_IN*%
%TO.N,/B9*%
X15562500Y4710000D03*
%TO.P,U1,3,PC15-OSC32_OUT*%
%TO.N,unconnected-(U1-Pad3)*%
X15562500Y5360000D03*
%TO.P,U1,4,VDD/VDDA*%
%TO.N,3.3V*%
X15562500Y6010000D03*
%TO.P,U1,5,VSS/VSSA*%
%TO.N,GND*%
X15562500Y6660000D03*
%TO.P,U1,6,NRST*%
%TO.N,/nRST*%
X15562500Y7310000D03*
%TO.P,U1,7,PA0*%
%TO.N,/P0*%
X15562500Y7960000D03*
%TO.P,U1,8,PA1*%
%TO.N,/P1*%
X15562500Y8610000D03*
%TO.P,U1,9,PA2*%
%TO.N,/P2*%
X15562500Y9260000D03*
%TO.P,U1,10,PA3*%
%TO.N,/P3*%
X15562500Y9910000D03*
%TO.P,U1,11,PA4*%
%TO.N,/P4*%
X9837500Y9910000D03*
%TO.P,U1,12,PA5*%
%TO.N,/P5*%
X9837500Y9260000D03*
%TO.P,U1,13,PA6*%
%TO.N,/P6*%
X9837500Y8610000D03*
%TO.P,U1,14,PA7*%
%TO.N,/P7*%
X9837500Y7960000D03*
%TO.P,U1,15,PB0/PB1/PB2/PA8*%
%TO.N,/A8*%
X9837500Y7310000D03*
%TO.P,U1,16,PA11[PA9]*%
%TO.N,/A11*%
X9837500Y6660000D03*
%TO.P,U1,17,PA12[PA10]*%
%TO.N,/A12*%
X9837500Y6010000D03*
%TO.P,U1,18,PA13/SWCLK*%
%TO.N,/SWCLK*%
X9837500Y5360000D03*
%TO.P,U1,19,PA15/PA14/SWDIO-BOOT0*%
%TO.N,/SWDIO*%
X9837500Y4710000D03*
%TO.P,U1,20,PB3/PB4/PB5/PB6/I2C1_SCL*%
%TO.N,/SCL_3V*%
X9837500Y4060000D03*
%TD*%
D19*
%TO.P,U$21,P$1*%
%TO.N,N/C*%
X25400000Y0D03*
%TD*%
D24*
%TO.P,J4,1,Pin_1*%
%TO.N,VCC*%
X3810000Y-2540000D03*
%TO.P,J4,2,Pin_2*%
%TO.N,GND*%
X6350000Y-2540000D03*
%TO.P,J4,3,Pin_3*%
%TO.N,/SCL*%
X8890000Y-2540000D03*
%TO.P,J4,4,Pin_4*%
%TO.N,/SDA*%
X11430000Y-2540000D03*
%TO.P,J4,5,Pin_5*%
%TO.N,/B9*%
X13970000Y-2540000D03*
%TO.P,J4,6,Pin_6*%
%TO.N,/A12*%
X16510000Y-2540000D03*
%TO.P,J4,7,Pin_7*%
%TO.N,/A11*%
X19050000Y-2540000D03*
%TO.P,J4,8,Pin_8*%
%TO.N,/A8*%
X21590000Y-2540000D03*
%TD*%
D25*
%TO.P,U2,1,IN*%
%TO.N,VCC*%
X19092406Y5562232D03*
%TO.P,U2,2,GND*%
%TO.N,GND*%
X20042406Y5562232D03*
%TO.P,U2,3,EN*%
%TO.N,VCC*%
X20992406Y5562232D03*
%TO.P,U2,4,P4*%
%TO.N,unconnected-(U2-Pad4)*%
X20992406Y7837232D03*
%TO.P,U2,5,OUT*%
%TO.N,3.3V*%
X19092406Y7837232D03*
%TD*%
D26*
%TO.P,C1,1,1*%
%TO.N,3.3V*%
X17511712Y5416795D03*
%TO.P,C1,2,2*%
%TO.N,GND*%
X17511712Y6966795D03*
%TD*%
D27*
%TO.P,C3,1,1*%
%TO.N,3.3V*%
X19049470Y9834070D03*
%TO.P,C3,2,2*%
%TO.N,GND*%
X20949470Y9834070D03*
%TD*%
D20*
%TO.P,CONN4,1,GND*%
%TO.N,GND*%
X2514000Y7850000D03*
%TO.P,CONN4,2,V+*%
%TO.N,VCC*%
X2514000Y6850000D03*
%TO.P,CONN4,3,SDA*%
%TO.N,/SDA*%
X2514000Y5850000D03*
%TO.P,CONN4,4,SCL*%
%TO.N,/SCL*%
X2514000Y4850000D03*
D21*
%TO.P,CONN4,MT1*%
%TO.N,N/C*%
X-1386000Y9150000D03*
%TO.P,CONN4,MT2*%
X-1386000Y3550000D03*
%TD*%
D24*
%TO.P,J5,1,Pin_1*%
%TO.N,GND*%
X24130000Y15240000D03*
%TO.P,J5,2,Pin_2*%
%TO.N,/P0*%
X21590000Y15240000D03*
D28*
%TO.P,J5,3,Pin_3*%
%TO.N,/P1*%
X19050000Y15240000D03*
D24*
%TO.P,J5,4,Pin_4*%
%TO.N,/P2*%
X16510000Y15240000D03*
%TO.P,J5,5,Pin_5*%
%TO.N,/P3*%
X13970000Y15240000D03*
%TO.P,J5,6,Pin_6*%
%TO.N,/P4*%
X11430000Y15240000D03*
%TO.P,J5,7,Pin_7*%
%TO.N,/P5*%
X8890000Y15240000D03*
%TO.P,J5,8,Pin_8*%
%TO.N,/P6*%
X6350000Y15240000D03*
%TO.P,J5,9,Pin_9*%
%TO.N,/P7*%
X3810000Y15240000D03*
%TO.P,J5,10,Pin_10*%
%TO.N,3.3V*%
X1270000Y15240000D03*
%TD*%
D27*
%TO.P,C2,1,1*%
%TO.N,VCC*%
X19436530Y3157500D03*
%TO.P,C2,2,2*%
%TO.N,GND*%
X21336530Y3157500D03*
%TD*%
D29*
%TO.P,R2,1*%
%TO.N,Net-(D2-Pad1)*%
X10620307Y2624251D03*
%TO.P,R2,2*%
%TO.N,/B9*%
X12270307Y2624251D03*
%TD*%
D30*
%TO.N,GND*%
X-1945217Y6479287D03*
D31*
%TO.N,3.3V*%
X6045924Y4938943D03*
X13323855Y6416009D03*
X4052981Y8901807D03*
D30*
%TO.N,VCC*%
X3613923Y3555812D03*
X16766783Y2727100D03*
D32*
%TO.N,/SCL*%
X4283334Y4644968D03*
X24672506Y7841615D03*
X8407277Y4244051D03*
%TO.N,/SDA*%
X11293797Y5323159D03*
X25617101Y6862671D03*
X1280971Y5836238D03*
%TO.N,/SDA_3V*%
X11271712Y7465562D03*
X4705654Y6195739D03*
%TO.N,/SWCLK*%
X11519413Y4457570D03*
%TO.N,/SWDIO*%
X11298232Y3593662D03*
%TO.N,/nRST*%
X13985938Y7098444D03*
X13771135Y10029271D03*
%TO.N,/B9*%
X13953606Y5198940D03*
X12958186Y3414864D03*
%TD*%
D33*
%TO.N,GND*%
X-1896313Y6479287D02*
X-1945217Y6479287D01*
X355500Y10160000D02*
X355500Y8731100D01*
X355500Y8731100D02*
X-1896313Y6479287D01*
D34*
%TO.N,3.3V*%
X4052981Y8901807D02*
X4901814Y8901807D01*
X6948888Y4881035D02*
X6103832Y4881035D01*
X5988016Y4881035D02*
X6045924Y4938943D01*
X6733361Y2921000D02*
X7009902Y2644459D01*
D35*
X19092406Y7837232D02*
X19092406Y6997489D01*
X19049470Y9834070D02*
X19049470Y7880168D01*
D34*
X4052981Y8901807D02*
X4052981Y9212684D01*
X7009902Y2644459D02*
X7547493Y2644459D01*
X7547493Y2644459D02*
X7591861Y2688827D01*
X1270000Y15240000D02*
X1270000Y12700000D01*
X17409625Y5711654D02*
X17111279Y6010000D01*
X13729864Y6010000D02*
X13323855Y6416009D01*
X6731000Y2921000D02*
X6045924Y3606076D01*
X6714279Y8889342D02*
X5461604Y10142017D01*
D35*
X19049470Y7880168D02*
X19092406Y7837232D01*
D34*
X6714279Y8689342D02*
X6714279Y8889342D01*
X17111279Y6010000D02*
X15562500Y6010000D01*
X15562500Y6010000D02*
X13729864Y6010000D01*
X6045924Y3606076D02*
X6045924Y4938943D01*
X4901814Y8901807D02*
X5114279Y8689342D01*
X5148888Y4881035D02*
X5988016Y4881035D01*
X4052981Y9212684D02*
X4982314Y10142017D01*
D35*
X19092406Y6997489D02*
X17511712Y5416795D01*
D34*
X6103832Y4881035D02*
X6045924Y4938943D01*
X5461604Y10142017D02*
X4982314Y10142017D01*
X6731000Y2921000D02*
X6733361Y2921000D01*
D35*
%TO.N,VCC*%
X2989000Y6850000D02*
X4237842Y8098842D01*
X5523779Y8098842D02*
X7073779Y8098842D01*
X7073779Y8098842D02*
X7514279Y8539342D01*
D33*
X20213329Y4391550D02*
X19117965Y4391550D01*
X496047Y4895311D02*
X1835546Y3555812D01*
X19117965Y4391550D02*
X18412447Y4391550D01*
X707603Y6850000D02*
X496047Y6638444D01*
X19436530Y3157500D02*
X19436530Y4072985D01*
X22886000Y5850000D02*
X21280174Y5850000D01*
X16766783Y2745886D02*
X16766783Y2727100D01*
X19436530Y4072985D02*
X19117965Y4391550D01*
D35*
X5914279Y8489342D02*
X5914279Y8689342D01*
D33*
X19092406Y4417109D02*
X19092406Y5562232D01*
X18412447Y4391550D02*
X16766783Y2745886D01*
X21280174Y5850000D02*
X20992406Y5562232D01*
X19117965Y4391550D02*
X19092406Y4417109D01*
X2514000Y6850000D02*
X707603Y6850000D01*
X1835546Y3555812D02*
X3613923Y3555812D01*
X496047Y6638444D02*
X496047Y4895311D01*
D35*
X4237842Y8098842D02*
X5523779Y8098842D01*
X7514279Y8539342D02*
X7514279Y8689342D01*
D33*
X20992406Y5562232D02*
X20992406Y5170627D01*
X20992406Y5170627D02*
X20213329Y4391550D01*
D35*
X5523779Y8098842D02*
X5914279Y8489342D01*
X2514000Y6850000D02*
X2989000Y6850000D01*
D36*
%TO.N,/SCL*%
X24664121Y7850000D02*
X22886000Y7850000D01*
X5148888Y4131035D02*
X4797267Y4131035D01*
X4797267Y4131035D02*
X4283334Y4644968D01*
X4086143Y4842159D02*
X4283334Y4644968D01*
X8890000Y0D02*
X8890000Y-2540000D01*
X8407277Y5996344D02*
X7514279Y6889342D01*
X4086143Y4850000D02*
X4086143Y4842159D01*
D35*
X6835886Y1673555D02*
X7731894Y1673555D01*
X6215289Y2294152D02*
X6835886Y1673555D01*
D36*
X8890000Y1269689D02*
X8502895Y1656794D01*
X7731894Y1673555D02*
X8502895Y1673555D01*
X4415801Y3353620D02*
X5475269Y2294152D01*
D35*
X6036588Y2294152D02*
X6215289Y2294152D01*
D36*
X5475269Y2294152D02*
X6036588Y2294152D01*
X2514000Y4850000D02*
X4086143Y4850000D01*
X8890000Y1202081D02*
X8890000Y0D01*
X4415801Y4512501D02*
X4415801Y3353620D01*
X8890000Y1219406D02*
X8890000Y1202081D01*
X8890000Y1269689D02*
X8890000Y1252928D01*
X8502895Y1656794D02*
X8502895Y1673555D01*
X8890000Y1219406D02*
X8890000Y1236167D01*
X8890000Y1252928D02*
X8890000Y1236167D01*
X4283334Y4644968D02*
X4415801Y4512501D01*
X24672506Y7841615D02*
X24664121Y7850000D01*
X8407277Y4244051D02*
X8407277Y5996344D01*
%TO.N,/SDA*%
X11441295Y5323159D02*
X11293797Y5323159D01*
D35*
X5914279Y6665644D02*
X5914279Y6889342D01*
X5914279Y7429541D02*
X5914279Y6889342D01*
D36*
X1294733Y5850000D02*
X1280971Y5836238D01*
X11430000Y0D02*
X11430000Y-2540000D01*
X25604430Y6850000D02*
X22886000Y6850000D01*
X11430000Y2895534D02*
X12146946Y3612480D01*
X12146946Y4617508D02*
X11441295Y5323159D01*
X12146946Y3612480D02*
X12146946Y4617508D01*
D35*
X2989000Y5850000D02*
X4758599Y7619599D01*
X6948888Y5631035D02*
X5914279Y6665644D01*
D36*
X11430000Y0D02*
X11430000Y2895534D01*
X2514000Y5850000D02*
X1294733Y5850000D01*
D35*
X5724221Y7619599D02*
X5914279Y7429541D01*
X4758599Y7619599D02*
X5724221Y7619599D01*
X2514000Y5850000D02*
X2989000Y5850000D01*
D36*
X25617101Y6862671D02*
X25604430Y6850000D01*
%TO.N,/SDA_3V*%
X5114279Y6889342D02*
X5114279Y6604364D01*
X11271712Y7465562D02*
X12710259Y6027015D01*
X5114279Y6604364D02*
X4705654Y6195739D01*
X5148888Y5631035D02*
X5148888Y6854733D01*
X5148888Y6854733D02*
X5114279Y6889342D01*
X12710259Y5651894D02*
X14302153Y4060000D01*
X14302153Y4060000D02*
X15562500Y4060000D01*
X12710259Y6027015D02*
X12710259Y5651894D01*
D35*
%TO.N,/SCL_3V*%
X6714279Y6689342D02*
X8006213Y5397408D01*
X7166284Y4131035D02*
X6948888Y4131035D01*
X9404011Y3626511D02*
X7995010Y3626511D01*
X8006213Y4970964D02*
X7166284Y4131035D01*
X8006213Y5397408D02*
X8006213Y4970964D01*
X7490486Y4131035D02*
X6948888Y4131035D01*
X6714279Y6889342D02*
X6714279Y6689342D01*
X7995010Y3626511D02*
X7490486Y4131035D01*
X9837500Y4060000D02*
X9404011Y3626511D01*
D36*
%TO.N,/SWCLK*%
X10777000Y4676123D02*
X10777000Y5102988D01*
X11325421Y4651562D02*
X10801561Y4651562D01*
X10777000Y5102988D02*
X10519988Y5360000D01*
X10519988Y5360000D02*
X9837500Y5360000D01*
X11519413Y4457570D02*
X11325421Y4651562D01*
X10801561Y4651562D02*
X10777000Y4676123D01*
%TO.N,/SWDIO*%
X10799673Y4262419D02*
X10799673Y4092221D01*
X10799673Y4092221D02*
X11298232Y3593662D01*
X9837500Y4710000D02*
X10352092Y4710000D01*
X10352092Y4710000D02*
X10799673Y4262419D01*
%TO.N,Net-(D2-Pad1)*%
X10620307Y2624251D02*
X9231437Y2624251D01*
X9231437Y2624251D02*
X9166861Y2688827D01*
%TO.N,/nRST*%
X13771135Y7313247D02*
X13985938Y7098444D01*
X15350944Y7098444D02*
X13985938Y7098444D01*
X13771135Y10029271D02*
X13771135Y7313247D01*
X15562500Y7310000D02*
X15350944Y7098444D01*
%TO.N,/B9*%
X11955307Y2624251D02*
X12745920Y3414864D01*
X11955307Y2014693D02*
X13970000Y0D01*
X14442546Y4710000D02*
X13953606Y5198940D01*
X15562500Y4710000D02*
X14442546Y4710000D01*
X12745920Y3414864D02*
X12958186Y3414864D01*
X13970000Y0D02*
X13970000Y-2540000D01*
X11955307Y2624251D02*
X11955307Y2014693D01*
%TO.N,/A12*%
X16510000Y679058D02*
X16510000Y0D01*
X11446171Y6010000D02*
X11880756Y5575415D01*
X11880756Y5308301D02*
X16510000Y679058D01*
X9837500Y6010000D02*
X11446171Y6010000D01*
X11880756Y5575415D02*
X11880756Y5308301D01*
X16510000Y0D02*
X16510000Y-2540000D01*
%TO.N,/A11*%
X16003433Y1576656D02*
X17473344Y1576656D01*
X17473344Y1576656D02*
X19050000Y0D01*
X11263666Y6286501D02*
X11560702Y6286501D01*
X10890165Y6660000D02*
X11263666Y6286501D01*
X9837500Y6660000D02*
X10890165Y6660000D01*
X12157257Y5689946D02*
X12157257Y5422832D01*
X12157257Y5422832D02*
X16003433Y1576656D01*
X11560702Y6286501D02*
X12157257Y5689946D01*
X19050000Y0D02*
X19050000Y-2540000D01*
%TO.N,/A8*%
X19577700Y2012300D02*
X21590000Y0D01*
X11378196Y6563002D02*
X11675233Y6563002D01*
X15958821Y2012300D02*
X19577700Y2012300D01*
X12433758Y5537363D02*
X15958821Y2012300D01*
X9837500Y7310000D02*
X10631198Y7310000D01*
X12433758Y5804477D02*
X12433758Y5537363D01*
X21590000Y0D02*
X21590000Y-2540000D01*
X10631198Y7310000D02*
X11378196Y6563002D01*
X11675233Y6563002D02*
X12433758Y5804477D01*
%TO.N,/P0*%
X15562500Y7960000D02*
X16077092Y7960000D01*
X17091136Y10766125D02*
X17915214Y11590203D01*
X17915214Y11590203D02*
X20480203Y11590203D01*
X17091136Y8974044D02*
X17091136Y10766125D01*
X21590000Y15240000D02*
X21590000Y12700000D01*
X20480203Y11590203D02*
X21590000Y12700000D01*
X16077092Y7960000D02*
X17091136Y8974044D01*
%TO.N,/P1*%
X15562500Y8610000D02*
X16077092Y8610000D01*
X19050000Y15240000D02*
X19050000Y12700000D01*
X18633979Y12700000D02*
X19050000Y12700000D01*
X16814635Y9347543D02*
X16814635Y10880656D01*
X16814635Y10880656D02*
X18633979Y12700000D01*
X16077092Y8610000D02*
X16814635Y9347543D01*
%TO.N,/P2*%
X15562500Y9260000D02*
X16077092Y9260000D01*
X16077092Y9260000D02*
X16510000Y9692908D01*
X16510000Y15240000D02*
X16510000Y12700000D01*
X16510000Y9692908D02*
X16510000Y12700000D01*
%TO.N,/P3*%
X15562500Y9910000D02*
X15562500Y11107500D01*
X15562500Y11107500D02*
X13970000Y12700000D01*
X13970000Y15240000D02*
X13970000Y12700000D01*
%TO.N,/P4*%
X8835771Y9965909D02*
X8835770Y10105770D01*
X9837500Y9910000D02*
X8891680Y9910000D01*
X11430000Y15240000D02*
X11430000Y12700000D01*
X8835770Y10105770D02*
X11430000Y12700000D01*
X8891680Y9910000D02*
X8835771Y9965909D01*
%TO.N,/P5*%
X8559270Y9851379D02*
X8559270Y11167189D01*
X9837500Y9260000D02*
X9150649Y9260000D01*
X8890000Y11497919D02*
X8890000Y12700000D01*
X8559270Y11167189D02*
X8890000Y11497919D01*
X8890000Y15240000D02*
X8890000Y12700000D01*
X9150649Y9260000D02*
X8559270Y9851379D01*
%TO.N,/P6*%
X6350000Y15240000D02*
X6350000Y12700000D01*
X9322908Y8610000D02*
X8282769Y9650139D01*
X9837500Y8610000D02*
X9322908Y8610000D01*
X8282769Y10767231D02*
X6350000Y12700000D01*
X8282769Y9650139D02*
X8282769Y10767231D01*
%TO.N,/P7*%
X5182322Y11327678D02*
X3810000Y12700000D01*
X8898000Y8384908D02*
X8898000Y8588020D01*
X9837500Y7960000D02*
X9322908Y7960000D01*
X3810000Y15240000D02*
X3810000Y12700000D01*
X9322908Y7960000D02*
X8898000Y8384908D01*
X8006268Y9479752D02*
X8006268Y10462497D01*
X8898000Y8588020D02*
X8006268Y9479752D01*
X8006268Y10462497D02*
X7141087Y11327678D01*
X7141087Y11327678D02*
X5182322Y11327678D01*
%TO.N,Net-(D1-Pad2)*%
X1948483Y10142017D02*
X1930500Y10160000D01*
X3332314Y10142017D02*
X1948483Y10142017D01*
%TD*%
%TA.AperFunction,Conductor*%
%TO.N,GND*%
G36*
X277881Y15196194D02*
G01*
X295968Y15157230D01*
X297295Y15141433D01*
X303907Y15062689D01*
X356746Y14878417D01*
X444370Y14707918D01*
X563443Y14557686D01*
X565773Y14555703D01*
X698226Y14442977D01*
X709428Y14433443D01*
X712092Y14431954D01*
X712095Y14431952D01*
X827558Y14367422D01*
X876765Y14339921D01*
X879669Y14338977D01*
X879670Y14338977D01*
X946914Y14317128D01*
X983288Y14286061D01*
X990100Y14257687D01*
X990100Y13683378D01*
X971794Y13639184D01*
X945246Y13623421D01*
X902050Y13610708D01*
X732167Y13521895D01*
X582770Y13401777D01*
X459549Y13254928D01*
X403277Y13152570D01*
X374188Y13099656D01*
X367198Y13086942D01*
X309234Y12904217D01*
X287866Y12713714D01*
X291321Y12672575D01*
X302913Y12534530D01*
X303907Y12522689D01*
X356746Y12338417D01*
X444370Y12167918D01*
X563443Y12017686D01*
X709428Y11893443D01*
X712092Y11891954D01*
X712095Y11891952D01*
X777850Y11855203D01*
X876765Y11799921D01*
X879669Y11798977D01*
X879670Y11798977D01*
X1056168Y11741629D01*
X1056173Y11741628D01*
X1059081Y11740683D01*
X1249430Y11717985D01*
X1252472Y11718219D01*
X1252475Y11718219D01*
X1437514Y11732457D01*
X1437519Y11732458D01*
X1440562Y11732692D01*
X1460873Y11738363D01*
X1622260Y11783423D01*
X1622264Y11783424D01*
X1625199Y11784244D01*
X1796305Y11870676D01*
X1798703Y11872549D01*
X1798707Y11872552D01*
X1897406Y11949665D01*
X1947365Y11988697D01*
X1949362Y11991010D01*
X2070630Y12131500D01*
X2070634Y12131505D01*
X2072624Y12133811D01*
X2085254Y12156043D01*
X2165801Y12297830D01*
X2165803Y12297835D01*
X2167312Y12300491D01*
X2227821Y12482388D01*
X2232542Y12519753D01*
X2251627Y12670833D01*
X2251627Y12670834D01*
X2251847Y12672575D01*
X2252159Y12694928D01*
X2252206Y12698262D01*
X2252206Y12698267D01*
X2252230Y12700000D01*
X2251827Y12704117D01*
X2233822Y12887743D01*
X2233524Y12890783D01*
X2178117Y13074299D01*
X2088120Y13243558D01*
X1966962Y13392113D01*
X1819256Y13514306D01*
X1650629Y13605482D01*
X1593918Y13623037D01*
X1557114Y13653593D01*
X1549900Y13682742D01*
X1549900Y14255780D01*
X1568206Y14299974D01*
X1595592Y14315978D01*
X1625199Y14324244D01*
X1796305Y14410676D01*
X1798703Y14412549D01*
X1798707Y14412552D01*
X1877523Y14474131D01*
X1947365Y14528697D01*
X1949362Y14531010D01*
X2070630Y14671500D01*
X2070634Y14671505D01*
X2072624Y14673811D01*
X2092000Y14707918D01*
X2165801Y14837830D01*
X2165803Y14837835D01*
X2167312Y14840491D01*
X2227821Y15022388D01*
X2245184Y15159833D01*
X2268884Y15201385D01*
X2307191Y15214500D01*
X2773687Y15214500D01*
X2817881Y15196194D01*
X2835968Y15157230D01*
X2837295Y15141433D01*
X2843907Y15062689D01*
X2896746Y14878417D01*
X2984370Y14707918D01*
X3103443Y14557686D01*
X3105773Y14555703D01*
X3238226Y14442977D01*
X3249428Y14433443D01*
X3252092Y14431954D01*
X3252095Y14431952D01*
X3367558Y14367422D01*
X3416765Y14339921D01*
X3419669Y14338977D01*
X3419670Y14338977D01*
X3564314Y14291979D01*
X3600688Y14260912D01*
X3607500Y14232538D01*
X3607500Y13706158D01*
X3589194Y13661964D01*
X3562646Y13646201D01*
X3530099Y13636622D01*
X3442050Y13610708D01*
X3272167Y13521895D01*
X3122770Y13401777D01*
X2999549Y13254928D01*
X2943277Y13152570D01*
X2914188Y13099656D01*
X2907198Y13086942D01*
X2849234Y12904217D01*
X2827866Y12713714D01*
X2831321Y12672575D01*
X2842913Y12534530D01*
X2843907Y12522689D01*
X2896746Y12338417D01*
X2984370Y12167918D01*
X3103443Y12017686D01*
X3249428Y11893443D01*
X3252092Y11891954D01*
X3252095Y11891952D01*
X3317850Y11855203D01*
X3416765Y11799921D01*
X3419669Y11798977D01*
X3419670Y11798977D01*
X3596168Y11741629D01*
X3596173Y11741628D01*
X3599081Y11740683D01*
X3789430Y11717985D01*
X3792472Y11718219D01*
X3792475Y11718219D01*
X3977514Y11732457D01*
X3977519Y11732458D01*
X3980562Y11732692D01*
X4000873Y11738363D01*
X4162260Y11783423D01*
X4162264Y11783424D01*
X4165199Y11784244D01*
X4182343Y11792904D01*
X4306979Y11855862D01*
X4354680Y11859448D01*
X4379353Y11844269D01*
X5007173Y11216449D01*
X5011854Y11209844D01*
X5012339Y11210230D01*
X5016722Y11204719D01*
X5019768Y11198377D01*
X5025262Y11193984D01*
X5025263Y11193982D01*
X5044408Y11178672D01*
X5049567Y11174055D01*
X5055277Y11168345D01*
X5058242Y11166482D01*
X5058249Y11166476D01*
X5061821Y11164232D01*
X5067601Y11160125D01*
X5091921Y11140675D01*
X5098781Y11139097D01*
X5103140Y11136990D01*
X5107713Y11135389D01*
X5113671Y11131644D01*
X5120664Y11130853D01*
X5120665Y11130853D01*
X5144607Y11128146D01*
X5151588Y11126953D01*
X5155859Y11125971D01*
X5155865Y11125970D01*
X5159311Y11125178D01*
X5167346Y11125178D01*
X5174366Y11124782D01*
X5205475Y11121265D01*
X5212120Y11123585D01*
X5219116Y11124370D01*
X5219179Y11123804D01*
X5227281Y11125178D01*
X7031321Y11125178D01*
X7075515Y11106872D01*
X7785462Y10396925D01*
X7803768Y10352731D01*
X7803768Y9524950D01*
X7802408Y9516970D01*
X7803023Y9516900D01*
X7802226Y9509903D01*
X7799895Y9503265D01*
X7803386Y9471898D01*
X7803768Y9465002D01*
X7803768Y9456921D01*
X7805489Y9449377D01*
X7806668Y9442408D01*
X7810114Y9411444D01*
X7813850Y9405477D01*
X7815444Y9400900D01*
X7817542Y9396541D01*
X7819107Y9389678D01*
X7826021Y9381001D01*
X7838516Y9365321D01*
X7842611Y9359537D01*
X7844932Y9355830D01*
X7846808Y9352834D01*
X7852479Y9347163D01*
X7857164Y9341919D01*
X7876683Y9317424D01*
X7883025Y9314365D01*
X7888523Y9309976D01*
X7888167Y9309530D01*
X7894870Y9304772D01*
X7896238Y9303404D01*
X7914544Y9259210D01*
X7902298Y9229646D01*
X7946340Y9238406D01*
X7978341Y9221301D01*
X8330740Y8868901D01*
X8677194Y8522447D01*
X8695500Y8478253D01*
X8695500Y8430106D01*
X8694140Y8422126D01*
X8694755Y8422056D01*
X8693958Y8415059D01*
X8691627Y8408421D01*
X8695118Y8377054D01*
X8695500Y8370158D01*
X8695500Y8362077D01*
X8697221Y8354533D01*
X8698400Y8347564D01*
X8701846Y8316600D01*
X8705582Y8310633D01*
X8707176Y8306056D01*
X8709274Y8301697D01*
X8710839Y8294834D01*
X8715225Y8289330D01*
X8730248Y8270477D01*
X8734343Y8264693D01*
X8736664Y8260986D01*
X8738540Y8257990D01*
X8744211Y8252319D01*
X8748896Y8247075D01*
X8768415Y8222580D01*
X8774757Y8219521D01*
X8780255Y8215132D01*
X8779900Y8214687D01*
X8786603Y8209927D01*
X8954194Y8042336D01*
X8972500Y7998142D01*
X8972500Y7837594D01*
X8973099Y7834584D01*
X8973099Y7834581D01*
X8977143Y7814251D01*
X8985700Y7771234D01*
X8989119Y7766117D01*
X8989120Y7766115D01*
X9017203Y7724086D01*
X9035982Y7695982D01*
X9041099Y7692563D01*
X9049474Y7686967D01*
X9076050Y7647193D01*
X9066718Y7600277D01*
X9049474Y7583033D01*
X9035982Y7574018D01*
X9026421Y7559709D01*
X8990993Y7506687D01*
X8985700Y7498766D01*
X8981423Y7477262D01*
X8977456Y7457319D01*
X8972500Y7432406D01*
X8972500Y7187594D01*
X8973099Y7184584D01*
X8973099Y7184581D01*
X8977480Y7162558D01*
X8985700Y7121234D01*
X8989119Y7116117D01*
X8989120Y7116115D01*
X9008115Y7087688D01*
X9035982Y7045982D01*
X9041099Y7042563D01*
X9049474Y7036967D01*
X9076050Y6997193D01*
X9066718Y6950277D01*
X9049474Y6933033D01*
X9035982Y6924018D01*
X9032563Y6918901D01*
X8994877Y6862500D01*
X8985700Y6848766D01*
X8984499Y6842727D01*
X8975646Y6798220D01*
X8972500Y6782406D01*
X8972500Y6537594D01*
X8973099Y6534584D01*
X8973099Y6534581D01*
X8974789Y6526087D01*
X8985700Y6471234D01*
X8989119Y6466117D01*
X8989120Y6466115D01*
X9007599Y6438460D01*
X9035982Y6395982D01*
X9041099Y6392563D01*
X9049474Y6386967D01*
X9076050Y6347193D01*
X9066718Y6300277D01*
X9049474Y6283033D01*
X9035982Y6274018D01*
X9032563Y6268901D01*
X8989775Y6204864D01*
X8985700Y6198766D01*
X8981922Y6179774D01*
X8974042Y6140156D01*
X8972500Y6132406D01*
X8972500Y5887594D01*
X8973099Y5884584D01*
X8973099Y5884581D01*
X8978817Y5855835D01*
X8985700Y5821234D01*
X8989119Y5816117D01*
X8989120Y5816115D01*
X9008128Y5787668D01*
X9035982Y5745982D01*
X9041099Y5742563D01*
X9049474Y5736967D01*
X9076050Y5697193D01*
X9066718Y5650277D01*
X9049474Y5633033D01*
X9035982Y5624018D01*
X9032563Y5618901D01*
X8991434Y5557347D01*
X8985700Y5548766D01*
X8982849Y5534431D01*
X8976498Y5502503D01*
X8972500Y5482406D01*
X8972500Y5237594D01*
X8973099Y5234584D01*
X8973099Y5234581D01*
X8974815Y5225955D01*
X8985700Y5171234D01*
X8989119Y5166117D01*
X8989120Y5166115D01*
X9025263Y5112024D01*
X9035982Y5095982D01*
X9041099Y5092563D01*
X9049474Y5086967D01*
X9076050Y5047193D01*
X9066718Y5000277D01*
X9049474Y4983033D01*
X9035982Y4974018D01*
X9032563Y4968901D01*
X8989531Y4904499D01*
X8985700Y4898766D01*
X8982963Y4885007D01*
X8973871Y4839296D01*
X8972500Y4832406D01*
X8972500Y4587594D01*
X8973099Y4584584D01*
X8973099Y4584581D01*
X8979275Y4553535D01*
X8985700Y4521234D01*
X8989119Y4516117D01*
X8989120Y4516115D01*
X9014465Y4478184D01*
X9035982Y4445982D01*
X9041099Y4442563D01*
X9049474Y4436967D01*
X9076050Y4397193D01*
X9066718Y4350277D01*
X9049474Y4333033D01*
X9035982Y4324018D01*
X8999957Y4270102D01*
X8999267Y4269070D01*
X8959493Y4242494D01*
X8912577Y4251826D01*
X8885431Y4294933D01*
X8885243Y4296248D01*
X8873206Y4380298D01*
X8823694Y4489194D01*
X8818082Y4501537D01*
X8818081Y4501539D01*
X8816238Y4505592D01*
X8726394Y4609862D01*
X8638283Y4666972D01*
X8611154Y4706371D01*
X8609777Y4719419D01*
X8609777Y5951145D01*
X8611138Y5959127D01*
X8610522Y5959197D01*
X8611319Y5966192D01*
X8613650Y5972830D01*
X8612686Y5981497D01*
X8610160Y6004190D01*
X8609777Y6011103D01*
X8609777Y6019175D01*
X8608056Y6026719D01*
X8606876Y6033693D01*
X8604209Y6057658D01*
X8603431Y6064652D01*
X8599695Y6070619D01*
X8598101Y6075196D01*
X8596003Y6079555D01*
X8594438Y6086418D01*
X8575029Y6110775D01*
X8570934Y6116559D01*
X8568613Y6120266D01*
X8568611Y6120268D01*
X8566737Y6123262D01*
X8561066Y6128933D01*
X8556381Y6134177D01*
X8551998Y6139677D01*
X8536862Y6158672D01*
X8530520Y6161731D01*
X8525022Y6166120D01*
X8525377Y6166565D01*
X8518674Y6171325D01*
X7910085Y6779914D01*
X7891779Y6824108D01*
X7891779Y7301900D01*
X7887602Y7322900D01*
X7885582Y7333055D01*
X7885581Y7333057D01*
X7884381Y7339090D01*
X7856201Y7381264D01*
X7814027Y7409444D01*
X7807994Y7410644D01*
X7807992Y7410645D01*
X7779848Y7416243D01*
X7776837Y7416842D01*
X7251721Y7416842D01*
X7248710Y7416243D01*
X7220566Y7410645D01*
X7220564Y7410644D01*
X7214531Y7409444D01*
X7172357Y7381264D01*
X7144177Y7339090D01*
X7143647Y7339444D01*
X7113197Y7308994D01*
X7065361Y7308995D01*
X7034912Y7339444D01*
X7034381Y7339090D01*
X7032599Y7341757D01*
X7006201Y7381264D01*
X6964027Y7409444D01*
X6957994Y7410644D01*
X6957992Y7410645D01*
X6929848Y7416243D01*
X6926837Y7416842D01*
X6501721Y7416842D01*
X6498710Y7416243D01*
X6470566Y7410645D01*
X6470564Y7410644D01*
X6464531Y7409444D01*
X6422357Y7381264D01*
X6394177Y7339090D01*
X6392977Y7333057D01*
X6392976Y7333055D01*
X6390956Y7322900D01*
X6386779Y7301900D01*
X6386779Y6614147D01*
X6368473Y6569953D01*
X6324279Y6551647D01*
X6280085Y6569953D01*
X6260085Y6589953D01*
X6241779Y6634147D01*
X6241779Y7301900D01*
X6237602Y7322900D01*
X6235582Y7333055D01*
X6235581Y7333057D01*
X6234381Y7339090D01*
X6206201Y7381264D01*
X6164027Y7409444D01*
X6152309Y7411775D01*
X6112537Y7438353D01*
X6102389Y7466161D01*
X6100073Y7486972D01*
X6100073Y7486973D01*
X6099294Y7493969D01*
X6095559Y7499935D01*
X6094187Y7503874D01*
X6092376Y7507637D01*
X6090811Y7514500D01*
X6072630Y7537315D01*
X6068535Y7543100D01*
X6066559Y7546256D01*
X6066558Y7546258D01*
X6064683Y7549252D01*
X6059470Y7554465D01*
X6054785Y7559709D01*
X6040891Y7577145D01*
X6040890Y7577145D01*
X6036504Y7582650D01*
X6030165Y7585708D01*
X6024664Y7590099D01*
X6025090Y7590633D01*
X6018926Y7595009D01*
X5889849Y7724086D01*
X5885544Y7730160D01*
X5884971Y7729704D01*
X5880590Y7735212D01*
X5877543Y7741557D01*
X5854460Y7760017D01*
X5849301Y7764634D01*
X5844052Y7769883D01*
X5838049Y7773656D01*
X5832273Y7777761D01*
X5809488Y7795982D01*
X5809487Y7795983D01*
X5811636Y7798670D01*
X5788366Y7824781D01*
X5791114Y7872537D01*
X5826826Y7904363D01*
X5847387Y7907842D01*
X7030547Y7907842D01*
X7037886Y7906592D01*
X7037969Y7907319D01*
X7044960Y7906522D01*
X7051601Y7904190D01*
X7058594Y7904968D01*
X7058595Y7904968D01*
X7080976Y7907459D01*
X7087889Y7907842D01*
X7095312Y7907842D01*
X7102244Y7909423D01*
X7109197Y7910599D01*
X7138208Y7913828D01*
X7144172Y7917561D01*
X7148120Y7918936D01*
X7151879Y7920745D01*
X7158738Y7922310D01*
X7181553Y7940491D01*
X7187338Y7944586D01*
X7190494Y7946562D01*
X7190496Y7946563D01*
X7193490Y7948438D01*
X7198702Y7953650D01*
X7203946Y7958335D01*
X7221383Y7972230D01*
X7221383Y7972231D01*
X7226888Y7976617D01*
X7229946Y7982956D01*
X7234337Y7988457D01*
X7234871Y7988031D01*
X7239247Y7994195D01*
X7388588Y8143536D01*
X7432782Y8161842D01*
X7776837Y8161842D01*
X7781895Y8162848D01*
X7807992Y8168039D01*
X7807994Y8168040D01*
X7814027Y8169240D01*
X7856201Y8197420D01*
X7884381Y8239594D01*
X7885870Y8247075D01*
X7891180Y8273773D01*
X7891779Y8276784D01*
X7891779Y9101900D01*
X7884381Y9139090D01*
X7880963Y9144206D01*
X7878606Y9149895D01*
X7880528Y9150691D01*
X7872848Y9189300D01*
X7887655Y9211461D01*
X7852044Y9196710D01*
X7825309Y9204820D01*
X7824832Y9203669D01*
X7819143Y9206026D01*
X7814027Y9209444D01*
X7807994Y9210644D01*
X7807992Y9210645D01*
X7779848Y9216243D01*
X7776837Y9216842D01*
X7251721Y9216842D01*
X7248710Y9216243D01*
X7220566Y9210645D01*
X7220564Y9210644D01*
X7214531Y9209444D01*
X7172357Y9181264D01*
X7144177Y9139090D01*
X7143647Y9139444D01*
X7113197Y9108994D01*
X7065361Y9108995D01*
X7034912Y9139444D01*
X7034381Y9139090D01*
X7032599Y9141757D01*
X7006201Y9181264D01*
X6964027Y9209444D01*
X6957994Y9210644D01*
X6957992Y9210645D01*
X6929848Y9216243D01*
X6926837Y9216842D01*
X6808505Y9216842D01*
X6764311Y9235148D01*
X5695659Y10303800D01*
X5692090Y10307934D01*
X5690205Y10311791D01*
X5656004Y10343517D01*
X5654315Y10345144D01*
X5641116Y10358343D01*
X5638736Y10359976D01*
X5636529Y10361810D01*
X5636606Y10361903D01*
X5633555Y10364341D01*
X5613760Y10382704D01*
X5608401Y10384842D01*
X5608398Y10384844D01*
X5600730Y10387903D01*
X5588540Y10394411D01*
X5576968Y10402349D01*
X5556769Y10407142D01*
X5517995Y10435156D01*
X5509233Y10459797D01*
X5504159Y10498348D01*
X5504159Y10498349D01*
X5503535Y10503088D01*
X5461348Y10593558D01*
X5457037Y10602804D01*
X5457035Y10602806D01*
X5454725Y10607761D01*
X5373058Y10689428D01*
X5368103Y10691738D01*
X5368101Y10691740D01*
X5319299Y10714496D01*
X5268385Y10738238D01*
X5255019Y10739998D01*
X5222721Y10744250D01*
X5222713Y10744250D01*
X5220689Y10744517D01*
X5218642Y10744517D01*
X4981672Y10744516D01*
X4743940Y10744516D01*
X4741929Y10744251D01*
X4741924Y10744251D01*
X4700983Y10738862D01*
X4700982Y10738862D01*
X4696243Y10738238D01*
X4691909Y10736217D01*
X4596527Y10691740D01*
X4596525Y10691738D01*
X4591570Y10689428D01*
X4509903Y10607761D01*
X4507593Y10602806D01*
X4507591Y10602804D01*
X4503280Y10593558D01*
X4461093Y10503088D01*
X4460469Y10498348D01*
X4460469Y10498347D01*
X4455081Y10457424D01*
X4455081Y10457416D01*
X4454814Y10455392D01*
X4454815Y10234230D01*
X4454815Y10036244D01*
X4436509Y9992050D01*
X3912252Y9467793D01*
X3891976Y9454245D01*
X3768296Y9403015D01*
X3764513Y9401448D01*
X3645026Y9309762D01*
X3553340Y9190275D01*
X3551773Y9186492D01*
X3505419Y9074582D01*
X3495704Y9051129D01*
X3495169Y9047067D01*
X3495169Y9047066D01*
X3483334Y8957169D01*
X3476045Y8901807D01*
X3476580Y8897743D01*
X3490436Y8792502D01*
X3495704Y8752485D01*
X3497272Y8748700D01*
X3497272Y8748699D01*
X3549791Y8621907D01*
X3553340Y8613339D01*
X3645026Y8493852D01*
X3764513Y8402166D01*
X3768296Y8400599D01*
X3899873Y8346098D01*
X3899874Y8346098D01*
X3903659Y8344530D01*
X3907721Y8343995D01*
X3907722Y8343995D01*
X4048764Y8325426D01*
X4090191Y8301508D01*
X4102571Y8255303D01*
X4089682Y8225011D01*
X4084733Y8221067D01*
X4081675Y8214728D01*
X4077284Y8209227D01*
X4076750Y8209653D01*
X4072374Y8203489D01*
X3585191Y7716306D01*
X3540997Y7698000D01*
X1447432Y7698000D01*
X1438642Y7694359D01*
X1435001Y7685569D01*
X1435001Y7506687D01*
X1435220Y7502996D01*
X1437599Y7482983D01*
X1440055Y7474045D01*
X1481784Y7380103D01*
X1488210Y7370753D01*
X1560194Y7298894D01*
X1566217Y7294770D01*
X1592341Y7254698D01*
X1582478Y7207891D01*
X1542406Y7181767D01*
X1530908Y7180700D01*
X724765Y7180700D01*
X719318Y7180938D01*
X683781Y7184047D01*
X683779Y7184047D01*
X678336Y7184523D01*
X673059Y7183109D01*
X673057Y7183109D01*
X638593Y7173875D01*
X633272Y7172696D01*
X623466Y7170967D01*
X592752Y7165551D01*
X588017Y7162817D01*
X588016Y7162817D01*
X587079Y7162276D01*
X572014Y7156036D01*
X570966Y7155755D01*
X570965Y7155755D01*
X565686Y7154340D01*
X532677Y7131226D01*
X531974Y7130734D01*
X527376Y7127806D01*
X522792Y7125159D01*
X496492Y7109975D01*
X496490Y7109973D01*
X491754Y7107239D01*
X488239Y7103049D01*
X488238Y7103049D01*
X465302Y7075715D01*
X461618Y7071695D01*
X274352Y6884429D01*
X270332Y6880745D01*
X238808Y6854293D01*
X236075Y6849559D01*
X236074Y6849558D01*
X218233Y6818658D01*
X215304Y6814061D01*
X199301Y6791205D01*
X191707Y6780360D01*
X190293Y6775082D01*
X190012Y6774035D01*
X183771Y6758967D01*
X180496Y6753295D01*
X179547Y6747911D01*
X179546Y6747909D01*
X173351Y6712774D01*
X172171Y6707452D01*
X161523Y6667711D01*
X162919Y6651755D01*
X165109Y6626721D01*
X165347Y6621274D01*
X165347Y4912481D01*
X165109Y4907034D01*
X161523Y4866044D01*
X167582Y4843431D01*
X172171Y4826304D01*
X173351Y4820981D01*
X175107Y4811025D01*
X180496Y4780460D01*
X183771Y4774788D01*
X190012Y4759720D01*
X191707Y4753395D01*
X194842Y4748918D01*
X215304Y4719694D01*
X218233Y4715097D01*
X235282Y4685569D01*
X238808Y4679462D01*
X250853Y4669355D01*
X270332Y4653010D01*
X274352Y4649326D01*
X1589566Y3334111D01*
X1593250Y3330091D01*
X1619697Y3298573D01*
X1624433Y3295839D01*
X1624435Y3295837D01*
X1655325Y3278002D01*
X1659923Y3275073D01*
X1689149Y3254609D01*
X1689152Y3254608D01*
X1693630Y3251472D01*
X1698910Y3250057D01*
X1699955Y3249777D01*
X1715023Y3243536D01*
X1720695Y3240261D01*
X1726079Y3239312D01*
X1726081Y3239311D01*
X1761216Y3233116D01*
X1766538Y3231936D01*
X1806279Y3221288D01*
X1847268Y3224874D01*
X1852716Y3225112D01*
X3104900Y3225112D01*
X3149094Y3206806D01*
X3154485Y3200659D01*
X3197269Y3144901D01*
X3197272Y3144898D01*
X3199763Y3141652D01*
X3203008Y3139162D01*
X3203011Y3139159D01*
X3266068Y3090774D01*
X3321067Y3048571D01*
X3324847Y3047005D01*
X3324851Y3047003D01*
X3458546Y2991626D01*
X3458548Y2991625D01*
X3462330Y2990059D01*
X3466392Y2989524D01*
X3466393Y2989524D01*
X3609859Y2970636D01*
X3613923Y2970101D01*
X3617987Y2970636D01*
X3761453Y2989524D01*
X3761454Y2989524D01*
X3765516Y2990059D01*
X3769298Y2991625D01*
X3769300Y2991626D01*
X3902995Y3047003D01*
X3902999Y3047005D01*
X3906779Y3048571D01*
X3961778Y3090774D01*
X4024835Y3139159D01*
X4024838Y3139162D01*
X4028083Y3141652D01*
X4088995Y3221033D01*
X4118671Y3259708D01*
X4121164Y3262957D01*
X4121984Y3264936D01*
X4159406Y3293650D01*
X4206832Y3287407D01*
X4228534Y3264011D01*
X4228640Y3263546D01*
X4233025Y3258043D01*
X4233026Y3258041D01*
X4248049Y3239189D01*
X4252144Y3233405D01*
X4254465Y3229698D01*
X4256341Y3226702D01*
X4262010Y3221033D01*
X4266695Y3215789D01*
X4278752Y3200659D01*
X4286216Y3191292D01*
X4292557Y3188234D01*
X4298056Y3183844D01*
X4297701Y3183399D01*
X4304404Y3178639D01*
X5300120Y2182923D01*
X5304801Y2176318D01*
X5305286Y2176704D01*
X5309669Y2171193D01*
X5312715Y2164851D01*
X5318209Y2160458D01*
X5318210Y2160456D01*
X5337355Y2145146D01*
X5342514Y2140529D01*
X5348224Y2134819D01*
X5351192Y2132954D01*
X5351194Y2132952D01*
X5354765Y2130708D01*
X5360541Y2126603D01*
X5379370Y2111545D01*
X5379373Y2111544D01*
X5384868Y2107149D01*
X5391726Y2105572D01*
X5396087Y2103464D01*
X5400659Y2101863D01*
X5406618Y2098117D01*
X5413611Y2097326D01*
X5413612Y2097326D01*
X5437563Y2094618D01*
X5444545Y2093425D01*
X5448809Y2092445D01*
X5452258Y2091652D01*
X5460284Y2091652D01*
X5467304Y2091256D01*
X5498422Y2087738D01*
X5505067Y2090059D01*
X5512063Y2090843D01*
X5512126Y2090278D01*
X5520231Y2091652D01*
X6059419Y2091652D01*
X6062838Y2092432D01*
X6062839Y2092432D01*
X6074039Y2094987D01*
X6097610Y2100364D01*
X6144767Y2092345D01*
X6155703Y2083623D01*
X6670258Y1569068D01*
X6674563Y1562994D01*
X6675136Y1563450D01*
X6679517Y1557942D01*
X6682564Y1551597D01*
X6691631Y1544346D01*
X6705647Y1533137D01*
X6710806Y1528520D01*
X6716055Y1523271D01*
X6719029Y1521402D01*
X6722058Y1519498D01*
X6727834Y1515393D01*
X6750619Y1497172D01*
X6757479Y1495595D01*
X6761239Y1493777D01*
X6765175Y1492399D01*
X6771134Y1488653D01*
X6778128Y1487862D01*
X6778129Y1487862D01*
X6787606Y1486791D01*
X6800128Y1485375D01*
X6807094Y1484185D01*
X6814183Y1482555D01*
X6821557Y1482555D01*
X6828578Y1482159D01*
X6857725Y1478864D01*
X6864370Y1481185D01*
X6871364Y1481969D01*
X6871440Y1481291D01*
X6878892Y1482555D01*
X7651781Y1482555D01*
X7665788Y1480965D01*
X7705438Y1471847D01*
X7705440Y1471847D01*
X7708883Y1471055D01*
X8376368Y1471055D01*
X8420562Y1452749D01*
X8669194Y1204117D01*
X8687500Y1159923D01*
X8687500Y1006158D01*
X8669194Y961964D01*
X8642646Y946201D01*
X8522050Y910708D01*
X8352167Y821895D01*
X8202770Y701777D01*
X8079549Y554928D01*
X8023277Y452570D01*
X8001288Y412571D01*
X7987198Y386942D01*
X7929234Y204217D01*
X7907866Y13714D01*
X7911321Y-27425D01*
X7922913Y-165470D01*
X7923907Y-177311D01*
X7976746Y-361583D01*
X8064370Y-532082D01*
X8183443Y-682314D01*
X8329428Y-806557D01*
X8332092Y-808046D01*
X8332095Y-808048D01*
X8431297Y-863490D01*
X8496765Y-900079D01*
X8499669Y-901023D01*
X8499670Y-901023D01*
X8644314Y-948021D01*
X8680688Y-979088D01*
X8687500Y-1007462D01*
X8687500Y-1533842D01*
X8669194Y-1578036D01*
X8642646Y-1593799D01*
X8522050Y-1629292D01*
X8352167Y-1718105D01*
X8202770Y-1838223D01*
X8079549Y-1985072D01*
X8034475Y-2067062D01*
X7994642Y-2139518D01*
X7987198Y-2153058D01*
X7929234Y-2335783D01*
X7928894Y-2338815D01*
X7915417Y-2458967D01*
X7892299Y-2500845D01*
X7853306Y-2514500D01*
X7563621Y-2514500D01*
X7519427Y-2496194D01*
X7501383Y-2457719D01*
X7489799Y-2331654D01*
X7488758Y-2326036D01*
X7432745Y-2127429D01*
X7430702Y-2122107D01*
X7339430Y-1937024D01*
X7336444Y-1932152D01*
X7273928Y-1848434D01*
X7265750Y-1843569D01*
X7259909Y-1845052D01*
X6608766Y-2496194D01*
X6564572Y-2514500D01*
X6135428Y-2514500D01*
X6091234Y-2496194D01*
X5442276Y-1847237D01*
X5433486Y-1843596D01*
X5427458Y-1846093D01*
X5379800Y-1906547D01*
X5376696Y-1911326D01*
X5280606Y-2093961D01*
X5278427Y-2099221D01*
X5217230Y-2296311D01*
X5216046Y-2301882D01*
X5197408Y-2459346D01*
X5174034Y-2501082D01*
X5135341Y-2514500D01*
X4846402Y-2514500D01*
X4802208Y-2496194D01*
X4784200Y-2458099D01*
X4773822Y-2352258D01*
X4773524Y-2349217D01*
X4718117Y-2165701D01*
X4666909Y-2069393D01*
X4629555Y-1999140D01*
X4629553Y-1999137D01*
X4628120Y-1996442D01*
X4506962Y-1847887D01*
X4359256Y-1725694D01*
X4190629Y-1634518D01*
X4146988Y-1621009D01*
X5652387Y-1621009D01*
X5656260Y-1631299D01*
X6341210Y-2316250D01*
X6350000Y-2319891D01*
X6358790Y-2316250D01*
X7046099Y-1628940D01*
X7049740Y-1620150D01*
X7047918Y-1615751D01*
X6878571Y-1508901D01*
X6873493Y-1506313D01*
X6681816Y-1429842D01*
X6676349Y-1428223D01*
X6473949Y-1387963D01*
X6468285Y-1387368D01*
X6261932Y-1384666D01*
X6256245Y-1385114D01*
X6052873Y-1420060D01*
X6047350Y-1421539D01*
X5853750Y-1492962D01*
X5848601Y-1495418D01*
X5671255Y-1600928D01*
X5666632Y-1604287D01*
X5656063Y-1613556D01*
X5652387Y-1621009D01*
X4146988Y-1621009D01*
X4082117Y-1600928D01*
X4010420Y-1578734D01*
X4010417Y-1578733D01*
X4007505Y-1577832D01*
X4004472Y-1577513D01*
X4004471Y-1577513D01*
X3956787Y-1572501D01*
X3816857Y-1557794D01*
X3813824Y-1558070D01*
X3813820Y-1558070D01*
X3731118Y-1565597D01*
X3625948Y-1575168D01*
X3487512Y-1615912D01*
X3439948Y-1610829D01*
X3409909Y-1573601D01*
X3408732Y-1542960D01*
X3445818Y-1368487D01*
X3445818Y-1368484D01*
X3446500Y-1365277D01*
X3446500Y-1174723D01*
X3408504Y-995969D01*
X3417221Y-948935D01*
X3456643Y-921841D01*
X3488952Y-923534D01*
X3596168Y-958371D01*
X3596173Y-958372D01*
X3599081Y-959317D01*
X3789430Y-982015D01*
X3792472Y-981781D01*
X3792475Y-981781D01*
X3977514Y-967543D01*
X3977519Y-967542D01*
X3980562Y-967308D01*
X4000873Y-961637D01*
X4162260Y-916577D01*
X4162264Y-916576D01*
X4165199Y-915756D01*
X4336305Y-829324D01*
X4338703Y-827451D01*
X4338707Y-827448D01*
X4437406Y-750335D01*
X4487365Y-711303D01*
X4532827Y-658635D01*
X4610630Y-568500D01*
X4610634Y-568495D01*
X4612624Y-566189D01*
X4633544Y-529364D01*
X4705801Y-402170D01*
X4705803Y-402165D01*
X4707312Y-399509D01*
X4767821Y-217612D01*
X4772542Y-180247D01*
X4774409Y-165470D01*
X5204288Y-165470D01*
X5205137Y-178434D01*
X5206031Y-184080D01*
X5256826Y-384089D01*
X5258729Y-389462D01*
X5345126Y-576871D01*
X5347977Y-581810D01*
X5467079Y-750335D01*
X5470784Y-754672D01*
X5618602Y-898671D01*
X5623035Y-902260D01*
X5794617Y-1016907D01*
X5799633Y-1019631D01*
X5989240Y-1101092D01*
X5994657Y-1102852D01*
X6185875Y-1146120D01*
X6195252Y-1144509D01*
X6198000Y-1140621D01*
X6198000Y-1131680D01*
X6502000Y-1131680D01*
X6505641Y-1140470D01*
X6511208Y-1142776D01*
X6617714Y-1127333D01*
X6623263Y-1126001D01*
X6818672Y-1059669D01*
X6823884Y-1057348D01*
X7003933Y-956516D01*
X7008635Y-953285D01*
X7167299Y-821325D01*
X7171325Y-817299D01*
X7303285Y-658635D01*
X7306516Y-653933D01*
X7407348Y-473884D01*
X7409669Y-468672D01*
X7476001Y-273263D01*
X7477333Y-267714D01*
X7492327Y-164304D01*
X7489985Y-155082D01*
X7484805Y-152000D01*
X6514431Y-152000D01*
X6505641Y-155641D01*
X6502000Y-164431D01*
X6502000Y-1131680D01*
X6198000Y-1131680D01*
X6198000Y-164431D01*
X6194359Y-155641D01*
X6185569Y-152000D01*
X5215836Y-152000D01*
X5208161Y-155179D01*
X5204288Y-165470D01*
X4774409Y-165470D01*
X4791627Y-29167D01*
X4791627Y-29166D01*
X4791847Y-27425D01*
X4792230Y0D01*
X4791964Y2720D01*
X4776116Y164345D01*
X5207314Y164345D01*
X5209897Y155189D01*
X5215591Y152000D01*
X6185569Y152000D01*
X6194359Y155641D01*
X6198000Y164431D01*
X6502000Y164431D01*
X6505641Y155641D01*
X6514431Y152000D01*
X7482546Y152000D01*
X7491336Y155641D01*
X7494042Y162174D01*
X7489799Y208346D01*
X7488758Y213964D01*
X7432745Y412571D01*
X7430702Y417893D01*
X7339430Y602976D01*
X7336444Y607848D01*
X7212980Y773186D01*
X7209157Y777431D01*
X7057628Y917503D01*
X7053093Y920983D01*
X6878571Y1031099D01*
X6873493Y1033687D01*
X6681816Y1110158D01*
X6676349Y1111777D01*
X6514193Y1144032D01*
X6504861Y1142176D01*
X6502000Y1137893D01*
X6502000Y164431D01*
X6198000Y164431D01*
X6198000Y1132446D01*
X6194359Y1141236D01*
X6189214Y1143367D01*
X6052873Y1119940D01*
X6047350Y1118461D01*
X5853750Y1047038D01*
X5848601Y1044582D01*
X5671255Y939072D01*
X5666633Y935713D01*
X5511488Y799655D01*
X5507555Y795510D01*
X5379804Y633459D01*
X5376694Y628670D01*
X5280606Y446039D01*
X5278427Y440779D01*
X5217230Y243689D01*
X5216046Y238118D01*
X5207314Y164345D01*
X4776116Y164345D01*
X4773822Y187743D01*
X4773524Y190783D01*
X4718117Y374299D01*
X4628120Y543558D01*
X4506962Y692113D01*
X4359256Y814306D01*
X4190629Y905482D01*
X4082117Y939072D01*
X4010420Y961266D01*
X4010417Y961267D01*
X4007505Y962168D01*
X4004472Y962487D01*
X4004471Y962487D01*
X3956787Y967499D01*
X3816857Y982206D01*
X3813824Y981930D01*
X3813820Y981930D01*
X3731118Y974403D01*
X3625948Y964832D01*
X3623019Y963970D01*
X3607498Y959402D01*
X3442050Y910708D01*
X3272167Y821895D01*
X3122770Y701777D01*
X2999549Y554928D01*
X2943277Y452570D01*
X2921288Y412571D01*
X2907198Y386942D01*
X2849234Y204217D01*
X2827866Y13714D01*
X2831321Y-27425D01*
X2842913Y-165470D01*
X2843907Y-177311D01*
X2844749Y-180247D01*
X2886854Y-327085D01*
X2881439Y-374613D01*
X2844002Y-404391D01*
X2807461Y-403753D01*
X2732625Y-379437D01*
X2732624Y-379437D01*
X2729510Y-378425D01*
X2680107Y-373233D01*
X2589137Y-363671D01*
X2589129Y-363671D01*
X2587506Y-363500D01*
X2492494Y-363500D01*
X2490871Y-363671D01*
X2490863Y-363671D01*
X2399893Y-373233D01*
X2350490Y-378425D01*
X2169262Y-437310D01*
X2166431Y-438945D01*
X2166421Y-438949D01*
X2054738Y-503430D01*
X2007312Y-509674D01*
X1969362Y-480554D01*
X1963118Y-433128D01*
X1984666Y-352711D01*
X1984667Y-352708D01*
X1985372Y-350075D01*
X1987384Y-327085D01*
X2015762Y-2720D01*
X2016000Y0D01*
X2002383Y155641D01*
X1985610Y347357D01*
X1985610Y347359D01*
X1985372Y350075D01*
X1979666Y371371D01*
X1895127Y686876D01*
X1895125Y686880D01*
X1894420Y689513D01*
X1843060Y799655D01*
X1747061Y1005526D01*
X1747059Y1005529D01*
X1745907Y1008000D01*
X1544346Y1295860D01*
X1295860Y1544346D01*
X1008000Y1745907D01*
X1005529Y1747059D01*
X1005526Y1747061D01*
X691986Y1893267D01*
X691984Y1893268D01*
X689513Y1894420D01*
X686880Y1895125D01*
X686876Y1895127D01*
X352711Y1984666D01*
X352708Y1984667D01*
X350075Y1985372D01*
X347359Y1985610D01*
X347357Y1985610D01*
X2720Y2015762D01*
X0Y2016000D01*
X-2720Y2015762D01*
X-347357Y1985610D01*
X-347359Y1985610D01*
X-350075Y1985372D01*
X-352708Y1984667D01*
X-352711Y1984666D01*
X-686876Y1895127D01*
X-686880Y1895125D01*
X-689513Y1894420D01*
X-691984Y1893268D01*
X-691986Y1893267D01*
X-1005526Y1747061D01*
X-1005529Y1747059D01*
X-1008000Y1745907D01*
X-1295860Y1544346D01*
X-1544346Y1295860D01*
X-1745907Y1008000D01*
X-1747059Y1005529D01*
X-1747061Y1005526D01*
X-1843060Y799655D01*
X-1894420Y689513D01*
X-1895125Y686880D01*
X-1895127Y686876D01*
X-1979666Y371371D01*
X-1985372Y350075D01*
X-1985610Y347359D01*
X-1985610Y347357D01*
X-2002383Y155641D01*
X-2016000Y0D01*
X-2015762Y-2720D01*
X-1987383Y-327085D01*
X-1985372Y-350075D01*
X-1984667Y-352708D01*
X-1984666Y-352711D01*
X-1918930Y-598039D01*
X-1894420Y-689513D01*
X-1893268Y-691984D01*
X-1893267Y-691986D01*
X-1764772Y-967543D01*
X-1745907Y-1008000D01*
X-1544346Y-1295860D01*
X-1295860Y-1544346D01*
X-1008000Y-1745907D01*
X-1005529Y-1747059D01*
X-1005526Y-1747061D01*
X-691986Y-1893267D01*
X-689513Y-1894420D01*
X-686880Y-1895125D01*
X-686876Y-1895127D01*
X-352711Y-1984666D01*
X-352708Y-1984667D01*
X-350075Y-1985372D01*
X-347359Y-1985610D01*
X-347357Y-1985610D01*
X-2720Y-2015762D01*
X0Y-2016000D01*
X2720Y-2015762D01*
X347357Y-1985610D01*
X347359Y-1985610D01*
X350075Y-1985372D01*
X352708Y-1984667D01*
X352711Y-1984666D01*
X686876Y-1895127D01*
X686880Y-1895125D01*
X689513Y-1894420D01*
X691986Y-1893267D01*
X1005526Y-1747061D01*
X1005529Y-1747059D01*
X1008000Y-1745907D01*
X1295860Y-1544346D01*
X1526806Y-1313400D01*
X1571000Y-1295094D01*
X1615194Y-1313400D01*
X1633500Y-1357594D01*
X1633500Y-1365277D01*
X1634182Y-1368484D01*
X1634182Y-1368487D01*
X1664029Y-1508901D01*
X1673119Y-1551667D01*
X1750624Y-1725746D01*
X1862629Y-1879908D01*
X2004238Y-2007413D01*
X2007072Y-2009049D01*
X2163254Y-2099221D01*
X2169262Y-2102690D01*
X2271056Y-2135765D01*
X2324278Y-2153058D01*
X2350490Y-2161575D01*
X2389747Y-2165701D01*
X2490863Y-2176329D01*
X2490871Y-2176329D01*
X2492494Y-2176500D01*
X2587506Y-2176500D01*
X2589129Y-2176329D01*
X2589137Y-2176329D01*
X2690253Y-2165701D01*
X2729510Y-2161575D01*
X2746745Y-2155975D01*
X2808945Y-2135765D01*
X2856633Y-2139518D01*
X2887700Y-2175892D01*
X2887833Y-2214104D01*
X2849234Y-2335783D01*
X2848894Y-2338815D01*
X2835417Y-2458967D01*
X2812299Y-2500845D01*
X2773306Y-2514500D01*
X5072Y-2514500D01*
X0Y-2512399D01*
X-4426Y-2514232D01*
X-8471Y-2513987D01*
X-8472Y-2513987D01*
X-299318Y-2496394D01*
X-306810Y-2495484D01*
X-384669Y-2481216D01*
X-598044Y-2442114D01*
X-605362Y-2440310D01*
X-888049Y-2352221D01*
X-895092Y-2349551D01*
X-1165102Y-2228029D01*
X-1171785Y-2224521D01*
X-1425163Y-2071349D01*
X-1431374Y-2067062D01*
X-1664448Y-1884460D01*
X-1670097Y-1879455D01*
X-1879455Y-1670097D01*
X-1884460Y-1664448D01*
X-2067062Y-1431374D01*
X-2071349Y-1425163D01*
X-2224521Y-1171785D01*
X-2228029Y-1165102D01*
X-2243071Y-1131680D01*
X-2349551Y-895092D01*
X-2352224Y-888042D01*
X-2359874Y-863490D01*
X-2440310Y-605362D01*
X-2442115Y-598039D01*
X-2446927Y-571777D01*
X-2487072Y-352711D01*
X-2495484Y-306810D01*
X-2496394Y-299318D01*
X-2505305Y-152000D01*
X-2514232Y-4426D01*
X-2512399Y0D01*
X-2514500Y5072D01*
X-2514500Y2856446D01*
X-2496194Y2900640D01*
X-2452000Y2918946D01*
X-2407806Y2900640D01*
X-2400033Y2891169D01*
X-2397863Y2887922D01*
X-2377922Y2858078D01*
X-2335748Y2829898D01*
X-2329715Y2828698D01*
X-2329713Y2828697D01*
X-2309648Y2824706D01*
X-2298558Y2822500D01*
X-473442Y2822500D01*
X-462352Y2824706D01*
X-442287Y2828697D01*
X-442285Y2828698D01*
X-436252Y2829898D01*
X-394078Y2858078D01*
X-365898Y2900252D01*
X-364683Y2906355D01*
X-359099Y2934431D01*
X-358500Y2937442D01*
X-358500Y4162558D01*
X-359567Y4167923D01*
X-364697Y4193713D01*
X-364698Y4193715D01*
X-365898Y4199748D01*
X-394078Y4241922D01*
X-436252Y4270102D01*
X-442285Y4271302D01*
X-442287Y4271303D01*
X-470431Y4276901D01*
X-473442Y4277500D01*
X-2298558Y4277500D01*
X-2301569Y4276901D01*
X-2329713Y4271303D01*
X-2329715Y4271302D01*
X-2335748Y4270102D01*
X-2377922Y4241922D01*
X-2381341Y4236805D01*
X-2400033Y4208831D01*
X-2439807Y4182255D01*
X-2486723Y4191587D01*
X-2513299Y4231361D01*
X-2514500Y4243554D01*
X-2514500Y8014431D01*
X1435000Y8014431D01*
X1438641Y8005641D01*
X1447431Y8002000D01*
X2349569Y8002000D01*
X2358359Y8005641D01*
X2362000Y8014431D01*
X2666000Y8014431D01*
X2669641Y8005641D01*
X2678431Y8002000D01*
X3580568Y8002000D01*
X3589358Y8005641D01*
X3592999Y8014431D01*
X3592999Y8193313D01*
X3592780Y8197004D01*
X3590401Y8217017D01*
X3587945Y8225955D01*
X3546216Y8319897D01*
X3539790Y8329247D01*
X3467809Y8401103D01*
X3458445Y8407514D01*
X3364449Y8449069D01*
X3355474Y8451516D01*
X3335983Y8453788D01*
X3332343Y8454000D01*
X2678431Y8454000D01*
X2669641Y8450359D01*
X2666000Y8441569D01*
X2666000Y8014431D01*
X2362000Y8014431D01*
X2362000Y8441568D01*
X2358359Y8450358D01*
X2349569Y8453999D01*
X1695687Y8453999D01*
X1691996Y8453780D01*
X1671983Y8451401D01*
X1663045Y8448945D01*
X1569103Y8407216D01*
X1559753Y8400790D01*
X1487897Y8328809D01*
X1481486Y8319445D01*
X1439931Y8225449D01*
X1437484Y8216474D01*
X1435212Y8196983D01*
X1435000Y8193343D01*
X1435000Y8014431D01*
X-2514500Y8014431D01*
X-2514500Y8456446D01*
X-2496194Y8500640D01*
X-2452000Y8518946D01*
X-2407806Y8500640D01*
X-2400033Y8491169D01*
X-2377922Y8458078D01*
X-2335748Y8429898D01*
X-2329715Y8428698D01*
X-2329713Y8428697D01*
X-2303616Y8423506D01*
X-2298558Y8422500D01*
X-473442Y8422500D01*
X-468384Y8423506D01*
X-442287Y8428697D01*
X-442285Y8428698D01*
X-436252Y8429898D01*
X-394078Y8458078D01*
X-365898Y8500252D01*
X-364274Y8508413D01*
X-359099Y8534431D01*
X-358500Y8537442D01*
X-358500Y9505826D01*
X-340194Y9550020D01*
X-296000Y9568326D01*
X-251806Y9550020D01*
X-246218Y9543614D01*
X-238943Y9534030D01*
X-232974Y9528061D01*
X-125675Y9446616D01*
X-118323Y9442473D01*
X7153Y9392793D01*
X14869Y9390834D01*
X94252Y9381228D01*
X98024Y9381000D01*
X191069Y9381000D01*
X199859Y9384641D01*
X203500Y9393431D01*
X203500Y9393432D01*
X507500Y9393432D01*
X511141Y9384642D01*
X519931Y9381001D01*
X612975Y9381001D01*
X616747Y9381229D01*
X696131Y9390834D01*
X703847Y9392793D01*
X829323Y9442473D01*
X836675Y9446616D01*
X943974Y9528061D01*
X949939Y9534026D01*
X1031384Y9641325D01*
X1035527Y9648677D01*
X1085207Y9774153D01*
X1087166Y9781869D01*
X1096772Y9861252D01*
X1097000Y9865024D01*
X1097000Y9995569D01*
X1093359Y10004359D01*
X1084569Y10008000D01*
X519931Y10008000D01*
X511141Y10004359D01*
X507500Y9995569D01*
X507500Y9393432D01*
X203500Y9393432D01*
X203500Y9995569D01*
X199859Y10004359D01*
X191069Y10008000D01*
X-373568Y10008000D01*
X-382358Y10004359D01*
X-385999Y9995569D01*
X-385999Y9936263D01*
X-404305Y9892069D01*
X-448499Y9873763D01*
X-460692Y9874964D01*
X-470429Y9876901D01*
X-470433Y9876901D01*
X-473442Y9877500D01*
X-2298558Y9877500D01*
X-2301569Y9876901D01*
X-2329713Y9871303D01*
X-2329715Y9871302D01*
X-2335748Y9870102D01*
X-2377922Y9841922D01*
X-2381341Y9836805D01*
X-2400033Y9808831D01*
X-2439807Y9782255D01*
X-2486723Y9791587D01*
X-2513299Y9831361D01*
X-2514500Y9843554D01*
X-2514500Y10324431D01*
X-386000Y10324431D01*
X-382359Y10315641D01*
X-373569Y10312000D01*
X191069Y10312000D01*
X199859Y10315641D01*
X203500Y10324431D01*
X507500Y10324431D01*
X511141Y10315641D01*
X519931Y10312000D01*
X1084568Y10312000D01*
X1093358Y10315641D01*
X1096999Y10324431D01*
X1096999Y10454975D01*
X1096888Y10456819D01*
X1365500Y10456819D01*
X1365501Y9863182D01*
X1365766Y9861170D01*
X1365766Y9861167D01*
X1369778Y9830689D01*
X1372139Y9812752D01*
X1374160Y9808419D01*
X1374160Y9808418D01*
X1385276Y9784581D01*
X1423744Y9702086D01*
X1510086Y9615744D01*
X1620752Y9564139D01*
X1638078Y9561858D01*
X1669150Y9557767D01*
X1669156Y9557767D01*
X1671181Y9557500D01*
X1673228Y9557500D01*
X1931198Y9557501D01*
X2189818Y9557501D01*
X2191830Y9557766D01*
X2191833Y9557766D01*
X2235508Y9563515D01*
X2235509Y9563515D01*
X2240248Y9564139D01*
X2350914Y9615744D01*
X2437256Y9702086D01*
X2488861Y9812752D01*
X2492916Y9843554D01*
X2495233Y9861150D01*
X2495233Y9861156D01*
X2495500Y9863181D01*
X2495500Y9877017D01*
X2513806Y9921211D01*
X2558000Y9939517D01*
X2742315Y9939517D01*
X2786509Y9921211D01*
X2804815Y9877017D01*
X2804815Y9828643D01*
X2805080Y9826632D01*
X2805080Y9826627D01*
X2809692Y9791587D01*
X2811093Y9780946D01*
X2813114Y9776613D01*
X2813114Y9776612D01*
X2857591Y9681230D01*
X2857593Y9681228D01*
X2859903Y9676273D01*
X2941570Y9594606D01*
X2946525Y9592296D01*
X2946527Y9592294D01*
X2985116Y9574300D01*
X3046243Y9545796D01*
X3059609Y9544036D01*
X3091907Y9539784D01*
X3091915Y9539784D01*
X3093939Y9539517D01*
X3095986Y9539517D01*
X3332956Y9539518D01*
X3570688Y9539518D01*
X3572699Y9539783D01*
X3572704Y9539783D01*
X3613645Y9545172D01*
X3613646Y9545172D01*
X3618385Y9545796D01*
X3643484Y9557500D01*
X3718101Y9592294D01*
X3718103Y9592296D01*
X3723058Y9594606D01*
X3804725Y9676273D01*
X3807035Y9681228D01*
X3807037Y9681230D01*
X3843529Y9759488D01*
X3853535Y9780946D01*
X3857722Y9812752D01*
X3859547Y9826610D01*
X3859547Y9826618D01*
X3859814Y9828642D01*
X3859813Y10455391D01*
X3859546Y10457424D01*
X3854159Y10498348D01*
X3854159Y10498349D01*
X3853535Y10503088D01*
X3811348Y10593558D01*
X3807037Y10602804D01*
X3807035Y10602806D01*
X3804725Y10607761D01*
X3723058Y10689428D01*
X3718103Y10691738D01*
X3718101Y10691740D01*
X3669299Y10714496D01*
X3618385Y10738238D01*
X3605019Y10739998D01*
X3572721Y10744250D01*
X3572713Y10744250D01*
X3570689Y10744517D01*
X3568642Y10744517D01*
X3331672Y10744516D01*
X3093940Y10744516D01*
X3091929Y10744251D01*
X3091924Y10744251D01*
X3050983Y10738862D01*
X3050982Y10738862D01*
X3046243Y10738238D01*
X3041909Y10736217D01*
X2946527Y10691740D01*
X2946525Y10691738D01*
X2941570Y10689428D01*
X2859903Y10607761D01*
X2857593Y10602806D01*
X2857591Y10602804D01*
X2853280Y10593558D01*
X2811093Y10503088D01*
X2810469Y10498348D01*
X2810469Y10498347D01*
X2805081Y10457424D01*
X2805081Y10457416D01*
X2804814Y10455392D01*
X2804814Y10407017D01*
X2786508Y10362823D01*
X2742314Y10344517D01*
X2557999Y10344517D01*
X2513805Y10362823D01*
X2495499Y10407017D01*
X2495499Y10456818D01*
X2493772Y10469943D01*
X2489485Y10502508D01*
X2489485Y10502509D01*
X2488861Y10507248D01*
X2437256Y10617914D01*
X2350914Y10704256D01*
X2240248Y10755861D01*
X2222922Y10758142D01*
X2191850Y10762233D01*
X2191844Y10762233D01*
X2189819Y10762500D01*
X2187772Y10762500D01*
X1929802Y10762499D01*
X1671182Y10762499D01*
X1669170Y10762234D01*
X1669167Y10762234D01*
X1625492Y10756485D01*
X1625491Y10756485D01*
X1620752Y10755861D01*
X1510086Y10704256D01*
X1423744Y10617914D01*
X1372139Y10507248D01*
X1365500Y10456819D01*
X1096888Y10456819D01*
X1096771Y10458747D01*
X1087166Y10538131D01*
X1085207Y10545847D01*
X1035527Y10671323D01*
X1031384Y10678675D01*
X949939Y10785974D01*
X943974Y10791939D01*
X836675Y10873384D01*
X829323Y10877527D01*
X703847Y10927207D01*
X696131Y10929166D01*
X616748Y10938772D01*
X612976Y10939000D01*
X519931Y10939000D01*
X511141Y10935359D01*
X507500Y10926569D01*
X507500Y10324431D01*
X203500Y10324431D01*
X203500Y10926568D01*
X199859Y10935358D01*
X191069Y10938999D01*
X98025Y10938999D01*
X94253Y10938771D01*
X14869Y10929166D01*
X7153Y10927207D01*
X-118323Y10877527D01*
X-125675Y10873384D01*
X-232974Y10791939D01*
X-238939Y10785974D01*
X-320384Y10678675D01*
X-324527Y10671323D01*
X-374207Y10545847D01*
X-376166Y10538131D01*
X-385772Y10458748D01*
X-386000Y10454976D01*
X-386000Y10324431D01*
X-2514500Y10324431D01*
X-2514500Y12694928D01*
X-2512399Y12700000D01*
X-2514232Y12704426D01*
X-2513670Y12713714D01*
X-2252134Y12713714D01*
X-2248679Y12672575D01*
X-2237087Y12534530D01*
X-2236093Y12522689D01*
X-2183254Y12338417D01*
X-2095630Y12167918D01*
X-1976557Y12017686D01*
X-1830572Y11893443D01*
X-1827908Y11891954D01*
X-1827905Y11891952D01*
X-1762150Y11855203D01*
X-1663235Y11799921D01*
X-1660331Y11798977D01*
X-1660330Y11798977D01*
X-1483832Y11741629D01*
X-1483827Y11741628D01*
X-1480919Y11740683D01*
X-1290570Y11717985D01*
X-1287528Y11718219D01*
X-1287525Y11718219D01*
X-1102486Y11732457D01*
X-1102481Y11732458D01*
X-1099438Y11732692D01*
X-1079127Y11738363D01*
X-917740Y11783423D01*
X-917736Y11783424D01*
X-914801Y11784244D01*
X-743695Y11870676D01*
X-741297Y11872549D01*
X-741293Y11872552D01*
X-642594Y11949665D01*
X-592635Y11988697D01*
X-590638Y11991010D01*
X-469370Y12131500D01*
X-469366Y12131505D01*
X-467376Y12133811D01*
X-454746Y12156043D01*
X-374199Y12297830D01*
X-374197Y12297835D01*
X-372688Y12300491D01*
X-312179Y12482388D01*
X-307458Y12519753D01*
X-288373Y12670833D01*
X-288373Y12670834D01*
X-288153Y12672575D01*
X-287841Y12694928D01*
X-287794Y12698262D01*
X-287794Y12698267D01*
X-287770Y12700000D01*
X-288173Y12704117D01*
X-306178Y12887743D01*
X-306476Y12890783D01*
X-361883Y13074299D01*
X-451880Y13243558D01*
X-573038Y13392113D01*
X-720744Y13514306D01*
X-889371Y13605482D01*
X-987032Y13635713D01*
X-1069580Y13661266D01*
X-1069583Y13661267D01*
X-1072495Y13662168D01*
X-1075528Y13662487D01*
X-1075529Y13662487D01*
X-1123213Y13667499D01*
X-1263143Y13682206D01*
X-1266176Y13681930D01*
X-1266180Y13681930D01*
X-1348882Y13674403D01*
X-1454052Y13664832D01*
X-1456981Y13663970D01*
X-1472502Y13659402D01*
X-1637950Y13610708D01*
X-1807833Y13521895D01*
X-1957230Y13401777D01*
X-2080451Y13254928D01*
X-2136723Y13152570D01*
X-2165812Y13099656D01*
X-2172802Y13086942D01*
X-2230766Y12904217D01*
X-2252134Y12713714D01*
X-2513670Y12713714D01*
X-2513486Y12716748D01*
X-2496394Y12999318D01*
X-2495484Y13006810D01*
X-2449585Y13257274D01*
X-2442114Y13298044D01*
X-2440309Y13305367D01*
X-2352221Y13588049D01*
X-2349548Y13595099D01*
X-2345530Y13604025D01*
X-2228029Y13865102D01*
X-2224521Y13871785D01*
X-2071349Y14125163D01*
X-2067062Y14131374D01*
X-1884460Y14364448D01*
X-1879455Y14370097D01*
X-1670097Y14579455D01*
X-1664448Y14584460D01*
X-1431374Y14767062D01*
X-1425163Y14771349D01*
X-1171785Y14924521D01*
X-1165102Y14928029D01*
X-1030279Y14988708D01*
X-895092Y15049551D01*
X-888049Y15052221D01*
X-605362Y15140310D01*
X-598044Y15142114D01*
X-384669Y15181216D01*
X-306810Y15195484D01*
X-299318Y15196394D01*
X-155097Y15205118D01*
X-4426Y15214232D01*
X0Y15212399D01*
X5072Y15214500D01*
X233687Y15214500D01*
X277881Y15196194D01*
G37*
%TD.AperFunction*%
%TA.AperFunction,Conductor*%
G36*
X22960770Y15196194D02*
G01*
X22978942Y15156088D01*
X22985137Y15061566D01*
X22986032Y15055918D01*
X23036826Y14855911D01*
X23038729Y14850538D01*
X23125126Y14663129D01*
X23127977Y14658190D01*
X23205795Y14548081D01*
X23213840Y14543005D01*
X23219273Y14544234D01*
X23871234Y15196194D01*
X23915428Y15214500D01*
X24168572Y15214500D01*
X24212766Y15196194D01*
X24231072Y15152000D01*
X24212766Y15107806D01*
X23435603Y14330642D01*
X23431962Y14321852D01*
X23433933Y14317095D01*
X23574617Y14223093D01*
X23579633Y14220369D01*
X23769240Y14138908D01*
X23774657Y14137148D01*
X23975937Y14091602D01*
X23981585Y14090859D01*
X24187794Y14082756D01*
X24193488Y14083055D01*
X24397714Y14112667D01*
X24403259Y14113998D01*
X24410909Y14116595D01*
X24458642Y14113467D01*
X24490183Y14077503D01*
X24493500Y14057412D01*
X24493500Y13894942D01*
X24494180Y13891741D01*
X24494523Y13888482D01*
X24492969Y13888319D01*
X24485155Y13846159D01*
X24445733Y13819064D01*
X24420545Y13818899D01*
X24294193Y13844032D01*
X24284861Y13842176D01*
X24282000Y13837893D01*
X24282000Y12864431D01*
X24285641Y12855641D01*
X24294431Y12852000D01*
X25262546Y12852000D01*
X25271336Y12855641D01*
X25274042Y12862174D01*
X25269799Y12908346D01*
X25268758Y12913964D01*
X25241895Y13009211D01*
X25247517Y13056715D01*
X25285083Y13086329D01*
X25308580Y13088334D01*
X25332505Y13085820D01*
X25352494Y13083719D01*
X25447506Y13083719D01*
X25449129Y13083890D01*
X25449137Y13083890D01*
X25540107Y13093452D01*
X25589510Y13098644D01*
X25676097Y13126778D01*
X25723784Y13123025D01*
X25754851Y13086651D01*
X25754984Y13048439D01*
X25721755Y12943689D01*
X25709234Y12904217D01*
X25687866Y12713714D01*
X25691321Y12672575D01*
X25702913Y12534530D01*
X25703907Y12522689D01*
X25756746Y12338417D01*
X25844370Y12167918D01*
X25963443Y12017686D01*
X26109428Y11893443D01*
X26112092Y11891954D01*
X26112095Y11891952D01*
X26177850Y11855203D01*
X26276765Y11799921D01*
X26279669Y11798977D01*
X26279670Y11798977D01*
X26456168Y11741629D01*
X26456173Y11741628D01*
X26459081Y11740683D01*
X26649430Y11717985D01*
X26652472Y11718219D01*
X26652475Y11718219D01*
X26837514Y11732457D01*
X26837519Y11732458D01*
X26840562Y11732692D01*
X26860873Y11738363D01*
X27022260Y11783423D01*
X27022264Y11783424D01*
X27025199Y11784244D01*
X27196305Y11870676D01*
X27198703Y11872549D01*
X27198707Y11872552D01*
X27297406Y11949665D01*
X27347365Y11988697D01*
X27349362Y11991010D01*
X27470630Y12131500D01*
X27470634Y12131505D01*
X27472624Y12133811D01*
X27485254Y12156043D01*
X27565801Y12297830D01*
X27565803Y12297835D01*
X27567312Y12300491D01*
X27627821Y12482388D01*
X27632542Y12519753D01*
X27651627Y12670833D01*
X27651627Y12670834D01*
X27651847Y12672575D01*
X27652159Y12694928D01*
X27652206Y12698262D01*
X27652206Y12698267D01*
X27652230Y12700000D01*
X27651827Y12704117D01*
X27633822Y12887743D01*
X27633524Y12890783D01*
X27578117Y13074299D01*
X27488120Y13243558D01*
X27366962Y13392113D01*
X27219256Y13514306D01*
X27050629Y13605482D01*
X26952968Y13635713D01*
X26870420Y13661266D01*
X26870417Y13661267D01*
X26867505Y13662168D01*
X26864472Y13662487D01*
X26864471Y13662487D01*
X26816787Y13667499D01*
X26676857Y13682206D01*
X26673824Y13681930D01*
X26673820Y13681930D01*
X26591118Y13674403D01*
X26485948Y13664832D01*
X26483019Y13663970D01*
X26341204Y13622232D01*
X26293640Y13627315D01*
X26263601Y13664543D01*
X26266095Y13701937D01*
X26264536Y13702443D01*
X26265548Y13705558D01*
X26266881Y13708552D01*
X26275062Y13747038D01*
X26305818Y13891732D01*
X26305818Y13891735D01*
X26306500Y13894942D01*
X26306500Y14085496D01*
X26300555Y14113467D01*
X26267563Y14268678D01*
X26267563Y14268679D01*
X26266881Y14271886D01*
X26189376Y14445965D01*
X26077371Y14600127D01*
X25935762Y14727632D01*
X25770738Y14822909D01*
X25608256Y14875703D01*
X25592625Y14880782D01*
X25592624Y14880782D01*
X25589510Y14881794D01*
X25540107Y14886986D01*
X25449137Y14896548D01*
X25449129Y14896548D01*
X25447506Y14896719D01*
X25352494Y14896719D01*
X25350871Y14896548D01*
X25350863Y14896548D01*
X25331886Y14894553D01*
X25324209Y14893746D01*
X25278344Y14907332D01*
X25255518Y14949371D01*
X25256903Y14970493D01*
X25257333Y14972282D01*
X25278814Y15120433D01*
X25303272Y15161543D01*
X25350604Y15173169D01*
X25524536Y15145159D01*
X25531035Y15143754D01*
X25842281Y15058918D01*
X25848594Y15056831D01*
X25955440Y15015077D01*
X26149083Y14939403D01*
X26155114Y14936668D01*
X26441435Y14787978D01*
X26447158Y14784608D01*
X26716046Y14606353D01*
X26721385Y14602389D01*
X26969812Y14396579D01*
X26974699Y14392071D01*
X27061410Y14303096D01*
X27142033Y14220369D01*
X27199856Y14161036D01*
X27204234Y14156038D01*
X27380561Y13931670D01*
X27403580Y13902380D01*
X27407401Y13896945D01*
X27570481Y13636622D01*
X27578664Y13623559D01*
X27581887Y13617749D01*
X27692928Y13389744D01*
X27723144Y13327701D01*
X27725732Y13321580D01*
X27835373Y13018177D01*
X27837296Y13011816D01*
X27910352Y12713714D01*
X27912704Y12704117D01*
X27913476Y12697720D01*
X27912881Y12694866D01*
X27914033Y12693107D01*
X27914500Y12689240D01*
X27914500Y9843554D01*
X27896194Y9799360D01*
X27852000Y9781054D01*
X27807806Y9799360D01*
X27800033Y9808831D01*
X27781341Y9836805D01*
X27777922Y9841922D01*
X27735748Y9870102D01*
X27729715Y9871302D01*
X27729713Y9871303D01*
X27701569Y9876901D01*
X27698558Y9877500D01*
X25873442Y9877500D01*
X25870431Y9876901D01*
X25842287Y9871303D01*
X25842285Y9871302D01*
X25836252Y9870102D01*
X25794078Y9841922D01*
X25765898Y9799748D01*
X25764698Y9793715D01*
X25764697Y9793713D01*
X25760526Y9772745D01*
X25758500Y9762558D01*
X25758500Y8537442D01*
X25759099Y8534431D01*
X25764275Y8508413D01*
X25765898Y8500252D01*
X25794078Y8458078D01*
X25836252Y8429898D01*
X25842285Y8428698D01*
X25842287Y8428697D01*
X25868384Y8423506D01*
X25873442Y8422500D01*
X27698558Y8422500D01*
X27703616Y8423506D01*
X27729713Y8428697D01*
X27729715Y8428698D01*
X27735748Y8429898D01*
X27777922Y8458078D01*
X27800033Y8491169D01*
X27839807Y8517745D01*
X27886723Y8508413D01*
X27913299Y8468639D01*
X27914500Y8456446D01*
X27914500Y4243554D01*
X27896194Y4199360D01*
X27852000Y4181054D01*
X27807806Y4199360D01*
X27800033Y4208831D01*
X27781341Y4236805D01*
X27777922Y4241922D01*
X27735748Y4270102D01*
X27729715Y4271302D01*
X27729713Y4271303D01*
X27701569Y4276901D01*
X27698558Y4277500D01*
X25873442Y4277500D01*
X25870431Y4276901D01*
X25842287Y4271303D01*
X25842285Y4271302D01*
X25836252Y4270102D01*
X25794078Y4241922D01*
X25765898Y4199748D01*
X25764698Y4193715D01*
X25764697Y4193713D01*
X25759567Y4167923D01*
X25758500Y4162558D01*
X25758500Y2937442D01*
X25759099Y2934431D01*
X25764684Y2906355D01*
X25765898Y2900252D01*
X25794078Y2858078D01*
X25836252Y2829898D01*
X25842285Y2828698D01*
X25842287Y2828697D01*
X25862352Y2824706D01*
X25873442Y2822500D01*
X27698558Y2822500D01*
X27709648Y2824706D01*
X27729713Y2828697D01*
X27729715Y2828698D01*
X27735748Y2829898D01*
X27777922Y2858078D01*
X27797863Y2887922D01*
X27800033Y2891169D01*
X27839807Y2917745D01*
X27886723Y2908413D01*
X27913299Y2868639D01*
X27914500Y2856446D01*
X27914500Y5072D01*
X27912399Y0D01*
X27914232Y-4426D01*
X27913987Y-8471D01*
X27913987Y-8472D01*
X27896394Y-299318D01*
X27895484Y-306810D01*
X27887072Y-352711D01*
X27846928Y-571777D01*
X27842115Y-598039D01*
X27840310Y-605362D01*
X27759875Y-863490D01*
X27752224Y-888042D01*
X27749551Y-895092D01*
X27643071Y-1131680D01*
X27628029Y-1165102D01*
X27624521Y-1171785D01*
X27471349Y-1425163D01*
X27467062Y-1431374D01*
X27284460Y-1664448D01*
X27279455Y-1670097D01*
X27070097Y-1879455D01*
X27064448Y-1884460D01*
X26831374Y-2067062D01*
X26825163Y-2071349D01*
X26571785Y-2224521D01*
X26565102Y-2228029D01*
X26295092Y-2349551D01*
X26288049Y-2352221D01*
X26005362Y-2440310D01*
X25998044Y-2442114D01*
X25784669Y-2481216D01*
X25706810Y-2495484D01*
X25699318Y-2496394D01*
X25581304Y-2503533D01*
X25404426Y-2514232D01*
X25400000Y-2512399D01*
X25394928Y-2514500D01*
X22626402Y-2514500D01*
X22582208Y-2496194D01*
X22564200Y-2458099D01*
X22553822Y-2352258D01*
X22553524Y-2349217D01*
X22498117Y-2165701D01*
X22446909Y-2069393D01*
X22409555Y-1999140D01*
X22409553Y-1999137D01*
X22408120Y-1996442D01*
X22286962Y-1847887D01*
X22139256Y-1725694D01*
X21970629Y-1634518D01*
X21836518Y-1593004D01*
X21799714Y-1562448D01*
X21792500Y-1533299D01*
X21792500Y-1005831D01*
X21810806Y-961637D01*
X21838191Y-945634D01*
X21887473Y-931874D01*
X21942260Y-916577D01*
X21942264Y-916576D01*
X21945199Y-915756D01*
X22116305Y-829324D01*
X22118703Y-827451D01*
X22118707Y-827448D01*
X22217406Y-750335D01*
X22267365Y-711303D01*
X22312827Y-658635D01*
X22390630Y-568500D01*
X22390634Y-568495D01*
X22392624Y-566189D01*
X22413544Y-529364D01*
X22485801Y-402170D01*
X22485803Y-402165D01*
X22487312Y-399509D01*
X22547821Y-217612D01*
X22552542Y-180247D01*
X22571627Y-29167D01*
X22571627Y-29166D01*
X22571847Y-27425D01*
X22572230Y0D01*
X23384000Y0D01*
X23384238Y-2720D01*
X23412617Y-327085D01*
X23414628Y-350075D01*
X23415333Y-352708D01*
X23415334Y-352711D01*
X23481070Y-598039D01*
X23505580Y-689513D01*
X23506732Y-691984D01*
X23506733Y-691986D01*
X23635228Y-967543D01*
X23654093Y-1008000D01*
X23855654Y-1295860D01*
X24104140Y-1544346D01*
X24392000Y-1745907D01*
X24394471Y-1747059D01*
X24394474Y-1747061D01*
X24708014Y-1893267D01*
X24710487Y-1894420D01*
X24713120Y-1895125D01*
X24713124Y-1895127D01*
X25047289Y-1984666D01*
X25047292Y-1984667D01*
X25049925Y-1985372D01*
X25052641Y-1985610D01*
X25052643Y-1985610D01*
X25397280Y-2015762D01*
X25400000Y-2016000D01*
X25402720Y-2015762D01*
X25747357Y-1985610D01*
X25747359Y-1985610D01*
X25750075Y-1985372D01*
X25752708Y-1984667D01*
X25752711Y-1984666D01*
X26086876Y-1895127D01*
X26086880Y-1895125D01*
X26089513Y-1894420D01*
X26091986Y-1893267D01*
X26405526Y-1747061D01*
X26405529Y-1747059D01*
X26408000Y-1745907D01*
X26695860Y-1544346D01*
X26944346Y-1295860D01*
X27145907Y-1008000D01*
X27164773Y-967543D01*
X27293267Y-691986D01*
X27293268Y-691984D01*
X27294420Y-689513D01*
X27318931Y-598039D01*
X27384666Y-352711D01*
X27384667Y-352708D01*
X27385372Y-350075D01*
X27387384Y-327085D01*
X27415762Y-2720D01*
X27416000Y0D01*
X27402383Y155641D01*
X27385610Y347357D01*
X27385610Y347359D01*
X27385372Y350075D01*
X27379666Y371371D01*
X27295127Y686876D01*
X27295125Y686880D01*
X27294420Y689513D01*
X27243060Y799655D01*
X27147061Y1005526D01*
X27147059Y1005529D01*
X27145907Y1008000D01*
X26944346Y1295860D01*
X26695860Y1544346D01*
X26408000Y1745907D01*
X26405529Y1747059D01*
X26405526Y1747061D01*
X26091986Y1893267D01*
X26091984Y1893268D01*
X26089513Y1894420D01*
X26086880Y1895125D01*
X26086876Y1895127D01*
X25752711Y1984666D01*
X25752708Y1984667D01*
X25750075Y1985372D01*
X25747359Y1985610D01*
X25747357Y1985610D01*
X25402720Y2015762D01*
X25400000Y2016000D01*
X25397280Y2015762D01*
X25052643Y1985610D01*
X25052641Y1985610D01*
X25049925Y1985372D01*
X25047292Y1984667D01*
X25047289Y1984666D01*
X24713124Y1895127D01*
X24713120Y1895125D01*
X24710487Y1894420D01*
X24708016Y1893268D01*
X24708014Y1893267D01*
X24394474Y1747061D01*
X24394471Y1747059D01*
X24392000Y1745907D01*
X24104140Y1544346D01*
X23855654Y1295860D01*
X23654093Y1008000D01*
X23652941Y1005529D01*
X23652939Y1005526D01*
X23556940Y799655D01*
X23505580Y689513D01*
X23504875Y686880D01*
X23504873Y686876D01*
X23420334Y371371D01*
X23414628Y350075D01*
X23414390Y347359D01*
X23414390Y347357D01*
X23397617Y155641D01*
X23384000Y0D01*
X22572230Y0D01*
X22571964Y2720D01*
X22553822Y187743D01*
X22553524Y190783D01*
X22498117Y374299D01*
X22408120Y543558D01*
X22286962Y692113D01*
X22139256Y814306D01*
X21970629Y905482D01*
X21862117Y939072D01*
X21790420Y961266D01*
X21790417Y961267D01*
X21787505Y962168D01*
X21784472Y962487D01*
X21784471Y962487D01*
X21736787Y967499D01*
X21596857Y982206D01*
X21593824Y981930D01*
X21593820Y981930D01*
X21511118Y974403D01*
X21405948Y964832D01*
X21403019Y963970D01*
X21387498Y959402D01*
X21222050Y910708D01*
X21123497Y859185D01*
X21094374Y843960D01*
X21046728Y839708D01*
X21021224Y855154D01*
X19752849Y2123529D01*
X19748168Y2130134D01*
X19747683Y2129748D01*
X19743300Y2135259D01*
X19740254Y2141601D01*
X19734760Y2145994D01*
X19734759Y2145996D01*
X19715614Y2161306D01*
X19710455Y2165923D01*
X19704745Y2171633D01*
X19705693Y2172581D01*
X19684734Y2210500D01*
X19697975Y2256467D01*
X19739841Y2279607D01*
X19746841Y2280000D01*
X20069088Y2280000D01*
X20074146Y2281006D01*
X20100243Y2286197D01*
X20100245Y2286198D01*
X20106278Y2287398D01*
X20148452Y2315578D01*
X20176632Y2357752D01*
X20177907Y2364157D01*
X20177913Y2364187D01*
X20412531Y2364187D01*
X20412750Y2360496D01*
X20415129Y2340483D01*
X20417585Y2331545D01*
X20459314Y2237603D01*
X20465740Y2228253D01*
X20537721Y2156397D01*
X20547085Y2149986D01*
X20641081Y2108431D01*
X20650056Y2105984D01*
X20669547Y2103712D01*
X20673187Y2103500D01*
X21172099Y2103500D01*
X21180889Y2107141D01*
X21184530Y2115931D01*
X21184530Y2115932D01*
X21488530Y2115932D01*
X21492171Y2107142D01*
X21500961Y2103501D01*
X21999843Y2103501D01*
X22003534Y2103720D01*
X22023547Y2106099D01*
X22032485Y2108555D01*
X22126427Y2150284D01*
X22135777Y2156710D01*
X22207633Y2228691D01*
X22214044Y2238055D01*
X22255599Y2332051D01*
X22258046Y2341026D01*
X22260318Y2360517D01*
X22260530Y2364157D01*
X22260530Y2599764D01*
X22812933Y2599764D01*
X22815966Y2591314D01*
X22816316Y2585417D01*
X22818031Y2579345D01*
X22817940Y2570369D01*
X22820727Y2565930D01*
X22820736Y2565505D01*
X22821244Y2564749D01*
X22821340Y2562960D01*
X22823477Y2559993D01*
X22824542Y2551968D01*
X22830345Y2545116D01*
X22833241Y2538584D01*
X22833342Y2538647D01*
X22836919Y2532935D01*
X22839198Y2526587D01*
X22839651Y2526124D01*
X22842596Y2523872D01*
X22842758Y2523613D01*
X22842880Y2523479D01*
X22843114Y2523272D01*
X22843092Y2523247D01*
X22850767Y2514828D01*
X22850981Y2515038D01*
X22855699Y2510224D01*
X22859279Y2504522D01*
X22859820Y2504167D01*
X22862957Y2502702D01*
X22864113Y2500983D01*
X22864665Y2500645D01*
X22866730Y2499759D01*
X22867945Y2499130D01*
X22868466Y2498886D01*
X22868591Y2498704D01*
X22869146Y2498370D01*
X22870370Y2497857D01*
X22874790Y2492638D01*
X22898901Y2485249D01*
X22907029Y2482124D01*
X22913612Y2479050D01*
X22915568Y2478752D01*
X22916148Y2478540D01*
X22921215Y2476364D01*
X22920996Y2475854D01*
X22921354Y2475582D01*
X22921649Y2476312D01*
X22921756Y2476299D01*
X22921988Y2476205D01*
X22922646Y2475934D01*
X22923419Y2475610D01*
X22923444Y2475596D01*
X22923161Y2474922D01*
X22923334Y2474751D01*
X22923631Y2475485D01*
X22923638Y2475482D01*
X22923640Y2475481D01*
X22925732Y2474636D01*
X22926387Y2474365D01*
X22926891Y2474154D01*
X22927725Y2473804D01*
X22927674Y2473683D01*
X22927735Y2473653D01*
X22927584Y2473346D01*
X22927612Y2473335D01*
X22927799Y2473799D01*
X22933134Y2471642D01*
X22933621Y2471443D01*
X22935275Y2470758D01*
X22935187Y2470546D01*
X22935220Y2470534D01*
X22935308Y2470752D01*
X22935347Y2470748D01*
X22935748Y2470586D01*
X22935940Y2470501D01*
X22936044Y2470440D01*
X22943282Y2467520D01*
X22943589Y2467394D01*
X22944092Y2467187D01*
X22943099Y2464774D01*
X22943142Y2464725D01*
X22944131Y2467175D01*
X22944133Y2467175D01*
X22950296Y2464689D01*
X22950497Y2464607D01*
X22952146Y2463933D01*
X22954108Y2463130D01*
X22953025Y2460485D01*
X22984172Y2437407D01*
X22988714Y2428197D01*
X22991338Y2421549D01*
X22992367Y2416717D01*
X22992559Y2416783D01*
X22993750Y2413306D01*
X22993708Y2413065D01*
X22993873Y2412438D01*
X22994760Y2410356D01*
X22994761Y2410353D01*
X22997676Y2403511D01*
X22998852Y2398650D01*
X22999001Y2398706D01*
X23000278Y2395298D01*
X23000244Y2395061D01*
X23000427Y2394440D01*
X23001365Y2392398D01*
X23001367Y2392393D01*
X23004403Y2385785D01*
X23005781Y2380739D01*
X23005846Y2380765D01*
X23007235Y2377378D01*
X23007208Y2377135D01*
X23007410Y2376519D01*
X23017381Y2356482D01*
X23018855Y2353521D01*
X23020399Y2350173D01*
X23022346Y2345603D01*
X23023505Y2341461D01*
X23023730Y2340969D01*
X23023713Y2340732D01*
X23023940Y2340125D01*
X23038954Y2312717D01*
X23040633Y2309651D01*
X23041761Y2307492D01*
X23042492Y2306023D01*
X23044747Y2299325D01*
X23044737Y2298971D01*
X23044991Y2298375D01*
X23046146Y2296474D01*
X23046151Y2296464D01*
X23062758Y2269127D01*
X23064134Y2266746D01*
X23064692Y2265727D01*
X23067140Y2259382D01*
X23067151Y2258815D01*
X23067432Y2258232D01*
X23068683Y2256375D01*
X23086437Y2230021D01*
X23087993Y2227591D01*
X23088165Y2227308D01*
X23090896Y2221105D01*
X23090950Y2220324D01*
X23091259Y2219755D01*
X23092606Y2217954D01*
X23092614Y2217941D01*
X23111272Y2192989D01*
X23116096Y2183916D01*
X23116141Y2183541D01*
X23116479Y2182989D01*
X23117926Y2181250D01*
X23117927Y2181248D01*
X23121707Y2176704D01*
X23137325Y2157928D01*
X23142633Y2149108D01*
X23142735Y2148531D01*
X23143103Y2147998D01*
X23160053Y2129748D01*
X23164738Y2124704D01*
X23170561Y2116153D01*
X23170744Y2115379D01*
X23171142Y2114868D01*
X23172759Y2113316D01*
X23172764Y2113311D01*
X23193537Y2093380D01*
X23199898Y2085132D01*
X23200193Y2084156D01*
X23200621Y2083670D01*
X23202341Y2082210D01*
X23202346Y2082205D01*
X23223764Y2064024D01*
X23230657Y2056158D01*
X23231102Y2054969D01*
X23231560Y2054512D01*
X23233382Y2053157D01*
X23233384Y2053155D01*
X23255418Y2036766D01*
X23262859Y2029329D01*
X23263486Y2027946D01*
X23263974Y2027521D01*
X23265919Y2026270D01*
X23265921Y2026268D01*
X23288547Y2011714D01*
X23296498Y2004807D01*
X23297355Y2003229D01*
X23297873Y2002840D01*
X23314615Y1993691D01*
X23321695Y1989822D01*
X23329311Y1983961D01*
X23329742Y1983711D01*
X23329868Y1983504D01*
X23330403Y1983140D01*
X23332435Y1982152D01*
X23334397Y1981016D01*
X23334301Y1980849D01*
X23339643Y1977119D01*
X23340586Y1976628D01*
X23340720Y1976428D01*
X23341272Y1976088D01*
X23359117Y1968378D01*
X23360966Y1967579D01*
X23369797Y1962085D01*
X23370456Y1961221D01*
X23371027Y1960916D01*
X23373143Y1960153D01*
X23373156Y1960147D01*
X23392015Y1953345D01*
X23401085Y1948415D01*
X23401496Y1947934D01*
X23402083Y1947661D01*
X23404246Y1947013D01*
X23404253Y1947011D01*
X23424091Y1941074D01*
X23433411Y1936634D01*
X23433656Y1936376D01*
X23434257Y1936133D01*
X23436454Y1935598D01*
X23436456Y1935597D01*
X23457102Y1930566D01*
X23466532Y1926657D01*
X23466750Y1926449D01*
X23467362Y1926238D01*
X23490728Y1921779D01*
X23500323Y1918363D01*
X23500604Y1918121D01*
X23501226Y1917942D01*
X23503441Y1917636D01*
X23503445Y1917635D01*
X23524774Y1914687D01*
X23534630Y1911749D01*
X23535064Y1911415D01*
X23535695Y1911269D01*
X23556352Y1909544D01*
X23558124Y1909396D01*
X23565733Y1907517D01*
X23567513Y1907313D01*
X23567712Y1907172D01*
X23568348Y1907052D01*
X23570613Y1906957D01*
X23572543Y1906876D01*
X23577202Y1905889D01*
X23577225Y1906148D01*
X23580840Y1905825D01*
X23581038Y1905692D01*
X23581678Y1905588D01*
X23583920Y1905549D01*
X23583931Y1905548D01*
X23591083Y1905423D01*
X23595610Y1904573D01*
X23595633Y1904908D01*
X23599275Y1904663D01*
X23599479Y1904532D01*
X23600120Y1904442D01*
X23610421Y1904492D01*
X23614779Y1903765D01*
X23614800Y1904198D01*
X23618454Y1904021D01*
X23618661Y1903894D01*
X23619304Y1903816D01*
X23621562Y1903870D01*
X23621568Y1903870D01*
X23630000Y1904073D01*
X23634346Y1903434D01*
X23634359Y1903877D01*
X23638022Y1903769D01*
X23638233Y1903645D01*
X23638878Y1903579D01*
X23649506Y1904037D01*
X23654015Y1903468D01*
X23654018Y1903823D01*
X23657640Y1903797D01*
X23657845Y1903682D01*
X23658490Y1903631D01*
X23660711Y1903774D01*
X23660719Y1903774D01*
X23668496Y1904275D01*
X23673415Y1903775D01*
X23673411Y1903956D01*
X23677049Y1904027D01*
X23677261Y1903916D01*
X23677908Y1903882D01*
X23680142Y1904087D01*
X23680148Y1904087D01*
X23686353Y1904656D01*
X23691387Y1904287D01*
X23691381Y1904417D01*
X23694991Y1904592D01*
X23695204Y1904488D01*
X23695852Y1904473D01*
X23698071Y1904741D01*
X23698074Y1904741D01*
X23705951Y1905692D01*
X23712388Y1906469D01*
X23717421Y1906240D01*
X23717409Y1906396D01*
X23721075Y1906674D01*
X23721299Y1906573D01*
X23721947Y1906575D01*
X23740727Y1909383D01*
X23747316Y1909301D01*
X23749994Y1909607D01*
X23750214Y1909517D01*
X23750861Y1909544D01*
X23753063Y1909957D01*
X23753069Y1909958D01*
X23768535Y1912861D01*
X23776908Y1913094D01*
X23778244Y1913305D01*
X23778468Y1913225D01*
X23779114Y1913280D01*
X23781299Y1913788D01*
X23781302Y1913789D01*
X23795991Y1917208D01*
X23805329Y1917888D01*
X23805946Y1918015D01*
X23806174Y1917945D01*
X23806817Y1918030D01*
X23823202Y1922658D01*
X23832595Y1923787D01*
X23833125Y1923923D01*
X23833357Y1923863D01*
X23833994Y1923978D01*
X23850172Y1929379D01*
X23858689Y1930797D01*
X23859797Y1931133D01*
X23860029Y1931084D01*
X23860661Y1931227D01*
X23862749Y1932028D01*
X23862759Y1932031D01*
X23876944Y1937473D01*
X23883814Y1938910D01*
X23886054Y1939685D01*
X23886287Y1939645D01*
X23886912Y1939812D01*
X23888969Y1940693D01*
X23888977Y1940696D01*
X23903664Y1946988D01*
X23908766Y1948242D01*
X23908746Y1948294D01*
X23912168Y1949597D01*
X23912409Y1949564D01*
X23913029Y1949750D01*
X23915310Y1950813D01*
X23929984Y1957654D01*
X23933990Y1959354D01*
X23935457Y1959917D01*
X23935593Y1960021D01*
X23937164Y1960649D01*
X23937347Y1960626D01*
X23937965Y1960821D01*
X23938301Y1960983D01*
X23938304Y1960983D01*
X23938921Y1961180D01*
X23944060Y1963674D01*
X23946151Y1964605D01*
X23946264Y1964592D01*
X23946880Y1964792D01*
X23951497Y1967067D01*
X23953979Y1968190D01*
X23954126Y1968174D01*
X23954741Y1968378D01*
X23956746Y1969383D01*
X23956756Y1969387D01*
X23958850Y1970437D01*
X23961891Y1971842D01*
X23962086Y1971822D01*
X23962699Y1972031D01*
X23964700Y1973054D01*
X23964710Y1973058D01*
X23966928Y1974192D01*
X23969951Y1975615D01*
X23970150Y1975597D01*
X23970762Y1975810D01*
X23975280Y1978166D01*
X23978240Y1979590D01*
X23978429Y1979574D01*
X23979039Y1979793D01*
X23981012Y1980841D01*
X23981019Y1980844D01*
X23984241Y1982556D01*
X23986856Y1983839D01*
X23987019Y1983826D01*
X23987627Y1984049D01*
X23993726Y1987344D01*
X23995922Y1988439D01*
X23996049Y1988430D01*
X23996656Y1988657D01*
X23999393Y1990158D01*
X24003874Y1992615D01*
X24005557Y1993466D01*
X24005637Y1993461D01*
X24006242Y1993691D01*
X24014608Y1998335D01*
X24015933Y1999013D01*
X24015980Y1999010D01*
X24016584Y1999242D01*
X24020665Y2001530D01*
X24026298Y2004689D01*
X24027201Y2005155D01*
X24027206Y2005155D01*
X24027810Y2005390D01*
X24029452Y2006318D01*
X24029460Y2006322D01*
X24036936Y2010547D01*
X24037001Y2010433D01*
X24037684Y2010841D01*
X24037630Y2010937D01*
X24037636Y2010943D01*
X24038954Y2011688D01*
X24039627Y2012038D01*
X24040095Y2012221D01*
X24046364Y2015784D01*
X24047553Y2013691D01*
X24047759Y2013744D01*
X24046542Y2015884D01*
X24046544Y2015886D01*
X24052748Y2019413D01*
X24053262Y2019682D01*
X24053640Y2019830D01*
X24054646Y2020405D01*
X24054664Y2020414D01*
X24063919Y2025700D01*
X24064585Y2026075D01*
X24066410Y2027088D01*
X24067646Y2024861D01*
X24067798Y2024900D01*
X24066499Y2027175D01*
X24067981Y2028021D01*
X24068313Y2028195D01*
X24068575Y2028299D01*
X24076258Y2032701D01*
X24076608Y2032899D01*
X24077645Y2033481D01*
X24077659Y2033489D01*
X24078972Y2031147D01*
X24079028Y2031163D01*
X24077680Y2033516D01*
X24084636Y2037501D01*
X24084896Y2037638D01*
X24085099Y2037719D01*
X24085653Y2038037D01*
X24085662Y2038042D01*
X24098904Y2045650D01*
X24099153Y2045793D01*
X24103326Y2048165D01*
X24103349Y2048174D01*
X24103498Y2048260D01*
X24103508Y2048265D01*
X24114849Y2054790D01*
X24115011Y2054882D01*
X24118445Y2056844D01*
X24119892Y2054311D01*
X24119946Y2054327D01*
X24118478Y2056879D01*
X24125312Y2060810D01*
X24125399Y2060860D01*
X24134972Y2066346D01*
X24136396Y2063861D01*
X24136467Y2063881D01*
X24135020Y2066396D01*
X24136433Y2067209D01*
X24136470Y2067230D01*
X24153141Y2076807D01*
X24153142Y2076808D01*
X24153247Y2076868D01*
X24153276Y2076898D01*
X24153288Y2076906D01*
X24157081Y2079088D01*
X24157101Y2079100D01*
X24163789Y2082944D01*
X24163877Y2082995D01*
X24185774Y2095471D01*
X24185993Y2095595D01*
X24205674Y2106626D01*
X24206175Y2106904D01*
X24217856Y2113311D01*
X24223862Y2116605D01*
X24224376Y2116884D01*
X24240560Y2125526D01*
X24241137Y2125830D01*
X24255899Y2133457D01*
X24256743Y2133884D01*
X24270108Y2140525D01*
X24271100Y2141007D01*
X24283647Y2146968D01*
X24284724Y2147467D01*
X24296726Y2152892D01*
X24297843Y2153384D01*
X24309602Y2158425D01*
X24310717Y2158890D01*
X24322732Y2163768D01*
X24323782Y2164183D01*
X24336394Y2169040D01*
X24337304Y2169383D01*
X24350966Y2174392D01*
X24351575Y2174610D01*
X24366743Y2179937D01*
X24367188Y2180090D01*
X24401514Y2191769D01*
X24402055Y2191950D01*
X24445302Y2206199D01*
X24445960Y2206411D01*
X24487177Y2219428D01*
X24488000Y2219682D01*
X24516501Y2228253D01*
X24527539Y2231572D01*
X24528425Y2231831D01*
X24566674Y2242701D01*
X24567663Y2242974D01*
X24579840Y2246219D01*
X24604792Y2252869D01*
X24605741Y2253113D01*
X24642143Y2262136D01*
X24643239Y2262397D01*
X24679077Y2270592D01*
X24680206Y2270840D01*
X24715984Y2278328D01*
X24717120Y2278554D01*
X24724730Y2280000D01*
X24753003Y2285372D01*
X24754097Y2285570D01*
X24790579Y2291818D01*
X24791655Y2291993D01*
X24828894Y2297704D01*
X24829907Y2297851D01*
X24868402Y2303111D01*
X24869337Y2303231D01*
X24909190Y2308065D01*
X24910037Y2308162D01*
X24923892Y2309651D01*
X24952263Y2312700D01*
X24952606Y2312735D01*
X24960502Y2313524D01*
X24960821Y2313555D01*
X24987663Y2316098D01*
X24988057Y2316134D01*
X25007139Y2317793D01*
X25014544Y2318436D01*
X25015020Y2318476D01*
X25042492Y2320652D01*
X25042963Y2320687D01*
X25070640Y2322669D01*
X25071092Y2322700D01*
X25100058Y2324563D01*
X25100487Y2324589D01*
X25113393Y2325330D01*
X25130619Y2326319D01*
X25130865Y2326333D01*
X25147248Y2327168D01*
X25162534Y2327948D01*
X25162897Y2327965D01*
X25174870Y2328506D01*
X25195770Y2329450D01*
X25195963Y2329458D01*
X25214579Y2330200D01*
X25230651Y2330841D01*
X25230947Y2330852D01*
X25268018Y2332154D01*
X25268201Y2332160D01*
X25287879Y2332770D01*
X25306896Y2333359D01*
X25307123Y2333366D01*
X25339637Y2334255D01*
X25340150Y2334251D01*
X25340458Y2334215D01*
X25341379Y2334241D01*
X25341383Y2334241D01*
X25362818Y2334847D01*
X25363512Y2334843D01*
X25363984Y2334789D01*
X25371570Y2335021D01*
X25383908Y2335399D01*
X25384832Y2335396D01*
X25385464Y2335326D01*
X25387271Y2335387D01*
X25387272Y2335387D01*
X25389136Y2335450D01*
X25402936Y2335916D01*
X25404376Y2335916D01*
X25404413Y2335894D01*
X25405057Y2335826D01*
X25407294Y2335911D01*
X25407295Y2335911D01*
X25420110Y2336398D01*
X25422190Y2336408D01*
X25422274Y2336359D01*
X25422918Y2336294D01*
X25425169Y2336392D01*
X25425170Y2336392D01*
X25427028Y2336473D01*
X25435481Y2336841D01*
X25438435Y2336873D01*
X25438583Y2336788D01*
X25439228Y2336727D01*
X25441493Y2336842D01*
X25441501Y2336842D01*
X25449007Y2337224D01*
X25452894Y2337301D01*
X25453332Y2337296D01*
X25453540Y2337179D01*
X25454186Y2337125D01*
X25461059Y2337540D01*
X25464781Y2337654D01*
X25467111Y2337656D01*
X25467321Y2337541D01*
X25467967Y2337495D01*
X25472179Y2337801D01*
X25476334Y2337835D01*
X25476333Y2337922D01*
X25479966Y2337981D01*
X25480179Y2337869D01*
X25480826Y2337833D01*
X25483068Y2338032D01*
X25483077Y2338032D01*
X25484101Y2338123D01*
X25484865Y2338061D01*
X25485326Y2338069D01*
X25485327Y2338024D01*
X25488549Y2337765D01*
X25488535Y2338147D01*
X25492139Y2338282D01*
X25492348Y2338177D01*
X25492995Y2338155D01*
X25495448Y2338423D01*
X25495628Y2338412D01*
X25497438Y2338480D01*
X25497444Y2338307D01*
X25500326Y2338141D01*
X25500313Y2338353D01*
X25503948Y2338582D01*
X25504167Y2338479D01*
X25504815Y2338473D01*
X25507056Y2338777D01*
X25509296Y2338918D01*
X25509312Y2338656D01*
X25512033Y2338580D01*
X25512032Y2338586D01*
X25515623Y2338932D01*
X25515838Y2338840D01*
X25516485Y2338856D01*
X25518677Y2339227D01*
X25520910Y2339442D01*
X25520940Y2339130D01*
X25525675Y2339172D01*
X25527498Y2339423D01*
X25527720Y2339338D01*
X25528367Y2339380D01*
X25530561Y2339844D01*
X25532780Y2340149D01*
X25532827Y2339805D01*
X25539591Y2340167D01*
X25539746Y2340196D01*
X25539976Y2340121D01*
X25540620Y2340194D01*
X25542802Y2340769D01*
X25545033Y2341187D01*
X25545099Y2340835D01*
X25551864Y2341559D01*
X25552595Y2341366D01*
X25553233Y2341476D01*
X25555366Y2342169D01*
X25557548Y2342709D01*
X25557639Y2342342D01*
X25564283Y2343453D01*
X25565387Y2343233D01*
X25566018Y2343382D01*
X25568133Y2344218D01*
X25570276Y2344891D01*
X25570406Y2344476D01*
X25570460Y2344485D01*
X25576625Y2345920D01*
X25577769Y2345766D01*
X25578388Y2345954D01*
X25580422Y2346910D01*
X25582532Y2347721D01*
X25582638Y2347446D01*
X25589696Y2349630D01*
X25592102Y2349500D01*
X25592705Y2349738D01*
X25595846Y2351533D01*
X25595848Y2351534D01*
X25596105Y2351681D01*
X25606679Y2356482D01*
X25611730Y2358230D01*
X25618396Y2359028D01*
X25618949Y2359365D01*
X25621770Y2361705D01*
X25630770Y2369170D01*
X25646019Y2378012D01*
X25648086Y2379346D01*
X25654392Y2381708D01*
X25654849Y2382167D01*
X25662740Y2392787D01*
X25671853Y2401333D01*
X25671643Y2401541D01*
X25676387Y2406323D01*
X25682043Y2409986D01*
X25682391Y2410533D01*
X25686705Y2420121D01*
X25693240Y2429315D01*
X25692323Y2429941D01*
X25696113Y2435493D01*
X25700995Y2440110D01*
X25701238Y2440710D01*
X25702150Y2444436D01*
X25703913Y2451639D01*
X25708327Y2463933D01*
X25708639Y2464580D01*
X25712775Y2469870D01*
X25712926Y2470500D01*
X25713275Y2474351D01*
X25713771Y2479845D01*
X25713995Y2482320D01*
X25716492Y2494108D01*
X25719178Y2498574D01*
X25719251Y2499218D01*
X25718853Y2511702D01*
X25719936Y2522812D01*
X25721558Y2526246D01*
X25721565Y2526894D01*
X25719833Y2539937D01*
X25719894Y2550745D01*
X25720816Y2553211D01*
X25720770Y2553857D01*
X25717761Y2567593D01*
X25717004Y2578107D01*
X25717503Y2579802D01*
X25717411Y2580443D01*
X25713306Y2594359D01*
X25711948Y2604494D01*
X25712029Y2604831D01*
X25711904Y2605466D01*
X25708826Y2614223D01*
X25707618Y2620950D01*
X25706869Y2623337D01*
X25706916Y2623573D01*
X25706767Y2624203D01*
X25701275Y2638119D01*
X25700020Y2643891D01*
X25698953Y2646918D01*
X25698992Y2647154D01*
X25698821Y2647779D01*
X25696578Y2652930D01*
X25692294Y2662769D01*
X25691048Y2667726D01*
X25690950Y2667688D01*
X25689638Y2671087D01*
X25689670Y2671324D01*
X25689481Y2671943D01*
X25681995Y2687830D01*
X25680668Y2692551D01*
X25680478Y2692472D01*
X25679073Y2695846D01*
X25679099Y2696086D01*
X25678894Y2696700D01*
X25670534Y2713288D01*
X25669121Y2717862D01*
X25668881Y2717755D01*
X25667390Y2721101D01*
X25667410Y2721345D01*
X25667190Y2721954D01*
X25658031Y2739061D01*
X25656526Y2743541D01*
X25656274Y2743421D01*
X25654712Y2746708D01*
X25654726Y2746947D01*
X25654491Y2747550D01*
X25644171Y2765764D01*
X25642741Y2768437D01*
X25642011Y2769885D01*
X25641657Y2770598D01*
X25641580Y2770756D01*
X25641591Y2771000D01*
X25641350Y2771600D01*
X25640213Y2773557D01*
X25640127Y2773732D01*
X25639985Y2773997D01*
X25639802Y2774450D01*
X25638692Y2776349D01*
X25638610Y2776566D01*
X25638242Y2777253D01*
X25637651Y2778457D01*
X25637858Y2778559D01*
X25637057Y2780686D01*
X25636751Y2780527D01*
X25635062Y2783781D01*
X25635067Y2784026D01*
X25634811Y2784621D01*
X25633103Y2787399D01*
X25632747Y2788241D01*
X25632578Y2788566D01*
X25632604Y2788579D01*
X25629106Y2796845D01*
X25629081Y2797567D01*
X25628791Y2798146D01*
X25626158Y2801933D01*
X25620917Y2812002D01*
X25620369Y2815957D01*
X25620021Y2816504D01*
X25616642Y2820426D01*
X25609515Y2830586D01*
X25608174Y2832972D01*
X25606201Y2839392D01*
X25605771Y2839876D01*
X25602964Y2842237D01*
X25602963Y2842239D01*
X25600216Y2844549D01*
X25592496Y2853935D01*
X25592111Y2853598D01*
X25587673Y2858661D01*
X25584414Y2864557D01*
X25583893Y2864942D01*
X25580637Y2866689D01*
X25580636Y2866690D01*
X25576856Y2868718D01*
X25567064Y2876496D01*
X25566882Y2876250D01*
X25561471Y2880244D01*
X25557037Y2885291D01*
X25556446Y2885556D01*
X25552913Y2886559D01*
X25552912Y2886560D01*
X25551834Y2886866D01*
X25541873Y2891947D01*
X25541375Y2890925D01*
X25535314Y2893880D01*
X25530020Y2898062D01*
X25529391Y2898215D01*
X25525699Y2898568D01*
X25525698Y2898568D01*
X25524439Y2898688D01*
X25512279Y2901276D01*
X25507357Y2904216D01*
X25506713Y2904287D01*
X25502458Y2904138D01*
X25491710Y2905241D01*
X25489287Y2906423D01*
X25488639Y2906439D01*
X25484975Y2906000D01*
X25484974Y2906000D01*
X25484901Y2905991D01*
X25474639Y2906345D01*
X25474326Y2906478D01*
X25473678Y2906461D01*
X25472542Y2906265D01*
X25472339Y2906308D01*
X25471965Y2906166D01*
X25466911Y2905295D01*
X25461895Y2905265D01*
X25461148Y2905169D01*
X25460924Y2905257D01*
X25460277Y2905221D01*
X25458074Y2904776D01*
X25458069Y2904775D01*
X25455251Y2904205D01*
X25451621Y2903739D01*
X25451643Y2903587D01*
X25448038Y2903073D01*
X25447813Y2903158D01*
X25447167Y2903113D01*
X25442927Y2902193D01*
X25438367Y2902154D01*
X25436196Y2900733D01*
X25434245Y2900310D01*
X25434114Y2900359D01*
X25433468Y2900311D01*
X25431270Y2899824D01*
X25430456Y2899705D01*
X25429075Y2899469D01*
X25427886Y2899150D01*
X25423450Y2898618D01*
X25422410Y2898172D01*
X25420737Y2898392D01*
X25420926Y2897537D01*
X25420913Y2897531D01*
X25418951Y2897097D01*
X25416104Y2896536D01*
X25407418Y2895039D01*
X25405776Y2894233D01*
X25405273Y2894102D01*
X25402199Y2893480D01*
X25394955Y2892016D01*
X25394951Y2892015D01*
X25392602Y2891540D01*
X25391793Y2891113D01*
X25391627Y2891066D01*
X25377725Y2888051D01*
X25377530Y2887945D01*
X25377365Y2887896D01*
X25328893Y2877267D01*
X25328633Y2877210D01*
X25274193Y2865515D01*
X25273923Y2865458D01*
X25238815Y2858078D01*
X25222550Y2854659D01*
X25220661Y2854262D01*
X25220381Y2854204D01*
X25168055Y2843454D01*
X25167771Y2843396D01*
X25157647Y2841365D01*
X25116115Y2833034D01*
X25103509Y2830568D01*
X25065795Y2823192D01*
X25065488Y2823133D01*
X25016629Y2813830D01*
X25016306Y2813769D01*
X24999971Y2810748D01*
X24968293Y2804889D01*
X24968218Y2804875D01*
X24948095Y2801269D01*
X24921959Y2796585D01*
X24921598Y2796521D01*
X24876762Y2788757D01*
X24876373Y2788691D01*
X24833305Y2781513D01*
X24832887Y2781445D01*
X24791595Y2774850D01*
X24791142Y2774780D01*
X24751522Y2768750D01*
X24751019Y2768675D01*
X24713496Y2763276D01*
X24712940Y2763199D01*
X24677574Y2758434D01*
X24676968Y2758355D01*
X24643561Y2754197D01*
X24642957Y2754126D01*
X24620927Y2751641D01*
X24612026Y2750637D01*
X24611206Y2750550D01*
X24582819Y2747727D01*
X24581859Y2747639D01*
X24555884Y2745460D01*
X24555034Y2745394D01*
X24554364Y2745347D01*
X24552075Y2745230D01*
X24550981Y2745194D01*
X24525691Y2744361D01*
X24521572Y2744361D01*
X24515570Y2744559D01*
X24498410Y2745126D01*
X24494267Y2745401D01*
X24481354Y2746693D01*
X24478991Y2746930D01*
X24471419Y2749262D01*
X24471206Y2748283D01*
X24467640Y2749060D01*
X24467458Y2749218D01*
X24466837Y2749401D01*
X24464610Y2749720D01*
X24464595Y2749723D01*
X24463956Y2749814D01*
X24452370Y2752621D01*
X24448320Y2754023D01*
X24442583Y2757520D01*
X24441939Y2757597D01*
X24438268Y2757502D01*
X24433781Y2757386D01*
X24408739Y2763951D01*
X24408641Y2764057D01*
X24399948Y2766308D01*
X24392242Y2770913D01*
X24392333Y2771066D01*
X24388287Y2772871D01*
X24386990Y2773732D01*
X24379374Y2778790D01*
X24370394Y2778929D01*
X24361823Y2781589D01*
X24362068Y2782378D01*
X24360996Y2782601D01*
X24360927Y2782333D01*
X24359847Y2782610D01*
X24357983Y2783225D01*
X24356252Y2783584D01*
X24353792Y2784608D01*
X24353788Y2784609D01*
X24352434Y2785173D01*
X24351906Y2785231D01*
X24351823Y2785258D01*
X24344614Y2788191D01*
X24344604Y2788194D01*
X24343390Y2788688D01*
X24342921Y2788736D01*
X24342864Y2788754D01*
X24333729Y2792393D01*
X24333728Y2792393D01*
X24333755Y2792461D01*
X24333374Y2792535D01*
X24321191Y2797475D01*
X24320806Y2797633D01*
X24308310Y2802797D01*
X24307884Y2802975D01*
X24295519Y2808192D01*
X24295203Y2808326D01*
X24282757Y2813693D01*
X24282399Y2813849D01*
X24274240Y2817442D01*
X24269573Y2819498D01*
X24269177Y2819674D01*
X24256078Y2825563D01*
X24255665Y2825751D01*
X24241900Y2832060D01*
X24241618Y2832190D01*
X24226823Y2839088D01*
X24226545Y2839219D01*
X24210487Y2846820D01*
X24210364Y2846879D01*
X24193144Y2855137D01*
X24174535Y2864158D01*
X24154620Y2873899D01*
X24154495Y2874041D01*
X24154463Y2873976D01*
X24132366Y2884862D01*
X24132241Y2884924D01*
X24121483Y2890254D01*
X24109611Y2896136D01*
X24109453Y2896222D01*
X24102742Y2899561D01*
X24079667Y2911041D01*
X24079358Y2911209D01*
X24079147Y2911355D01*
X24055733Y2922967D01*
X24051469Y2925082D01*
X24051057Y2925304D01*
X24050788Y2925489D01*
X24035288Y2933145D01*
X24028738Y2936380D01*
X24028586Y2936455D01*
X24027663Y2936914D01*
X24028902Y2939406D01*
X24028884Y2939422D01*
X24027648Y2936918D01*
X24025066Y2938193D01*
X24024569Y2938461D01*
X24024245Y2938683D01*
X24001753Y2949737D01*
X24000074Y2950570D01*
X23999807Y2950714D01*
X23999381Y2951004D01*
X23989427Y2955867D01*
X23977265Y2961808D01*
X23976523Y2962203D01*
X23976049Y2962525D01*
X23974587Y2963234D01*
X23974574Y2963241D01*
X23955514Y2972485D01*
X23954662Y2972935D01*
X23954661Y2972937D01*
X23954124Y2973299D01*
X23952457Y2974101D01*
X23952449Y2974105D01*
X23935131Y2982435D01*
X23934009Y2983023D01*
X23933994Y2983046D01*
X23933455Y2983406D01*
X23931478Y2984347D01*
X23931471Y2984351D01*
X23915849Y2991790D01*
X23914478Y2992500D01*
X23914451Y2992544D01*
X23913911Y2992901D01*
X23911878Y2993858D01*
X23911869Y2993863D01*
X23897525Y3000614D01*
X23895953Y3001420D01*
X23895915Y3001480D01*
X23895373Y3001835D01*
X23893323Y3002788D01*
X23893315Y3002792D01*
X23880186Y3008892D01*
X23878280Y3009856D01*
X23878226Y3009940D01*
X23877682Y3010291D01*
X23863452Y3016807D01*
X23861343Y3017858D01*
X23861279Y3017957D01*
X23860732Y3018305D01*
X23854943Y3020914D01*
X23847340Y3024341D01*
X23845008Y3025485D01*
X23844933Y3025599D01*
X23844385Y3025943D01*
X23842343Y3026847D01*
X23842338Y3026850D01*
X23831575Y3031616D01*
X23829169Y3032777D01*
X23829089Y3032897D01*
X23828538Y3033238D01*
X23816201Y3038604D01*
X23813695Y3039792D01*
X23813609Y3039920D01*
X23813056Y3040257D01*
X23800895Y3045448D01*
X23798481Y3046574D01*
X23798398Y3046694D01*
X23797843Y3047028D01*
X23795749Y3047905D01*
X23795746Y3047907D01*
X23785703Y3052116D01*
X23783408Y3053167D01*
X23783332Y3053277D01*
X23782775Y3053607D01*
X23780692Y3054464D01*
X23780684Y3054468D01*
X23770509Y3058654D01*
X23768361Y3059622D01*
X23768292Y3059720D01*
X23767733Y3060047D01*
X23755045Y3065178D01*
X23753240Y3065979D01*
X23753189Y3066050D01*
X23752628Y3066373D01*
X23750556Y3067198D01*
X23750552Y3067200D01*
X23740790Y3071087D01*
X23737625Y3072466D01*
X23737506Y3072631D01*
X23736942Y3072950D01*
X23734850Y3073763D01*
X23734394Y3073980D01*
X23730764Y3076312D01*
X23730401Y3076471D01*
X23730254Y3076662D01*
X23729681Y3076964D01*
X23727562Y3077715D01*
X23727555Y3077718D01*
X23714651Y3082291D01*
X23707373Y3086253D01*
X23706013Y3086780D01*
X23705856Y3086967D01*
X23705271Y3087244D01*
X23703106Y3087908D01*
X23703103Y3087909D01*
X23689249Y3092157D01*
X23682480Y3095483D01*
X23680588Y3096130D01*
X23680425Y3096308D01*
X23679829Y3096561D01*
X23671953Y3098632D01*
X23663462Y3100865D01*
X23655717Y3104276D01*
X23654433Y3104653D01*
X23654261Y3104826D01*
X23653655Y3105053D01*
X23638958Y3108240D01*
X23634161Y3110146D01*
X23634135Y3110048D01*
X23630584Y3110977D01*
X23630406Y3111146D01*
X23629793Y3111355D01*
X23627559Y3111769D01*
X23625364Y3112344D01*
X23625468Y3112742D01*
X23624630Y3113052D01*
X23624510Y3112559D01*
X23620978Y3113418D01*
X23620802Y3113579D01*
X23620185Y3113777D01*
X23616744Y3114356D01*
X23615837Y3114669D01*
X23615778Y3114683D01*
X23615779Y3114689D01*
X23612011Y3115989D01*
X23611977Y3115830D01*
X23608403Y3116595D01*
X23608220Y3116753D01*
X23607598Y3116934D01*
X23604395Y3117381D01*
X23603645Y3117614D01*
X23603158Y3117718D01*
X23603167Y3117762D01*
X23598785Y3119121D01*
X23595585Y3119690D01*
X23595398Y3119840D01*
X23594770Y3119999D01*
X23591946Y3120294D01*
X23591675Y3120322D01*
X23591002Y3120505D01*
X23590310Y3120628D01*
X23590321Y3120690D01*
X23585728Y3121938D01*
X23582758Y3122356D01*
X23582568Y3122498D01*
X23581935Y3122634D01*
X23579334Y3122812D01*
X23578915Y3122841D01*
X23578324Y3122981D01*
X23577487Y3123099D01*
X23577498Y3123177D01*
X23573867Y3124037D01*
X23573857Y3123943D01*
X23570215Y3124347D01*
X23570013Y3124489D01*
X23569376Y3124607D01*
X23565983Y3124736D01*
X23565147Y3124911D01*
X23564849Y3124944D01*
X23564852Y3124973D01*
X23561477Y3125679D01*
X23561448Y3125345D01*
X23557830Y3125663D01*
X23557631Y3125796D01*
X23556991Y3125899D01*
X23554746Y3125935D01*
X23554742Y3125935D01*
X23552577Y3125969D01*
X23552259Y3125974D01*
X23548640Y3126136D01*
X23545161Y3126394D01*
X23544961Y3126523D01*
X23544320Y3126617D01*
X23542078Y3126622D01*
X23542075Y3126622D01*
X23538858Y3126629D01*
X23533801Y3126639D01*
X23531508Y3126720D01*
X23531410Y3126783D01*
X23530769Y3126874D01*
X23524079Y3126848D01*
X23521597Y3126921D01*
X23521487Y3126991D01*
X23520846Y3127078D01*
X23518581Y3127055D01*
X23518579Y3127055D01*
X23517683Y3127046D01*
X23517403Y3127051D01*
X23515816Y3127160D01*
X23515491Y3127088D01*
X23514005Y3127117D01*
X23511146Y3127256D01*
X23510941Y3127382D01*
X23510298Y3127460D01*
X23508044Y3127408D01*
X23505805Y3127517D01*
X23505825Y3127920D01*
X23504640Y3128094D01*
X23504630Y3127736D01*
X23501000Y3127835D01*
X23500794Y3127955D01*
X23500150Y3128019D01*
X23497906Y3127919D01*
X23495667Y3127980D01*
X23495680Y3128463D01*
X23494571Y3128597D01*
X23494571Y3128463D01*
X23490921Y3128459D01*
X23490709Y3128575D01*
X23490063Y3128621D01*
X23487809Y3128455D01*
X23485556Y3128453D01*
X23485555Y3128987D01*
X23484652Y3129069D01*
X23484654Y3129021D01*
X23481055Y3128903D01*
X23480844Y3129010D01*
X23480197Y3129035D01*
X23477974Y3128802D01*
X23476066Y3128740D01*
X23473342Y3129007D01*
X23471997Y3128929D01*
X23471780Y3129032D01*
X23471133Y3129041D01*
X23468902Y3128749D01*
X23467327Y3128658D01*
X23466769Y3128701D01*
X23463864Y3128486D01*
X23463642Y3128587D01*
X23462994Y3128586D01*
X23460754Y3128256D01*
X23458722Y3128106D01*
X23458725Y3128074D01*
X23455121Y3127753D01*
X23454903Y3127849D01*
X23454256Y3127838D01*
X23443828Y3126152D01*
X23438694Y3126173D01*
X23438705Y3126077D01*
X23435093Y3125648D01*
X23434872Y3125737D01*
X23434225Y3125707D01*
X23432025Y3125283D01*
X23432021Y3125283D01*
X23428511Y3124607D01*
X23419078Y3122791D01*
X23418263Y3122634D01*
X23417333Y3122455D01*
X23417213Y3123078D01*
X23417161Y3123087D01*
X23417284Y3122446D01*
X23413819Y3121779D01*
X23411870Y3121404D01*
X23411670Y3121371D01*
X23411532Y3121339D01*
X23411254Y3121286D01*
X23411118Y3121282D01*
X23408318Y3120826D01*
X23408240Y3120816D01*
X23408183Y3120808D01*
X23408133Y3121186D01*
X23402673Y3121012D01*
X23401546Y3120828D01*
X23401317Y3120909D01*
X23400671Y3120851D01*
X23398473Y3120326D01*
X23398465Y3120325D01*
X23379106Y3115703D01*
X23369035Y3114899D01*
X23368932Y3114877D01*
X23368700Y3114946D01*
X23368059Y3114856D01*
X23347537Y3108873D01*
X23337308Y3107533D01*
X23336912Y3107629D01*
X23336276Y3107506D01*
X23334140Y3106760D01*
X23334137Y3106759D01*
X23316530Y3100608D01*
X23306365Y3098731D01*
X23305974Y3098804D01*
X23305345Y3098648D01*
X23286075Y3090762D01*
X23276224Y3088417D01*
X23276109Y3088373D01*
X23275865Y3088406D01*
X23275245Y3088219D01*
X23272572Y3086967D01*
X23259106Y3080661D01*
X23259106Y3080660D01*
X23258165Y3080220D01*
X23258126Y3080206D01*
X23258107Y3080193D01*
X23255602Y3079020D01*
X23250765Y3077653D01*
X23248639Y3076764D01*
X23248397Y3076789D01*
X23247783Y3076583D01*
X23245200Y3075276D01*
X23244706Y3075119D01*
X23243677Y3074689D01*
X23243639Y3074781D01*
X23239240Y3073385D01*
X23236585Y3072159D01*
X23236351Y3072175D01*
X23235745Y3071946D01*
X23233800Y3070873D01*
X23233783Y3070865D01*
X23214981Y3060490D01*
X23205202Y3056856D01*
X23204086Y3056864D01*
X23203495Y3056599D01*
X23190871Y3048571D01*
X23184207Y3044333D01*
X23174621Y3040045D01*
X23173126Y3039954D01*
X23172555Y3039650D01*
X23157420Y3028524D01*
X23154494Y3026373D01*
X23145267Y3021463D01*
X23143685Y3021258D01*
X23143135Y3020914D01*
X23141273Y3019338D01*
X23126129Y3006520D01*
X23117262Y3001016D01*
X23115961Y3000760D01*
X23115435Y3000382D01*
X23100112Y2985602D01*
X23094742Y2981879D01*
X23092667Y2980014D01*
X23092430Y2979958D01*
X23091918Y2979561D01*
X23090346Y2977928D01*
X23088666Y2976418D01*
X23088443Y2976666D01*
X23085470Y2974433D01*
X23083644Y2972663D01*
X23083410Y2972598D01*
X23082914Y2972182D01*
X23081411Y2970497D01*
X23068361Y2955867D01*
X23060304Y2949122D01*
X23058855Y2948614D01*
X23058388Y2948165D01*
X23056952Y2946316D01*
X23045534Y2931615D01*
X23037923Y2924257D01*
X23036074Y2923449D01*
X23035643Y2922967D01*
X23033953Y2920419D01*
X23033950Y2920416D01*
X23024421Y2906049D01*
X23017345Y2898086D01*
X23015416Y2897060D01*
X23015023Y2896546D01*
X23006068Y2880481D01*
X23000098Y2872854D01*
X22999885Y2872492D01*
X22999676Y2872368D01*
X22999308Y2871836D01*
X22998301Y2869807D01*
X22997700Y2868788D01*
X22996003Y2866618D01*
X22995339Y2865426D01*
X22995136Y2865298D01*
X22994781Y2864756D01*
X22992810Y2860526D01*
X22990000Y2856433D01*
X22990153Y2856353D01*
X22988465Y2853116D01*
X22988264Y2852982D01*
X22987924Y2852431D01*
X22987026Y2850358D01*
X22987026Y2850357D01*
X22986002Y2847991D01*
X22983318Y2843846D01*
X22983489Y2843762D01*
X22981892Y2840488D01*
X22981696Y2840349D01*
X22981371Y2839789D01*
X22980532Y2837699D01*
X22980531Y2837697D01*
X22979608Y2835398D01*
X22976866Y2830876D01*
X22976901Y2830860D01*
X22975408Y2827534D01*
X22975216Y2827389D01*
X22974909Y2826819D01*
X22974140Y2824710D01*
X22974138Y2824706D01*
X22973313Y2822443D01*
X22968670Y2814050D01*
X22968510Y2813641D01*
X22968328Y2813490D01*
X22968049Y2812906D01*
X22967382Y2810767D01*
X22967222Y2810360D01*
X22964333Y2806208D01*
X22963942Y2805502D01*
X22962979Y2804263D01*
X22950670Y2786576D01*
X22947019Y2783316D01*
X22946670Y2783026D01*
X22946406Y2782850D01*
X22945723Y2782238D01*
X22945712Y2782229D01*
X22936707Y2774162D01*
X22936319Y2773837D01*
X22936028Y2773643D01*
X22927075Y2765595D01*
X22926632Y2765223D01*
X22926282Y2764989D01*
X22918191Y2757685D01*
X22917709Y2757279D01*
X22917325Y2757020D01*
X22910415Y2750753D01*
X22909744Y2750186D01*
X22909231Y2749837D01*
X22907936Y2748656D01*
X22907919Y2748641D01*
X22903830Y2744910D01*
X22902645Y2743899D01*
X22902592Y2743890D01*
X22902057Y2743524D01*
X22900398Y2741996D01*
X22900390Y2741990D01*
X22898827Y2740551D01*
X22896467Y2738514D01*
X22896292Y2738482D01*
X22895760Y2738112D01*
X22894118Y2736578D01*
X22893364Y2735968D01*
X22892583Y2735494D01*
X22890510Y2733762D01*
X22890273Y2733715D01*
X22889748Y2733337D01*
X22888126Y2731770D01*
X22886401Y2730329D01*
X22886162Y2730615D01*
X22880566Y2726556D01*
X22878385Y2725944D01*
X22877890Y2725526D01*
X22875642Y2722984D01*
X22875638Y2722981D01*
X22874769Y2721998D01*
X22869306Y2716640D01*
X22861387Y2713111D01*
X22852858Y2700117D01*
X22851821Y2698537D01*
X22843258Y2688137D01*
X22836783Y2681809D01*
X22836782Y2681807D01*
X22830363Y2675533D01*
X22828350Y2666785D01*
X22825507Y2661719D01*
X22823649Y2655616D01*
X22818725Y2648113D01*
X22818675Y2643205D01*
X22817192Y2640598D01*
X22817452Y2635733D01*
X22814311Y2629040D01*
X22815493Y2620138D01*
X22814599Y2614358D01*
X22814946Y2608514D01*
X22812933Y2599764D01*
X22260530Y2599764D01*
X22260530Y2993069D01*
X22256889Y3001859D01*
X22248099Y3005500D01*
X21500961Y3005500D01*
X21492171Y3001859D01*
X21488530Y2993069D01*
X21488530Y2115932D01*
X21184530Y2115932D01*
X21184530Y2993069D01*
X21180889Y3001859D01*
X21172099Y3005500D01*
X20424962Y3005500D01*
X20416172Y3001859D01*
X20412531Y2993069D01*
X20412531Y2364187D01*
X20177913Y2364187D01*
X20183431Y2391931D01*
X20184030Y2394942D01*
X20184030Y3920058D01*
X20183024Y3925116D01*
X20177833Y3951213D01*
X20177832Y3951215D01*
X20176632Y3957248D01*
X20173212Y3962367D01*
X20170857Y3968053D01*
X20172576Y3968765D01*
X20164787Y4007925D01*
X20191363Y4047699D01*
X20231533Y4057994D01*
X20242596Y4057026D01*
X20282337Y4067674D01*
X20287659Y4068854D01*
X20322794Y4075049D01*
X20322796Y4075050D01*
X20328180Y4075999D01*
X20333852Y4079274D01*
X20348929Y4085517D01*
X20351972Y4086332D01*
X20399397Y4080083D01*
X20428513Y4042129D01*
X20425304Y4000688D01*
X20417460Y3982945D01*
X20415014Y3973974D01*
X20412742Y3954483D01*
X20412530Y3950843D01*
X20412530Y3321931D01*
X20416171Y3313141D01*
X20424961Y3309500D01*
X21172099Y3309500D01*
X21180889Y3313141D01*
X21184530Y3321931D01*
X21488530Y3321931D01*
X21492171Y3313141D01*
X21500961Y3309500D01*
X22248098Y3309500D01*
X22256888Y3313141D01*
X22260529Y3321931D01*
X22260529Y3950813D01*
X22260310Y3954504D01*
X22257931Y3974517D01*
X22255475Y3983455D01*
X22213746Y4077397D01*
X22207318Y4086750D01*
X22154709Y4139268D01*
X22136365Y4183446D01*
X22154633Y4227656D01*
X22198865Y4246000D01*
X22721569Y4246000D01*
X22730359Y4249641D01*
X22734000Y4258431D01*
X22734000Y4258432D01*
X23038000Y4258432D01*
X23041641Y4249642D01*
X23050431Y4246001D01*
X23704313Y4246001D01*
X23708004Y4246220D01*
X23728017Y4248599D01*
X23736955Y4251055D01*
X23830897Y4292784D01*
X23840247Y4299210D01*
X23912103Y4371191D01*
X23918514Y4380555D01*
X23960069Y4474551D01*
X23962516Y4483526D01*
X23964788Y4503017D01*
X23965000Y4506657D01*
X23965000Y4685569D01*
X23961359Y4694359D01*
X23952569Y4698000D01*
X23050431Y4698000D01*
X23041641Y4694359D01*
X23038000Y4685569D01*
X23038000Y4258432D01*
X22734000Y4258432D01*
X22734000Y4685569D01*
X22730359Y4694359D01*
X22721569Y4698000D01*
X21819432Y4698000D01*
X21810642Y4694359D01*
X21807001Y4685569D01*
X21807001Y4506691D01*
X21807220Y4502996D01*
X21809599Y4482983D01*
X21812055Y4474045D01*
X21853784Y4380103D01*
X21860212Y4370750D01*
X21912821Y4318232D01*
X21931165Y4274054D01*
X21912897Y4229844D01*
X21868665Y4211500D01*
X21500961Y4211500D01*
X21492171Y4207859D01*
X21488530Y4199069D01*
X21488530Y3321931D01*
X21184530Y3321931D01*
X21184530Y4199068D01*
X21180889Y4207858D01*
X21172099Y4211499D01*
X20673217Y4211499D01*
X20669526Y4211280D01*
X20657092Y4209802D01*
X20611045Y4222762D01*
X20587649Y4264485D01*
X20600609Y4310532D01*
X20605518Y4316059D01*
X21043385Y4753926D01*
X21087579Y4772232D01*
X21183636Y4772232D01*
X21185466Y4772450D01*
X21185470Y4772450D01*
X21192053Y4773234D01*
X21207830Y4775111D01*
X21219873Y4780460D01*
X21297034Y4814733D01*
X21297035Y4814734D01*
X21302306Y4817075D01*
X21308889Y4823669D01*
X21371265Y4886155D01*
X21375341Y4890238D01*
X21404020Y4955107D01*
X21415241Y4980488D01*
X21415242Y4980491D01*
X21417141Y4984787D01*
X21417685Y4989454D01*
X21417686Y4989457D01*
X21419308Y5003371D01*
X21419906Y5008502D01*
X21419906Y5456800D01*
X21438212Y5500994D01*
X21482406Y5519300D01*
X21902903Y5519300D01*
X21947097Y5500994D01*
X21965403Y5456800D01*
X21947097Y5412606D01*
X21938302Y5405291D01*
X21931754Y5400791D01*
X21859897Y5328809D01*
X21853486Y5319445D01*
X21811931Y5225449D01*
X21809484Y5216474D01*
X21807212Y5196983D01*
X21807000Y5193343D01*
X21807000Y5014431D01*
X21810641Y5005641D01*
X21819431Y5002000D01*
X23952568Y5002000D01*
X23961358Y5005641D01*
X23964999Y5014431D01*
X23964999Y5193313D01*
X23964780Y5197004D01*
X23962401Y5217017D01*
X23959945Y5225955D01*
X23918216Y5319897D01*
X23911790Y5329247D01*
X23839807Y5401105D01*
X23830447Y5407514D01*
X23811005Y5416109D01*
X23777986Y5450721D01*
X23778525Y5496395D01*
X23781102Y5500252D01*
X23788500Y5537442D01*
X23788500Y6162558D01*
X23786063Y6174811D01*
X23782303Y6193713D01*
X23782302Y6193715D01*
X23781102Y6199748D01*
X23752922Y6241922D01*
X23710748Y6270102D01*
X23704715Y6271302D01*
X23704713Y6271303D01*
X23676569Y6276901D01*
X23673558Y6277500D01*
X22098442Y6277500D01*
X22095431Y6276901D01*
X22067287Y6271303D01*
X22067285Y6271302D01*
X22061252Y6270102D01*
X22019078Y6241922D01*
X21999617Y6212796D01*
X21996731Y6208477D01*
X21956957Y6181901D01*
X21944764Y6180700D01*
X21439645Y6180700D01*
X21395451Y6199006D01*
X21382526Y6217829D01*
X21375063Y6234632D01*
X21301900Y6307667D01*
X21243990Y6333269D01*
X21211650Y6347567D01*
X21211647Y6347568D01*
X21207351Y6349467D01*
X21202684Y6350011D01*
X21202681Y6350012D01*
X21191368Y6351331D01*
X21183636Y6352232D01*
X20801176Y6352232D01*
X20799346Y6352014D01*
X20799342Y6352014D01*
X20792759Y6351230D01*
X20776982Y6349353D01*
X20772696Y6347449D01*
X20772695Y6347449D01*
X20687778Y6309731D01*
X20687777Y6309730D01*
X20682506Y6307389D01*
X20677804Y6302678D01*
X20677080Y6302378D01*
X20673674Y6300037D01*
X20673178Y6300758D01*
X20633626Y6284336D01*
X20589416Y6302604D01*
X20583299Y6309703D01*
X20519831Y6395632D01*
X20513306Y6402157D01*
X20410997Y6477723D01*
X20402846Y6482039D01*
X20282027Y6524468D01*
X20274650Y6526086D01*
X20248123Y6528593D01*
X20245181Y6528732D01*
X20206837Y6528732D01*
X20198047Y6525091D01*
X20194406Y6516301D01*
X20194406Y5472732D01*
X20176100Y5428538D01*
X20131906Y5410232D01*
X19952906Y5410232D01*
X19908712Y5428538D01*
X19890406Y5472732D01*
X19890406Y6516300D01*
X19886765Y6525090D01*
X19877975Y6528731D01*
X19839634Y6528731D01*
X19836686Y6528592D01*
X19810168Y6526087D01*
X19802780Y6524466D01*
X19681966Y6482039D01*
X19673815Y6477723D01*
X19571506Y6402157D01*
X19564978Y6395629D01*
X19501466Y6309640D01*
X19460484Y6284967D01*
X19414060Y6296498D01*
X19407037Y6302539D01*
X19405983Y6303591D01*
X19401900Y6307667D01*
X19343990Y6333269D01*
X19311650Y6347567D01*
X19311647Y6347568D01*
X19307351Y6349467D01*
X19302684Y6350011D01*
X19302681Y6350012D01*
X19291368Y6351331D01*
X19283636Y6352232D01*
X18901176Y6352232D01*
X18899346Y6352014D01*
X18899342Y6352014D01*
X18891266Y6351053D01*
X18876982Y6349353D01*
X18876943Y6349677D01*
X18832129Y6355283D01*
X18802765Y6393046D01*
X18808703Y6440511D01*
X18818836Y6453804D01*
X18902474Y6537442D01*
X21983500Y6537442D01*
X21984099Y6534431D01*
X21989357Y6508000D01*
X21990898Y6500252D01*
X22019078Y6458078D01*
X22061252Y6429898D01*
X22067285Y6428698D01*
X22067287Y6428697D01*
X22088292Y6424519D01*
X22098442Y6422500D01*
X23673558Y6422500D01*
X23683708Y6424519D01*
X23704713Y6428697D01*
X23704715Y6428698D01*
X23710748Y6429898D01*
X23752922Y6458078D01*
X23781102Y6500252D01*
X23782644Y6508000D01*
X23787901Y6534431D01*
X23788500Y6537442D01*
X23788500Y6585000D01*
X23806806Y6629194D01*
X23851000Y6647500D01*
X25145996Y6647500D01*
X25190190Y6629194D01*
X25200658Y6613893D01*
X25200829Y6614000D01*
X25203182Y6610220D01*
X25204975Y6606145D01*
X25207839Y6602738D01*
X25290536Y6504359D01*
X25293539Y6500786D01*
X25297244Y6498320D01*
X25297246Y6498318D01*
X25340255Y6469689D01*
X25408113Y6424519D01*
X25473170Y6404194D01*
X25535236Y6384803D01*
X25535239Y6384803D01*
X25539488Y6383475D01*
X25543940Y6383393D01*
X25543942Y6383393D01*
X25611952Y6382146D01*
X25677102Y6380952D01*
X25681401Y6382124D01*
X25805592Y6415982D01*
X25805595Y6415983D01*
X25809893Y6417155D01*
X25813689Y6419486D01*
X25813692Y6419487D01*
X25923387Y6486841D01*
X25927185Y6489173D01*
X26019550Y6591216D01*
X26079562Y6715081D01*
X26080830Y6722614D01*
X26096480Y6815641D01*
X26102397Y6850811D01*
X26102542Y6862671D01*
X26083030Y6998918D01*
X26042328Y7088438D01*
X26027906Y7120157D01*
X26027905Y7120159D01*
X26026062Y7124212D01*
X25936218Y7228482D01*
X25820720Y7303343D01*
X25816456Y7304618D01*
X25816452Y7304620D01*
X25693122Y7341504D01*
X25693119Y7341504D01*
X25688854Y7342780D01*
X25620990Y7343195D01*
X25555672Y7343594D01*
X25555671Y7343594D01*
X25551219Y7343621D01*
X25418881Y7305798D01*
X25302477Y7232353D01*
X25299534Y7229021D01*
X25299532Y7229019D01*
X25229514Y7149738D01*
X25211366Y7129189D01*
X25207631Y7121234D01*
X25192233Y7088438D01*
X25156880Y7056213D01*
X25135658Y7052500D01*
X23851000Y7052500D01*
X23806806Y7070806D01*
X23788500Y7115000D01*
X23788500Y7162558D01*
X23784412Y7183109D01*
X23782303Y7193713D01*
X23782302Y7193715D01*
X23781102Y7199748D01*
X23752922Y7241922D01*
X23710748Y7270102D01*
X23704715Y7271302D01*
X23704713Y7271303D01*
X23676569Y7276901D01*
X23673558Y7277500D01*
X22098442Y7277500D01*
X22095431Y7276901D01*
X22067287Y7271303D01*
X22067285Y7271302D01*
X22061252Y7270102D01*
X22019078Y7241922D01*
X21990898Y7199748D01*
X21989698Y7193715D01*
X21989697Y7193713D01*
X21987588Y7183109D01*
X21983500Y7162558D01*
X21983500Y6537442D01*
X18902474Y6537442D01*
X19196893Y6831861D01*
X19202967Y6836166D01*
X19202511Y6836739D01*
X19208019Y6841120D01*
X19214364Y6844167D01*
X19232824Y6867250D01*
X19237441Y6872409D01*
X19242690Y6877658D01*
X19246463Y6883661D01*
X19250571Y6889442D01*
X19251645Y6890784D01*
X19268789Y6912222D01*
X19270366Y6919082D01*
X19272184Y6922842D01*
X19273562Y6926778D01*
X19277308Y6932737D01*
X19280585Y6961726D01*
X19281777Y6968702D01*
X19283406Y6975786D01*
X19283406Y6983160D01*
X19283802Y6990181D01*
X19285644Y7006474D01*
X19308798Y7048332D01*
X19322377Y7056572D01*
X19397034Y7089733D01*
X19397035Y7089734D01*
X19402306Y7092075D01*
X19414585Y7104375D01*
X19440897Y7130734D01*
X19475341Y7165238D01*
X19504413Y7230997D01*
X19515241Y7255488D01*
X19515242Y7255491D01*
X19517141Y7259787D01*
X19517685Y7264454D01*
X19517686Y7264457D01*
X19519694Y7281686D01*
X19519906Y7283502D01*
X20564906Y7283502D01*
X20567785Y7259308D01*
X20569689Y7255022D01*
X20569689Y7255021D01*
X20604444Y7176776D01*
X20609749Y7164832D01*
X20682912Y7091797D01*
X20727982Y7071871D01*
X20773162Y7051897D01*
X20773165Y7051896D01*
X20777461Y7049997D01*
X20782128Y7049453D01*
X20782131Y7049452D01*
X20791741Y7048332D01*
X20801176Y7047232D01*
X21183636Y7047232D01*
X21185466Y7047450D01*
X21185470Y7047450D01*
X21192880Y7048332D01*
X21207830Y7050111D01*
X21212117Y7052015D01*
X21297034Y7089733D01*
X21297035Y7089734D01*
X21302306Y7092075D01*
X21314585Y7104375D01*
X21340897Y7130734D01*
X21375341Y7165238D01*
X21404413Y7230997D01*
X21415241Y7255488D01*
X21415242Y7255491D01*
X21417141Y7259787D01*
X21417685Y7264454D01*
X21417686Y7264457D01*
X21419694Y7281686D01*
X21419906Y7283502D01*
X21419906Y7537442D01*
X21983500Y7537442D01*
X21984099Y7534431D01*
X21989618Y7506687D01*
X21990898Y7500252D01*
X22019078Y7458078D01*
X22061252Y7429898D01*
X22067285Y7428698D01*
X22067287Y7428697D01*
X22093384Y7423506D01*
X22098442Y7422500D01*
X23673558Y7422500D01*
X23678616Y7423506D01*
X23704713Y7428697D01*
X23704715Y7428698D01*
X23710748Y7429898D01*
X23752922Y7458078D01*
X23781102Y7500252D01*
X23782383Y7506687D01*
X23787901Y7534431D01*
X23788500Y7537442D01*
X23788500Y7585000D01*
X23806806Y7629194D01*
X23851000Y7647500D01*
X24192136Y7647500D01*
X24236330Y7629194D01*
X24249343Y7610172D01*
X24258176Y7590099D01*
X24260380Y7585089D01*
X24265874Y7578553D01*
X24325249Y7507919D01*
X24348944Y7479730D01*
X24352649Y7477264D01*
X24352651Y7477262D01*
X24425757Y7428599D01*
X24463518Y7403463D01*
X24490844Y7394926D01*
X24590641Y7363747D01*
X24590644Y7363747D01*
X24594893Y7362419D01*
X24599345Y7362337D01*
X24599347Y7362337D01*
X24667357Y7361090D01*
X24732507Y7359896D01*
X24736806Y7361068D01*
X24860997Y7394926D01*
X24861000Y7394927D01*
X24865298Y7396099D01*
X24869094Y7398430D01*
X24869097Y7398431D01*
X24978792Y7465785D01*
X24982590Y7468117D01*
X25074955Y7570160D01*
X25134967Y7694025D01*
X25136158Y7701099D01*
X25152545Y7798506D01*
X25157802Y7829755D01*
X25157947Y7841615D01*
X25138435Y7977862D01*
X25092298Y8079335D01*
X25083311Y8099101D01*
X25083310Y8099103D01*
X25081467Y8103156D01*
X24991623Y8207426D01*
X24876125Y8282287D01*
X24871861Y8283562D01*
X24871857Y8283564D01*
X24748527Y8320448D01*
X24748524Y8320448D01*
X24744259Y8321724D01*
X24676395Y8322139D01*
X24611077Y8322538D01*
X24611076Y8322538D01*
X24606624Y8322565D01*
X24474286Y8284742D01*
X24357882Y8211297D01*
X24354939Y8207965D01*
X24354937Y8207963D01*
X24297323Y8142727D01*
X24266771Y8108133D01*
X24264879Y8104103D01*
X24257524Y8088438D01*
X24222171Y8056213D01*
X24200949Y8052500D01*
X23851000Y8052500D01*
X23806806Y8070806D01*
X23788500Y8115000D01*
X23788500Y8162558D01*
X23786491Y8172659D01*
X23782303Y8193713D01*
X23782302Y8193715D01*
X23781102Y8199748D01*
X23752922Y8241922D01*
X23710748Y8270102D01*
X23704715Y8271302D01*
X23704713Y8271303D01*
X23676569Y8276901D01*
X23673558Y8277500D01*
X22098442Y8277500D01*
X22095431Y8276901D01*
X22067287Y8271303D01*
X22067285Y8271302D01*
X22061252Y8270102D01*
X22019078Y8241922D01*
X21990898Y8199748D01*
X21989698Y8193715D01*
X21989697Y8193713D01*
X21985509Y8172659D01*
X21983500Y8162558D01*
X21983500Y7537442D01*
X21419906Y7537442D01*
X21419906Y8390962D01*
X21417027Y8415156D01*
X21411645Y8427273D01*
X21377405Y8504360D01*
X21377404Y8504361D01*
X21375063Y8509632D01*
X21301900Y8582667D01*
X21254549Y8603601D01*
X21211650Y8622567D01*
X21211647Y8622568D01*
X21207351Y8624467D01*
X21202684Y8625011D01*
X21202681Y8625012D01*
X21191368Y8626331D01*
X21183636Y8627232D01*
X20801176Y8627232D01*
X20799346Y8627014D01*
X20799342Y8627014D01*
X20792759Y8626230D01*
X20776982Y8624353D01*
X20772696Y8622449D01*
X20772695Y8622449D01*
X20687778Y8584731D01*
X20687777Y8584730D01*
X20682506Y8582389D01*
X20609471Y8509226D01*
X20595778Y8478253D01*
X20569571Y8418976D01*
X20569570Y8418973D01*
X20567671Y8414677D01*
X20567127Y8410010D01*
X20567126Y8410007D01*
X20566088Y8401103D01*
X20564906Y8390962D01*
X20564906Y7283502D01*
X19519906Y7283502D01*
X19519906Y8390962D01*
X19517027Y8415156D01*
X19511645Y8427273D01*
X19477405Y8504360D01*
X19477404Y8504361D01*
X19475063Y8509632D01*
X19401900Y8582667D01*
X19354549Y8603601D01*
X19311650Y8622567D01*
X19311647Y8622568D01*
X19307351Y8624467D01*
X19296646Y8625715D01*
X19295730Y8625822D01*
X19253954Y8649124D01*
X19240470Y8687901D01*
X19240470Y8894070D01*
X19258776Y8938264D01*
X19302970Y8956570D01*
X19682028Y8956570D01*
X19687086Y8957576D01*
X19713183Y8962767D01*
X19713185Y8962768D01*
X19719218Y8963968D01*
X19761392Y8992148D01*
X19789572Y9034322D01*
X19790847Y9040727D01*
X19790853Y9040757D01*
X20025471Y9040757D01*
X20025690Y9037066D01*
X20028069Y9017053D01*
X20030525Y9008115D01*
X20072254Y8914173D01*
X20078680Y8904823D01*
X20150661Y8832967D01*
X20160025Y8826556D01*
X20254021Y8785001D01*
X20262996Y8782554D01*
X20282487Y8780282D01*
X20286127Y8780070D01*
X20785039Y8780070D01*
X20793829Y8783711D01*
X20797470Y8792501D01*
X20797470Y8792502D01*
X21101470Y8792502D01*
X21105111Y8783712D01*
X21113901Y8780071D01*
X21612783Y8780071D01*
X21616474Y8780290D01*
X21636487Y8782669D01*
X21645425Y8785125D01*
X21739367Y8826854D01*
X21748717Y8833280D01*
X21820573Y8905261D01*
X21826984Y8914625D01*
X21868539Y9008621D01*
X21870986Y9017596D01*
X21873258Y9037087D01*
X21873470Y9040727D01*
X21873470Y9669639D01*
X21869829Y9678429D01*
X21861039Y9682070D01*
X21113901Y9682070D01*
X21105111Y9678429D01*
X21101470Y9669639D01*
X21101470Y8792502D01*
X20797470Y8792502D01*
X20797470Y9669639D01*
X20793829Y9678429D01*
X20785039Y9682070D01*
X20037902Y9682070D01*
X20029112Y9678429D01*
X20025471Y9669639D01*
X20025471Y9040757D01*
X19790853Y9040757D01*
X19796371Y9068501D01*
X19796970Y9071512D01*
X19796970Y9998501D01*
X20025470Y9998501D01*
X20029111Y9989711D01*
X20037901Y9986070D01*
X20785039Y9986070D01*
X20793829Y9989711D01*
X20797470Y9998501D01*
X21101470Y9998501D01*
X21105111Y9989711D01*
X21113901Y9986070D01*
X21861038Y9986070D01*
X21869828Y9989711D01*
X21873469Y9998501D01*
X21873469Y10627383D01*
X21873250Y10631074D01*
X21870871Y10651087D01*
X21868415Y10660025D01*
X21826686Y10753967D01*
X21820260Y10763317D01*
X21748279Y10835173D01*
X21738915Y10841584D01*
X21644919Y10883139D01*
X21635944Y10885586D01*
X21616453Y10887858D01*
X21612813Y10888070D01*
X21113901Y10888070D01*
X21105111Y10884429D01*
X21101470Y10875639D01*
X21101470Y9998501D01*
X20797470Y9998501D01*
X20797470Y10875638D01*
X20793829Y10884428D01*
X20785039Y10888069D01*
X20286157Y10888069D01*
X20282466Y10887850D01*
X20262453Y10885471D01*
X20253515Y10883015D01*
X20159573Y10841286D01*
X20150223Y10834860D01*
X20078367Y10762879D01*
X20071956Y10753515D01*
X20030401Y10659519D01*
X20027954Y10650544D01*
X20025682Y10631053D01*
X20025470Y10627413D01*
X20025470Y9998501D01*
X19796970Y9998501D01*
X19796970Y10596628D01*
X19792736Y10617914D01*
X19790773Y10627783D01*
X19790772Y10627785D01*
X19789572Y10633818D01*
X19761392Y10675992D01*
X19719218Y10704172D01*
X19713185Y10705372D01*
X19713183Y10705373D01*
X19685039Y10710971D01*
X19682028Y10711570D01*
X18416912Y10711570D01*
X18413901Y10710971D01*
X18385757Y10705373D01*
X18385755Y10705372D01*
X18379722Y10704172D01*
X18337548Y10675992D01*
X18309368Y10633818D01*
X18308168Y10627785D01*
X18308167Y10627783D01*
X18306204Y10617914D01*
X18301970Y10596628D01*
X18301970Y9071512D01*
X18302569Y9068501D01*
X18308094Y9040727D01*
X18309368Y9034322D01*
X18337548Y8992148D01*
X18379722Y8963968D01*
X18385755Y8962768D01*
X18385757Y8962767D01*
X18411854Y8957576D01*
X18416912Y8956570D01*
X18795970Y8956570D01*
X18840164Y8938264D01*
X18858470Y8894070D01*
X18858470Y8656757D01*
X18840164Y8612563D01*
X18821340Y8599638D01*
X18787779Y8584732D01*
X18787775Y8584729D01*
X18782506Y8582389D01*
X18709471Y8509226D01*
X18695778Y8478253D01*
X18669571Y8418976D01*
X18669570Y8418973D01*
X18667671Y8414677D01*
X18667127Y8410010D01*
X18667126Y8410007D01*
X18666088Y8401103D01*
X18664906Y8390962D01*
X18664906Y7283502D01*
X18667785Y7259308D01*
X18669689Y7255022D01*
X18669689Y7255021D01*
X18704444Y7176776D01*
X18709749Y7164832D01*
X18782912Y7091797D01*
X18788185Y7089466D01*
X18788189Y7089463D01*
X18792206Y7087688D01*
X18825227Y7053078D01*
X18824102Y7005256D01*
X18811132Y6986330D01*
X18386167Y6561365D01*
X18341973Y6543059D01*
X18297779Y6561365D01*
X18279473Y6605559D01*
X18280578Y6614388D01*
X18280271Y6614425D01*
X18290485Y6698822D01*
X18290712Y6702593D01*
X18290712Y6802364D01*
X18287071Y6811154D01*
X18278281Y6814795D01*
X17676143Y6814795D01*
X17667353Y6811154D01*
X17663712Y6802364D01*
X17663712Y6225227D01*
X17667353Y6216437D01*
X17676143Y6212796D01*
X17800913Y6212796D01*
X17804685Y6213024D01*
X17889082Y6223236D01*
X17889337Y6221128D01*
X17929900Y6215249D01*
X17958524Y6176923D01*
X17951663Y6129582D01*
X17942142Y6117340D01*
X17837403Y6012601D01*
X17793209Y5994295D01*
X17548710Y5994295D01*
X17504516Y6012601D01*
X17369377Y6147740D01*
X17351071Y6191934D01*
X17355829Y6215852D01*
X17359712Y6225226D01*
X17359712Y6802364D01*
X17356071Y6811154D01*
X17347281Y6814795D01*
X16745144Y6814795D01*
X16736354Y6811154D01*
X16732713Y6802364D01*
X16732713Y6702594D01*
X16732941Y6698822D01*
X16742670Y6618412D01*
X16744631Y6610691D01*
X16794938Y6483629D01*
X16799084Y6476271D01*
X16864425Y6390187D01*
X16876564Y6343918D01*
X16852429Y6302617D01*
X16814642Y6289900D01*
X16617787Y6289900D01*
X16573593Y6308206D01*
X16555287Y6352400D01*
X16562099Y6380775D01*
X16586782Y6429218D01*
X16589786Y6438465D01*
X16598855Y6495722D01*
X16596634Y6504973D01*
X16591694Y6508000D01*
X14536632Y6508000D01*
X14527842Y6504359D01*
X14525625Y6499007D01*
X14535214Y6438460D01*
X14538217Y6429219D01*
X14562901Y6380775D01*
X14566654Y6333087D01*
X14535588Y6296712D01*
X14507213Y6289900D01*
X13955456Y6289900D01*
X13911262Y6308206D01*
X13892956Y6352400D01*
X13893491Y6360558D01*
X13900256Y6411945D01*
X13900791Y6416009D01*
X13899858Y6423099D01*
X13883427Y6547900D01*
X13895807Y6594106D01*
X13937234Y6618023D01*
X13946529Y6618548D01*
X14045939Y6616725D01*
X14091675Y6629194D01*
X14174429Y6651755D01*
X14174432Y6651756D01*
X14178730Y6652928D01*
X14182526Y6655259D01*
X14182529Y6655260D01*
X14292224Y6722614D01*
X14296022Y6724946D01*
X14388387Y6826989D01*
X14390328Y6830994D01*
X14390330Y6830998D01*
X14404717Y6860694D01*
X14440460Y6892485D01*
X14460963Y6895944D01*
X14464318Y6895944D01*
X14508512Y6877638D01*
X14526818Y6833444D01*
X14526108Y6824431D01*
X14528366Y6815027D01*
X14533306Y6812000D01*
X16588368Y6812000D01*
X16597158Y6815641D01*
X16599375Y6820993D01*
X16589786Y6881540D01*
X16586782Y6890784D01*
X16533150Y6996042D01*
X16527439Y7003903D01*
X16440425Y7090917D01*
X16441476Y7091968D01*
X16419538Y7127769D01*
X16419606Y7131226D01*
X16732712Y7131226D01*
X16736353Y7122436D01*
X16745143Y7118795D01*
X17347281Y7118795D01*
X17356071Y7122436D01*
X17359712Y7131226D01*
X17663712Y7131226D01*
X17667353Y7122436D01*
X17676143Y7118795D01*
X18278280Y7118795D01*
X18287070Y7122436D01*
X18290711Y7131226D01*
X18290711Y7230996D01*
X18290483Y7234768D01*
X18280754Y7315178D01*
X18278793Y7322899D01*
X18228486Y7449961D01*
X18224340Y7457319D01*
X18141865Y7565976D01*
X18135893Y7571948D01*
X18027236Y7654423D01*
X18019878Y7658569D01*
X17892817Y7708875D01*
X17885094Y7710837D01*
X17804685Y7720568D01*
X17800914Y7720795D01*
X17676143Y7720795D01*
X17667353Y7717154D01*
X17663712Y7708364D01*
X17663712Y7131226D01*
X17359712Y7131226D01*
X17359712Y7708363D01*
X17356071Y7717153D01*
X17347281Y7720794D01*
X17222511Y7720794D01*
X17218739Y7720566D01*
X17138329Y7710837D01*
X17130608Y7708876D01*
X17003546Y7658569D01*
X16996188Y7654423D01*
X16887531Y7571948D01*
X16881559Y7565976D01*
X16799084Y7457319D01*
X16794938Y7449961D01*
X16744632Y7322900D01*
X16742670Y7315177D01*
X16732939Y7234768D01*
X16732712Y7230997D01*
X16732712Y7131226D01*
X16419606Y7131226D01*
X16419970Y7149738D01*
X16426901Y7184581D01*
X16426901Y7184584D01*
X16427500Y7187594D01*
X16427500Y7432406D01*
X16422545Y7457319D01*
X16418577Y7477262D01*
X16414300Y7498766D01*
X16409008Y7506687D01*
X16373579Y7559709D01*
X16364018Y7574018D01*
X16350526Y7583033D01*
X16323950Y7622807D01*
X16333282Y7669723D01*
X16350526Y7686967D01*
X16358901Y7692563D01*
X16364018Y7695982D01*
X16382797Y7724086D01*
X16410880Y7766115D01*
X16410881Y7766117D01*
X16414300Y7771234D01*
X16422857Y7814251D01*
X16426901Y7834581D01*
X16426901Y7834584D01*
X16427500Y7837594D01*
X16427500Y7998142D01*
X16445806Y8042336D01*
X17202365Y8798895D01*
X17208970Y8803576D01*
X17208584Y8804061D01*
X17214095Y8808444D01*
X17220437Y8811490D01*
X17224830Y8816984D01*
X17224832Y8816985D01*
X17240142Y8836130D01*
X17244759Y8841289D01*
X17250469Y8846999D01*
X17254580Y8853540D01*
X17258685Y8859316D01*
X17273743Y8878145D01*
X17273744Y8878148D01*
X17278139Y8883643D01*
X17279716Y8890501D01*
X17281824Y8894862D01*
X17283425Y8899434D01*
X17287171Y8905393D01*
X17289309Y8924300D01*
X17290670Y8936338D01*
X17291863Y8943320D01*
X17292843Y8947584D01*
X17293636Y8951033D01*
X17293636Y8959059D01*
X17294032Y8966080D01*
X17296759Y8990201D01*
X17297550Y8997197D01*
X17295229Y9003842D01*
X17294445Y9010838D01*
X17295010Y9010901D01*
X17293636Y9019006D01*
X17293636Y10656359D01*
X17311942Y10700553D01*
X17980786Y11369397D01*
X18024980Y11387703D01*
X20435005Y11387703D01*
X20442985Y11386343D01*
X20443055Y11386958D01*
X20450052Y11386161D01*
X20456690Y11383830D01*
X20488057Y11387321D01*
X20494953Y11387703D01*
X20503034Y11387703D01*
X20510578Y11389424D01*
X20517547Y11390603D01*
X20548511Y11394049D01*
X20554478Y11397785D01*
X20559055Y11399379D01*
X20563414Y11401477D01*
X20570277Y11403042D01*
X20594634Y11422451D01*
X20600418Y11426546D01*
X20604125Y11428867D01*
X20604127Y11428869D01*
X20607121Y11430743D01*
X20612792Y11436414D01*
X20618036Y11441099D01*
X20624742Y11446443D01*
X20642531Y11460618D01*
X20645590Y11466960D01*
X20649979Y11472458D01*
X20650424Y11472103D01*
X20655184Y11478806D01*
X21021915Y11845537D01*
X21066109Y11863843D01*
X21096600Y11855901D01*
X21196765Y11799921D01*
X21199669Y11798977D01*
X21199670Y11798977D01*
X21376168Y11741629D01*
X21376173Y11741628D01*
X21379081Y11740683D01*
X21569430Y11717985D01*
X21572472Y11718219D01*
X21572475Y11718219D01*
X21757514Y11732457D01*
X21757519Y11732458D01*
X21760562Y11732692D01*
X21780873Y11738363D01*
X21942260Y11783423D01*
X21942264Y11783424D01*
X21945199Y11784244D01*
X22116305Y11870676D01*
X22118703Y11872549D01*
X22118707Y11872552D01*
X22217406Y11949665D01*
X22267365Y11988697D01*
X22269362Y11991010D01*
X22390630Y12131500D01*
X22390634Y12131505D01*
X22392624Y12133811D01*
X22405254Y12156043D01*
X22485801Y12297830D01*
X22485803Y12297835D01*
X22487312Y12300491D01*
X22547821Y12482388D01*
X22552542Y12519753D01*
X22554409Y12534530D01*
X22984288Y12534530D01*
X22985137Y12521566D01*
X22986031Y12515920D01*
X23036826Y12315911D01*
X23038729Y12310538D01*
X23125126Y12123129D01*
X23127977Y12118190D01*
X23247079Y11949665D01*
X23250784Y11945328D01*
X23398602Y11801329D01*
X23403035Y11797740D01*
X23574617Y11683093D01*
X23579633Y11680369D01*
X23769240Y11598908D01*
X23774657Y11597148D01*
X23965875Y11553880D01*
X23975252Y11555491D01*
X23978000Y11559379D01*
X23978000Y11568320D01*
X24282000Y11568320D01*
X24285641Y11559530D01*
X24291208Y11557224D01*
X24397714Y11572667D01*
X24403263Y11573999D01*
X24598672Y11640331D01*
X24603884Y11642652D01*
X24783933Y11743484D01*
X24788635Y11746715D01*
X24947299Y11878675D01*
X24951325Y11882701D01*
X25083285Y12041365D01*
X25086516Y12046067D01*
X25187348Y12226116D01*
X25189669Y12231328D01*
X25256001Y12426737D01*
X25257333Y12432286D01*
X25272327Y12535696D01*
X25269985Y12544918D01*
X25264805Y12548000D01*
X24294431Y12548000D01*
X24285641Y12544359D01*
X24282000Y12535569D01*
X24282000Y11568320D01*
X23978000Y11568320D01*
X23978000Y12535569D01*
X23974359Y12544359D01*
X23965569Y12548000D01*
X22995836Y12548000D01*
X22988161Y12544821D01*
X22984288Y12534530D01*
X22554409Y12534530D01*
X22571627Y12670833D01*
X22571627Y12670834D01*
X22571847Y12672575D01*
X22572159Y12694928D01*
X22572206Y12698262D01*
X22572206Y12698267D01*
X22572230Y12700000D01*
X22571827Y12704117D01*
X22556116Y12864345D01*
X22987314Y12864345D01*
X22989897Y12855189D01*
X22995591Y12852000D01*
X23965569Y12852000D01*
X23974359Y12855641D01*
X23978000Y12864431D01*
X23978000Y13832446D01*
X23974359Y13841236D01*
X23969214Y13843367D01*
X23832873Y13819940D01*
X23827350Y13818461D01*
X23633750Y13747038D01*
X23628601Y13744582D01*
X23451255Y13639072D01*
X23446633Y13635713D01*
X23291488Y13499655D01*
X23287555Y13495510D01*
X23159804Y13333459D01*
X23156694Y13328670D01*
X23060606Y13146039D01*
X23058427Y13140779D01*
X22997230Y12943689D01*
X22996046Y12938118D01*
X22987314Y12864345D01*
X22556116Y12864345D01*
X22553822Y12887743D01*
X22553524Y12890783D01*
X22498117Y13074299D01*
X22408120Y13243558D01*
X22286962Y13392113D01*
X22139256Y13514306D01*
X21970629Y13605482D01*
X21836518Y13646996D01*
X21799714Y13677552D01*
X21792500Y13706701D01*
X21792500Y14234169D01*
X21810806Y14278363D01*
X21838191Y14294366D01*
X21887473Y14308126D01*
X21942260Y14323423D01*
X21942264Y14323424D01*
X21945199Y14324244D01*
X22116305Y14410676D01*
X22118703Y14412549D01*
X22118707Y14412552D01*
X22197523Y14474131D01*
X22267365Y14528697D01*
X22269362Y14531010D01*
X22390630Y14671500D01*
X22390634Y14671505D01*
X22392624Y14673811D01*
X22412000Y14707918D01*
X22485801Y14837830D01*
X22485803Y14837835D01*
X22487312Y14840491D01*
X22547821Y15022388D01*
X22565184Y15159833D01*
X22588884Y15201385D01*
X22627191Y15214500D01*
X22916576Y15214500D01*
X22960770Y15196194D01*
G37*
%TD.AperFunction*%
%TD*%
M02*
