%TF.GenerationSoftware,KiCad,Pcbnew,7.0.3*%
%TF.CreationDate,2023-05-19T16:22:07-07:00*%
%TF.ProjectId,StemmaG0,5374656d-6d61-4473-902e-6b696361645f,rev?*%
%TF.SameCoordinates,Original*%
%TF.FileFunction,Paste,Top*%
%TF.FilePolarity,Positive*%
%FSLAX46Y46*%
G04 Gerber Fmt 4.6, Leading zero omitted, Abs format (unit mm)*
G04 Created by KiCad (PCBNEW 7.0.3) date 2023-05-19 16:22:07*
%MOMM*%
%LPD*%
G01*
G04 APERTURE LIST*
G04 Aperture macros list*
%AMRoundRect*
0 Rectangle with rounded corners*
0 $1 Rounding radius*
0 $2 $3 $4 $5 $6 $7 $8 $9 X,Y pos of 4 corners*
0 Add a 4 corners polygon primitive as box body*
4,1,4,$2,$3,$4,$5,$6,$7,$8,$9,$2,$3,0*
0 Add four circle primitives for the rounded corners*
1,1,$1+$1,$2,$3*
1,1,$1+$1,$4,$5*
1,1,$1+$1,$6,$7*
1,1,$1+$1,$8,$9*
0 Add four rect primitives between the rounded corners*
20,1,$1+$1,$2,$3,$4,$5,0*
20,1,$1+$1,$4,$5,$6,$7,0*
20,1,$1+$1,$6,$7,$8,$9,0*
20,1,$1+$1,$8,$9,$2,$3,0*%
G04 Aperture macros list end*
%ADD10RoundRect,0.200000X0.200000X0.275000X-0.200000X0.275000X-0.200000X-0.275000X0.200000X-0.275000X0*%
%ADD11R,0.500000X0.800000*%
%ADD12R,0.400000X0.800000*%
%ADD13R,0.500000X0.500000*%
%ADD14R,0.500000X0.400000*%
%ADD15RoundRect,0.218750X-0.218750X-0.256250X0.218750X-0.256250X0.218750X0.256250X-0.218750X0.256250X0*%
%ADD16R,1.550000X0.600000*%
%ADD17R,1.800000X1.200000*%
%ADD18RoundRect,0.218750X0.218750X0.256250X-0.218750X0.256250X-0.218750X-0.256250X0.218750X-0.256250X0*%
%ADD19RoundRect,0.100000X0.637500X0.100000X-0.637500X0.100000X-0.637500X-0.100000X0.637500X-0.100000X0*%
%ADD20RoundRect,0.150000X0.150000X-0.512500X0.150000X0.512500X-0.150000X0.512500X-0.150000X-0.512500X0*%
%ADD21RoundRect,0.225000X0.250000X-0.225000X0.250000X0.225000X-0.250000X0.225000X-0.250000X-0.225000X0*%
%ADD22R,1.240000X1.500000*%
%ADD23RoundRect,0.200000X-0.200000X-0.275000X0.200000X-0.275000X0.200000X0.275000X-0.200000X0.275000X0*%
G04 APERTURE END LIST*
D10*
%TO.C,R1*%
X4982314Y10142017D03*
X3332314Y10142017D03*
%TD*%
D11*
%TO.C,R3*%
X7514279Y8689342D03*
D12*
X6714279Y8689342D03*
X5914279Y8689342D03*
D11*
X5114279Y8689342D03*
X5114279Y6889342D03*
D12*
X5914279Y6889342D03*
X6714279Y6889342D03*
D11*
X7514279Y6889342D03*
%TD*%
D13*
%TO.C,Q2*%
X6948888Y4131035D03*
D14*
X6948888Y4881035D03*
D13*
X6948888Y5631035D03*
X5148888Y5631035D03*
D14*
X5148888Y4881035D03*
D13*
X5148888Y4131035D03*
%TD*%
D15*
%TO.C,D1*%
X355500Y10160000D03*
X1930500Y10160000D03*
%TD*%
D16*
%TO.C,CONN3*%
X22886000Y4850000D03*
X22886000Y5850000D03*
X22886000Y6850000D03*
X22886000Y7850000D03*
D17*
X26786000Y3550000D03*
X26786000Y9150000D03*
%TD*%
D18*
%TO.C,D2*%
X9166861Y2688827D03*
X7591861Y2688827D03*
%TD*%
D19*
%TO.C,U1*%
X15562500Y4060000D03*
X15562500Y4710000D03*
X15562500Y5360000D03*
X15562500Y6010000D03*
X15562500Y6660000D03*
X15562500Y7310000D03*
X15562500Y7960000D03*
X15562500Y8610000D03*
X15562500Y9260000D03*
X15562500Y9910000D03*
X9837500Y9910000D03*
X9837500Y9260000D03*
X9837500Y8610000D03*
X9837500Y7960000D03*
X9837500Y7310000D03*
X9837500Y6660000D03*
X9837500Y6010000D03*
X9837500Y5360000D03*
X9837500Y4710000D03*
X9837500Y4060000D03*
%TD*%
D20*
%TO.C,U2*%
X19092406Y5562232D03*
X20042406Y5562232D03*
X20992406Y5562232D03*
X20992406Y7837232D03*
X19092406Y7837232D03*
%TD*%
D21*
%TO.C,C1*%
X17511712Y5416795D03*
X17511712Y6966795D03*
%TD*%
D22*
%TO.C,C3*%
X19049470Y9834070D03*
X20949470Y9834070D03*
%TD*%
D16*
%TO.C,CONN4*%
X2514000Y7850000D03*
X2514000Y6850000D03*
X2514000Y5850000D03*
X2514000Y4850000D03*
D17*
X-1386000Y9150000D03*
X-1386000Y3550000D03*
%TD*%
D22*
%TO.C,C2*%
X19436530Y3157500D03*
X21336530Y3157500D03*
%TD*%
D23*
%TO.C,R2*%
X10620307Y2624251D03*
X12270307Y2624251D03*
%TD*%
M02*
