%TF.GenerationSoftware,KiCad,Pcbnew,7.0.3*%
%TF.CreationDate,2023-05-19T16:22:07-07:00*%
%TF.ProjectId,StemmaG0,5374656d-6d61-4473-902e-6b696361645f,rev?*%
%TF.SameCoordinates,Original*%
%TF.FileFunction,Legend,Top*%
%TF.FilePolarity,Positive*%
%FSLAX46Y46*%
G04 Gerber Fmt 4.6, Leading zero omitted, Abs format (unit mm)*
G04 Created by KiCad (PCBNEW 7.0.3) date 2023-05-19 16:22:07*
%MOMM*%
%LPD*%
G01*
G04 APERTURE LIST*
G04 Aperture macros list*
%AMRoundRect*
0 Rectangle with rounded corners*
0 $1 Rounding radius*
0 $2 $3 $4 $5 $6 $7 $8 $9 X,Y pos of 4 corners*
0 Add a 4 corners polygon primitive as box body*
4,1,4,$2,$3,$4,$5,$6,$7,$8,$9,$2,$3,0*
0 Add four circle primitives for the rounded corners*
1,1,$1+$1,$2,$3*
1,1,$1+$1,$4,$5*
1,1,$1+$1,$6,$7*
1,1,$1+$1,$8,$9*
0 Add four rect primitives between the rounded corners*
20,1,$1+$1,$2,$3,$4,$5,0*
20,1,$1+$1,$4,$5,$6,$7,0*
20,1,$1+$1,$6,$7,$8,$9,0*
20,1,$1+$1,$8,$9,$2,$3,0*%
G04 Aperture macros list end*
%ADD10C,0.150000*%
%ADD11C,0.120000*%
%ADD12C,0.203200*%
%ADD13C,0.152400*%
%ADD14C,0.304800*%
%ADD15C,0.010000*%
%ADD16RoundRect,0.200000X0.200000X0.275000X-0.200000X0.275000X-0.200000X-0.275000X0.200000X-0.275000X0*%
%ADD17C,1.700000*%
%ADD18O,1.700000X1.700000*%
%ADD19C,1.152000*%
%ADD20R,0.500000X0.800000*%
%ADD21R,0.400000X0.800000*%
%ADD22RoundRect,0.050800X0.250000X-0.250000X0.250000X0.250000X-0.250000X0.250000X-0.250000X-0.250000X0*%
%ADD23RoundRect,0.050800X0.250000X-0.200000X0.250000X0.200000X-0.250000X0.200000X-0.250000X-0.200000X0*%
%ADD24RoundRect,0.218750X-0.218750X-0.256250X0.218750X-0.256250X0.218750X0.256250X-0.218750X0.256250X0*%
%ADD25C,3.301600*%
%ADD26RoundRect,0.050800X0.775000X0.300000X-0.775000X0.300000X-0.775000X-0.300000X0.775000X-0.300000X0*%
%ADD27RoundRect,0.050800X0.900000X0.600000X-0.900000X0.600000X-0.900000X-0.600000X0.900000X-0.600000X0*%
%ADD28RoundRect,0.218750X0.218750X0.256250X-0.218750X0.256250X-0.218750X-0.256250X0.218750X-0.256250X0*%
%ADD29RoundRect,0.100000X0.637500X0.100000X-0.637500X0.100000X-0.637500X-0.100000X0.637500X-0.100000X0*%
%ADD30RoundRect,0.150000X0.150000X-0.512500X0.150000X0.512500X-0.150000X0.512500X-0.150000X-0.512500X0*%
%ADD31RoundRect,0.225000X0.250000X-0.225000X0.250000X0.225000X-0.250000X0.225000X-0.250000X-0.225000X0*%
%ADD32RoundRect,0.050800X-0.620000X-0.750000X0.620000X-0.750000X0.620000X0.750000X-0.620000X0.750000X0*%
%ADD33RoundRect,0.050800X-0.775000X-0.300000X0.775000X-0.300000X0.775000X0.300000X-0.775000X0.300000X0*%
%ADD34RoundRect,0.050800X-0.900000X-0.600000X0.900000X-0.600000X0.900000X0.600000X-0.900000X0.600000X0*%
%ADD35RoundRect,0.200000X-0.200000X-0.275000X0.200000X-0.275000X0.200000X0.275000X-0.200000X0.275000X0*%
G04 APERTURE END LIST*
D10*
X21098208Y10686705D02*
X21098208Y11486705D01*
X21098208Y11486705D02*
X21402970Y11486705D01*
X21402970Y11486705D02*
X21479160Y11448610D01*
X21479160Y11448610D02*
X21517255Y11410515D01*
X21517255Y11410515D02*
X21555351Y11334324D01*
X21555351Y11334324D02*
X21555351Y11220039D01*
X21555351Y11220039D02*
X21517255Y11143848D01*
X21517255Y11143848D02*
X21479160Y11105753D01*
X21479160Y11105753D02*
X21402970Y11067658D01*
X21402970Y11067658D02*
X21098208Y11067658D01*
X22050589Y11486705D02*
X22126779Y11486705D01*
X22126779Y11486705D02*
X22202970Y11448610D01*
X22202970Y11448610D02*
X22241065Y11410515D01*
X22241065Y11410515D02*
X22279160Y11334324D01*
X22279160Y11334324D02*
X22317255Y11181943D01*
X22317255Y11181943D02*
X22317255Y10991467D01*
X22317255Y10991467D02*
X22279160Y10839086D01*
X22279160Y10839086D02*
X22241065Y10762896D01*
X22241065Y10762896D02*
X22202970Y10724800D01*
X22202970Y10724800D02*
X22126779Y10686705D01*
X22126779Y10686705D02*
X22050589Y10686705D01*
X22050589Y10686705D02*
X21974398Y10724800D01*
X21974398Y10724800D02*
X21936303Y10762896D01*
X21936303Y10762896D02*
X21898208Y10839086D01*
X21898208Y10839086D02*
X21860112Y10991467D01*
X21860112Y10991467D02*
X21860112Y11181943D01*
X21860112Y11181943D02*
X21898208Y11334324D01*
X21898208Y11334324D02*
X21936303Y11410515D01*
X21936303Y11410515D02*
X21974398Y11448610D01*
X21974398Y11448610D02*
X22050589Y11486705D01*
X8036302Y1184051D02*
X8150588Y1145956D01*
X8150588Y1145956D02*
X8341064Y1145956D01*
X8341064Y1145956D02*
X8417255Y1184051D01*
X8417255Y1184051D02*
X8455350Y1222147D01*
X8455350Y1222147D02*
X8493445Y1298337D01*
X8493445Y1298337D02*
X8493445Y1374528D01*
X8493445Y1374528D02*
X8455350Y1450718D01*
X8455350Y1450718D02*
X8417255Y1488813D01*
X8417255Y1488813D02*
X8341064Y1526909D01*
X8341064Y1526909D02*
X8188683Y1565004D01*
X8188683Y1565004D02*
X8112493Y1603099D01*
X8112493Y1603099D02*
X8074398Y1641194D01*
X8074398Y1641194D02*
X8036302Y1717385D01*
X8036302Y1717385D02*
X8036302Y1793575D01*
X8036302Y1793575D02*
X8074398Y1869766D01*
X8074398Y1869766D02*
X8112493Y1907861D01*
X8112493Y1907861D02*
X8188683Y1945956D01*
X8188683Y1945956D02*
X8379160Y1945956D01*
X8379160Y1945956D02*
X8493445Y1907861D01*
X9293446Y1222147D02*
X9255350Y1184051D01*
X9255350Y1184051D02*
X9141065Y1145956D01*
X9141065Y1145956D02*
X9064874Y1145956D01*
X9064874Y1145956D02*
X8950588Y1184051D01*
X8950588Y1184051D02*
X8874398Y1260242D01*
X8874398Y1260242D02*
X8836303Y1336432D01*
X8836303Y1336432D02*
X8798207Y1488813D01*
X8798207Y1488813D02*
X8798207Y1603099D01*
X8798207Y1603099D02*
X8836303Y1755480D01*
X8836303Y1755480D02*
X8874398Y1831671D01*
X8874398Y1831671D02*
X8950588Y1907861D01*
X8950588Y1907861D02*
X9064874Y1945956D01*
X9064874Y1945956D02*
X9141065Y1945956D01*
X9141065Y1945956D02*
X9255350Y1907861D01*
X9255350Y1907861D02*
X9293446Y1869766D01*
X10017255Y1145956D02*
X9636303Y1145956D01*
X9636303Y1145956D02*
X9636303Y1945956D01*
X23619160Y11448610D02*
X23542970Y11486705D01*
X23542970Y11486705D02*
X23428684Y11486705D01*
X23428684Y11486705D02*
X23314398Y11448610D01*
X23314398Y11448610D02*
X23238208Y11372420D01*
X23238208Y11372420D02*
X23200113Y11296229D01*
X23200113Y11296229D02*
X23162017Y11143848D01*
X23162017Y11143848D02*
X23162017Y11029562D01*
X23162017Y11029562D02*
X23200113Y10877181D01*
X23200113Y10877181D02*
X23238208Y10800991D01*
X23238208Y10800991D02*
X23314398Y10724800D01*
X23314398Y10724800D02*
X23428684Y10686705D01*
X23428684Y10686705D02*
X23504875Y10686705D01*
X23504875Y10686705D02*
X23619160Y10724800D01*
X23619160Y10724800D02*
X23657256Y10762896D01*
X23657256Y10762896D02*
X23657256Y11029562D01*
X23657256Y11029562D02*
X23504875Y11029562D01*
X24000113Y10686705D02*
X24000113Y11486705D01*
X24000113Y11486705D02*
X24457256Y10686705D01*
X24457256Y10686705D02*
X24457256Y11486705D01*
X24838208Y10686705D02*
X24838208Y11486705D01*
X24838208Y11486705D02*
X25028684Y11486705D01*
X25028684Y11486705D02*
X25142970Y11448610D01*
X25142970Y11448610D02*
X25219160Y11372420D01*
X25219160Y11372420D02*
X25257255Y11296229D01*
X25257255Y11296229D02*
X25295351Y11143848D01*
X25295351Y11143848D02*
X25295351Y11029562D01*
X25295351Y11029562D02*
X25257255Y10877181D01*
X25257255Y10877181D02*
X25219160Y10800991D01*
X25219160Y10800991D02*
X25142970Y10724800D01*
X25142970Y10724800D02*
X25028684Y10686705D01*
X25028684Y10686705D02*
X24838208Y10686705D01*
X10938208Y10686705D02*
X10938208Y11486705D01*
X10938208Y11486705D02*
X11242970Y11486705D01*
X11242970Y11486705D02*
X11319160Y11448610D01*
X11319160Y11448610D02*
X11357255Y11410515D01*
X11357255Y11410515D02*
X11395351Y11334324D01*
X11395351Y11334324D02*
X11395351Y11220039D01*
X11395351Y11220039D02*
X11357255Y11143848D01*
X11357255Y11143848D02*
X11319160Y11105753D01*
X11319160Y11105753D02*
X11242970Y11067658D01*
X11242970Y11067658D02*
X10938208Y11067658D01*
X12081065Y11220039D02*
X12081065Y10686705D01*
X11890589Y11524800D02*
X11700112Y10953372D01*
X11700112Y10953372D02*
X12195351Y10953372D01*
X5858208Y10686705D02*
X5858208Y11486705D01*
X5858208Y11486705D02*
X6162970Y11486705D01*
X6162970Y11486705D02*
X6239160Y11448610D01*
X6239160Y11448610D02*
X6277255Y11410515D01*
X6277255Y11410515D02*
X6315351Y11334324D01*
X6315351Y11334324D02*
X6315351Y11220039D01*
X6315351Y11220039D02*
X6277255Y11143848D01*
X6277255Y11143848D02*
X6239160Y11105753D01*
X6239160Y11105753D02*
X6162970Y11067658D01*
X6162970Y11067658D02*
X5858208Y11067658D01*
X7001065Y11486705D02*
X6848684Y11486705D01*
X6848684Y11486705D02*
X6772493Y11448610D01*
X6772493Y11448610D02*
X6734398Y11410515D01*
X6734398Y11410515D02*
X6658208Y11296229D01*
X6658208Y11296229D02*
X6620112Y11143848D01*
X6620112Y11143848D02*
X6620112Y10839086D01*
X6620112Y10839086D02*
X6658208Y10762896D01*
X6658208Y10762896D02*
X6696303Y10724800D01*
X6696303Y10724800D02*
X6772493Y10686705D01*
X6772493Y10686705D02*
X6924874Y10686705D01*
X6924874Y10686705D02*
X7001065Y10724800D01*
X7001065Y10724800D02*
X7039160Y10762896D01*
X7039160Y10762896D02*
X7077255Y10839086D01*
X7077255Y10839086D02*
X7077255Y11029562D01*
X7077255Y11029562D02*
X7039160Y11105753D01*
X7039160Y11105753D02*
X7001065Y11143848D01*
X7001065Y11143848D02*
X6924874Y11181943D01*
X6924874Y11181943D02*
X6772493Y11181943D01*
X6772493Y11181943D02*
X6696303Y11143848D01*
X6696303Y11143848D02*
X6658208Y11105753D01*
X6658208Y11105753D02*
X6620112Y11029562D01*
X10557255Y1199800D02*
X10671541Y1161705D01*
X10671541Y1161705D02*
X10862017Y1161705D01*
X10862017Y1161705D02*
X10938208Y1199800D01*
X10938208Y1199800D02*
X10976303Y1237896D01*
X10976303Y1237896D02*
X11014398Y1314086D01*
X11014398Y1314086D02*
X11014398Y1390277D01*
X11014398Y1390277D02*
X10976303Y1466467D01*
X10976303Y1466467D02*
X10938208Y1504562D01*
X10938208Y1504562D02*
X10862017Y1542658D01*
X10862017Y1542658D02*
X10709636Y1580753D01*
X10709636Y1580753D02*
X10633446Y1618848D01*
X10633446Y1618848D02*
X10595351Y1656943D01*
X10595351Y1656943D02*
X10557255Y1733134D01*
X10557255Y1733134D02*
X10557255Y1809324D01*
X10557255Y1809324D02*
X10595351Y1885515D01*
X10595351Y1885515D02*
X10633446Y1923610D01*
X10633446Y1923610D02*
X10709636Y1961705D01*
X10709636Y1961705D02*
X10900113Y1961705D01*
X10900113Y1961705D02*
X11014398Y1923610D01*
X11357256Y1161705D02*
X11357256Y1961705D01*
X11357256Y1961705D02*
X11547732Y1961705D01*
X11547732Y1961705D02*
X11662018Y1923610D01*
X11662018Y1923610D02*
X11738208Y1847420D01*
X11738208Y1847420D02*
X11776303Y1771229D01*
X11776303Y1771229D02*
X11814399Y1618848D01*
X11814399Y1618848D02*
X11814399Y1504562D01*
X11814399Y1504562D02*
X11776303Y1352181D01*
X11776303Y1352181D02*
X11738208Y1275991D01*
X11738208Y1275991D02*
X11662018Y1199800D01*
X11662018Y1199800D02*
X11547732Y1161705D01*
X11547732Y1161705D02*
X11357256Y1161705D01*
X12119160Y1390277D02*
X12500113Y1390277D01*
X12042970Y1161705D02*
X12309637Y1961705D01*
X12309637Y1961705D02*
X12576303Y1161705D01*
X18196302Y1390277D02*
X18577255Y1390277D01*
X18120112Y1161705D02*
X18386779Y1961705D01*
X18386779Y1961705D02*
X18653445Y1161705D01*
X19339159Y1161705D02*
X18882016Y1161705D01*
X19110588Y1161705D02*
X19110588Y1961705D01*
X19110588Y1961705D02*
X19034397Y1847420D01*
X19034397Y1847420D02*
X18958207Y1771229D01*
X18958207Y1771229D02*
X18882016Y1733134D01*
X20101064Y1161705D02*
X19643921Y1161705D01*
X19872493Y1161705D02*
X19872493Y1961705D01*
X19872493Y1961705D02*
X19796302Y1847420D01*
X19796302Y1847420D02*
X19720112Y1771229D01*
X19720112Y1771229D02*
X19643921Y1733134D01*
X18558208Y10686705D02*
X18558208Y11486705D01*
X18558208Y11486705D02*
X18862970Y11486705D01*
X18862970Y11486705D02*
X18939160Y11448610D01*
X18939160Y11448610D02*
X18977255Y11410515D01*
X18977255Y11410515D02*
X19015351Y11334324D01*
X19015351Y11334324D02*
X19015351Y11220039D01*
X19015351Y11220039D02*
X18977255Y11143848D01*
X18977255Y11143848D02*
X18939160Y11105753D01*
X18939160Y11105753D02*
X18862970Y11067658D01*
X18862970Y11067658D02*
X18558208Y11067658D01*
X19777255Y10686705D02*
X19320112Y10686705D01*
X19548684Y10686705D02*
X19548684Y11486705D01*
X19548684Y11486705D02*
X19472493Y11372420D01*
X19472493Y11372420D02*
X19396303Y11296229D01*
X19396303Y11296229D02*
X19320112Y11258134D01*
X8398208Y10686705D02*
X8398208Y11486705D01*
X8398208Y11486705D02*
X8702970Y11486705D01*
X8702970Y11486705D02*
X8779160Y11448610D01*
X8779160Y11448610D02*
X8817255Y11410515D01*
X8817255Y11410515D02*
X8855351Y11334324D01*
X8855351Y11334324D02*
X8855351Y11220039D01*
X8855351Y11220039D02*
X8817255Y11143848D01*
X8817255Y11143848D02*
X8779160Y11105753D01*
X8779160Y11105753D02*
X8702970Y11067658D01*
X8702970Y11067658D02*
X8398208Y11067658D01*
X9579160Y11486705D02*
X9198208Y11486705D01*
X9198208Y11486705D02*
X9160112Y11105753D01*
X9160112Y11105753D02*
X9198208Y11143848D01*
X9198208Y11143848D02*
X9274398Y11181943D01*
X9274398Y11181943D02*
X9464874Y11181943D01*
X9464874Y11181943D02*
X9541065Y11143848D01*
X9541065Y11143848D02*
X9579160Y11105753D01*
X9579160Y11105753D02*
X9617255Y11029562D01*
X9617255Y11029562D02*
X9617255Y10839086D01*
X9617255Y10839086D02*
X9579160Y10762896D01*
X9579160Y10762896D02*
X9541065Y10724800D01*
X9541065Y10724800D02*
X9464874Y10686705D01*
X9464874Y10686705D02*
X9274398Y10686705D01*
X9274398Y10686705D02*
X9198208Y10724800D01*
X9198208Y10724800D02*
X9160112Y10762896D01*
X3318208Y10686705D02*
X3318208Y11486705D01*
X3318208Y11486705D02*
X3622970Y11486705D01*
X3622970Y11486705D02*
X3699160Y11448610D01*
X3699160Y11448610D02*
X3737255Y11410515D01*
X3737255Y11410515D02*
X3775351Y11334324D01*
X3775351Y11334324D02*
X3775351Y11220039D01*
X3775351Y11220039D02*
X3737255Y11143848D01*
X3737255Y11143848D02*
X3699160Y11105753D01*
X3699160Y11105753D02*
X3622970Y11067658D01*
X3622970Y11067658D02*
X3318208Y11067658D01*
X4042017Y11486705D02*
X4575351Y11486705D01*
X4575351Y11486705D02*
X4232493Y10686705D01*
X3089636Y1961705D02*
X3356303Y1161705D01*
X3356303Y1161705D02*
X3622969Y1961705D01*
X3889636Y1161705D02*
X3889636Y1695039D01*
X3889636Y1961705D02*
X3851540Y1923610D01*
X3851540Y1923610D02*
X3889636Y1885515D01*
X3889636Y1885515D02*
X3927731Y1923610D01*
X3927731Y1923610D02*
X3889636Y1961705D01*
X3889636Y1961705D02*
X3889636Y1885515D01*
X4270588Y1695039D02*
X4270588Y1161705D01*
X4270588Y1618848D02*
X4308683Y1656943D01*
X4308683Y1656943D02*
X4384873Y1695039D01*
X4384873Y1695039D02*
X4499159Y1695039D01*
X4499159Y1695039D02*
X4575350Y1656943D01*
X4575350Y1656943D02*
X4613445Y1580753D01*
X4613445Y1580753D02*
X4613445Y1161705D01*
X15656302Y1390277D02*
X16037255Y1390277D01*
X15580112Y1161705D02*
X15846779Y1961705D01*
X15846779Y1961705D02*
X16113445Y1161705D01*
X16799159Y1161705D02*
X16342016Y1161705D01*
X16570588Y1161705D02*
X16570588Y1961705D01*
X16570588Y1961705D02*
X16494397Y1847420D01*
X16494397Y1847420D02*
X16418207Y1771229D01*
X16418207Y1771229D02*
X16342016Y1733134D01*
X17103921Y1885515D02*
X17142017Y1923610D01*
X17142017Y1923610D02*
X17218207Y1961705D01*
X17218207Y1961705D02*
X17408683Y1961705D01*
X17408683Y1961705D02*
X17484874Y1923610D01*
X17484874Y1923610D02*
X17522969Y1885515D01*
X17522969Y1885515D02*
X17561064Y1809324D01*
X17561064Y1809324D02*
X17561064Y1733134D01*
X17561064Y1733134D02*
X17522969Y1618848D01*
X17522969Y1618848D02*
X17065826Y1161705D01*
X17065826Y1161705D02*
X17561064Y1161705D01*
X21117255Y1390277D02*
X21498208Y1390277D01*
X21041065Y1161705D02*
X21307732Y1961705D01*
X21307732Y1961705D02*
X21574398Y1161705D01*
X21955350Y1618848D02*
X21879160Y1656943D01*
X21879160Y1656943D02*
X21841065Y1695039D01*
X21841065Y1695039D02*
X21802969Y1771229D01*
X21802969Y1771229D02*
X21802969Y1809324D01*
X21802969Y1809324D02*
X21841065Y1885515D01*
X21841065Y1885515D02*
X21879160Y1923610D01*
X21879160Y1923610D02*
X21955350Y1961705D01*
X21955350Y1961705D02*
X22107731Y1961705D01*
X22107731Y1961705D02*
X22183922Y1923610D01*
X22183922Y1923610D02*
X22222017Y1885515D01*
X22222017Y1885515D02*
X22260112Y1809324D01*
X22260112Y1809324D02*
X22260112Y1771229D01*
X22260112Y1771229D02*
X22222017Y1695039D01*
X22222017Y1695039D02*
X22183922Y1656943D01*
X22183922Y1656943D02*
X22107731Y1618848D01*
X22107731Y1618848D02*
X21955350Y1618848D01*
X21955350Y1618848D02*
X21879160Y1580753D01*
X21879160Y1580753D02*
X21841065Y1542658D01*
X21841065Y1542658D02*
X21802969Y1466467D01*
X21802969Y1466467D02*
X21802969Y1314086D01*
X21802969Y1314086D02*
X21841065Y1237896D01*
X21841065Y1237896D02*
X21879160Y1199800D01*
X21879160Y1199800D02*
X21955350Y1161705D01*
X21955350Y1161705D02*
X22107731Y1161705D01*
X22107731Y1161705D02*
X22183922Y1199800D01*
X22183922Y1199800D02*
X22222017Y1237896D01*
X22222017Y1237896D02*
X22260112Y1314086D01*
X22260112Y1314086D02*
X22260112Y1466467D01*
X22260112Y1466467D02*
X22222017Y1542658D01*
X22222017Y1542658D02*
X22183922Y1580753D01*
X22183922Y1580753D02*
X22107731Y1618848D01*
X-1114174Y11105753D02*
X-999888Y11067658D01*
X-999888Y11067658D02*
X-961793Y11029562D01*
X-961793Y11029562D02*
X-923697Y10953372D01*
X-923697Y10953372D02*
X-923697Y10839086D01*
X-923697Y10839086D02*
X-961793Y10762896D01*
X-961793Y10762896D02*
X-999888Y10724800D01*
X-999888Y10724800D02*
X-1076078Y10686705D01*
X-1076078Y10686705D02*
X-1380840Y10686705D01*
X-1380840Y10686705D02*
X-1380840Y11486705D01*
X-1380840Y11486705D02*
X-1114174Y11486705D01*
X-1114174Y11486705D02*
X-1037983Y11448610D01*
X-1037983Y11448610D02*
X-999888Y11410515D01*
X-999888Y11410515D02*
X-961793Y11334324D01*
X-961793Y11334324D02*
X-961793Y11258134D01*
X-961793Y11258134D02*
X-999888Y11181943D01*
X-999888Y11181943D02*
X-1037983Y11143848D01*
X-1037983Y11143848D02*
X-1114174Y11105753D01*
X-1114174Y11105753D02*
X-1380840Y11105753D01*
X16018208Y10686705D02*
X16018208Y11486705D01*
X16018208Y11486705D02*
X16322970Y11486705D01*
X16322970Y11486705D02*
X16399160Y11448610D01*
X16399160Y11448610D02*
X16437255Y11410515D01*
X16437255Y11410515D02*
X16475351Y11334324D01*
X16475351Y11334324D02*
X16475351Y11220039D01*
X16475351Y11220039D02*
X16437255Y11143848D01*
X16437255Y11143848D02*
X16399160Y11105753D01*
X16399160Y11105753D02*
X16322970Y11067658D01*
X16322970Y11067658D02*
X16018208Y11067658D01*
X16780112Y11410515D02*
X16818208Y11448610D01*
X16818208Y11448610D02*
X16894398Y11486705D01*
X16894398Y11486705D02*
X17084874Y11486705D01*
X17084874Y11486705D02*
X17161065Y11448610D01*
X17161065Y11448610D02*
X17199160Y11410515D01*
X17199160Y11410515D02*
X17237255Y11334324D01*
X17237255Y11334324D02*
X17237255Y11258134D01*
X17237255Y11258134D02*
X17199160Y11143848D01*
X17199160Y11143848D02*
X16742017Y10686705D01*
X16742017Y10686705D02*
X17237255Y10686705D01*
X759160Y11486705D02*
X1254398Y11486705D01*
X1254398Y11486705D02*
X987732Y11181943D01*
X987732Y11181943D02*
X1102017Y11181943D01*
X1102017Y11181943D02*
X1178208Y11143848D01*
X1178208Y11143848D02*
X1216303Y11105753D01*
X1216303Y11105753D02*
X1254398Y11029562D01*
X1254398Y11029562D02*
X1254398Y10839086D01*
X1254398Y10839086D02*
X1216303Y10762896D01*
X1216303Y10762896D02*
X1178208Y10724800D01*
X1178208Y10724800D02*
X1102017Y10686705D01*
X1102017Y10686705D02*
X873446Y10686705D01*
X873446Y10686705D02*
X797255Y10724800D01*
X797255Y10724800D02*
X759160Y10762896D01*
X1482970Y11486705D02*
X1749637Y10686705D01*
X1749637Y10686705D02*
X2016303Y11486705D01*
X5839160Y1923610D02*
X5762970Y1961705D01*
X5762970Y1961705D02*
X5648684Y1961705D01*
X5648684Y1961705D02*
X5534398Y1923610D01*
X5534398Y1923610D02*
X5458208Y1847420D01*
X5458208Y1847420D02*
X5420113Y1771229D01*
X5420113Y1771229D02*
X5382017Y1618848D01*
X5382017Y1618848D02*
X5382017Y1504562D01*
X5382017Y1504562D02*
X5420113Y1352181D01*
X5420113Y1352181D02*
X5458208Y1275991D01*
X5458208Y1275991D02*
X5534398Y1199800D01*
X5534398Y1199800D02*
X5648684Y1161705D01*
X5648684Y1161705D02*
X5724875Y1161705D01*
X5724875Y1161705D02*
X5839160Y1199800D01*
X5839160Y1199800D02*
X5877256Y1237896D01*
X5877256Y1237896D02*
X5877256Y1504562D01*
X5877256Y1504562D02*
X5724875Y1504562D01*
X6220113Y1161705D02*
X6220113Y1961705D01*
X6220113Y1961705D02*
X6677256Y1161705D01*
X6677256Y1161705D02*
X6677256Y1961705D01*
X7058208Y1161705D02*
X7058208Y1961705D01*
X7058208Y1961705D02*
X7248684Y1961705D01*
X7248684Y1961705D02*
X7362970Y1923610D01*
X7362970Y1923610D02*
X7439160Y1847420D01*
X7439160Y1847420D02*
X7477255Y1771229D01*
X7477255Y1771229D02*
X7515351Y1618848D01*
X7515351Y1618848D02*
X7515351Y1504562D01*
X7515351Y1504562D02*
X7477255Y1352181D01*
X7477255Y1352181D02*
X7439160Y1275991D01*
X7439160Y1275991D02*
X7362970Y1199800D01*
X7362970Y1199800D02*
X7248684Y1161705D01*
X7248684Y1161705D02*
X7058208Y1161705D01*
X13744874Y1580753D02*
X13859160Y1542658D01*
X13859160Y1542658D02*
X13897255Y1504562D01*
X13897255Y1504562D02*
X13935351Y1428372D01*
X13935351Y1428372D02*
X13935351Y1314086D01*
X13935351Y1314086D02*
X13897255Y1237896D01*
X13897255Y1237896D02*
X13859160Y1199800D01*
X13859160Y1199800D02*
X13782970Y1161705D01*
X13782970Y1161705D02*
X13478208Y1161705D01*
X13478208Y1161705D02*
X13478208Y1961705D01*
X13478208Y1961705D02*
X13744874Y1961705D01*
X13744874Y1961705D02*
X13821065Y1923610D01*
X13821065Y1923610D02*
X13859160Y1885515D01*
X13859160Y1885515D02*
X13897255Y1809324D01*
X13897255Y1809324D02*
X13897255Y1733134D01*
X13897255Y1733134D02*
X13859160Y1656943D01*
X13859160Y1656943D02*
X13821065Y1618848D01*
X13821065Y1618848D02*
X13744874Y1580753D01*
X13744874Y1580753D02*
X13478208Y1580753D01*
X14316303Y1161705D02*
X14468684Y1161705D01*
X14468684Y1161705D02*
X14544874Y1199800D01*
X14544874Y1199800D02*
X14582970Y1237896D01*
X14582970Y1237896D02*
X14659160Y1352181D01*
X14659160Y1352181D02*
X14697255Y1504562D01*
X14697255Y1504562D02*
X14697255Y1809324D01*
X14697255Y1809324D02*
X14659160Y1885515D01*
X14659160Y1885515D02*
X14621065Y1923610D01*
X14621065Y1923610D02*
X14544874Y1961705D01*
X14544874Y1961705D02*
X14392493Y1961705D01*
X14392493Y1961705D02*
X14316303Y1923610D01*
X14316303Y1923610D02*
X14278208Y1885515D01*
X14278208Y1885515D02*
X14240112Y1809324D01*
X14240112Y1809324D02*
X14240112Y1618848D01*
X14240112Y1618848D02*
X14278208Y1542658D01*
X14278208Y1542658D02*
X14316303Y1504562D01*
X14316303Y1504562D02*
X14392493Y1466467D01*
X14392493Y1466467D02*
X14544874Y1466467D01*
X14544874Y1466467D02*
X14621065Y1504562D01*
X14621065Y1504562D02*
X14659160Y1542658D01*
X14659160Y1542658D02*
X14697255Y1618848D01*
X13478208Y10686705D02*
X13478208Y11486705D01*
X13478208Y11486705D02*
X13782970Y11486705D01*
X13782970Y11486705D02*
X13859160Y11448610D01*
X13859160Y11448610D02*
X13897255Y11410515D01*
X13897255Y11410515D02*
X13935351Y11334324D01*
X13935351Y11334324D02*
X13935351Y11220039D01*
X13935351Y11220039D02*
X13897255Y11143848D01*
X13897255Y11143848D02*
X13859160Y11105753D01*
X13859160Y11105753D02*
X13782970Y11067658D01*
X13782970Y11067658D02*
X13478208Y11067658D01*
X14202017Y11486705D02*
X14697255Y11486705D01*
X14697255Y11486705D02*
X14430589Y11181943D01*
X14430589Y11181943D02*
X14544874Y11181943D01*
X14544874Y11181943D02*
X14621065Y11143848D01*
X14621065Y11143848D02*
X14659160Y11105753D01*
X14659160Y11105753D02*
X14697255Y11029562D01*
X14697255Y11029562D02*
X14697255Y10839086D01*
X14697255Y10839086D02*
X14659160Y10762896D01*
X14659160Y10762896D02*
X14621065Y10724800D01*
X14621065Y10724800D02*
X14544874Y10686705D01*
X14544874Y10686705D02*
X14316303Y10686705D01*
X14316303Y10686705D02*
X14240112Y10724800D01*
X14240112Y10724800D02*
X14202017Y10762896D01*
X26330589Y10686705D02*
X26063922Y11067658D01*
X25873446Y10686705D02*
X25873446Y11486705D01*
X25873446Y11486705D02*
X26178208Y11486705D01*
X26178208Y11486705D02*
X26254398Y11448610D01*
X26254398Y11448610D02*
X26292493Y11410515D01*
X26292493Y11410515D02*
X26330589Y11334324D01*
X26330589Y11334324D02*
X26330589Y11220039D01*
X26330589Y11220039D02*
X26292493Y11143848D01*
X26292493Y11143848D02*
X26254398Y11105753D01*
X26254398Y11105753D02*
X26178208Y11067658D01*
X26178208Y11067658D02*
X25873446Y11067658D01*
X26635350Y10724800D02*
X26749636Y10686705D01*
X26749636Y10686705D02*
X26940112Y10686705D01*
X26940112Y10686705D02*
X27016303Y10724800D01*
X27016303Y10724800D02*
X27054398Y10762896D01*
X27054398Y10762896D02*
X27092493Y10839086D01*
X27092493Y10839086D02*
X27092493Y10915277D01*
X27092493Y10915277D02*
X27054398Y10991467D01*
X27054398Y10991467D02*
X27016303Y11029562D01*
X27016303Y11029562D02*
X26940112Y11067658D01*
X26940112Y11067658D02*
X26787731Y11105753D01*
X26787731Y11105753D02*
X26711541Y11143848D01*
X26711541Y11143848D02*
X26673446Y11181943D01*
X26673446Y11181943D02*
X26635350Y11258134D01*
X26635350Y11258134D02*
X26635350Y11334324D01*
X26635350Y11334324D02*
X26673446Y11410515D01*
X26673446Y11410515D02*
X26711541Y11448610D01*
X26711541Y11448610D02*
X26787731Y11486705D01*
X26787731Y11486705D02*
X26978208Y11486705D01*
X26978208Y11486705D02*
X27092493Y11448610D01*
X27321065Y11486705D02*
X27778208Y11486705D01*
X27549636Y10686705D02*
X27549636Y11486705D01*
%TO.C,J1*%
X28454819Y12465351D02*
X29169104Y12465351D01*
X29169104Y12465351D02*
X29311961Y12417732D01*
X29311961Y12417732D02*
X29407200Y12322494D01*
X29407200Y12322494D02*
X29454819Y12179637D01*
X29454819Y12179637D02*
X29454819Y12084399D01*
X29454819Y13465351D02*
X29454819Y12893923D01*
X29454819Y13179637D02*
X28454819Y13179637D01*
X28454819Y13179637D02*
X28597676Y13084399D01*
X28597676Y13084399D02*
X28692914Y12989161D01*
X28692914Y12989161D02*
X28740533Y12893923D01*
D11*
%TO.C,R1*%
X4394572Y9619517D02*
X3920056Y9619517D01*
X4394572Y10664517D02*
X3920056Y10664517D01*
%TO.C,R3*%
X7994279Y7289342D02*
X7994279Y8289342D01*
X4634279Y7289342D02*
X4634279Y8289342D01*
D12*
%TO.C,Q2*%
X5598888Y3781035D02*
X6498888Y3781035D01*
X5598888Y5981035D02*
X6498888Y5981035D01*
X6498888Y3381035D02*
G75*
G03*
X6498888Y3381035I-100000J0D01*
G01*
D11*
%TO.C,D1*%
X-342000Y10895000D02*
X-342000Y9425000D01*
D12*
%TO.C,U$19*%
X2000000Y0D02*
G75*
G03*
X2000000Y0I-2000000J0D01*
G01*
D13*
%TO.C,CONN3*%
X23186000Y3350000D02*
X23186000Y4450000D01*
X25786000Y3350000D02*
X23186000Y3350000D01*
X27486000Y4250000D02*
X27486000Y8450000D01*
X23186000Y8250000D02*
X23186000Y9450000D01*
X23186000Y9450000D02*
X25786000Y9450000D01*
D11*
%TO.C,D2*%
X9864361Y1953827D02*
X9864361Y3423827D01*
X9864361Y3423827D02*
X7579361Y3423827D01*
%TO.C,U1*%
X12700000Y3600000D02*
X16300000Y3600000D01*
X12700000Y3600000D02*
X10500000Y3600000D01*
X12700000Y10370000D02*
X14900000Y10370000D01*
X12700000Y10370000D02*
X10500000Y10370000D01*
D12*
%TO.C,U$21*%
X27400000Y0D02*
G75*
G03*
X27400000Y0I-2000000J0D01*
G01*
D11*
%TO.C,U2*%
X18482406Y6699732D02*
X18482406Y4899732D01*
X18482406Y6699732D02*
X18482406Y7499732D01*
X21602406Y6699732D02*
X21602406Y5899732D01*
X21602406Y6699732D02*
X21602406Y7499732D01*
%TO.C,C1*%
X17001712Y6051215D02*
X17001712Y6332375D01*
X18021712Y6051215D02*
X18021712Y6332375D01*
D14*
%TO.C,C3*%
X19999470Y10342070D02*
X19999470Y9326070D01*
D13*
%TO.C,CONN4*%
X2214000Y9350000D02*
X2214000Y8250000D01*
X-386000Y9350000D02*
X2214000Y9350000D01*
X-2086000Y8450000D02*
X-2086000Y4250000D01*
X2214000Y4450000D02*
X2214000Y3250000D01*
X2214000Y3250000D02*
X-386000Y3250000D01*
D14*
%TO.C,C2*%
X20386530Y3665500D02*
X20386530Y2649500D01*
D11*
%TO.C,R2*%
X11208049Y3146751D02*
X11682565Y3146751D01*
X11208049Y2101751D02*
X11682565Y2101751D01*
%TD*%
%LPC*%
%TO.C,G\u002A\u002A\u002A*%
D15*
X23516297Y3022302D02*
X23529269Y3021693D01*
X23541577Y3020640D01*
X23553799Y3019097D01*
X23566514Y3017019D01*
X23575099Y3015403D01*
X23587773Y3012781D01*
X23599864Y3009975D01*
X23611730Y3006871D01*
X23623729Y3003355D01*
X23636221Y2999312D01*
X23649562Y2994628D01*
X23664113Y2989188D01*
X23680231Y2982878D01*
X23692425Y2977969D01*
X23708615Y2971318D01*
X23725051Y2964414D01*
X23741872Y2957190D01*
X23759217Y2949583D01*
X23777223Y2941527D01*
X23796030Y2932958D01*
X23815777Y2923810D01*
X23836601Y2914018D01*
X23858641Y2903517D01*
X23882037Y2892243D01*
X23906926Y2880130D01*
X23933447Y2867113D01*
X23961739Y2853128D01*
X23991940Y2838109D01*
X24011744Y2828219D01*
X24039760Y2814235D01*
X24065794Y2801298D01*
X24090009Y2789333D01*
X24112566Y2778266D01*
X24133627Y2768022D01*
X24153354Y2758528D01*
X24171910Y2749709D01*
X24189455Y2741490D01*
X24206153Y2733797D01*
X24222164Y2726556D01*
X24237651Y2719693D01*
X24252777Y2713132D01*
X24267702Y2706800D01*
X24282589Y2700623D01*
X24297599Y2694525D01*
X24312895Y2688433D01*
X24328639Y2682272D01*
X24334529Y2679991D01*
X24342754Y2676807D01*
X24350393Y2673835D01*
X24357107Y2671207D01*
X24362557Y2669058D01*
X24366405Y2667519D01*
X24368254Y2666750D01*
X24371741Y2665187D01*
X24362702Y2654364D01*
X24348451Y2638524D01*
X24332061Y2622491D01*
X24313779Y2606454D01*
X24293855Y2590601D01*
X24272537Y2575122D01*
X24250073Y2560205D01*
X24226714Y2546039D01*
X24202707Y2532813D01*
X24202086Y2532488D01*
X24170746Y2517099D01*
X24137452Y2502583D01*
X24102544Y2489039D01*
X24066360Y2476567D01*
X24029239Y2465265D01*
X23991519Y2455232D01*
X23953538Y2446568D01*
X23915636Y2439370D01*
X23878150Y2433739D01*
X23854953Y2431046D01*
X23848076Y2430505D01*
X23839436Y2430081D01*
X23829483Y2429773D01*
X23818667Y2429581D01*
X23807438Y2429505D01*
X23796247Y2429545D01*
X23785544Y2429702D01*
X23775778Y2429975D01*
X23767401Y2430365D01*
X23760861Y2430871D01*
X23759400Y2431036D01*
X23735337Y2434887D01*
X23713154Y2440216D01*
X23692861Y2447021D01*
X23674471Y2455297D01*
X23657993Y2465041D01*
X23651693Y2469533D01*
X23637757Y2481382D01*
X23625868Y2494439D01*
X23615906Y2508869D01*
X23607751Y2524838D01*
X23603652Y2535289D01*
X23600493Y2544944D01*
X23598234Y2553722D01*
X23596754Y2562390D01*
X23595930Y2571713D01*
X23595641Y2582457D01*
X23595639Y2585641D01*
X23595707Y2605149D01*
X23587810Y2605959D01*
X23579912Y2606768D01*
X23571383Y2600964D01*
X23562853Y2595161D01*
X23562500Y2583670D01*
X23563036Y2567565D01*
X23565498Y2550722D01*
X23569737Y2533643D01*
X23575604Y2516833D01*
X23582950Y2500795D01*
X23591343Y2486456D01*
X23603611Y2470050D01*
X23617668Y2455268D01*
X23633507Y2442113D01*
X23651121Y2430589D01*
X23670502Y2420699D01*
X23691645Y2412448D01*
X23714540Y2405839D01*
X23739182Y2400874D01*
X23765564Y2397559D01*
X23768597Y2397293D01*
X23778190Y2396717D01*
X23789648Y2396406D01*
X23802431Y2396347D01*
X23816002Y2396527D01*
X23829821Y2396932D01*
X23843351Y2397551D01*
X23856052Y2398370D01*
X23867386Y2399375D01*
X23870863Y2399761D01*
X23909394Y2405101D01*
X23948465Y2412061D01*
X23987694Y2420534D01*
X24026701Y2430413D01*
X24065104Y2441592D01*
X24102524Y2453965D01*
X24138578Y2467425D01*
X24172886Y2481867D01*
X24185274Y2487537D01*
X24215219Y2502350D01*
X24243960Y2518135D01*
X24271337Y2534776D01*
X24297192Y2552157D01*
X24321369Y2570163D01*
X24343707Y2588678D01*
X24364050Y2607586D01*
X24382239Y2626771D01*
X24393098Y2639668D01*
X24398179Y2645858D01*
X24402005Y2650134D01*
X24404669Y2652589D01*
X24406261Y2653317D01*
X24406380Y2653295D01*
X24411377Y2652047D01*
X24418388Y2650632D01*
X24427016Y2649107D01*
X24436867Y2647528D01*
X24447546Y2645953D01*
X24458656Y2644439D01*
X24469803Y2643043D01*
X24480591Y2641822D01*
X24490625Y2640833D01*
X24495396Y2640431D01*
X24505770Y2639836D01*
X24517261Y2639602D01*
X24530019Y2639740D01*
X24544198Y2640258D01*
X24559949Y2641166D01*
X24577426Y2642473D01*
X24596780Y2644187D01*
X24618165Y2646319D01*
X24641731Y2648878D01*
X24649005Y2649702D01*
X24682582Y2653752D01*
X24718381Y2658479D01*
X24756306Y2663865D01*
X24796263Y2669893D01*
X24838156Y2676545D01*
X24881890Y2683805D01*
X24927369Y2691654D01*
X24974498Y2700076D01*
X25023181Y2709053D01*
X25073324Y2718567D01*
X25124831Y2728602D01*
X25177606Y2739140D01*
X25231555Y2750164D01*
X25286581Y2761655D01*
X25342591Y2773598D01*
X25399487Y2785974D01*
X25409191Y2788109D01*
X25420002Y2790474D01*
X25430311Y2792696D01*
X25439827Y2794715D01*
X25448257Y2796470D01*
X25455309Y2797900D01*
X25460693Y2798946D01*
X25464116Y2799547D01*
X25464829Y2799645D01*
X25474216Y2799616D01*
X25484148Y2797698D01*
X25494002Y2794118D01*
X25503154Y2789104D01*
X25510982Y2782886D01*
X25511227Y2782647D01*
X25514915Y2778409D01*
X25519449Y2772194D01*
X25524700Y2764240D01*
X25530537Y2754784D01*
X25536830Y2744063D01*
X25543450Y2732314D01*
X25550267Y2719773D01*
X25557151Y2706678D01*
X25563971Y2693267D01*
X25570599Y2679775D01*
X25576905Y2666441D01*
X25582757Y2653500D01*
X25585751Y2646604D01*
X25595172Y2622968D01*
X25602673Y2600707D01*
X25608251Y2579835D01*
X25611904Y2560362D01*
X25613632Y2542299D01*
X25613431Y2525657D01*
X25611302Y2510449D01*
X25607476Y2497301D01*
X25604191Y2490354D01*
X25599540Y2482841D01*
X25594124Y2475608D01*
X25588540Y2469500D01*
X25586488Y2467642D01*
X25581212Y2463559D01*
X25575514Y2459953D01*
X25569208Y2456788D01*
X25562107Y2454026D01*
X25554025Y2451629D01*
X25544775Y2449559D01*
X25534171Y2447779D01*
X25522026Y2446251D01*
X25508153Y2444936D01*
X25492366Y2443798D01*
X25474479Y2442799D01*
X25460596Y2442160D01*
X25453817Y2441893D01*
X25444962Y2441580D01*
X25434372Y2441230D01*
X25422388Y2440853D01*
X25409353Y2440462D01*
X25395609Y2440065D01*
X25381496Y2439673D01*
X25367357Y2439297D01*
X25360205Y2439113D01*
X25323874Y2438155D01*
X25289757Y2437173D01*
X25257648Y2436158D01*
X25227341Y2435100D01*
X25198631Y2433989D01*
X25171313Y2432814D01*
X25145181Y2431565D01*
X25120030Y2430232D01*
X25095654Y2428806D01*
X25071848Y2427276D01*
X25048406Y2425632D01*
X25025123Y2423864D01*
X25001793Y2421961D01*
X24989486Y2420908D01*
X24937232Y2416000D01*
X24887000Y2410508D01*
X24838451Y2404363D01*
X24791245Y2397493D01*
X24745041Y2389830D01*
X24699501Y2381302D01*
X24654283Y2371840D01*
X24609048Y2361373D01*
X24563456Y2349832D01*
X24517166Y2337146D01*
X24469840Y2323245D01*
X24421137Y2308059D01*
X24384120Y2295989D01*
X24364696Y2289509D01*
X24346721Y2283418D01*
X24329997Y2277624D01*
X24314330Y2272036D01*
X24299522Y2266563D01*
X24285378Y2261114D01*
X24271702Y2255596D01*
X24258297Y2249920D01*
X24244969Y2243993D01*
X24231520Y2237725D01*
X24217755Y2231024D01*
X24203478Y2223799D01*
X24188493Y2215958D01*
X24172603Y2207411D01*
X24155613Y2198066D01*
X24137327Y2187831D01*
X24117548Y2176617D01*
X24096081Y2164331D01*
X24073877Y2151543D01*
X24056668Y2141625D01*
X24041318Y2132811D01*
X24027602Y2124978D01*
X24015296Y2118001D01*
X24004174Y2111756D01*
X23994011Y2106119D01*
X23984583Y2100967D01*
X23975664Y2096175D01*
X23967030Y2091619D01*
X23958456Y2087176D01*
X23949717Y2082721D01*
X23942039Y2078856D01*
X23919644Y2067912D01*
X23898803Y2058325D01*
X23879156Y2049972D01*
X23860344Y2042730D01*
X23842008Y2036474D01*
X23823790Y2031079D01*
X23805329Y2026423D01*
X23786269Y2022382D01*
X23769992Y2019448D01*
X23749669Y2016231D01*
X23730954Y2013703D01*
X23713154Y2011808D01*
X23695575Y2010489D01*
X23677525Y2009691D01*
X23658309Y2009358D01*
X23645100Y2009363D01*
X23635984Y2009431D01*
X23627398Y2009520D01*
X23619716Y2009622D01*
X23613314Y2009734D01*
X23608566Y2009848D01*
X23605848Y2009960D01*
X23605791Y2009964D01*
X23574575Y2013055D01*
X23543783Y2017733D01*
X23513710Y2023923D01*
X23484647Y2031549D01*
X23456888Y2040537D01*
X23430728Y2050811D01*
X23410958Y2060000D01*
X23381529Y2076079D01*
X23352857Y2094436D01*
X23324968Y2115043D01*
X23297888Y2137872D01*
X23271644Y2162894D01*
X23246262Y2190082D01*
X23221767Y2219407D01*
X23198186Y2250841D01*
X23175545Y2284357D01*
X23153870Y2319925D01*
X23133187Y2357519D01*
X23131703Y2360367D01*
X23119015Y2386086D01*
X23107182Y2412741D01*
X23096081Y2440653D01*
X23085588Y2470140D01*
X23075582Y2501524D01*
X23069924Y2520820D01*
X23067330Y2529936D01*
X22983077Y2563922D01*
X22969542Y2569399D01*
X22956679Y2574637D01*
X22944663Y2579564D01*
X22933667Y2584106D01*
X22923864Y2588192D01*
X22915428Y2591747D01*
X22908534Y2594700D01*
X22903353Y2596978D01*
X22900060Y2598508D01*
X22898829Y2599217D01*
X22898824Y2599233D01*
X22899707Y2600219D01*
X22902268Y2602692D01*
X22906377Y2606533D01*
X22911902Y2611623D01*
X22918713Y2617843D01*
X22926678Y2625073D01*
X22935667Y2633196D01*
X22945549Y2642092D01*
X22956193Y2651642D01*
X22967468Y2661728D01*
X22976234Y2669549D01*
X23053643Y2738540D01*
X23058573Y2752158D01*
X23068288Y2776184D01*
X23079687Y2799122D01*
X23092910Y2821181D01*
X23108096Y2842569D01*
X23125384Y2863496D01*
X23144915Y2884169D01*
X23150534Y2889680D01*
X23173614Y2910312D01*
X23198502Y2929403D01*
X23225109Y2946905D01*
X23253344Y2962775D01*
X23283116Y2976967D01*
X23314334Y2989435D01*
X23346907Y3000135D01*
X23380745Y3009020D01*
X23396543Y3012451D01*
X23411765Y3015412D01*
X23425384Y3017734D01*
X23438108Y3019493D01*
X23450643Y3020770D01*
X23463697Y3021641D01*
X23477977Y3022187D01*
X23486048Y3022366D01*
X23502083Y3022511D01*
X23516297Y3022302D01*
G36*
X23516297Y3022302D02*
G01*
X23529269Y3021693D01*
X23541577Y3020640D01*
X23553799Y3019097D01*
X23566514Y3017019D01*
X23575099Y3015403D01*
X23587773Y3012781D01*
X23599864Y3009975D01*
X23611730Y3006871D01*
X23623729Y3003355D01*
X23636221Y2999312D01*
X23649562Y2994628D01*
X23664113Y2989188D01*
X23680231Y2982878D01*
X23692425Y2977969D01*
X23708615Y2971318D01*
X23725051Y2964414D01*
X23741872Y2957190D01*
X23759217Y2949583D01*
X23777223Y2941527D01*
X23796030Y2932958D01*
X23815777Y2923810D01*
X23836601Y2914018D01*
X23858641Y2903517D01*
X23882037Y2892243D01*
X23906926Y2880130D01*
X23933447Y2867113D01*
X23961739Y2853128D01*
X23991940Y2838109D01*
X24011744Y2828219D01*
X24039760Y2814235D01*
X24065794Y2801298D01*
X24090009Y2789333D01*
X24112566Y2778266D01*
X24133627Y2768022D01*
X24153354Y2758528D01*
X24171910Y2749709D01*
X24189455Y2741490D01*
X24206153Y2733797D01*
X24222164Y2726556D01*
X24237651Y2719693D01*
X24252777Y2713132D01*
X24267702Y2706800D01*
X24282589Y2700623D01*
X24297599Y2694525D01*
X24312895Y2688433D01*
X24328639Y2682272D01*
X24334529Y2679991D01*
X24342754Y2676807D01*
X24350393Y2673835D01*
X24357107Y2671207D01*
X24362557Y2669058D01*
X24366405Y2667519D01*
X24368254Y2666750D01*
X24371741Y2665187D01*
X24362702Y2654364D01*
X24348451Y2638524D01*
X24332061Y2622491D01*
X24313779Y2606454D01*
X24293855Y2590601D01*
X24272537Y2575122D01*
X24250073Y2560205D01*
X24226714Y2546039D01*
X24202707Y2532813D01*
X24202086Y2532488D01*
X24170746Y2517099D01*
X24137452Y2502583D01*
X24102544Y2489039D01*
X24066360Y2476567D01*
X24029239Y2465265D01*
X23991519Y2455232D01*
X23953538Y2446568D01*
X23915636Y2439370D01*
X23878150Y2433739D01*
X23854953Y2431046D01*
X23848076Y2430505D01*
X23839436Y2430081D01*
X23829483Y2429773D01*
X23818667Y2429581D01*
X23807438Y2429505D01*
X23796247Y2429545D01*
X23785544Y2429702D01*
X23775778Y2429975D01*
X23767401Y2430365D01*
X23760861Y2430871D01*
X23759400Y2431036D01*
X23735337Y2434887D01*
X23713154Y2440216D01*
X23692861Y2447021D01*
X23674471Y2455297D01*
X23657993Y2465041D01*
X23651693Y2469533D01*
X23637757Y2481382D01*
X23625868Y2494439D01*
X23615906Y2508869D01*
X23607751Y2524838D01*
X23603652Y2535289D01*
X23600493Y2544944D01*
X23598234Y2553722D01*
X23596754Y2562390D01*
X23595930Y2571713D01*
X23595641Y2582457D01*
X23595639Y2585641D01*
X23595707Y2605149D01*
X23587810Y2605959D01*
X23579912Y2606768D01*
X23571383Y2600964D01*
X23562853Y2595161D01*
X23562500Y2583670D01*
X23563036Y2567565D01*
X23565498Y2550722D01*
X23569737Y2533643D01*
X23575604Y2516833D01*
X23582950Y2500795D01*
X23591343Y2486456D01*
X23603611Y2470050D01*
X23617668Y2455268D01*
X23633507Y2442113D01*
X23651121Y2430589D01*
X23670502Y2420699D01*
X23691645Y2412448D01*
X23714540Y2405839D01*
X23739182Y2400874D01*
X23765564Y2397559D01*
X23768597Y2397293D01*
X23778190Y2396717D01*
X23789648Y2396406D01*
X23802431Y2396347D01*
X23816002Y2396527D01*
X23829821Y2396932D01*
X23843351Y2397551D01*
X23856052Y2398370D01*
X23867386Y2399375D01*
X23870863Y2399761D01*
X23909394Y2405101D01*
X23948465Y2412061D01*
X23987694Y2420534D01*
X24026701Y2430413D01*
X24065104Y2441592D01*
X24102524Y2453965D01*
X24138578Y2467425D01*
X24172886Y2481867D01*
X24185274Y2487537D01*
X24215219Y2502350D01*
X24243960Y2518135D01*
X24271337Y2534776D01*
X24297192Y2552157D01*
X24321369Y2570163D01*
X24343707Y2588678D01*
X24364050Y2607586D01*
X24382239Y2626771D01*
X24393098Y2639668D01*
X24398179Y2645858D01*
X24402005Y2650134D01*
X24404669Y2652589D01*
X24406261Y2653317D01*
X24406380Y2653295D01*
X24411377Y2652047D01*
X24418388Y2650632D01*
X24427016Y2649107D01*
X24436867Y2647528D01*
X24447546Y2645953D01*
X24458656Y2644439D01*
X24469803Y2643043D01*
X24480591Y2641822D01*
X24490625Y2640833D01*
X24495396Y2640431D01*
X24505770Y2639836D01*
X24517261Y2639602D01*
X24530019Y2639740D01*
X24544198Y2640258D01*
X24559949Y2641166D01*
X24577426Y2642473D01*
X24596780Y2644187D01*
X24618165Y2646319D01*
X24641731Y2648878D01*
X24649005Y2649702D01*
X24682582Y2653752D01*
X24718381Y2658479D01*
X24756306Y2663865D01*
X24796263Y2669893D01*
X24838156Y2676545D01*
X24881890Y2683805D01*
X24927369Y2691654D01*
X24974498Y2700076D01*
X25023181Y2709053D01*
X25073324Y2718567D01*
X25124831Y2728602D01*
X25177606Y2739140D01*
X25231555Y2750164D01*
X25286581Y2761655D01*
X25342591Y2773598D01*
X25399487Y2785974D01*
X25409191Y2788109D01*
X25420002Y2790474D01*
X25430311Y2792696D01*
X25439827Y2794715D01*
X25448257Y2796470D01*
X25455309Y2797900D01*
X25460693Y2798946D01*
X25464116Y2799547D01*
X25464829Y2799645D01*
X25474216Y2799616D01*
X25484148Y2797698D01*
X25494002Y2794118D01*
X25503154Y2789104D01*
X25510982Y2782886D01*
X25511227Y2782647D01*
X25514915Y2778409D01*
X25519449Y2772194D01*
X25524700Y2764240D01*
X25530537Y2754784D01*
X25536830Y2744063D01*
X25543450Y2732314D01*
X25550267Y2719773D01*
X25557151Y2706678D01*
X25563971Y2693267D01*
X25570599Y2679775D01*
X25576905Y2666441D01*
X25582757Y2653500D01*
X25585751Y2646604D01*
X25595172Y2622968D01*
X25602673Y2600707D01*
X25608251Y2579835D01*
X25611904Y2560362D01*
X25613632Y2542299D01*
X25613431Y2525657D01*
X25611302Y2510449D01*
X25607476Y2497301D01*
X25604191Y2490354D01*
X25599540Y2482841D01*
X25594124Y2475608D01*
X25588540Y2469500D01*
X25586488Y2467642D01*
X25581212Y2463559D01*
X25575514Y2459953D01*
X25569208Y2456788D01*
X25562107Y2454026D01*
X25554025Y2451629D01*
X25544775Y2449559D01*
X25534171Y2447779D01*
X25522026Y2446251D01*
X25508153Y2444936D01*
X25492366Y2443798D01*
X25474479Y2442799D01*
X25460596Y2442160D01*
X25453817Y2441893D01*
X25444962Y2441580D01*
X25434372Y2441230D01*
X25422388Y2440853D01*
X25409353Y2440462D01*
X25395609Y2440065D01*
X25381496Y2439673D01*
X25367357Y2439297D01*
X25360205Y2439113D01*
X25323874Y2438155D01*
X25289757Y2437173D01*
X25257648Y2436158D01*
X25227341Y2435100D01*
X25198631Y2433989D01*
X25171313Y2432814D01*
X25145181Y2431565D01*
X25120030Y2430232D01*
X25095654Y2428806D01*
X25071848Y2427276D01*
X25048406Y2425632D01*
X25025123Y2423864D01*
X25001793Y2421961D01*
X24989486Y2420908D01*
X24937232Y2416000D01*
X24887000Y2410508D01*
X24838451Y2404363D01*
X24791245Y2397493D01*
X24745041Y2389830D01*
X24699501Y2381302D01*
X24654283Y2371840D01*
X24609048Y2361373D01*
X24563456Y2349832D01*
X24517166Y2337146D01*
X24469840Y2323245D01*
X24421137Y2308059D01*
X24384120Y2295989D01*
X24364696Y2289509D01*
X24346721Y2283418D01*
X24329997Y2277624D01*
X24314330Y2272036D01*
X24299522Y2266563D01*
X24285378Y2261114D01*
X24271702Y2255596D01*
X24258297Y2249920D01*
X24244969Y2243993D01*
X24231520Y2237725D01*
X24217755Y2231024D01*
X24203478Y2223799D01*
X24188493Y2215958D01*
X24172603Y2207411D01*
X24155613Y2198066D01*
X24137327Y2187831D01*
X24117548Y2176617D01*
X24096081Y2164331D01*
X24073877Y2151543D01*
X24056668Y2141625D01*
X24041318Y2132811D01*
X24027602Y2124978D01*
X24015296Y2118001D01*
X24004174Y2111756D01*
X23994011Y2106119D01*
X23984583Y2100967D01*
X23975664Y2096175D01*
X23967030Y2091619D01*
X23958456Y2087176D01*
X23949717Y2082721D01*
X23942039Y2078856D01*
X23919644Y2067912D01*
X23898803Y2058325D01*
X23879156Y2049972D01*
X23860344Y2042730D01*
X23842008Y2036474D01*
X23823790Y2031079D01*
X23805329Y2026423D01*
X23786269Y2022382D01*
X23769992Y2019448D01*
X23749669Y2016231D01*
X23730954Y2013703D01*
X23713154Y2011808D01*
X23695575Y2010489D01*
X23677525Y2009691D01*
X23658309Y2009358D01*
X23645100Y2009363D01*
X23635984Y2009431D01*
X23627398Y2009520D01*
X23619716Y2009622D01*
X23613314Y2009734D01*
X23608566Y2009848D01*
X23605848Y2009960D01*
X23605791Y2009964D01*
X23574575Y2013055D01*
X23543783Y2017733D01*
X23513710Y2023923D01*
X23484647Y2031549D01*
X23456888Y2040537D01*
X23430728Y2050811D01*
X23410958Y2060000D01*
X23381529Y2076079D01*
X23352857Y2094436D01*
X23324968Y2115043D01*
X23297888Y2137872D01*
X23271644Y2162894D01*
X23246262Y2190082D01*
X23221767Y2219407D01*
X23198186Y2250841D01*
X23175545Y2284357D01*
X23153870Y2319925D01*
X23133187Y2357519D01*
X23131703Y2360367D01*
X23119015Y2386086D01*
X23107182Y2412741D01*
X23096081Y2440653D01*
X23085588Y2470140D01*
X23075582Y2501524D01*
X23069924Y2520820D01*
X23067330Y2529936D01*
X22983077Y2563922D01*
X22969542Y2569399D01*
X22956679Y2574637D01*
X22944663Y2579564D01*
X22933667Y2584106D01*
X22923864Y2588192D01*
X22915428Y2591747D01*
X22908534Y2594700D01*
X22903353Y2596978D01*
X22900060Y2598508D01*
X22898829Y2599217D01*
X22898824Y2599233D01*
X22899707Y2600219D01*
X22902268Y2602692D01*
X22906377Y2606533D01*
X22911902Y2611623D01*
X22918713Y2617843D01*
X22926678Y2625073D01*
X22935667Y2633196D01*
X22945549Y2642092D01*
X22956193Y2651642D01*
X22967468Y2661728D01*
X22976234Y2669549D01*
X23053643Y2738540D01*
X23058573Y2752158D01*
X23068288Y2776184D01*
X23079687Y2799122D01*
X23092910Y2821181D01*
X23108096Y2842569D01*
X23125384Y2863496D01*
X23144915Y2884169D01*
X23150534Y2889680D01*
X23173614Y2910312D01*
X23198502Y2929403D01*
X23225109Y2946905D01*
X23253344Y2962775D01*
X23283116Y2976967D01*
X23314334Y2989435D01*
X23346907Y3000135D01*
X23380745Y3009020D01*
X23396543Y3012451D01*
X23411765Y3015412D01*
X23425384Y3017734D01*
X23438108Y3019493D01*
X23450643Y3020770D01*
X23463697Y3021641D01*
X23477977Y3022187D01*
X23486048Y3022366D01*
X23502083Y3022511D01*
X23516297Y3022302D01*
G37*
%TD*%
D16*
%TO.C,R1*%
X4982314Y10142017D03*
X3332314Y10142017D03*
%TD*%
D17*
%TO.C,J1*%
X26670000Y12700000D03*
D18*
X24130000Y12700000D03*
X21590000Y12700000D03*
X19050000Y12700000D03*
X16510000Y12700000D03*
X13970000Y12700000D03*
X11430000Y12700000D03*
X8890000Y12700000D03*
X6350000Y12700000D03*
X3810000Y12700000D03*
X1270000Y12700000D03*
X-1270000Y12700000D03*
%TD*%
D19*
%TO.C,REF\u002A\u002A*%
X2540000Y-1270000D03*
%TD*%
D20*
%TO.C,R3*%
X7514279Y8689342D03*
D21*
X6714279Y8689342D03*
X5914279Y8689342D03*
D20*
X5114279Y8689342D03*
X5114279Y6889342D03*
D21*
X5914279Y6889342D03*
X6714279Y6889342D03*
D20*
X7514279Y6889342D03*
%TD*%
D22*
%TO.C,Q2*%
X6948888Y4131035D03*
D23*
X6948888Y4881035D03*
D22*
X6948888Y5631035D03*
X5148888Y5631035D03*
D23*
X5148888Y4881035D03*
D22*
X5148888Y4131035D03*
%TD*%
D24*
%TO.C,D1*%
X355500Y10160000D03*
X1930500Y10160000D03*
%TD*%
D25*
%TO.C,U$19*%
X0Y0D03*
%TD*%
D26*
%TO.C,CONN3*%
X22886000Y4850000D03*
X22886000Y5850000D03*
X22886000Y6850000D03*
X22886000Y7850000D03*
D27*
X26786000Y3550000D03*
X26786000Y9150000D03*
%TD*%
D17*
%TO.C,J2*%
X3810000Y0D03*
D18*
X6350000Y0D03*
X8890000Y0D03*
X11430000Y0D03*
X13970000Y0D03*
X16510000Y0D03*
X19050000Y0D03*
X21590000Y0D03*
%TD*%
D28*
%TO.C,D2*%
X9166861Y2688827D03*
X7591861Y2688827D03*
%TD*%
D29*
%TO.C,U1*%
X15562500Y4060000D03*
X15562500Y4710000D03*
X15562500Y5360000D03*
X15562500Y6010000D03*
X15562500Y6660000D03*
X15562500Y7310000D03*
X15562500Y7960000D03*
X15562500Y8610000D03*
X15562500Y9260000D03*
X15562500Y9910000D03*
X9837500Y9910000D03*
X9837500Y9260000D03*
X9837500Y8610000D03*
X9837500Y7960000D03*
X9837500Y7310000D03*
X9837500Y6660000D03*
X9837500Y6010000D03*
X9837500Y5360000D03*
X9837500Y4710000D03*
X9837500Y4060000D03*
%TD*%
D19*
%TO.C,REF\u002A\u002A*%
X25400000Y13990219D03*
%TD*%
D25*
%TO.C,U$21*%
X25400000Y0D03*
%TD*%
D17*
%TO.C,J4*%
X3810000Y-2540000D03*
X6350000Y-2540000D03*
X8890000Y-2540000D03*
X11430000Y-2540000D03*
X13970000Y-2540000D03*
X16510000Y-2540000D03*
X19050000Y-2540000D03*
X21590000Y-2540000D03*
%TD*%
D30*
%TO.C,U2*%
X19092406Y5562232D03*
X20042406Y5562232D03*
X20992406Y5562232D03*
X20992406Y7837232D03*
X19092406Y7837232D03*
%TD*%
D31*
%TO.C,C1*%
X17511712Y5416795D03*
X17511712Y6966795D03*
%TD*%
D32*
%TO.C,C3*%
X19049470Y9834070D03*
X20949470Y9834070D03*
%TD*%
D33*
%TO.C,CONN4*%
X2514000Y7850000D03*
X2514000Y6850000D03*
X2514000Y5850000D03*
X2514000Y4850000D03*
D34*
X-1386000Y9150000D03*
X-1386000Y3550000D03*
%TD*%
D17*
%TO.C,J5*%
X24130000Y15240000D03*
X21590000Y15240000D03*
D18*
X19050000Y15240000D03*
D17*
X16510000Y15240000D03*
X13970000Y15240000D03*
X11430000Y15240000D03*
X8890000Y15240000D03*
X6350000Y15240000D03*
X3810000Y15240000D03*
X1270000Y15240000D03*
%TD*%
D32*
%TO.C,C2*%
X19436530Y3157500D03*
X21336530Y3157500D03*
%TD*%
D35*
%TO.C,R2*%
X10620307Y2624251D03*
X12270307Y2624251D03*
%TD*%
%LPD*%
M02*
