%TF.GenerationSoftware,KiCad,Pcbnew,7.0.3*%
%TF.CreationDate,2023-05-19T16:22:07-07:00*%
%TF.ProjectId,StemmaG0,5374656d-6d61-4473-902e-6b696361645f,rev?*%
%TF.SameCoordinates,Original*%
%TF.FileFunction,Copper,L1,Top*%
%TF.FilePolarity,Positive*%
%FSLAX46Y46*%
G04 Gerber Fmt 4.6, Leading zero omitted, Abs format (unit mm)*
G04 Created by KiCad (PCBNEW 7.0.3) date 2023-05-19 16:22:07*
%MOMM*%
%LPD*%
G01*
G04 APERTURE LIST*
G04 Aperture macros list*
%AMRoundRect*
0 Rectangle with rounded corners*
0 $1 Rounding radius*
0 $2 $3 $4 $5 $6 $7 $8 $9 X,Y pos of 4 corners*
0 Add a 4 corners polygon primitive as box body*
4,1,4,$2,$3,$4,$5,$6,$7,$8,$9,$2,$3,0*
0 Add four circle primitives for the rounded corners*
1,1,$1+$1,$2,$3*
1,1,$1+$1,$4,$5*
1,1,$1+$1,$6,$7*
1,1,$1+$1,$8,$9*
0 Add four rect primitives between the rounded corners*
20,1,$1+$1,$2,$3,$4,$5,0*
20,1,$1+$1,$4,$5,$6,$7,0*
20,1,$1+$1,$6,$7,$8,$9,0*
20,1,$1+$1,$8,$9,$2,$3,0*%
G04 Aperture macros list end*
%TA.AperFunction,EtchedComponent*%
%ADD10C,0.010000*%
%TD*%
%TA.AperFunction,SMDPad,CuDef*%
%ADD11RoundRect,0.200000X0.200000X0.275000X-0.200000X0.275000X-0.200000X-0.275000X0.200000X-0.275000X0*%
%TD*%
%TA.AperFunction,ComponentPad*%
%ADD12C,1.700000*%
%TD*%
%TA.AperFunction,ComponentPad*%
%ADD13O,1.700000X1.700000*%
%TD*%
%TA.AperFunction,SMDPad,CuDef*%
%ADD14R,0.500000X0.800000*%
%TD*%
%TA.AperFunction,SMDPad,CuDef*%
%ADD15R,0.400000X0.800000*%
%TD*%
%TA.AperFunction,SMDPad,CuDef*%
%ADD16R,0.500000X0.500000*%
%TD*%
%TA.AperFunction,SMDPad,CuDef*%
%ADD17R,0.500000X0.400000*%
%TD*%
%TA.AperFunction,SMDPad,CuDef*%
%ADD18RoundRect,0.218750X-0.218750X-0.256250X0.218750X-0.256250X0.218750X0.256250X-0.218750X0.256250X0*%
%TD*%
%TA.AperFunction,ComponentPad*%
%ADD19C,3.200000*%
%TD*%
%TA.AperFunction,SMDPad,CuDef*%
%ADD20R,1.550000X0.600000*%
%TD*%
%TA.AperFunction,SMDPad,CuDef*%
%ADD21R,1.800000X1.200000*%
%TD*%
%TA.AperFunction,SMDPad,CuDef*%
%ADD22RoundRect,0.218750X0.218750X0.256250X-0.218750X0.256250X-0.218750X-0.256250X0.218750X-0.256250X0*%
%TD*%
%TA.AperFunction,SMDPad,CuDef*%
%ADD23RoundRect,0.100000X0.637500X0.100000X-0.637500X0.100000X-0.637500X-0.100000X0.637500X-0.100000X0*%
%TD*%
%TA.AperFunction,CastellatedPad*%
%ADD24C,1.700000*%
%TD*%
%TA.AperFunction,SMDPad,CuDef*%
%ADD25RoundRect,0.150000X0.150000X-0.512500X0.150000X0.512500X-0.150000X0.512500X-0.150000X-0.512500X0*%
%TD*%
%TA.AperFunction,SMDPad,CuDef*%
%ADD26RoundRect,0.225000X0.250000X-0.225000X0.250000X0.225000X-0.250000X0.225000X-0.250000X-0.225000X0*%
%TD*%
%TA.AperFunction,SMDPad,CuDef*%
%ADD27R,1.240000X1.500000*%
%TD*%
%TA.AperFunction,CastellatedPad*%
%ADD28O,1.700000X1.700000*%
%TD*%
%TA.AperFunction,SMDPad,CuDef*%
%ADD29RoundRect,0.200000X-0.200000X-0.275000X0.200000X-0.275000X0.200000X0.275000X-0.200000X0.275000X0*%
%TD*%
%TA.AperFunction,ViaPad*%
%ADD30C,0.906400*%
%TD*%
%TA.AperFunction,ViaPad*%
%ADD31C,0.889000*%
%TD*%
%TA.AperFunction,ViaPad*%
%ADD32C,0.600000*%
%TD*%
%TA.AperFunction,Conductor*%
%ADD33C,0.406400*%
%TD*%
%TA.AperFunction,Conductor*%
%ADD34C,0.304800*%
%TD*%
%TA.AperFunction,Conductor*%
%ADD35C,0.127000*%
%TD*%
%TA.AperFunction,Conductor*%
%ADD36C,0.150000*%
%TD*%
G04 APERTURE END LIST*
%TO.C,G\u002A\u002A\u002A*%
D10*
X23505460Y2994199D02*
X23516318Y2994027D01*
X23525792Y2993667D01*
X23534397Y2993078D01*
X23542650Y2992217D01*
X23551065Y2991042D01*
X23560161Y2989512D01*
X23567691Y2988115D01*
X23587870Y2983739D01*
X23608818Y2978230D01*
X23629544Y2971875D01*
X23649061Y2964959D01*
X23652962Y2963442D01*
X23667766Y2957547D01*
X23682295Y2951672D01*
X23696681Y2945753D01*
X23711056Y2939730D01*
X23725555Y2933541D01*
X23740310Y2927123D01*
X23755454Y2920416D01*
X23771120Y2913356D01*
X23787440Y2905883D01*
X23804548Y2897933D01*
X23822577Y2889447D01*
X23841659Y2880361D01*
X23861927Y2870613D01*
X23883514Y2860143D01*
X23906554Y2848887D01*
X23931178Y2836785D01*
X23957521Y2823774D01*
X23985714Y2809792D01*
X24015892Y2794778D01*
X24023681Y2790896D01*
X24049685Y2777956D01*
X24073715Y2766050D01*
X24095942Y2755100D01*
X24116540Y2745025D01*
X24135680Y2735746D01*
X24153536Y2727183D01*
X24170280Y2719257D01*
X24186085Y2711888D01*
X24201122Y2704996D01*
X24215564Y2698503D01*
X24229585Y2692327D01*
X24243356Y2686390D01*
X24257049Y2680612D01*
X24270839Y2674913D01*
X24284895Y2669214D01*
X24299393Y2663435D01*
X24302407Y2662244D01*
X24311135Y2658767D01*
X24319116Y2655521D01*
X24326075Y2652624D01*
X24331740Y2650191D01*
X24335837Y2648340D01*
X24338094Y2647186D01*
X24338449Y2646900D01*
X24337796Y2645521D01*
X24335605Y2642812D01*
X24332150Y2639040D01*
X24327707Y2634475D01*
X24322552Y2629388D01*
X24316960Y2624046D01*
X24311205Y2618721D01*
X24305563Y2613680D01*
X24300309Y2609194D01*
X24298117Y2607406D01*
X24272620Y2588343D01*
X24244942Y2570248D01*
X24215127Y2553138D01*
X24183218Y2537032D01*
X24149258Y2521948D01*
X24113292Y2507904D01*
X24075363Y2494917D01*
X24035514Y2483006D01*
X23993789Y2472189D01*
X23950232Y2462484D01*
X23943248Y2461065D01*
X23913349Y2455474D01*
X23885359Y2451082D01*
X23859092Y2447876D01*
X23834364Y2445844D01*
X23810990Y2444972D01*
X23788786Y2445246D01*
X23767566Y2446654D01*
X23757702Y2447725D01*
X23735254Y2451356D01*
X23714561Y2456520D01*
X23695652Y2463200D01*
X23678554Y2471379D01*
X23663297Y2481041D01*
X23649909Y2492170D01*
X23638417Y2504748D01*
X23628851Y2518759D01*
X23625275Y2525344D01*
X23620949Y2534902D01*
X23617450Y2544941D01*
X23614644Y2555964D01*
X23612400Y2568473D01*
X23610904Y2580032D01*
X23610023Y2587885D01*
X23586438Y2589941D01*
X23579067Y2590580D01*
X23572473Y2591146D01*
X23567054Y2591604D01*
X23563209Y2591921D01*
X23561334Y2592064D01*
X23561270Y2592067D01*
X23560249Y2592781D01*
X23560401Y2593294D01*
X23559779Y2593812D01*
X23557472Y2593944D01*
X23554175Y2593748D01*
X23550583Y2593281D01*
X23547390Y2592601D01*
X23545920Y2592100D01*
X23544031Y2591580D01*
X23540155Y2590736D01*
X23534687Y2589649D01*
X23528026Y2588395D01*
X23520568Y2587053D01*
X23518705Y2586727D01*
X23490767Y2582096D01*
X23464225Y2578197D01*
X23438206Y2574913D01*
X23411841Y2572128D01*
X23403800Y2571379D01*
X23396110Y2570833D01*
X23386783Y2570410D01*
X23376281Y2570111D01*
X23365069Y2569936D01*
X23353611Y2569885D01*
X23342368Y2569958D01*
X23331805Y2570156D01*
X23322385Y2570479D01*
X23314572Y2570926D01*
X23310062Y2571342D01*
X23285093Y2574652D01*
X23260799Y2578728D01*
X23236538Y2583703D01*
X23211667Y2589712D01*
X23185542Y2596889D01*
X23180237Y2598439D01*
X23172489Y2600767D01*
X23166779Y2602600D01*
X23162808Y2604059D01*
X23160272Y2605264D01*
X23158872Y2606335D01*
X23158376Y2607148D01*
X23158048Y2608901D01*
X23157509Y2612773D01*
X23156793Y2618477D01*
X23155935Y2625726D01*
X23154968Y2634233D01*
X23153926Y2643709D01*
X23152867Y2653646D01*
X23151635Y2665534D01*
X23150673Y2675223D01*
X23149965Y2682916D01*
X23149499Y2688815D01*
X23149259Y2693126D01*
X23149233Y2696049D01*
X23149406Y2697790D01*
X23149765Y2698551D01*
X23149797Y2698573D01*
X23151924Y2699358D01*
X23155300Y2700126D01*
X23156317Y2700297D01*
X23160173Y2700993D01*
X23166019Y2702178D01*
X23173495Y2703771D01*
X23182240Y2705690D01*
X23191895Y2707852D01*
X23202097Y2710176D01*
X23212488Y2712579D01*
X23222706Y2714980D01*
X23232392Y2717297D01*
X23241184Y2719448D01*
X23247772Y2721105D01*
X23282959Y2730486D01*
X23315870Y2740030D01*
X23346645Y2749785D01*
X23375424Y2759797D01*
X23402348Y2770114D01*
X23427556Y2780783D01*
X23431620Y2782607D01*
X23455851Y2794419D01*
X23480526Y2808044D01*
X23505056Y2823106D01*
X23528851Y2839229D01*
X23551323Y2856039D01*
X23566481Y2868468D01*
X23572537Y2873735D01*
X23578823Y2879362D01*
X23585092Y2885111D01*
X23591100Y2890745D01*
X23596600Y2896028D01*
X23601347Y2900723D01*
X23605095Y2904592D01*
X23607599Y2907399D01*
X23608612Y2908906D01*
X23608590Y2909068D01*
X23606820Y2909942D01*
X23603060Y2911271D01*
X23597675Y2912951D01*
X23591027Y2914873D01*
X23583480Y2916930D01*
X23575397Y2919015D01*
X23571924Y2919875D01*
X23547957Y2924815D01*
X23523888Y2927904D01*
X23499483Y2929137D01*
X23474508Y2928507D01*
X23448728Y2926009D01*
X23421910Y2921635D01*
X23393817Y2915380D01*
X23393149Y2915213D01*
X23364590Y2907073D01*
X23337207Y2897327D01*
X23311101Y2886052D01*
X23286376Y2873327D01*
X23263131Y2859232D01*
X23241468Y2843844D01*
X23221490Y2827243D01*
X23203296Y2809508D01*
X23186989Y2790717D01*
X23172670Y2770949D01*
X23160441Y2750283D01*
X23150402Y2728797D01*
X23149201Y2725789D01*
X23145417Y2716113D01*
X23094692Y2667836D01*
X23085430Y2659014D01*
X23076705Y2650689D01*
X23068670Y2643009D01*
X23061483Y2636124D01*
X23055298Y2630183D01*
X23050271Y2625336D01*
X23046557Y2621733D01*
X23044313Y2619521D01*
X23043677Y2618850D01*
X23044690Y2618235D01*
X23047708Y2616737D01*
X23052523Y2614452D01*
X23058927Y2611475D01*
X23066712Y2607903D01*
X23075672Y2603831D01*
X23085597Y2599355D01*
X23096280Y2594570D01*
X23098835Y2593431D01*
X23154283Y2568719D01*
X23160056Y2548073D01*
X23162835Y2538487D01*
X23166210Y2527408D01*
X23169971Y2515478D01*
X23173910Y2503340D01*
X23177820Y2491636D01*
X23181491Y2481010D01*
X23184576Y2472478D01*
X23186444Y2467785D01*
X23187993Y2464880D01*
X23189590Y2463229D01*
X23191542Y2462317D01*
X23194046Y2461917D01*
X23198613Y2461596D01*
X23204890Y2461351D01*
X23212522Y2461184D01*
X23221155Y2461092D01*
X23230436Y2461075D01*
X23240009Y2461133D01*
X23249522Y2461265D01*
X23258619Y2461469D01*
X23266948Y2461745D01*
X23274153Y2462093D01*
X23279824Y2462506D01*
X23335690Y2468550D01*
X23369934Y2473136D01*
X23384581Y2475343D01*
X23397204Y2477503D01*
X23408195Y2479723D01*
X23417943Y2482111D01*
X23426840Y2484772D01*
X23435276Y2487814D01*
X23443642Y2491345D01*
X23452329Y2495471D01*
X23453391Y2496001D01*
X23472553Y2506811D01*
X23491344Y2519784D01*
X23509449Y2534661D01*
X23526551Y2551186D01*
X23540196Y2566497D01*
X23546524Y2574120D01*
X23546524Y2569944D01*
X23546871Y2564843D01*
X23547827Y2558037D01*
X23549271Y2550125D01*
X23551078Y2541706D01*
X23553126Y2533380D01*
X23555290Y2525747D01*
X23556217Y2522851D01*
X23564237Y2502485D01*
X23574176Y2483579D01*
X23586004Y2466158D01*
X23599690Y2450250D01*
X23615205Y2435882D01*
X23632518Y2423079D01*
X23651599Y2411869D01*
X23672417Y2402278D01*
X23694943Y2394333D01*
X23704972Y2391476D01*
X23722885Y2387268D01*
X23741322Y2384077D01*
X23760718Y2381854D01*
X23781509Y2380550D01*
X23804129Y2380114D01*
X23804758Y2380114D01*
X23822304Y2380323D01*
X23839346Y2380973D01*
X23856281Y2382108D01*
X23873506Y2383774D01*
X23891416Y2386015D01*
X23910410Y2388874D01*
X23930882Y2392397D01*
X23953231Y2396628D01*
X23954739Y2396925D01*
X23997062Y2405970D01*
X24038033Y2416130D01*
X24077571Y2427366D01*
X24115591Y2439642D01*
X24152012Y2452919D01*
X24186752Y2467161D01*
X24219727Y2482329D01*
X24250855Y2498387D01*
X24280053Y2515296D01*
X24307240Y2533020D01*
X24332331Y2551521D01*
X24355246Y2570761D01*
X24371420Y2586121D01*
X24376952Y2591830D01*
X24382609Y2597923D01*
X24387834Y2603782D01*
X24392067Y2608790D01*
X24393191Y2610203D01*
X24396651Y2614640D01*
X24399719Y2618560D01*
X24401986Y2621443D01*
X24402867Y2622550D01*
X24403808Y2623563D01*
X24404950Y2624094D01*
X24406803Y2624142D01*
X24409878Y2623702D01*
X24414687Y2622773D01*
X24416172Y2622473D01*
X24451751Y2616494D01*
X24487549Y2612912D01*
X24523627Y2611721D01*
X24560043Y2612920D01*
X24565548Y2613306D01*
X24594455Y2615730D01*
X24625594Y2618827D01*
X24658880Y2622582D01*
X24694225Y2626981D01*
X24731543Y2632008D01*
X24770747Y2637649D01*
X24811751Y2643889D01*
X24854469Y2650712D01*
X24898814Y2658104D01*
X24944699Y2666049D01*
X24992037Y2674533D01*
X25040744Y2683541D01*
X25090731Y2693058D01*
X25141912Y2703069D01*
X25194201Y2713558D01*
X25247512Y2724511D01*
X25301757Y2735913D01*
X25356851Y2747749D01*
X25409191Y2759226D01*
X25424446Y2762604D01*
X25437549Y2765446D01*
X25448718Y2767704D01*
X25458168Y2769333D01*
X25466119Y2770287D01*
X25472785Y2770520D01*
X25478385Y2769985D01*
X25483135Y2768636D01*
X25487252Y2766427D01*
X25490954Y2763313D01*
X25494458Y2759246D01*
X25497979Y2754182D01*
X25501736Y2748073D01*
X25505946Y2740873D01*
X25507413Y2738350D01*
X25520191Y2715798D01*
X25532168Y2693427D01*
X25543208Y2671521D01*
X25553176Y2650366D01*
X25561937Y2630248D01*
X25569355Y2611451D01*
X25574108Y2597928D01*
X25579409Y2579958D01*
X25583083Y2563188D01*
X25585140Y2547697D01*
X25585590Y2533562D01*
X25584441Y2520862D01*
X25581704Y2509676D01*
X25577387Y2500081D01*
X25571499Y2492156D01*
X25564052Y2485979D01*
X25560443Y2483916D01*
X25556969Y2482284D01*
X25553180Y2480786D01*
X25548954Y2479412D01*
X25544168Y2478151D01*
X25538701Y2476995D01*
X25532428Y2475934D01*
X25525228Y2474957D01*
X25516978Y2474057D01*
X25507557Y2473222D01*
X25496840Y2472443D01*
X25484706Y2471710D01*
X25471032Y2471015D01*
X25455696Y2470347D01*
X25438575Y2469696D01*
X25419547Y2469053D01*
X25398489Y2468408D01*
X25375279Y2467752D01*
X25349794Y2467075D01*
X25345086Y2466954D01*
X25303231Y2465809D01*
X25263604Y2464582D01*
X25226014Y2463261D01*
X25190271Y2461836D01*
X25156185Y2460297D01*
X25123564Y2458633D01*
X25092220Y2456833D01*
X25061961Y2454887D01*
X25032597Y2452784D01*
X25003938Y2450514D01*
X24975794Y2448067D01*
X24947973Y2445432D01*
X24938686Y2444504D01*
X24894561Y2439762D01*
X24851887Y2434586D01*
X24810408Y2428918D01*
X24769868Y2422700D01*
X24730010Y2415874D01*
X24690577Y2408381D01*
X24651314Y2400164D01*
X24611962Y2391165D01*
X24572266Y2381325D01*
X24531969Y2370586D01*
X24490814Y2358890D01*
X24448546Y2346179D01*
X24404906Y2332396D01*
X24359639Y2317481D01*
X24323643Y2305234D01*
X24306548Y2299231D01*
X24290252Y2293257D01*
X24274524Y2287200D01*
X24259135Y2280952D01*
X24243856Y2274402D01*
X24228458Y2267442D01*
X24212710Y2259960D01*
X24196383Y2251847D01*
X24179248Y2242994D01*
X24161075Y2233290D01*
X24141634Y2222626D01*
X24120697Y2210891D01*
X24098034Y2197977D01*
X24090810Y2193825D01*
X24070711Y2182261D01*
X24052550Y2171828D01*
X24036172Y2162443D01*
X24021425Y2154020D01*
X24008154Y2146476D01*
X23996208Y2139725D01*
X23985431Y2133682D01*
X23975670Y2128264D01*
X23966773Y2123385D01*
X23958585Y2118961D01*
X23950953Y2114907D01*
X23943723Y2111138D01*
X23936743Y2107570D01*
X23929858Y2104119D01*
X23922916Y2100698D01*
X23915762Y2097225D01*
X23915134Y2096922D01*
X23892012Y2086143D01*
X23870200Y2076799D01*
X23849229Y2068755D01*
X23828626Y2061876D01*
X23807924Y2056028D01*
X23786650Y2051076D01*
X23764334Y2046887D01*
X23740507Y2043324D01*
X23718277Y2040641D01*
X23704224Y2039352D01*
X23688471Y2038337D01*
X23671723Y2037616D01*
X23654685Y2037206D01*
X23638062Y2037126D01*
X23622559Y2037396D01*
X23612443Y2037820D01*
X23585170Y2040098D01*
X23557585Y2043911D01*
X23530096Y2049157D01*
X23503109Y2055733D01*
X23477033Y2063537D01*
X23452274Y2072467D01*
X23429240Y2082419D01*
X23423032Y2085437D01*
X23395267Y2100610D01*
X23368105Y2118083D01*
X23341594Y2137802D01*
X23315782Y2159714D01*
X23290716Y2183765D01*
X23266444Y2209899D01*
X23243015Y2238064D01*
X23220477Y2268205D01*
X23198876Y2300268D01*
X23178262Y2334199D01*
X23158682Y2369944D01*
X23143222Y2401011D01*
X23136935Y2414696D01*
X23130893Y2428878D01*
X23124924Y2444001D01*
X23118853Y2460507D01*
X23112507Y2478839D01*
X23111017Y2483280D01*
X23108388Y2491319D01*
X23105609Y2500092D01*
X23102803Y2509192D01*
X23100089Y2518209D01*
X23097589Y2526735D01*
X23095424Y2534359D01*
X23093713Y2540675D01*
X23092579Y2545272D01*
X23092301Y2546603D01*
X23091558Y2550567D01*
X23021404Y2578876D01*
X23009068Y2583863D01*
X22997409Y2588594D01*
X22986617Y2592989D01*
X22976885Y2596970D01*
X22968405Y2600458D01*
X22961368Y2603375D01*
X22955967Y2605640D01*
X22952392Y2607175D01*
X22950835Y2607902D01*
X22950784Y2607941D01*
X22951587Y2608849D01*
X22954056Y2611234D01*
X22958050Y2614967D01*
X22963427Y2619918D01*
X22970045Y2625957D01*
X22977762Y2632956D01*
X22986435Y2640786D01*
X22995923Y2649316D01*
X23006083Y2658418D01*
X23014784Y2666188D01*
X23027133Y2677204D01*
X23037800Y2686733D01*
X23046914Y2694897D01*
X23054600Y2701818D01*
X23060985Y2707616D01*
X23066195Y2712414D01*
X23070358Y2716333D01*
X23073599Y2719494D01*
X23076046Y2722018D01*
X23077824Y2724027D01*
X23079061Y2725643D01*
X23079883Y2726987D01*
X23080416Y2728180D01*
X23080787Y2729344D01*
X23080850Y2729572D01*
X23083048Y2736618D01*
X23086168Y2745172D01*
X23089964Y2754629D01*
X23094186Y2764380D01*
X23098585Y2773820D01*
X23100846Y2778376D01*
X23111971Y2798333D01*
X23124735Y2817576D01*
X23139372Y2836423D01*
X23156114Y2855193D01*
X23160621Y2859875D01*
X23179652Y2878231D01*
X23199291Y2894854D01*
X23219950Y2910041D01*
X23242041Y2924089D01*
X23265977Y2937296D01*
X23273172Y2940936D01*
X23296505Y2951864D01*
X23319824Y2961407D01*
X23343550Y2969695D01*
X23368106Y2976854D01*
X23393911Y2983014D01*
X23421387Y2988303D01*
X23437319Y2990879D01*
X23444120Y2991880D01*
X23450061Y2992657D01*
X23455621Y2993239D01*
X23461279Y2993654D01*
X23467512Y2993932D01*
X23474800Y2994101D01*
X23483620Y2994191D01*
X23492700Y2994226D01*
X23505460Y2994199D01*
%TA.AperFunction,EtchedComponent*%
G36*
X23505460Y2994199D02*
G01*
X23516318Y2994027D01*
X23525792Y2993667D01*
X23534397Y2993078D01*
X23542650Y2992217D01*
X23551065Y2991042D01*
X23560161Y2989512D01*
X23567691Y2988115D01*
X23587870Y2983739D01*
X23608818Y2978230D01*
X23629544Y2971875D01*
X23649061Y2964959D01*
X23652962Y2963442D01*
X23667766Y2957547D01*
X23682295Y2951672D01*
X23696681Y2945753D01*
X23711056Y2939730D01*
X23725555Y2933541D01*
X23740310Y2927123D01*
X23755454Y2920416D01*
X23771120Y2913356D01*
X23787440Y2905883D01*
X23804548Y2897933D01*
X23822577Y2889447D01*
X23841659Y2880361D01*
X23861927Y2870613D01*
X23883514Y2860143D01*
X23906554Y2848887D01*
X23931178Y2836785D01*
X23957521Y2823774D01*
X23985714Y2809792D01*
X24015892Y2794778D01*
X24023681Y2790896D01*
X24049685Y2777956D01*
X24073715Y2766050D01*
X24095942Y2755100D01*
X24116540Y2745025D01*
X24135680Y2735746D01*
X24153536Y2727183D01*
X24170280Y2719257D01*
X24186085Y2711888D01*
X24201122Y2704996D01*
X24215564Y2698503D01*
X24229585Y2692327D01*
X24243356Y2686390D01*
X24257049Y2680612D01*
X24270839Y2674913D01*
X24284895Y2669214D01*
X24299393Y2663435D01*
X24302407Y2662244D01*
X24311135Y2658767D01*
X24319116Y2655521D01*
X24326075Y2652624D01*
X24331740Y2650191D01*
X24335837Y2648340D01*
X24338094Y2647186D01*
X24338449Y2646900D01*
X24337796Y2645521D01*
X24335605Y2642812D01*
X24332150Y2639040D01*
X24327707Y2634475D01*
X24322552Y2629388D01*
X24316960Y2624046D01*
X24311205Y2618721D01*
X24305563Y2613680D01*
X24300309Y2609194D01*
X24298117Y2607406D01*
X24272620Y2588343D01*
X24244942Y2570248D01*
X24215127Y2553138D01*
X24183218Y2537032D01*
X24149258Y2521948D01*
X24113292Y2507904D01*
X24075363Y2494917D01*
X24035514Y2483006D01*
X23993789Y2472189D01*
X23950232Y2462484D01*
X23943248Y2461065D01*
X23913349Y2455474D01*
X23885359Y2451082D01*
X23859092Y2447876D01*
X23834364Y2445844D01*
X23810990Y2444972D01*
X23788786Y2445246D01*
X23767566Y2446654D01*
X23757702Y2447725D01*
X23735254Y2451356D01*
X23714561Y2456520D01*
X23695652Y2463200D01*
X23678554Y2471379D01*
X23663297Y2481041D01*
X23649909Y2492170D01*
X23638417Y2504748D01*
X23628851Y2518759D01*
X23625275Y2525344D01*
X23620949Y2534902D01*
X23617450Y2544941D01*
X23614644Y2555964D01*
X23612400Y2568473D01*
X23610904Y2580032D01*
X23610023Y2587885D01*
X23586438Y2589941D01*
X23579067Y2590580D01*
X23572473Y2591146D01*
X23567054Y2591604D01*
X23563209Y2591921D01*
X23561334Y2592064D01*
X23561270Y2592067D01*
X23560249Y2592781D01*
X23560401Y2593294D01*
X23559779Y2593812D01*
X23557472Y2593944D01*
X23554175Y2593748D01*
X23550583Y2593281D01*
X23547390Y2592601D01*
X23545920Y2592100D01*
X23544031Y2591580D01*
X23540155Y2590736D01*
X23534687Y2589649D01*
X23528026Y2588395D01*
X23520568Y2587053D01*
X23518705Y2586727D01*
X23490767Y2582096D01*
X23464225Y2578197D01*
X23438206Y2574913D01*
X23411841Y2572128D01*
X23403800Y2571379D01*
X23396110Y2570833D01*
X23386783Y2570410D01*
X23376281Y2570111D01*
X23365069Y2569936D01*
X23353611Y2569885D01*
X23342368Y2569958D01*
X23331805Y2570156D01*
X23322385Y2570479D01*
X23314572Y2570926D01*
X23310062Y2571342D01*
X23285093Y2574652D01*
X23260799Y2578728D01*
X23236538Y2583703D01*
X23211667Y2589712D01*
X23185542Y2596889D01*
X23180237Y2598439D01*
X23172489Y2600767D01*
X23166779Y2602600D01*
X23162808Y2604059D01*
X23160272Y2605264D01*
X23158872Y2606335D01*
X23158376Y2607148D01*
X23158048Y2608901D01*
X23157509Y2612773D01*
X23156793Y2618477D01*
X23155935Y2625726D01*
X23154968Y2634233D01*
X23153926Y2643709D01*
X23152867Y2653646D01*
X23151635Y2665534D01*
X23150673Y2675223D01*
X23149965Y2682916D01*
X23149499Y2688815D01*
X23149259Y2693126D01*
X23149233Y2696049D01*
X23149406Y2697790D01*
X23149765Y2698551D01*
X23149797Y2698573D01*
X23151924Y2699358D01*
X23155300Y2700126D01*
X23156317Y2700297D01*
X23160173Y2700993D01*
X23166019Y2702178D01*
X23173495Y2703771D01*
X23182240Y2705690D01*
X23191895Y2707852D01*
X23202097Y2710176D01*
X23212488Y2712579D01*
X23222706Y2714980D01*
X23232392Y2717297D01*
X23241184Y2719448D01*
X23247772Y2721105D01*
X23282959Y2730486D01*
X23315870Y2740030D01*
X23346645Y2749785D01*
X23375424Y2759797D01*
X23402348Y2770114D01*
X23427556Y2780783D01*
X23431620Y2782607D01*
X23455851Y2794419D01*
X23480526Y2808044D01*
X23505056Y2823106D01*
X23528851Y2839229D01*
X23551323Y2856039D01*
X23566481Y2868468D01*
X23572537Y2873735D01*
X23578823Y2879362D01*
X23585092Y2885111D01*
X23591100Y2890745D01*
X23596600Y2896028D01*
X23601347Y2900723D01*
X23605095Y2904592D01*
X23607599Y2907399D01*
X23608612Y2908906D01*
X23608590Y2909068D01*
X23606820Y2909942D01*
X23603060Y2911271D01*
X23597675Y2912951D01*
X23591027Y2914873D01*
X23583480Y2916930D01*
X23575397Y2919015D01*
X23571924Y2919875D01*
X23547957Y2924815D01*
X23523888Y2927904D01*
X23499483Y2929137D01*
X23474508Y2928507D01*
X23448728Y2926009D01*
X23421910Y2921635D01*
X23393817Y2915380D01*
X23393149Y2915213D01*
X23364590Y2907073D01*
X23337207Y2897327D01*
X23311101Y2886052D01*
X23286376Y2873327D01*
X23263131Y2859232D01*
X23241468Y2843844D01*
X23221490Y2827243D01*
X23203296Y2809508D01*
X23186989Y2790717D01*
X23172670Y2770949D01*
X23160441Y2750283D01*
X23150402Y2728797D01*
X23149201Y2725789D01*
X23145417Y2716113D01*
X23094692Y2667836D01*
X23085430Y2659014D01*
X23076705Y2650689D01*
X23068670Y2643009D01*
X23061483Y2636124D01*
X23055298Y2630183D01*
X23050271Y2625336D01*
X23046557Y2621733D01*
X23044313Y2619521D01*
X23043677Y2618850D01*
X23044690Y2618235D01*
X23047708Y2616737D01*
X23052523Y2614452D01*
X23058927Y2611475D01*
X23066712Y2607903D01*
X23075672Y2603831D01*
X23085597Y2599355D01*
X23096280Y2594570D01*
X23098835Y2593431D01*
X23154283Y2568719D01*
X23160056Y2548073D01*
X23162835Y2538487D01*
X23166210Y2527408D01*
X23169971Y2515478D01*
X23173910Y2503340D01*
X23177820Y2491636D01*
X23181491Y2481010D01*
X23184576Y2472478D01*
X23186444Y2467785D01*
X23187993Y2464880D01*
X23189590Y2463229D01*
X23191542Y2462317D01*
X23194046Y2461917D01*
X23198613Y2461596D01*
X23204890Y2461351D01*
X23212522Y2461184D01*
X23221155Y2461092D01*
X23230436Y2461075D01*
X23240009Y2461133D01*
X23249522Y2461265D01*
X23258619Y2461469D01*
X23266948Y2461745D01*
X23274153Y2462093D01*
X23279824Y2462506D01*
X23335690Y2468550D01*
X23369934Y2473136D01*
X23384581Y2475343D01*
X23397204Y2477503D01*
X23408195Y2479723D01*
X23417943Y2482111D01*
X23426840Y2484772D01*
X23435276Y2487814D01*
X23443642Y2491345D01*
X23452329Y2495471D01*
X23453391Y2496001D01*
X23472553Y2506811D01*
X23491344Y2519784D01*
X23509449Y2534661D01*
X23526551Y2551186D01*
X23540196Y2566497D01*
X23546524Y2574120D01*
X23546524Y2569944D01*
X23546871Y2564843D01*
X23547827Y2558037D01*
X23549271Y2550125D01*
X23551078Y2541706D01*
X23553126Y2533380D01*
X23555290Y2525747D01*
X23556217Y2522851D01*
X23564237Y2502485D01*
X23574176Y2483579D01*
X23586004Y2466158D01*
X23599690Y2450250D01*
X23615205Y2435882D01*
X23632518Y2423079D01*
X23651599Y2411869D01*
X23672417Y2402278D01*
X23694943Y2394333D01*
X23704972Y2391476D01*
X23722885Y2387268D01*
X23741322Y2384077D01*
X23760718Y2381854D01*
X23781509Y2380550D01*
X23804129Y2380114D01*
X23804758Y2380114D01*
X23822304Y2380323D01*
X23839346Y2380973D01*
X23856281Y2382108D01*
X23873506Y2383774D01*
X23891416Y2386015D01*
X23910410Y2388874D01*
X23930882Y2392397D01*
X23953231Y2396628D01*
X23954739Y2396925D01*
X23997062Y2405970D01*
X24038033Y2416130D01*
X24077571Y2427366D01*
X24115591Y2439642D01*
X24152012Y2452919D01*
X24186752Y2467161D01*
X24219727Y2482329D01*
X24250855Y2498387D01*
X24280053Y2515296D01*
X24307240Y2533020D01*
X24332331Y2551521D01*
X24355246Y2570761D01*
X24371420Y2586121D01*
X24376952Y2591830D01*
X24382609Y2597923D01*
X24387834Y2603782D01*
X24392067Y2608790D01*
X24393191Y2610203D01*
X24396651Y2614640D01*
X24399719Y2618560D01*
X24401986Y2621443D01*
X24402867Y2622550D01*
X24403808Y2623563D01*
X24404950Y2624094D01*
X24406803Y2624142D01*
X24409878Y2623702D01*
X24414687Y2622773D01*
X24416172Y2622473D01*
X24451751Y2616494D01*
X24487549Y2612912D01*
X24523627Y2611721D01*
X24560043Y2612920D01*
X24565548Y2613306D01*
X24594455Y2615730D01*
X24625594Y2618827D01*
X24658880Y2622582D01*
X24694225Y2626981D01*
X24731543Y2632008D01*
X24770747Y2637649D01*
X24811751Y2643889D01*
X24854469Y2650712D01*
X24898814Y2658104D01*
X24944699Y2666049D01*
X24992037Y2674533D01*
X25040744Y2683541D01*
X25090731Y2693058D01*
X25141912Y2703069D01*
X25194201Y2713558D01*
X25247512Y2724511D01*
X25301757Y2735913D01*
X25356851Y2747749D01*
X25409191Y2759226D01*
X25424446Y2762604D01*
X25437549Y2765446D01*
X25448718Y2767704D01*
X25458168Y2769333D01*
X25466119Y2770287D01*
X25472785Y2770520D01*
X25478385Y2769985D01*
X25483135Y2768636D01*
X25487252Y2766427D01*
X25490954Y2763313D01*
X25494458Y2759246D01*
X25497979Y2754182D01*
X25501736Y2748073D01*
X25505946Y2740873D01*
X25507413Y2738350D01*
X25520191Y2715798D01*
X25532168Y2693427D01*
X25543208Y2671521D01*
X25553176Y2650366D01*
X25561937Y2630248D01*
X25569355Y2611451D01*
X25574108Y2597928D01*
X25579409Y2579958D01*
X25583083Y2563188D01*
X25585140Y2547697D01*
X25585590Y2533562D01*
X25584441Y2520862D01*
X25581704Y2509676D01*
X25577387Y2500081D01*
X25571499Y2492156D01*
X25564052Y2485979D01*
X25560443Y2483916D01*
X25556969Y2482284D01*
X25553180Y2480786D01*
X25548954Y2479412D01*
X25544168Y2478151D01*
X25538701Y2476995D01*
X25532428Y2475934D01*
X25525228Y2474957D01*
X25516978Y2474057D01*
X25507557Y2473222D01*
X25496840Y2472443D01*
X25484706Y2471710D01*
X25471032Y2471015D01*
X25455696Y2470347D01*
X25438575Y2469696D01*
X25419547Y2469053D01*
X25398489Y2468408D01*
X25375279Y2467752D01*
X25349794Y2467075D01*
X25345086Y2466954D01*
X25303231Y2465809D01*
X25263604Y2464582D01*
X25226014Y2463261D01*
X25190271Y2461836D01*
X25156185Y2460297D01*
X25123564Y2458633D01*
X25092220Y2456833D01*
X25061961Y2454887D01*
X25032597Y2452784D01*
X25003938Y2450514D01*
X24975794Y2448067D01*
X24947973Y2445432D01*
X24938686Y2444504D01*
X24894561Y2439762D01*
X24851887Y2434586D01*
X24810408Y2428918D01*
X24769868Y2422700D01*
X24730010Y2415874D01*
X24690577Y2408381D01*
X24651314Y2400164D01*
X24611962Y2391165D01*
X24572266Y2381325D01*
X24531969Y2370586D01*
X24490814Y2358890D01*
X24448546Y2346179D01*
X24404906Y2332396D01*
X24359639Y2317481D01*
X24323643Y2305234D01*
X24306548Y2299231D01*
X24290252Y2293257D01*
X24274524Y2287200D01*
X24259135Y2280952D01*
X24243856Y2274402D01*
X24228458Y2267442D01*
X24212710Y2259960D01*
X24196383Y2251847D01*
X24179248Y2242994D01*
X24161075Y2233290D01*
X24141634Y2222626D01*
X24120697Y2210891D01*
X24098034Y2197977D01*
X24090810Y2193825D01*
X24070711Y2182261D01*
X24052550Y2171828D01*
X24036172Y2162443D01*
X24021425Y2154020D01*
X24008154Y2146476D01*
X23996208Y2139725D01*
X23985431Y2133682D01*
X23975670Y2128264D01*
X23966773Y2123385D01*
X23958585Y2118961D01*
X23950953Y2114907D01*
X23943723Y2111138D01*
X23936743Y2107570D01*
X23929858Y2104119D01*
X23922916Y2100698D01*
X23915762Y2097225D01*
X23915134Y2096922D01*
X23892012Y2086143D01*
X23870200Y2076799D01*
X23849229Y2068755D01*
X23828626Y2061876D01*
X23807924Y2056028D01*
X23786650Y2051076D01*
X23764334Y2046887D01*
X23740507Y2043324D01*
X23718277Y2040641D01*
X23704224Y2039352D01*
X23688471Y2038337D01*
X23671723Y2037616D01*
X23654685Y2037206D01*
X23638062Y2037126D01*
X23622559Y2037396D01*
X23612443Y2037820D01*
X23585170Y2040098D01*
X23557585Y2043911D01*
X23530096Y2049157D01*
X23503109Y2055733D01*
X23477033Y2063537D01*
X23452274Y2072467D01*
X23429240Y2082419D01*
X23423032Y2085437D01*
X23395267Y2100610D01*
X23368105Y2118083D01*
X23341594Y2137802D01*
X23315782Y2159714D01*
X23290716Y2183765D01*
X23266444Y2209899D01*
X23243015Y2238064D01*
X23220477Y2268205D01*
X23198876Y2300268D01*
X23178262Y2334199D01*
X23158682Y2369944D01*
X23143222Y2401011D01*
X23136935Y2414696D01*
X23130893Y2428878D01*
X23124924Y2444001D01*
X23118853Y2460507D01*
X23112507Y2478839D01*
X23111017Y2483280D01*
X23108388Y2491319D01*
X23105609Y2500092D01*
X23102803Y2509192D01*
X23100089Y2518209D01*
X23097589Y2526735D01*
X23095424Y2534359D01*
X23093713Y2540675D01*
X23092579Y2545272D01*
X23092301Y2546603D01*
X23091558Y2550567D01*
X23021404Y2578876D01*
X23009068Y2583863D01*
X22997409Y2588594D01*
X22986617Y2592989D01*
X22976885Y2596970D01*
X22968405Y2600458D01*
X22961368Y2603375D01*
X22955967Y2605640D01*
X22952392Y2607175D01*
X22950835Y2607902D01*
X22950784Y2607941D01*
X22951587Y2608849D01*
X22954056Y2611234D01*
X22958050Y2614967D01*
X22963427Y2619918D01*
X22970045Y2625957D01*
X22977762Y2632956D01*
X22986435Y2640786D01*
X22995923Y2649316D01*
X23006083Y2658418D01*
X23014784Y2666188D01*
X23027133Y2677204D01*
X23037800Y2686733D01*
X23046914Y2694897D01*
X23054600Y2701818D01*
X23060985Y2707616D01*
X23066195Y2712414D01*
X23070358Y2716333D01*
X23073599Y2719494D01*
X23076046Y2722018D01*
X23077824Y2724027D01*
X23079061Y2725643D01*
X23079883Y2726987D01*
X23080416Y2728180D01*
X23080787Y2729344D01*
X23080850Y2729572D01*
X23083048Y2736618D01*
X23086168Y2745172D01*
X23089964Y2754629D01*
X23094186Y2764380D01*
X23098585Y2773820D01*
X23100846Y2778376D01*
X23111971Y2798333D01*
X23124735Y2817576D01*
X23139372Y2836423D01*
X23156114Y2855193D01*
X23160621Y2859875D01*
X23179652Y2878231D01*
X23199291Y2894854D01*
X23219950Y2910041D01*
X23242041Y2924089D01*
X23265977Y2937296D01*
X23273172Y2940936D01*
X23296505Y2951864D01*
X23319824Y2961407D01*
X23343550Y2969695D01*
X23368106Y2976854D01*
X23393911Y2983014D01*
X23421387Y2988303D01*
X23437319Y2990879D01*
X23444120Y2991880D01*
X23450061Y2992657D01*
X23455621Y2993239D01*
X23461279Y2993654D01*
X23467512Y2993932D01*
X23474800Y2994101D01*
X23483620Y2994191D01*
X23492700Y2994226D01*
X23505460Y2994199D01*
G37*
%TD.AperFunction*%
%TD*%
D11*
%TO.P,R1,1,1*%
%TO.N,3.3V*%
X4982314Y10142017D03*
%TO.P,R1,2,2*%
%TO.N,Net-(D1-A)*%
X3332314Y10142017D03*
%TD*%
D12*
%TO.P,J1,1,Pin_1*%
%TO.N,/nRST*%
X26670000Y12700000D03*
D13*
%TO.P,J1,2,Pin_2*%
%TO.N,GND*%
X24130000Y12700000D03*
%TO.P,J1,3,Pin_3*%
%TO.N,/P0*%
X21590000Y12700000D03*
%TO.P,J1,4,Pin_4*%
%TO.N,/P1*%
X19050000Y12700000D03*
%TO.P,J1,5,Pin_5*%
%TO.N,/P2*%
X16510000Y12700000D03*
%TO.P,J1,6,Pin_6*%
%TO.N,/P3*%
X13970000Y12700000D03*
%TO.P,J1,7,Pin_7*%
%TO.N,/P4*%
X11430000Y12700000D03*
%TO.P,J1,8,Pin_8*%
%TO.N,/P5*%
X8890000Y12700000D03*
%TO.P,J1,9,Pin_9*%
%TO.N,/P6*%
X6350000Y12700000D03*
%TO.P,J1,10,Pin_10*%
%TO.N,/P7*%
X3810000Y12700000D03*
%TO.P,J1,11,Pin_11*%
%TO.N,3.3V*%
X1270000Y12700000D03*
%TO.P,J1,12,Pin_12*%
%TO.N,/SWCLK*%
X-1270000Y12700000D03*
%TD*%
D14*
%TO.P,R3,1,1*%
%TO.N,VCC*%
X7514279Y8689342D03*
D15*
%TO.P,R3,2,1*%
%TO.N,3.3V*%
X6714279Y8689342D03*
%TO.P,R3,3,1*%
%TO.N,VCC*%
X5914279Y8689342D03*
D14*
%TO.P,R3,4,1*%
%TO.N,3.3V*%
X5114279Y8689342D03*
%TO.P,R3,5,2*%
%TO.N,/SDA_3V*%
X5114279Y6889342D03*
D15*
%TO.P,R3,6,2*%
%TO.N,/SDA*%
X5914279Y6889342D03*
%TO.P,R3,7,2*%
%TO.N,/SCL_3V*%
X6714279Y6889342D03*
D14*
%TO.P,R3,8,2*%
%TO.N,/SCL*%
X7514279Y6889342D03*
%TD*%
D16*
%TO.P,Q2,1,S*%
%TO.N,/SCL_3V*%
X6948888Y4131035D03*
D17*
%TO.P,Q2,2,G*%
%TO.N,3.3V*%
X6948888Y4881035D03*
D16*
%TO.P,Q2,3,D*%
%TO.N,/SDA*%
X6948888Y5631035D03*
%TO.P,Q2,4,S*%
%TO.N,/SDA_3V*%
X5148888Y5631035D03*
D17*
%TO.P,Q2,5,G*%
%TO.N,3.3V*%
X5148888Y4881035D03*
D16*
%TO.P,Q2,6,D*%
%TO.N,/SCL*%
X5148888Y4131035D03*
%TD*%
D18*
%TO.P,D1,1,K*%
%TO.N,GND*%
X355500Y10160000D03*
%TO.P,D1,2,A*%
%TO.N,Net-(D1-A)*%
X1930500Y10160000D03*
%TD*%
D19*
%TO.P,U$19,P$1*%
%TO.N,N/C*%
X0Y0D03*
%TD*%
D20*
%TO.P,CONN3,1,GND*%
%TO.N,GND*%
X22886000Y4850000D03*
%TO.P,CONN3,2,V+*%
%TO.N,VCC*%
X22886000Y5850000D03*
%TO.P,CONN3,3,SDA*%
%TO.N,/SDA*%
X22886000Y6850000D03*
%TO.P,CONN3,4,SCL*%
%TO.N,/SCL*%
X22886000Y7850000D03*
D21*
%TO.P,CONN3,MT1*%
%TO.N,N/C*%
X26786000Y3550000D03*
%TO.P,CONN3,MT2*%
X26786000Y9150000D03*
%TD*%
D12*
%TO.P,J2,1,Pin_1*%
%TO.N,VCC*%
X3810000Y0D03*
D13*
%TO.P,J2,2,Pin_2*%
%TO.N,GND*%
X6350000Y0D03*
%TO.P,J2,3,Pin_3*%
%TO.N,/SCL*%
X8890000Y0D03*
%TO.P,J2,4,Pin_4*%
%TO.N,/SDA*%
X11430000Y0D03*
%TO.P,J2,5,Pin_5*%
%TO.N,/B9*%
X13970000Y0D03*
%TO.P,J2,6,Pin_6*%
%TO.N,/A12*%
X16510000Y0D03*
%TO.P,J2,7,Pin_7*%
%TO.N,/A11*%
X19050000Y0D03*
%TO.P,J2,8,Pin_8*%
%TO.N,/A8*%
X21590000Y0D03*
%TD*%
D22*
%TO.P,D2,1,K*%
%TO.N,Net-(D2-K)*%
X9166861Y2688827D03*
%TO.P,D2,2,A*%
%TO.N,3.3V*%
X7591861Y2688827D03*
%TD*%
D23*
%TO.P,U1,1,PB7/PB8/I2C1_SDA*%
%TO.N,/SDA_3V*%
X15562500Y4060000D03*
%TO.P,U1,2,PB9/PC14-OSC32_IN*%
%TO.N,/B9*%
X15562500Y4710000D03*
%TO.P,U1,3,PC15-OSC32_OUT*%
%TO.N,unconnected-(U1-PC15-OSC32_OUT-Pad3)*%
X15562500Y5360000D03*
%TO.P,U1,4,VDD/VDDA*%
%TO.N,3.3V*%
X15562500Y6010000D03*
%TO.P,U1,5,VSS/VSSA*%
%TO.N,GND*%
X15562500Y6660000D03*
%TO.P,U1,6,NRST*%
%TO.N,/nRST*%
X15562500Y7310000D03*
%TO.P,U1,7,PA0*%
%TO.N,/P0*%
X15562500Y7960000D03*
%TO.P,U1,8,PA1*%
%TO.N,/P1*%
X15562500Y8610000D03*
%TO.P,U1,9,PA2*%
%TO.N,/P2*%
X15562500Y9260000D03*
%TO.P,U1,10,PA3*%
%TO.N,/P3*%
X15562500Y9910000D03*
%TO.P,U1,11,PA4*%
%TO.N,/P4*%
X9837500Y9910000D03*
%TO.P,U1,12,PA5*%
%TO.N,/P5*%
X9837500Y9260000D03*
%TO.P,U1,13,PA6*%
%TO.N,/P6*%
X9837500Y8610000D03*
%TO.P,U1,14,PA7*%
%TO.N,/P7*%
X9837500Y7960000D03*
%TO.P,U1,15,PB0/PB1/PB2/PA8*%
%TO.N,/A8*%
X9837500Y7310000D03*
%TO.P,U1,16,PA11[PA9]*%
%TO.N,/A11*%
X9837500Y6660000D03*
%TO.P,U1,17,PA12[PA10]*%
%TO.N,/A12*%
X9837500Y6010000D03*
%TO.P,U1,18,PA13/SWDIO*%
%TO.N,/SWDIO*%
X9837500Y5360000D03*
%TO.P,U1,19,PA15/PA14/SWCLK-BOOT0*%
%TO.N,/SWCLK*%
X9837500Y4710000D03*
%TO.P,U1,20,PB3/PB4/PB5/PB6/I2C1_SCL*%
%TO.N,/SCL_3V*%
X9837500Y4060000D03*
%TD*%
D19*
%TO.P,U$21,P$1*%
%TO.N,N/C*%
X25400000Y0D03*
%TD*%
D24*
%TO.P,J4,1,Pin_1*%
%TO.N,VCC*%
X3810000Y-2540000D03*
%TO.P,J4,2,Pin_2*%
%TO.N,GND*%
X6350000Y-2540000D03*
%TO.P,J4,3,Pin_3*%
%TO.N,/SCL*%
X8890000Y-2540000D03*
%TO.P,J4,4,Pin_4*%
%TO.N,/SDA*%
X11430000Y-2540000D03*
%TO.P,J4,5,Pin_5*%
%TO.N,/B9*%
X13970000Y-2540000D03*
%TO.P,J4,6,Pin_6*%
%TO.N,/A12*%
X16510000Y-2540000D03*
%TO.P,J4,7,Pin_7*%
%TO.N,/A11*%
X19050000Y-2540000D03*
%TO.P,J4,8,Pin_8*%
%TO.N,/A8*%
X21590000Y-2540000D03*
%TD*%
D25*
%TO.P,U2,1,IN*%
%TO.N,VCC*%
X19092406Y5562232D03*
%TO.P,U2,2,GND*%
%TO.N,GND*%
X20042406Y5562232D03*
%TO.P,U2,3,EN*%
%TO.N,VCC*%
X20992406Y5562232D03*
%TO.P,U2,4,P4*%
%TO.N,unconnected-(U2-P4-Pad4)*%
X20992406Y7837232D03*
%TO.P,U2,5,OUT*%
%TO.N,3.3V*%
X19092406Y7837232D03*
%TD*%
D26*
%TO.P,C1,1,1*%
%TO.N,3.3V*%
X17511712Y5416795D03*
%TO.P,C1,2,2*%
%TO.N,GND*%
X17511712Y6966795D03*
%TD*%
D27*
%TO.P,C3,1,1*%
%TO.N,3.3V*%
X19049470Y9834070D03*
%TO.P,C3,2,2*%
%TO.N,GND*%
X20949470Y9834070D03*
%TD*%
D20*
%TO.P,CONN4,1,GND*%
%TO.N,GND*%
X2514000Y7850000D03*
%TO.P,CONN4,2,V+*%
%TO.N,VCC*%
X2514000Y6850000D03*
%TO.P,CONN4,3,SDA*%
%TO.N,/SDA*%
X2514000Y5850000D03*
%TO.P,CONN4,4,SCL*%
%TO.N,/SCL*%
X2514000Y4850000D03*
D21*
%TO.P,CONN4,MT1*%
%TO.N,N/C*%
X-1386000Y9150000D03*
%TO.P,CONN4,MT2*%
X-1386000Y3550000D03*
%TD*%
D24*
%TO.P,J5,1,Pin_1*%
%TO.N,GND*%
X24130000Y15240000D03*
%TO.P,J5,2,Pin_2*%
%TO.N,/P0*%
X21590000Y15240000D03*
D28*
%TO.P,J5,3,Pin_3*%
%TO.N,/P1*%
X19050000Y15240000D03*
D24*
%TO.P,J5,4,Pin_4*%
%TO.N,/P2*%
X16510000Y15240000D03*
%TO.P,J5,5,Pin_5*%
%TO.N,/P3*%
X13970000Y15240000D03*
%TO.P,J5,6,Pin_6*%
%TO.N,/P4*%
X11430000Y15240000D03*
%TO.P,J5,7,Pin_7*%
%TO.N,/P5*%
X8890000Y15240000D03*
%TO.P,J5,8,Pin_8*%
%TO.N,/P6*%
X6350000Y15240000D03*
%TO.P,J5,9,Pin_9*%
%TO.N,/P7*%
X3810000Y15240000D03*
%TO.P,J5,10,Pin_10*%
%TO.N,3.3V*%
X1270000Y15240000D03*
%TD*%
D27*
%TO.P,C2,1,1*%
%TO.N,VCC*%
X19436530Y3157500D03*
%TO.P,C2,2,2*%
%TO.N,GND*%
X21336530Y3157500D03*
%TD*%
D29*
%TO.P,R2,1*%
%TO.N,Net-(D2-K)*%
X10620307Y2624251D03*
%TO.P,R2,2*%
%TO.N,/B9*%
X12270307Y2624251D03*
%TD*%
D30*
%TO.N,GND*%
X-1945217Y6479287D03*
D31*
%TO.N,3.3V*%
X6045924Y4938943D03*
X13323855Y6416009D03*
X4052981Y8901807D03*
D30*
%TO.N,VCC*%
X3613923Y3555812D03*
X16766783Y2727100D03*
D32*
%TO.N,/SCL*%
X4283334Y4644968D03*
X24672506Y7841615D03*
X8407277Y4244051D03*
%TO.N,/SDA*%
X25617101Y6862671D03*
X11094260Y5558504D03*
X1280971Y5836238D03*
%TO.N,/SDA_3V*%
X11271712Y7465562D03*
X4705654Y6195739D03*
%TO.N,/SWCLK*%
X11134753Y4378425D03*
%TO.N,/SWDIO*%
X11298232Y3593662D03*
%TO.N,/nRST*%
X13985938Y7098444D03*
X13771135Y10029271D03*
%TO.N,/B9*%
X13953606Y5198940D03*
X12958186Y3414864D03*
%TD*%
D33*
%TO.N,GND*%
X-1896313Y6479287D02*
X-1945217Y6479287D01*
X355500Y10160000D02*
X355500Y8731100D01*
X355500Y8731100D02*
X-1896313Y6479287D01*
D34*
%TO.N,3.3V*%
X4052981Y8901807D02*
X4901814Y8901807D01*
X6948888Y4881035D02*
X6103832Y4881035D01*
X5988016Y4881035D02*
X6045924Y4938943D01*
X6733361Y2921000D02*
X7009902Y2644459D01*
D35*
X19092406Y7837232D02*
X19092406Y6997489D01*
X19049470Y9834070D02*
X19049470Y7880168D01*
D34*
X4052981Y8901807D02*
X4052981Y9212684D01*
X7009902Y2644459D02*
X7547493Y2644459D01*
X7547493Y2644459D02*
X7591861Y2688827D01*
X1270000Y15240000D02*
X1270000Y12700000D01*
X17409625Y5711654D02*
X17111279Y6010000D01*
X13729864Y6010000D02*
X13323855Y6416009D01*
X6731000Y2921000D02*
X6045924Y3606076D01*
X6714279Y8889342D02*
X5461604Y10142017D01*
D35*
X19049470Y7880168D02*
X19092406Y7837232D01*
D34*
X6714279Y8689342D02*
X6714279Y8889342D01*
X17111279Y6010000D02*
X15562500Y6010000D01*
X15562500Y6010000D02*
X13729864Y6010000D01*
X6045924Y3606076D02*
X6045924Y4938943D01*
X4901814Y8901807D02*
X5114279Y8689342D01*
X5148888Y4881035D02*
X5988016Y4881035D01*
X4052981Y9212684D02*
X4982314Y10142017D01*
D35*
X19092406Y6997489D02*
X17511712Y5416795D01*
D34*
X6103832Y4881035D02*
X6045924Y4938943D01*
X5461604Y10142017D02*
X4982314Y10142017D01*
X6731000Y2921000D02*
X6733361Y2921000D01*
D35*
%TO.N,VCC*%
X2989000Y6850000D02*
X4237842Y8098842D01*
X5523779Y8098842D02*
X7073779Y8098842D01*
X7073779Y8098842D02*
X7514279Y8539342D01*
D33*
X20213329Y4391550D02*
X19117965Y4391550D01*
X496047Y4895311D02*
X1835546Y3555812D01*
X19117965Y4391550D02*
X18412447Y4391550D01*
X707603Y6850000D02*
X496047Y6638444D01*
X19436530Y3157500D02*
X19436530Y4072985D01*
X22886000Y5850000D02*
X21280174Y5850000D01*
X16766783Y2745886D02*
X16766783Y2727100D01*
X19436530Y4072985D02*
X19117965Y4391550D01*
D35*
X5914279Y8489342D02*
X5914279Y8689342D01*
D33*
X19092406Y4417109D02*
X19092406Y5562232D01*
X18412447Y4391550D02*
X16766783Y2745886D01*
X21280174Y5850000D02*
X20992406Y5562232D01*
X19117965Y4391550D02*
X19092406Y4417109D01*
X2514000Y6850000D02*
X707603Y6850000D01*
X1835546Y3555812D02*
X3613923Y3555812D01*
X496047Y6638444D02*
X496047Y4895311D01*
D35*
X4237842Y8098842D02*
X5523779Y8098842D01*
X7514279Y8539342D02*
X7514279Y8689342D01*
D33*
X20992406Y5562232D02*
X20992406Y5170627D01*
X20992406Y5170627D02*
X20213329Y4391550D01*
D35*
X5523779Y8098842D02*
X5914279Y8489342D01*
X2514000Y6850000D02*
X2989000Y6850000D01*
D36*
%TO.N,/SCL*%
X24664121Y7850000D02*
X22886000Y7850000D01*
X5148888Y4131035D02*
X4797267Y4131035D01*
X4797267Y4131035D02*
X4283334Y4644968D01*
X4086143Y4842159D02*
X4283334Y4644968D01*
X8890000Y0D02*
X8890000Y-2540000D01*
X8407277Y5996344D02*
X7514279Y6889342D01*
X4086143Y4850000D02*
X4086143Y4842159D01*
D35*
X6835886Y1673555D02*
X7731894Y1673555D01*
X6215289Y2294152D02*
X6835886Y1673555D01*
D36*
X8890000Y1269689D02*
X8502895Y1656794D01*
X7731894Y1673555D02*
X8502895Y1673555D01*
X4415801Y3353620D02*
X5475269Y2294152D01*
D35*
X6036588Y2294152D02*
X6215289Y2294152D01*
D36*
X5475269Y2294152D02*
X6036588Y2294152D01*
X2514000Y4850000D02*
X4086143Y4850000D01*
X8890000Y1202081D02*
X8890000Y0D01*
X4415801Y4512501D02*
X4415801Y3353620D01*
X8890000Y1219406D02*
X8890000Y1202081D01*
X8890000Y1269689D02*
X8890000Y1252928D01*
X8502895Y1656794D02*
X8502895Y1673555D01*
X8890000Y1219406D02*
X8890000Y1236167D01*
X8890000Y1252928D02*
X8890000Y1236167D01*
X4283334Y4644968D02*
X4415801Y4512501D01*
X24672506Y7841615D02*
X24664121Y7850000D01*
X8407277Y4244051D02*
X8407277Y5996344D01*
D35*
%TO.N,/SDA*%
X5914279Y6665644D02*
X5914279Y6889342D01*
X5914279Y7429541D02*
X5914279Y6889342D01*
D36*
X1294733Y5850000D02*
X1280971Y5836238D01*
X11430000Y0D02*
X11430000Y-2540000D01*
X25604430Y6850000D02*
X22886000Y6850000D01*
X11329605Y5323159D02*
X11094260Y5558504D01*
X11430000Y2895534D02*
X12146946Y3612480D01*
X12146946Y4617508D02*
X11441295Y5323159D01*
X12146946Y3612480D02*
X12146946Y4617508D01*
D35*
X2989000Y5850000D02*
X4758599Y7619599D01*
X6948888Y5631035D02*
X5914279Y6665644D01*
D36*
X11430000Y0D02*
X11430000Y2895534D01*
X2514000Y5850000D02*
X1294733Y5850000D01*
D35*
X5724221Y7619599D02*
X5914279Y7429541D01*
X4758599Y7619599D02*
X5724221Y7619599D01*
D36*
X11441295Y5323159D02*
X11329605Y5323159D01*
D35*
X2514000Y5850000D02*
X2989000Y5850000D01*
D36*
X25617101Y6862671D02*
X25604430Y6850000D01*
%TO.N,/SDA_3V*%
X5114279Y6889342D02*
X5114279Y6604364D01*
X11271712Y7465562D02*
X12710259Y6027015D01*
X5114279Y6604364D02*
X4705654Y6195739D01*
X5148888Y5631035D02*
X5148888Y6854733D01*
X5148888Y6854733D02*
X5114279Y6889342D01*
X12710259Y5651894D02*
X14302153Y4060000D01*
X14302153Y4060000D02*
X15562500Y4060000D01*
X12710259Y6027015D02*
X12710259Y5651894D01*
D35*
%TO.N,/SCL_3V*%
X6714279Y6689342D02*
X8006213Y5397408D01*
X7166284Y4131035D02*
X6948888Y4131035D01*
X9404011Y3626511D02*
X7995010Y3626511D01*
X8006213Y4970964D02*
X7166284Y4131035D01*
X8006213Y5397408D02*
X8006213Y4970964D01*
X7490486Y4131035D02*
X6948888Y4131035D01*
X6714279Y6889342D02*
X6714279Y6689342D01*
X7995010Y3626511D02*
X7490486Y4131035D01*
X9837500Y4060000D02*
X9404011Y3626511D01*
D36*
%TO.N,Net-(D1-A)*%
X1948483Y10142017D02*
X1930500Y10160000D01*
X3332314Y10142017D02*
X1948483Y10142017D01*
%TO.N,/SWCLK*%
X9837500Y4710000D02*
X10803178Y4710000D01*
X10803178Y4710000D02*
X11134753Y4378425D01*
%TO.N,/SWDIO*%
X11707986Y4664730D02*
X11707986Y4003416D01*
X10846249Y4985818D02*
X11386898Y4985818D01*
X11386898Y4985818D02*
X11707986Y4664730D01*
X11707986Y4003416D02*
X11298232Y3593662D01*
X10472067Y5360000D02*
X10846249Y4985818D01*
X9837500Y5360000D02*
X10472067Y5360000D01*
%TO.N,Net-(D2-K)*%
X10620307Y2624251D02*
X9231437Y2624251D01*
X9231437Y2624251D02*
X9166861Y2688827D01*
%TO.N,/nRST*%
X13771135Y7313247D02*
X13985938Y7098444D01*
X15350944Y7098444D02*
X13985938Y7098444D01*
X13771135Y10029271D02*
X13771135Y7313247D01*
X15562500Y7310000D02*
X15350944Y7098444D01*
%TO.N,/B9*%
X11955307Y2624251D02*
X12745920Y3414864D01*
X11955307Y2014693D02*
X13970000Y0D01*
X14442546Y4710000D02*
X13953606Y5198940D01*
X15562500Y4710000D02*
X14442546Y4710000D01*
X12745920Y3414864D02*
X12958186Y3414864D01*
X13970000Y0D02*
X13970000Y-2540000D01*
X11955307Y2624251D02*
X11955307Y2014693D01*
%TO.N,/A12*%
X11880756Y5575415D02*
X11880756Y5308301D01*
X9837500Y6010000D02*
X9958689Y6131189D01*
X16510000Y679058D02*
X16510000Y0D01*
X11880756Y5308301D02*
X16510000Y679058D01*
X11324982Y6131189D02*
X11880756Y5575415D01*
X16510000Y0D02*
X16510000Y-2540000D01*
X9958689Y6131189D02*
X11324982Y6131189D01*
%TO.N,/A11*%
X9837500Y6660000D02*
X10889460Y6660000D01*
X12157257Y5422832D02*
X16003433Y1576656D01*
X17473344Y1576656D02*
X19050000Y0D01*
X16003433Y1576656D02*
X17473344Y1576656D01*
X10920121Y6629340D02*
X11217863Y6629340D01*
X10889460Y6660000D02*
X10920121Y6629340D01*
X12157257Y5689946D02*
X12157257Y5422832D01*
X11217863Y6629340D02*
X12157257Y5689946D01*
X19050000Y0D02*
X19050000Y-2540000D01*
%TO.N,/A8*%
X12433758Y5804477D02*
X12433758Y5537363D01*
X11034858Y6906340D02*
X11331895Y6906340D01*
X9837500Y7310000D02*
X10631198Y7310000D01*
X21590000Y0D02*
X21590000Y-2540000D01*
X11331895Y6906340D02*
X12433758Y5804477D01*
X19577700Y2012300D02*
X21590000Y0D01*
X12433758Y5537363D02*
X15958821Y2012300D01*
X15958821Y2012300D02*
X19577700Y2012300D01*
X10631198Y7310000D02*
X11034858Y6906340D01*
%TO.N,/P0*%
X15562500Y7960000D02*
X16077092Y7960000D01*
X17091136Y10766125D02*
X17915214Y11590203D01*
X17915214Y11590203D02*
X20480203Y11590203D01*
X17091136Y8974044D02*
X17091136Y10766125D01*
X21590000Y15240000D02*
X21590000Y12700000D01*
X20480203Y11590203D02*
X21590000Y12700000D01*
X16077092Y7960000D02*
X17091136Y8974044D01*
%TO.N,/P1*%
X15562500Y8610000D02*
X16077092Y8610000D01*
X19050000Y15240000D02*
X19050000Y12700000D01*
X18633979Y12700000D02*
X19050000Y12700000D01*
X16814635Y9347543D02*
X16814635Y10880656D01*
X16814635Y10880656D02*
X18633979Y12700000D01*
X16077092Y8610000D02*
X16814635Y9347543D01*
%TO.N,/P2*%
X15562500Y9260000D02*
X16077092Y9260000D01*
X16077092Y9260000D02*
X16510000Y9692908D01*
X16510000Y15240000D02*
X16510000Y12700000D01*
X16510000Y9692908D02*
X16510000Y12700000D01*
%TO.N,/P3*%
X15562500Y9910000D02*
X15562500Y11107500D01*
X15562500Y11107500D02*
X13970000Y12700000D01*
X13970000Y15240000D02*
X13970000Y12700000D01*
%TO.N,/P4*%
X8835771Y9965909D02*
X8835770Y10105770D01*
X9837500Y9910000D02*
X8891680Y9910000D01*
X11430000Y15240000D02*
X11430000Y12700000D01*
X8835770Y10105770D02*
X11430000Y12700000D01*
X8891680Y9910000D02*
X8835771Y9965909D01*
%TO.N,/P5*%
X8559270Y9851379D02*
X8559270Y11167189D01*
X9837500Y9260000D02*
X9150649Y9260000D01*
X8890000Y11497919D02*
X8890000Y12700000D01*
X8559270Y11167189D02*
X8890000Y11497919D01*
X8890000Y15240000D02*
X8890000Y12700000D01*
X9150649Y9260000D02*
X8559270Y9851379D01*
%TO.N,/P6*%
X6350000Y15240000D02*
X6350000Y12700000D01*
X9322908Y8610000D02*
X8282769Y9650139D01*
X9837500Y8610000D02*
X9322908Y8610000D01*
X8282769Y10767231D02*
X6350000Y12700000D01*
X8282769Y9650139D02*
X8282769Y10767231D01*
%TO.N,/P7*%
X5182322Y11327678D02*
X3810000Y12700000D01*
X8898000Y8384908D02*
X8898000Y8588020D01*
X9837500Y7960000D02*
X9322908Y7960000D01*
X3810000Y15240000D02*
X3810000Y12700000D01*
X9322908Y7960000D02*
X8898000Y8384908D01*
X8006268Y9479752D02*
X8006268Y10462497D01*
X8898000Y8588020D02*
X8006268Y9479752D01*
X8006268Y10462497D02*
X7141087Y11327678D01*
X7141087Y11327678D02*
X5182322Y11327678D01*
%TD*%
%TA.AperFunction,Conductor*%
%TO.N,GND*%
G36*
X277828Y15196194D02*
G01*
X295833Y15158126D01*
X306642Y15048378D01*
X326811Y14981889D01*
X362538Y14864117D01*
X362539Y14864116D01*
X453302Y14694308D01*
X453306Y14694302D01*
X575459Y14545459D01*
X724302Y14423306D01*
X724304Y14423305D01*
X724307Y14423303D01*
X768491Y14399687D01*
X894117Y14332538D01*
X945743Y14316878D01*
X982720Y14286531D01*
X990100Y14257069D01*
X990100Y13682932D01*
X971794Y13638738D01*
X945744Y13623124D01*
X894118Y13607463D01*
X894114Y13607461D01*
X724307Y13516698D01*
X724301Y13516694D01*
X575459Y13394541D01*
X453306Y13245699D01*
X453302Y13245693D01*
X374704Y13098644D01*
X362538Y13075883D01*
X343593Y13013429D01*
X306642Y12891623D01*
X287770Y12700001D01*
X287770Y12700000D01*
X306642Y12508378D01*
X322780Y12455180D01*
X362538Y12324117D01*
X362539Y12324116D01*
X453302Y12154308D01*
X453306Y12154302D01*
X575459Y12005459D01*
X724302Y11883306D01*
X724304Y11883305D01*
X724307Y11883303D01*
X734324Y11877949D01*
X894117Y11792538D01*
X1078376Y11736643D01*
X1270000Y11717770D01*
X1461624Y11736643D01*
X1645883Y11792538D01*
X1815698Y11883306D01*
X1964541Y12005459D01*
X2086694Y12154302D01*
X2177462Y12324117D01*
X2233357Y12508376D01*
X2252230Y12700000D01*
X2251730Y12705072D01*
X2233357Y12891623D01*
X2226885Y12912959D01*
X2177462Y13075883D01*
X2086694Y13245698D01*
X1964541Y13394541D01*
X1815698Y13516694D01*
X1815692Y13516698D01*
X1645885Y13607461D01*
X1645881Y13607463D01*
X1594256Y13623124D01*
X1557279Y13653471D01*
X1549900Y13682932D01*
X1549900Y14257069D01*
X1568206Y14301263D01*
X1594255Y14316877D01*
X1645883Y14332538D01*
X1815698Y14423306D01*
X1964541Y14545459D01*
X2086694Y14694302D01*
X2177462Y14864117D01*
X2233357Y15048376D01*
X2236769Y15083023D01*
X2244167Y15158126D01*
X2266717Y15200313D01*
X2306366Y15214500D01*
X2773634Y15214500D01*
X2817828Y15196194D01*
X2835833Y15158126D01*
X2846642Y15048378D01*
X2866811Y14981889D01*
X2902538Y14864117D01*
X2902539Y14864116D01*
X2993302Y14694308D01*
X2993306Y14694302D01*
X3115459Y14545459D01*
X3264302Y14423306D01*
X3264304Y14423305D01*
X3264307Y14423303D01*
X3308491Y14399687D01*
X3434117Y14332538D01*
X3563143Y14293399D01*
X3600120Y14263052D01*
X3607500Y14233590D01*
X3607500Y13706412D01*
X3589194Y13662218D01*
X3563144Y13646604D01*
X3434122Y13607464D01*
X3434115Y13607461D01*
X3264307Y13516698D01*
X3264301Y13516694D01*
X3115459Y13394541D01*
X2993306Y13245699D01*
X2993302Y13245693D01*
X2914704Y13098644D01*
X2902538Y13075883D01*
X2883593Y13013429D01*
X2846642Y12891623D01*
X2827770Y12700001D01*
X2827770Y12700000D01*
X2846642Y12508378D01*
X2862780Y12455180D01*
X2902538Y12324117D01*
X2902539Y12324116D01*
X2993302Y12154308D01*
X2993306Y12154302D01*
X3115459Y12005459D01*
X3264302Y11883306D01*
X3264304Y11883305D01*
X3264307Y11883303D01*
X3274324Y11877949D01*
X3434117Y11792538D01*
X3618376Y11736643D01*
X3810000Y11717770D01*
X4001624Y11736643D01*
X4185883Y11792538D01*
X4304793Y11856099D01*
X4352398Y11860787D01*
X4378450Y11845172D01*
X5007292Y11216330D01*
X5019407Y11199257D01*
X5019929Y11198174D01*
X5045812Y11177534D01*
X5048423Y11175199D01*
X5055267Y11168355D01*
X5063476Y11163198D01*
X5066322Y11161178D01*
X5092201Y11140540D01*
X5092200Y11140540D01*
X5093362Y11140275D01*
X5112708Y11132263D01*
X5113720Y11131627D01*
X5146620Y11127921D01*
X5150044Y11127338D01*
X5159505Y11125178D01*
X5169193Y11125178D01*
X5172695Y11124981D01*
X5205577Y11121276D01*
X5205577Y11121277D01*
X5205578Y11121276D01*
X5206706Y11121671D01*
X5227350Y11125178D01*
X7031321Y11125178D01*
X7075515Y11106872D01*
X7785462Y10396925D01*
X7803768Y10352732D01*
X7803768Y9524779D01*
X7800261Y9504136D01*
X7799866Y9503008D01*
X7803571Y9470124D01*
X7803768Y9466623D01*
X7803768Y9456934D01*
X7805923Y9447491D01*
X7806510Y9444037D01*
X7810216Y9411151D01*
X7810851Y9410141D01*
X7818862Y9390803D01*
X7819129Y9389632D01*
X7819130Y9389629D01*
X7839761Y9363760D01*
X7841790Y9360900D01*
X7846943Y9352698D01*
X7846944Y9352697D01*
X7853787Y9345855D01*
X7856126Y9343239D01*
X7876764Y9317359D01*
X7880013Y9314768D01*
X7903154Y9272902D01*
X7889913Y9226936D01*
X7848047Y9203795D01*
X7817132Y9208158D01*
X7814027Y9209444D01*
X7776837Y9216842D01*
X7251721Y9216842D01*
X7233125Y9213144D01*
X7214530Y9209444D01*
X7214529Y9209444D01*
X7172356Y9181265D01*
X7141246Y9134704D01*
X7101472Y9108128D01*
X7054556Y9117460D01*
X7037312Y9134704D01*
X7006201Y9181265D01*
X6964027Y9209444D01*
X6926837Y9216842D01*
X6926836Y9216842D01*
X6808505Y9216842D01*
X6764311Y9235148D01*
X5699018Y10300441D01*
X5692674Y10309259D01*
X5692327Y10308996D01*
X5688837Y10313618D01*
X5655462Y10344044D01*
X5654417Y10345042D01*
X5641183Y10358276D01*
X5637604Y10360728D01*
X5634210Y10363417D01*
X5621005Y10375454D01*
X5611505Y10384115D01*
X5611503Y10384116D01*
X5611501Y10384118D01*
X5599755Y10388668D01*
X5587012Y10395385D01*
X5576623Y10402501D01*
X5576622Y10402502D01*
X5576620Y10402503D01*
X5556882Y10407146D01*
X5518054Y10435083D01*
X5509229Y10459823D01*
X5503535Y10503088D01*
X5454725Y10607761D01*
X5454723Y10607763D01*
X5454723Y10607764D01*
X5373060Y10689427D01*
X5341440Y10704172D01*
X5268385Y10738238D01*
X5268383Y10738239D01*
X5268381Y10738239D01*
X5220689Y10744517D01*
X4743948Y10744517D01*
X4743946Y10744517D01*
X4743940Y10744516D01*
X4696243Y10738238D01*
X4696241Y10738238D01*
X4696240Y10738237D01*
X4591567Y10689427D01*
X4509904Y10607764D01*
X4461094Y10503091D01*
X4461092Y10503085D01*
X4454814Y10455399D01*
X4454814Y10036244D01*
X4436508Y9992050D01*
X3912250Y9467793D01*
X3891974Y9454245D01*
X3764516Y9401450D01*
X3764513Y9401449D01*
X3764513Y9401448D01*
X3645026Y9309762D01*
X3553340Y9190275D01*
X3504032Y9071233D01*
X3495703Y9051126D01*
X3495702Y9051123D01*
X3476045Y8901810D01*
X3476045Y8901805D01*
X3495702Y8752492D01*
X3495703Y8752489D01*
X3495704Y8752485D01*
X3553340Y8613339D01*
X3645026Y8493852D01*
X3764513Y8402166D01*
X3903659Y8344530D01*
X3903663Y8344530D01*
X3903665Y8344529D01*
X4046948Y8325665D01*
X4088375Y8301748D01*
X4100755Y8255542D01*
X4087657Y8224735D01*
X4084672Y8220992D01*
X4084443Y8220516D01*
X4072330Y8203447D01*
X3939690Y8070806D01*
X3630029Y7761144D01*
X3585191Y7716306D01*
X3540997Y7698000D01*
X1435001Y7698000D01*
X1435001Y7504612D01*
X1437949Y7479193D01*
X1437949Y7479192D01*
X1483857Y7375222D01*
X1564221Y7294858D01*
X1564361Y7294762D01*
X1564443Y7294636D01*
X1568318Y7290761D01*
X1567500Y7289944D01*
X1590475Y7254683D01*
X1580601Y7207878D01*
X1540522Y7181764D01*
X1529039Y7180700D01*
X723402Y7180700D01*
X720680Y7180819D01*
X714925Y7181323D01*
X678335Y7184524D01*
X637275Y7173522D01*
X634622Y7172935D01*
X622166Y7170738D01*
X592752Y7165552D01*
X592751Y7165552D01*
X587078Y7162276D01*
X572012Y7156036D01*
X565689Y7154342D01*
X530865Y7129959D01*
X528566Y7128494D01*
X491755Y7107240D01*
X491754Y7107239D01*
X469308Y7080492D01*
X464424Y7074670D01*
X462582Y7072661D01*
X273386Y6883465D01*
X271376Y6881623D01*
X238807Y6854293D01*
X217555Y6817486D01*
X216091Y6815188D01*
X191705Y6780358D01*
X190010Y6774032D01*
X183772Y6758971D01*
X180496Y6753297D01*
X180495Y6753295D01*
X173114Y6711431D01*
X172523Y6708770D01*
X161522Y6667711D01*
X165228Y6625364D01*
X165347Y6622639D01*
X165347Y4911118D01*
X165228Y4908397D01*
X165041Y4906258D01*
X161522Y4866044D01*
X172521Y4825000D01*
X173112Y4822337D01*
X180495Y4780461D01*
X183768Y4774793D01*
X190012Y4759719D01*
X191564Y4753926D01*
X191707Y4753395D01*
X216092Y4718570D01*
X217551Y4716279D01*
X238808Y4679462D01*
X271375Y4652135D01*
X273386Y4650292D01*
X1590530Y3333147D01*
X1592373Y3331136D01*
X1614061Y3305289D01*
X1619697Y3298573D01*
X1656515Y3277316D01*
X1658802Y3275858D01*
X1693630Y3251472D01*
X1699948Y3249779D01*
X1715027Y3243534D01*
X1720695Y3240261D01*
X1762575Y3232878D01*
X1765215Y3232292D01*
X1806279Y3221288D01*
X1848630Y3224994D01*
X1851352Y3225112D01*
X3104900Y3225112D01*
X3149094Y3206806D01*
X3154482Y3200662D01*
X3199762Y3141653D01*
X3199763Y3141652D01*
X3321065Y3048572D01*
X3321066Y3048572D01*
X3321067Y3048571D01*
X3462330Y2990059D01*
X3462334Y2990059D01*
X3462336Y2990058D01*
X3613920Y2970101D01*
X3613923Y2970101D01*
X3613926Y2970101D01*
X3765509Y2990058D01*
X3765509Y2990059D01*
X3765516Y2990059D01*
X3906779Y3048571D01*
X4028083Y3141652D01*
X4066124Y3191227D01*
X4123658Y3266206D01*
X4124768Y3265355D01*
X4158718Y3291423D01*
X4206147Y3285195D01*
X4222493Y3267588D01*
X4224271Y3269005D01*
X4239604Y3249779D01*
X4245794Y3242016D01*
X4249294Y3237628D01*
X4251323Y3234768D01*
X4256476Y3226566D01*
X4256477Y3226565D01*
X4263320Y3219723D01*
X4265656Y3217110D01*
X4286297Y3191227D01*
X4287373Y3190709D01*
X4304451Y3178592D01*
X5300239Y2182804D01*
X5312355Y2165730D01*
X5312876Y2164648D01*
X5338754Y2144011D01*
X5341369Y2141674D01*
X5348214Y2134829D01*
X5352445Y2132171D01*
X5356419Y2129673D01*
X5359273Y2127648D01*
X5365890Y2122371D01*
X5385146Y2107015D01*
X5385147Y2107015D01*
X5385148Y2107014D01*
X5386305Y2106750D01*
X5405659Y2098734D01*
X5406668Y2098100D01*
X5439569Y2094394D01*
X5442992Y2093812D01*
X5452452Y2091652D01*
X5462137Y2091652D01*
X5465639Y2091455D01*
X5476547Y2090227D01*
X5498525Y2087750D01*
X5499653Y2088145D01*
X5520295Y2091652D01*
X6059404Y2091652D01*
X6059405Y2091652D01*
X6097595Y2100369D01*
X6144753Y2092357D01*
X6155696Y2083630D01*
X6670372Y1568954D01*
X6682487Y1551882D01*
X6682715Y1551407D01*
X6682716Y1551406D01*
X6707041Y1532007D01*
X6709652Y1529674D01*
X6716046Y1523280D01*
X6723698Y1518472D01*
X6726554Y1516446D01*
X6750883Y1497044D01*
X6751386Y1496930D01*
X6770739Y1488913D01*
X6771180Y1488636D01*
X6802104Y1485153D01*
X6805557Y1484565D01*
X6809593Y1483644D01*
X6814365Y1482555D01*
X6823401Y1482555D01*
X6826902Y1482358D01*
X6849333Y1479832D01*
X6857821Y1478875D01*
X6857821Y1478876D01*
X6857822Y1478875D01*
X6858314Y1479047D01*
X6878958Y1482555D01*
X7651650Y1482555D01*
X7665558Y1480988D01*
X7709077Y1471055D01*
X8376368Y1471055D01*
X8420562Y1452749D01*
X8669193Y1204118D01*
X8687499Y1159924D01*
X8687500Y1006412D01*
X8669194Y962218D01*
X8643144Y946604D01*
X8514122Y907464D01*
X8514115Y907461D01*
X8344307Y816698D01*
X8344301Y816694D01*
X8195459Y694541D01*
X8073306Y545699D01*
X8073302Y545693D01*
X7982539Y375885D01*
X7982538Y375883D01*
X7962369Y309396D01*
X7926642Y191623D01*
X7907770Y1D01*
X7907770Y0D01*
X7926642Y-191622D01*
X7946811Y-258111D01*
X7982538Y-375883D01*
X7982539Y-375884D01*
X8073302Y-545692D01*
X8073306Y-545698D01*
X8195459Y-694541D01*
X8344302Y-816694D01*
X8344304Y-816695D01*
X8344307Y-816697D01*
X8388491Y-840313D01*
X8514117Y-907462D01*
X8643143Y-946601D01*
X8680120Y-976948D01*
X8687500Y-1006410D01*
X8687500Y-1533588D01*
X8669194Y-1577782D01*
X8643144Y-1593396D01*
X8514122Y-1632536D01*
X8514115Y-1632539D01*
X8344307Y-1723302D01*
X8344301Y-1723306D01*
X8195459Y-1845459D01*
X8073306Y-1994301D01*
X8073302Y-1994307D01*
X7983897Y-2161574D01*
X7982538Y-2164117D01*
X7963385Y-2227254D01*
X7926642Y-2348377D01*
X7915833Y-2458126D01*
X7893283Y-2500313D01*
X7853634Y-2514500D01*
X7563557Y-2514500D01*
X7519363Y-2496194D01*
X7501324Y-2457766D01*
X7489212Y-2327053D01*
X7489210Y-2327041D01*
X7430682Y-2121340D01*
X7335353Y-1929895D01*
X7266388Y-1838571D01*
X6795921Y-2309038D01*
X6731761Y-2209202D01*
X6623100Y-2115048D01*
X6579775Y-2095262D01*
X7054423Y-1620615D01*
X7048420Y-1615143D01*
X6866584Y-1502555D01*
X6667156Y-1425297D01*
X6456938Y-1386000D01*
X6243061Y-1386000D01*
X6032843Y-1425297D01*
X5833412Y-1502556D01*
X5833410Y-1502557D01*
X5651585Y-1615139D01*
X5651581Y-1615142D01*
X5645575Y-1620615D01*
X6120223Y-2095262D01*
X6076900Y-2115048D01*
X5968239Y-2209202D01*
X5904078Y-2309038D01*
X5433610Y-1838571D01*
X5364648Y-1929891D01*
X5269317Y-2121340D01*
X5210789Y-2327041D01*
X5210787Y-2327053D01*
X5198676Y-2457766D01*
X5176371Y-2500083D01*
X5136443Y-2514500D01*
X4846366Y-2514500D01*
X4802172Y-2496194D01*
X4784167Y-2458126D01*
X4775382Y-2368945D01*
X4773357Y-2348376D01*
X4717462Y-2164117D01*
X4626694Y-1994302D01*
X4504541Y-1845459D01*
X4355698Y-1723306D01*
X4355692Y-1723302D01*
X4248364Y-1665935D01*
X4185883Y-1632538D01*
X4056851Y-1593396D01*
X4001622Y-1576642D01*
X3810000Y-1557770D01*
X3618377Y-1576642D01*
X3487911Y-1616219D01*
X3440306Y-1611530D01*
X3409959Y-1574553D01*
X3408634Y-1543419D01*
X3446500Y-1365277D01*
X3446500Y-1174723D01*
X3408634Y-996581D01*
X3417351Y-949549D01*
X3456773Y-922455D01*
X3487909Y-923779D01*
X3618376Y-963357D01*
X3714187Y-972793D01*
X3809999Y-982230D01*
X3809999Y-982229D01*
X3810000Y-982230D01*
X4001624Y-963357D01*
X4185883Y-907462D01*
X4355698Y-816694D01*
X4504541Y-694541D01*
X4626694Y-545698D01*
X4717462Y-375883D01*
X4773357Y-191624D01*
X4777260Y-152000D01*
X5205140Y-152000D01*
X5210787Y-212947D01*
X5210789Y-212958D01*
X5269317Y-418659D01*
X5364646Y-610104D01*
X5364649Y-610110D01*
X5493521Y-780766D01*
X5493528Y-780773D01*
X5651575Y-924853D01*
X5833415Y-1037444D01*
X6032842Y-1114702D01*
X6198000Y-1145574D01*
X6198000Y-480256D01*
X6207685Y-484680D01*
X6314237Y-500000D01*
X6385763Y-500000D01*
X6492315Y-484680D01*
X6502000Y-480256D01*
X6502000Y-1145574D01*
X6667157Y-1114702D01*
X6866584Y-1037444D01*
X7048424Y-924853D01*
X7206471Y-780773D01*
X7206478Y-780766D01*
X7335350Y-610110D01*
X7335353Y-610104D01*
X7430682Y-418659D01*
X7489210Y-212958D01*
X7489212Y-212947D01*
X7494859Y-152000D01*
X6826477Y-152000D01*
X6850000Y-71889D01*
X6850000Y71889D01*
X6826477Y152000D01*
X7494859Y152000D01*
X7494859Y152001D01*
X7489212Y212948D01*
X7489210Y212959D01*
X7430682Y418660D01*
X7335353Y610105D01*
X7335350Y610111D01*
X7206478Y780767D01*
X7206471Y780774D01*
X7048424Y924854D01*
X6866584Y1037445D01*
X6667156Y1114703D01*
X6502000Y1145576D01*
X6502000Y480257D01*
X6492315Y484680D01*
X6385763Y500000D01*
X6314237Y500000D01*
X6207685Y484680D01*
X6198000Y480257D01*
X6198000Y1145576D01*
X6032843Y1114703D01*
X5833415Y1037445D01*
X5651575Y924854D01*
X5493528Y780774D01*
X5493521Y780767D01*
X5364649Y610111D01*
X5364646Y610105D01*
X5269317Y418660D01*
X5210789Y212959D01*
X5210787Y212948D01*
X5205140Y152001D01*
X5205141Y152000D01*
X5873523Y152000D01*
X5850000Y71889D01*
X5850000Y-71889D01*
X5873523Y-152000D01*
X5205140Y-152000D01*
X4777260Y-152000D01*
X4792230Y0D01*
X4773357Y191624D01*
X4717462Y375883D01*
X4650313Y501509D01*
X4626697Y545693D01*
X4626693Y545699D01*
X4573831Y610111D01*
X4504541Y694541D01*
X4355698Y816694D01*
X4355692Y816698D01*
X4247597Y874475D01*
X4185883Y907462D01*
X4056851Y946604D01*
X4001622Y963358D01*
X3810000Y982230D01*
X3618377Y963358D01*
X3500604Y927631D01*
X3434117Y907462D01*
X3434115Y907462D01*
X3434115Y907461D01*
X3264307Y816698D01*
X3264301Y816694D01*
X3115459Y694541D01*
X2993306Y545699D01*
X2993302Y545693D01*
X2902539Y375885D01*
X2902538Y375883D01*
X2882369Y309396D01*
X2846642Y191623D01*
X2827770Y1D01*
X2827770Y0D01*
X2846642Y-191622D01*
X2887553Y-326484D01*
X2882864Y-374089D01*
X2845887Y-404436D01*
X2808431Y-404068D01*
X2729511Y-378425D01*
X2729512Y-378425D01*
X2587508Y-363500D01*
X2587506Y-363500D01*
X2492494Y-363500D01*
X2492491Y-363500D01*
X2350489Y-378425D01*
X2169266Y-437308D01*
X2169263Y-437309D01*
X2169262Y-437310D01*
X2134317Y-457485D01*
X2054738Y-503430D01*
X2007311Y-509673D01*
X1969361Y-480553D01*
X1963118Y-433126D01*
X1965309Y-424952D01*
X1985372Y-350075D01*
X2016000Y0D01*
X2009710Y71889D01*
X1997368Y212959D01*
X1985372Y350075D01*
X1978456Y375885D01*
X1894421Y689510D01*
X1894420Y689512D01*
X1851867Y780767D01*
X1745907Y1008000D01*
X1745906Y1008001D01*
X1544345Y1295862D01*
X1295861Y1544346D01*
X1112724Y1672579D01*
X1008000Y1745907D01*
X1007998Y1745908D01*
X1008000Y1745908D01*
X689511Y1894421D01*
X689509Y1894422D01*
X350087Y1985370D01*
X350071Y1985373D01*
X2Y2016000D01*
X-2Y2016000D01*
X-350072Y1985373D01*
X-350088Y1985370D01*
X-689510Y1894422D01*
X-689512Y1894421D01*
X-1008000Y1745908D01*
X-1295862Y1544346D01*
X-1544346Y1295862D01*
X-1745908Y1008000D01*
X-1894421Y689512D01*
X-1894422Y689510D01*
X-1985370Y350088D01*
X-1985373Y350072D01*
X-2016000Y3D01*
X-2016000Y-2D01*
X-1985373Y-350071D01*
X-1985370Y-350087D01*
X-1894422Y-689509D01*
X-1894421Y-689511D01*
X-1745908Y-1007999D01*
X-1544346Y-1295861D01*
X-1295862Y-1544345D01*
X-1225809Y-1593396D01*
X-1008000Y-1745907D01*
X-1008001Y-1745907D01*
X-848757Y-1820163D01*
X-689513Y-1894420D01*
X-689511Y-1894420D01*
X-689510Y-1894421D01*
X-350088Y-1985369D01*
X-350082Y-1985370D01*
X-350075Y-1985372D01*
X-140031Y-2003748D01*
X-2Y-2016000D01*
X0Y-2016000D01*
X2Y-2016000D01*
X116691Y-2005790D01*
X350075Y-1985372D01*
X350084Y-1985369D01*
X350087Y-1985369D01*
X689509Y-1894421D01*
X689508Y-1894421D01*
X689513Y-1894420D01*
X1008000Y-1745907D01*
X1295860Y-1544346D01*
X1410319Y-1429887D01*
X1526806Y-1313401D01*
X1571000Y-1295095D01*
X1615194Y-1313401D01*
X1633500Y-1357595D01*
X1633500Y-1365276D01*
X1673118Y-1551666D01*
X1673121Y-1551674D01*
X1750623Y-1725744D01*
X1750626Y-1725750D01*
X1862628Y-1879907D01*
X1862634Y-1879913D01*
X1878746Y-1894420D01*
X2004238Y-2007413D01*
X2169262Y-2102690D01*
X2350490Y-2161575D01*
X2492494Y-2176500D01*
X2492499Y-2176500D01*
X2587501Y-2176500D01*
X2587506Y-2176500D01*
X2729510Y-2161575D01*
X2808432Y-2135931D01*
X2856118Y-2139684D01*
X2887185Y-2176058D01*
X2887553Y-2213515D01*
X2846642Y-2348377D01*
X2835833Y-2458126D01*
X2813283Y-2500313D01*
X2773634Y-2514500D01*
X945Y-2514500D01*
X-942Y-2514443D01*
X-301203Y-2496280D01*
X-304946Y-2495825D01*
X-512632Y-2457766D01*
X-599897Y-2441774D01*
X-603564Y-2440870D01*
X-889845Y-2351661D01*
X-893377Y-2350322D01*
X-1166824Y-2227254D01*
X-1170168Y-2225498D01*
X-1373319Y-2102690D01*
X-1426784Y-2070369D01*
X-1429883Y-2068231D01*
X-1606460Y-1929891D01*
X-1665936Y-1883294D01*
X-1668755Y-1880797D01*
X-1880799Y-1668753D01*
X-1883295Y-1665935D01*
X-1909460Y-1632538D01*
X-2068234Y-1429878D01*
X-2070368Y-1426786D01*
X-2225499Y-1170167D01*
X-2227252Y-1166830D01*
X-2350324Y-893375D01*
X-2351662Y-889844D01*
X-2374456Y-816697D01*
X-2440872Y-603560D01*
X-2441773Y-599905D01*
X-2495829Y-304931D01*
X-2496280Y-301216D01*
X-2514443Y-941D01*
X-2514500Y946D01*
X-2514500Y2856446D01*
X-2496194Y2900640D01*
X-2452000Y2918946D01*
X-2407806Y2900640D01*
X-2400033Y2891169D01*
X-2377923Y2858078D01*
X-2351004Y2840092D01*
X-2335748Y2829898D01*
X-2298558Y2822500D01*
X-2298557Y2822500D01*
X-473443Y2822500D01*
X-473442Y2822500D01*
X-436252Y2829898D01*
X-394078Y2858078D01*
X-365898Y2900252D01*
X-358500Y2937442D01*
X-358500Y4162558D01*
X-365898Y4199748D01*
X-372653Y4209858D01*
X-394078Y4241923D01*
X-436252Y4270102D01*
X-454224Y4273677D01*
X-473442Y4277500D01*
X-2298558Y4277500D01*
X-2316153Y4274000D01*
X-2335749Y4270102D01*
X-2335750Y4270102D01*
X-2377923Y4241922D01*
X-2400034Y4208831D01*
X-2439807Y4182256D01*
X-2486724Y4191589D01*
X-2513299Y4231362D01*
X-2514500Y4243555D01*
X-2514500Y8002000D01*
X1435000Y8002000D01*
X2362000Y8002000D01*
X2362000Y8454000D01*
X2666000Y8454000D01*
X2666000Y8002000D01*
X3592999Y8002000D01*
X3592999Y8195389D01*
X3590050Y8220808D01*
X3590050Y8220809D01*
X3544142Y8324779D01*
X3463778Y8405143D01*
X3359805Y8451052D01*
X3334389Y8454000D01*
X2666000Y8454000D01*
X2362000Y8454000D01*
X1693611Y8454000D01*
X1668192Y8451051D01*
X1668191Y8451051D01*
X1564221Y8405143D01*
X1483857Y8324779D01*
X1437948Y8220806D01*
X1435000Y8195389D01*
X1435000Y8002000D01*
X-2514500Y8002000D01*
X-2514500Y8456446D01*
X-2496194Y8500640D01*
X-2452000Y8518946D01*
X-2407806Y8500640D01*
X-2400033Y8491169D01*
X-2377923Y8458078D01*
X-2349743Y8439250D01*
X-2335748Y8429898D01*
X-2298558Y8422500D01*
X-2298557Y8422500D01*
X-473443Y8422500D01*
X-473442Y8422500D01*
X-436252Y8429898D01*
X-394078Y8458078D01*
X-365898Y8500252D01*
X-358500Y8537442D01*
X-358500Y9505840D01*
X-340194Y9550034D01*
X-296000Y9568340D01*
X-251806Y9550034D01*
X-246199Y9543604D01*
X-236365Y9530635D01*
X-121865Y9443806D01*
X-121863Y9443805D01*
X11816Y9391089D01*
X95811Y9381002D01*
X95829Y9381000D01*
X203500Y9381000D01*
X203500Y10008000D01*
X507500Y10008000D01*
X507500Y9381000D01*
X615171Y9381000D01*
X615188Y9381002D01*
X699183Y9391089D01*
X832862Y9443805D01*
X832864Y9443806D01*
X947364Y9530636D01*
X1034194Y9645136D01*
X1034195Y9645138D01*
X1086911Y9778817D01*
X1096998Y9862812D01*
X1097000Y9862829D01*
X1097000Y9863190D01*
X1365500Y9863190D01*
X1365501Y9863182D01*
X1372139Y9812752D01*
X1372140Y9812750D01*
X1423744Y9702085D01*
X1510084Y9615745D01*
X1510085Y9615745D01*
X1510086Y9615744D01*
X1620752Y9564139D01*
X1671181Y9557500D01*
X2189818Y9557501D01*
X2240248Y9564139D01*
X2350914Y9615744D01*
X2350915Y9615745D01*
X2350916Y9615745D01*
X2437255Y9702084D01*
X2437255Y9702085D01*
X2437255Y9702086D01*
X2437256Y9702086D01*
X2488861Y9812752D01*
X2495500Y9863181D01*
X2495500Y9877018D01*
X2513806Y9921211D01*
X2558000Y9939517D01*
X2742315Y9939517D01*
X2786509Y9921211D01*
X2804815Y9877018D01*
X2804815Y9828643D01*
X2811093Y9780946D01*
X2819668Y9762558D01*
X2859904Y9676271D01*
X2941567Y9594608D01*
X2941568Y9594608D01*
X2941570Y9594606D01*
X3046243Y9545796D01*
X3093939Y9539517D01*
X3570688Y9539518D01*
X3618385Y9545796D01*
X3723058Y9594606D01*
X3804725Y9676273D01*
X3853535Y9780946D01*
X3859814Y9828642D01*
X3859813Y10455391D01*
X3853535Y10503088D01*
X3804725Y10607761D01*
X3804723Y10607763D01*
X3804723Y10607764D01*
X3723060Y10689427D01*
X3691440Y10704172D01*
X3618385Y10738238D01*
X3618383Y10738239D01*
X3618381Y10738239D01*
X3570689Y10744517D01*
X3093948Y10744517D01*
X3093946Y10744517D01*
X3093940Y10744516D01*
X3046243Y10738238D01*
X3046241Y10738238D01*
X3046240Y10738237D01*
X2941567Y10689427D01*
X2859904Y10607764D01*
X2811094Y10503091D01*
X2811092Y10503085D01*
X2804814Y10455399D01*
X2804814Y10407017D01*
X2786508Y10362823D01*
X2742314Y10344517D01*
X2557999Y10344517D01*
X2513805Y10362823D01*
X2495499Y10407017D01*
X2495499Y10456810D01*
X2495499Y10456818D01*
X2488861Y10507248D01*
X2437256Y10617914D01*
X2437255Y10617915D01*
X2437255Y10617916D01*
X2350915Y10704256D01*
X2240247Y10755862D01*
X2189819Y10762500D01*
X1671190Y10762500D01*
X1671188Y10762500D01*
X1671182Y10762499D01*
X1620752Y10755861D01*
X1620750Y10755861D01*
X1620749Y10755860D01*
X1510084Y10704256D01*
X1423744Y10617916D01*
X1372138Y10507248D01*
X1365500Y10456826D01*
X1365500Y9863191D01*
X1365500Y9863190D01*
X1097000Y9863190D01*
X1097000Y10008000D01*
X507500Y10008000D01*
X203500Y10008000D01*
X-386000Y10008000D01*
X-386000Y9936263D01*
X-404306Y9892069D01*
X-448500Y9873763D01*
X-460693Y9874964D01*
X-473442Y9877500D01*
X-2298558Y9877500D01*
X-2317154Y9873801D01*
X-2335749Y9870102D01*
X-2335750Y9870102D01*
X-2377923Y9841922D01*
X-2400034Y9808831D01*
X-2439807Y9782256D01*
X-2486724Y9791589D01*
X-2513299Y9831362D01*
X-2514500Y9843555D01*
X-2514500Y10312000D01*
X-386000Y10312000D01*
X203500Y10312000D01*
X203500Y10939000D01*
X507500Y10939000D01*
X507500Y10312000D01*
X1097000Y10312000D01*
X1097000Y10457172D01*
X1096998Y10457189D01*
X1086911Y10541184D01*
X1034195Y10674863D01*
X1034194Y10674865D01*
X947364Y10789365D01*
X832864Y10876195D01*
X832862Y10876196D01*
X699183Y10928912D01*
X615188Y10938999D01*
X615171Y10939000D01*
X507500Y10939000D01*
X203500Y10939000D01*
X95829Y10939000D01*
X95811Y10938999D01*
X11816Y10928912D01*
X-121863Y10876196D01*
X-121865Y10876195D01*
X-236365Y10789365D01*
X-323195Y10674865D01*
X-323196Y10674863D01*
X-375912Y10541184D01*
X-385999Y10457189D01*
X-386000Y10457172D01*
X-386000Y10312000D01*
X-2514500Y10312000D01*
X-2514500Y12699056D01*
X-2514471Y12700000D01*
X-2252230Y12700000D01*
X-2233358Y12508378D01*
X-2217220Y12455180D01*
X-2177462Y12324117D01*
X-2177461Y12324116D01*
X-2086698Y12154308D01*
X-2086694Y12154302D01*
X-1964541Y12005459D01*
X-1815698Y11883306D01*
X-1815696Y11883305D01*
X-1815693Y11883303D01*
X-1805676Y11877949D01*
X-1645883Y11792538D01*
X-1461624Y11736643D01*
X-1270000Y11717770D01*
X-1078376Y11736643D01*
X-894117Y11792538D01*
X-724302Y11883306D01*
X-575459Y12005459D01*
X-453306Y12154302D01*
X-362538Y12324117D01*
X-306643Y12508376D01*
X-287770Y12700000D01*
X-288270Y12705072D01*
X-306643Y12891623D01*
X-313115Y12912959D01*
X-362538Y13075883D01*
X-453306Y13245698D01*
X-575459Y13394541D01*
X-724302Y13516694D01*
X-724308Y13516698D01*
X-861158Y13589845D01*
X-894117Y13607462D01*
X-1023149Y13646604D01*
X-1078378Y13663358D01*
X-1270000Y13682230D01*
X-1461623Y13663358D01*
X-1579396Y13627631D01*
X-1645883Y13607462D01*
X-1645885Y13607462D01*
X-1645885Y13607461D01*
X-1815693Y13516698D01*
X-1815699Y13516694D01*
X-1964541Y13394541D01*
X-2086694Y13245699D01*
X-2086698Y13245693D01*
X-2165296Y13098644D01*
X-2177462Y13075883D01*
X-2196407Y13013429D01*
X-2233358Y12891623D01*
X-2252230Y12700001D01*
X-2252230Y12700000D01*
X-2514471Y12700000D01*
X-2514443Y12700943D01*
X-2514038Y12707641D01*
X-2496280Y13001219D01*
X-2495829Y13004930D01*
X-2441772Y13299910D01*
X-2440871Y13303564D01*
X-2438832Y13310105D01*
X-2351661Y13589850D01*
X-2350323Y13593377D01*
X-2343984Y13607461D01*
X-2227249Y13866838D01*
X-2225503Y13870162D01*
X-2070363Y14126795D01*
X-2068240Y14129872D01*
X-1883289Y14365944D01*
X-1880807Y14368746D01*
X-1668746Y14580807D01*
X-1665944Y14583289D01*
X-1429872Y14768240D01*
X-1426795Y14770363D01*
X-1170162Y14925503D01*
X-1166838Y14927249D01*
X-893371Y15050326D01*
X-889850Y15051661D01*
X-603557Y15140873D01*
X-599910Y15141772D01*
X-304930Y15195829D01*
X-301219Y15196280D01*
X-943Y15214443D01*
X945Y15214500D01*
X8285Y15214500D01*
X233634Y15214500D01*
X277828Y15196194D01*
G37*
%TD.AperFunction*%
%TA.AperFunction,Conductor*%
G36*
X22960637Y15196194D02*
G01*
X22978676Y15157766D01*
X22990787Y15027054D01*
X22990789Y15027042D01*
X23049317Y14821341D01*
X23144646Y14629896D01*
X23213610Y14538573D01*
X23684078Y15009039D01*
X23748239Y14909202D01*
X23856900Y14815048D01*
X23900222Y14795264D01*
X23425576Y14320617D01*
X23431579Y14315144D01*
X23613415Y14202556D01*
X23812843Y14125298D01*
X24023061Y14086001D01*
X24023069Y14086000D01*
X24236931Y14086000D01*
X24236936Y14086001D01*
X24419515Y14120131D01*
X24466321Y14110257D01*
X24492436Y14070180D01*
X24493500Y14058695D01*
X24493500Y13894943D01*
X24493700Y13894001D01*
X24493635Y13893653D01*
X24493842Y13891687D01*
X24493259Y13891626D01*
X24484977Y13846967D01*
X24445551Y13819878D01*
X24421080Y13819578D01*
X24282000Y13845576D01*
X24282000Y13180257D01*
X24272315Y13184680D01*
X24165763Y13200000D01*
X24094237Y13200000D01*
X23987685Y13184680D01*
X23978000Y13180257D01*
X23978000Y13845576D01*
X23812843Y13814703D01*
X23613415Y13737445D01*
X23431575Y13624854D01*
X23273528Y13480774D01*
X23273521Y13480767D01*
X23144649Y13310111D01*
X23144646Y13310105D01*
X23049317Y13118660D01*
X22990789Y12912959D01*
X22990787Y12912948D01*
X22985140Y12852001D01*
X22985141Y12852000D01*
X23653523Y12852000D01*
X23630000Y12771889D01*
X23630000Y12628111D01*
X23653523Y12548000D01*
X22985140Y12548000D01*
X22990787Y12487053D01*
X22990789Y12487042D01*
X23049317Y12281341D01*
X23144646Y12089896D01*
X23144649Y12089890D01*
X23273521Y11919234D01*
X23273528Y11919227D01*
X23431575Y11775147D01*
X23613415Y11662556D01*
X23812842Y11585298D01*
X23978000Y11554426D01*
X23978000Y12219744D01*
X23987685Y12215320D01*
X24094237Y12200000D01*
X24165763Y12200000D01*
X24272315Y12215320D01*
X24282000Y12219744D01*
X24282000Y11554426D01*
X24447157Y11585298D01*
X24646584Y11662556D01*
X24828424Y11775147D01*
X24986471Y11919227D01*
X24986478Y11919234D01*
X25115350Y12089890D01*
X25115353Y12089896D01*
X25210682Y12281341D01*
X25269210Y12487042D01*
X25269212Y12487053D01*
X25274859Y12548000D01*
X24606477Y12548000D01*
X24630000Y12628111D01*
X24630000Y12771889D01*
X24606477Y12852000D01*
X25274859Y12852000D01*
X25274859Y12852001D01*
X25269212Y12912948D01*
X25269210Y12912960D01*
X25241861Y13009081D01*
X25247374Y13056598D01*
X25284871Y13086299D01*
X25308508Y13088342D01*
X25324601Y13086651D01*
X25352474Y13083721D01*
X25352479Y13083721D01*
X25352494Y13083719D01*
X25352497Y13083719D01*
X25447501Y13083719D01*
X25447506Y13083719D01*
X25589510Y13098644D01*
X25675237Y13126499D01*
X25722922Y13122746D01*
X25753989Y13086372D01*
X25754357Y13048915D01*
X25706642Y12891623D01*
X25687770Y12700001D01*
X25687770Y12700000D01*
X25706642Y12508378D01*
X25722780Y12455180D01*
X25762538Y12324117D01*
X25762539Y12324116D01*
X25853302Y12154308D01*
X25853306Y12154302D01*
X25975459Y12005459D01*
X26124302Y11883306D01*
X26124304Y11883305D01*
X26124307Y11883303D01*
X26134324Y11877949D01*
X26294117Y11792538D01*
X26478376Y11736643D01*
X26670000Y11717770D01*
X26861624Y11736643D01*
X27045883Y11792538D01*
X27215698Y11883306D01*
X27364541Y12005459D01*
X27486694Y12154302D01*
X27577462Y12324117D01*
X27633357Y12508376D01*
X27652230Y12700000D01*
X27651730Y12705072D01*
X27633357Y12891623D01*
X27626885Y12912959D01*
X27577462Y13075883D01*
X27486694Y13245698D01*
X27364541Y13394541D01*
X27215698Y13516694D01*
X27215692Y13516698D01*
X27078842Y13589845D01*
X27045883Y13607462D01*
X26916851Y13646604D01*
X26861622Y13663358D01*
X26670000Y13682230D01*
X26478377Y13663358D01*
X26341452Y13621821D01*
X26293847Y13626510D01*
X26263500Y13663487D01*
X26266108Y13705356D01*
X26265868Y13705434D01*
X26266172Y13706371D01*
X26266215Y13707057D01*
X26266881Y13708553D01*
X26290481Y13819578D01*
X26306500Y13894942D01*
X26306500Y14085496D01*
X26266881Y14271886D01*
X26266878Y14271894D01*
X26204406Y14412206D01*
X26189376Y14445965D01*
X26189374Y14445968D01*
X26189373Y14445970D01*
X26077371Y14600127D01*
X26077365Y14600133D01*
X26016851Y14654619D01*
X25935762Y14727632D01*
X25770738Y14822909D01*
X25770734Y14822911D01*
X25770733Y14822911D01*
X25704377Y14844471D01*
X25589510Y14881794D01*
X25589512Y14881794D01*
X25447508Y14896719D01*
X25447506Y14896719D01*
X25352494Y14896719D01*
X25352488Y14896719D01*
X25320367Y14893343D01*
X25274501Y14906930D01*
X25251677Y14948969D01*
X25253721Y14972606D01*
X25269210Y15027045D01*
X25269212Y15027053D01*
X25277580Y15117368D01*
X25299884Y15159685D01*
X25345579Y15173835D01*
X25349735Y15173309D01*
X25526199Y15144892D01*
X25529406Y15144198D01*
X25843906Y15058476D01*
X25847039Y15057439D01*
X25967791Y15010250D01*
X26150622Y14938801D01*
X26153652Y14937427D01*
X26304649Y14859013D01*
X26442910Y14787213D01*
X26445764Y14785532D01*
X26717439Y14605430D01*
X26720104Y14603450D01*
X26971102Y14395510D01*
X26973534Y14393267D01*
X27201021Y14159840D01*
X27203208Y14157343D01*
X27404607Y13901072D01*
X27406520Y13898351D01*
X27579546Y13622149D01*
X27581160Y13619240D01*
X27723871Y13326207D01*
X27725166Y13323143D01*
X27835937Y13016614D01*
X27836900Y13013429D01*
X27912704Y12704116D01*
X27914500Y12689239D01*
X27914500Y9843555D01*
X27896194Y9799361D01*
X27852000Y9781055D01*
X27807806Y9799361D01*
X27800034Y9808831D01*
X27777922Y9841922D01*
X27735748Y9870102D01*
X27717344Y9873763D01*
X27698558Y9877500D01*
X25873442Y9877500D01*
X25854846Y9873801D01*
X25836251Y9870102D01*
X25836250Y9870102D01*
X25794077Y9841923D01*
X25765898Y9799750D01*
X25765898Y9799749D01*
X25762159Y9780950D01*
X25758500Y9762558D01*
X25758500Y8537442D01*
X25762179Y8518946D01*
X25765898Y8500252D01*
X25765898Y8500251D01*
X25794077Y8458078D01*
X25822257Y8439250D01*
X25836252Y8429898D01*
X25873442Y8422500D01*
X25873443Y8422500D01*
X27698557Y8422500D01*
X27698558Y8422500D01*
X27735748Y8429898D01*
X27777922Y8458078D01*
X27800032Y8491169D01*
X27839807Y8517745D01*
X27886723Y8508413D01*
X27913299Y8468639D01*
X27914500Y8456446D01*
X27914500Y4243555D01*
X27896194Y4199361D01*
X27852000Y4181055D01*
X27807806Y4199361D01*
X27800034Y4208831D01*
X27777922Y4241922D01*
X27735748Y4270102D01*
X27717776Y4273677D01*
X27698558Y4277500D01*
X25873442Y4277500D01*
X25855847Y4274000D01*
X25836251Y4270102D01*
X25836250Y4270102D01*
X25794077Y4241923D01*
X25765898Y4199750D01*
X25765898Y4199749D01*
X25761558Y4177930D01*
X25758500Y4162558D01*
X25758500Y2937442D01*
X25764662Y2906464D01*
X25765898Y2900252D01*
X25765898Y2900251D01*
X25794077Y2858078D01*
X25820996Y2840092D01*
X25836252Y2829898D01*
X25873442Y2822500D01*
X25873443Y2822500D01*
X27698557Y2822500D01*
X27698558Y2822500D01*
X27735748Y2829898D01*
X27777922Y2858078D01*
X27796223Y2885467D01*
X27800033Y2891169D01*
X27839807Y2917745D01*
X27886723Y2908413D01*
X27913299Y2868639D01*
X27914500Y2856446D01*
X27914500Y946D01*
X27914443Y-941D01*
X27896280Y-301202D01*
X27895825Y-304951D01*
X27841774Y-599896D01*
X27840870Y-603563D01*
X27751661Y-889844D01*
X27750322Y-893376D01*
X27627254Y-1166823D01*
X27625498Y-1170167D01*
X27470372Y-1426779D01*
X27468227Y-1429887D01*
X27283294Y-1665935D01*
X27280790Y-1668762D01*
X27068762Y-1880790D01*
X27065935Y-1883294D01*
X26829887Y-2068227D01*
X26826779Y-2070372D01*
X26570167Y-2225498D01*
X26566823Y-2227254D01*
X26293376Y-2350322D01*
X26289844Y-2351661D01*
X26003563Y-2440870D01*
X25999896Y-2441774D01*
X25856181Y-2468111D01*
X25704947Y-2495825D01*
X25701202Y-2496280D01*
X25400942Y-2514443D01*
X25399055Y-2514500D01*
X22626366Y-2514500D01*
X22582172Y-2496194D01*
X22564167Y-2458126D01*
X22555382Y-2368945D01*
X22553357Y-2348376D01*
X22497462Y-2164117D01*
X22406694Y-1994302D01*
X22284541Y-1845459D01*
X22135698Y-1723306D01*
X22135692Y-1723302D01*
X22028364Y-1665935D01*
X21965883Y-1632538D01*
X21965878Y-1632536D01*
X21965877Y-1632536D01*
X21836856Y-1593396D01*
X21799879Y-1563049D01*
X21792500Y-1533588D01*
X21792500Y-1006410D01*
X21810806Y-962216D01*
X21836855Y-946601D01*
X21965883Y-907462D01*
X22135698Y-816694D01*
X22284541Y-694541D01*
X22406694Y-545698D01*
X22497462Y-375883D01*
X22553357Y-191624D01*
X22572230Y-2D01*
X23384000Y-2D01*
X23414627Y-350071D01*
X23414630Y-350087D01*
X23505578Y-689509D01*
X23505579Y-689511D01*
X23654092Y-1007999D01*
X23855654Y-1295861D01*
X24104138Y-1544345D01*
X24174191Y-1593396D01*
X24392000Y-1745907D01*
X24391999Y-1745907D01*
X24551243Y-1820163D01*
X24710487Y-1894420D01*
X24710489Y-1894420D01*
X24710490Y-1894421D01*
X25049912Y-1985369D01*
X25049918Y-1985370D01*
X25049925Y-1985372D01*
X25259970Y-2003748D01*
X25399998Y-2016000D01*
X25400000Y-2016000D01*
X25400002Y-2016000D01*
X25516691Y-2005790D01*
X25750075Y-1985372D01*
X25750084Y-1985369D01*
X25750087Y-1985369D01*
X26089509Y-1894421D01*
X26089508Y-1894421D01*
X26089513Y-1894420D01*
X26408000Y-1745907D01*
X26695860Y-1544346D01*
X26944346Y-1295860D01*
X27145907Y-1008000D01*
X27294420Y-689513D01*
X27356486Y-457880D01*
X27385369Y-350087D01*
X27385370Y-350082D01*
X27385372Y-350075D01*
X27405790Y-116691D01*
X27416000Y-2D01*
X27416000Y3D01*
X27397368Y212959D01*
X27385372Y350075D01*
X27378456Y375885D01*
X27294421Y689510D01*
X27294420Y689512D01*
X27251867Y780767D01*
X27145907Y1008000D01*
X27145907Y1008001D01*
X26944345Y1295862D01*
X26695861Y1544346D01*
X26512724Y1672579D01*
X26408000Y1745907D01*
X26407998Y1745908D01*
X26408000Y1745908D01*
X26089511Y1894421D01*
X26089509Y1894422D01*
X25750087Y1985370D01*
X25750071Y1985373D01*
X25400002Y2016000D01*
X25399998Y2016000D01*
X25049928Y1985373D01*
X25049912Y1985370D01*
X24710490Y1894422D01*
X24710488Y1894421D01*
X24392000Y1745908D01*
X24104138Y1544346D01*
X23855654Y1295862D01*
X23654092Y1008000D01*
X23505579Y689512D01*
X23505578Y689510D01*
X23414630Y350088D01*
X23414627Y350072D01*
X23384000Y3D01*
X23384000Y-2D01*
X22572230Y-2D01*
X22572230Y0D01*
X22553357Y191624D01*
X22497462Y375883D01*
X22430313Y501509D01*
X22406697Y545693D01*
X22406693Y545699D01*
X22353831Y610111D01*
X22284541Y694541D01*
X22135698Y816694D01*
X22135692Y816698D01*
X22027597Y874475D01*
X21965883Y907462D01*
X21836851Y946604D01*
X21781622Y963358D01*
X21590000Y982230D01*
X21398377Y963358D01*
X21280604Y927631D01*
X21214117Y907462D01*
X21214115Y907462D01*
X21214115Y907461D01*
X21095205Y843903D01*
X21047600Y839214D01*
X21021549Y854829D01*
X19752728Y2123650D01*
X19740611Y2140728D01*
X19740093Y2141804D01*
X19737325Y2144011D01*
X19719148Y2158507D01*
X19714210Y2162445D01*
X19711597Y2164781D01*
X19703070Y2173309D01*
X19684767Y2217504D01*
X19703076Y2261697D01*
X19747267Y2280000D01*
X20069087Y2280000D01*
X20069088Y2280000D01*
X20106278Y2287398D01*
X20148452Y2315578D01*
X20176632Y2357752D01*
X20184030Y2394942D01*
X20184030Y3005500D01*
X20412531Y3005500D01*
X20412531Y2362112D01*
X20415479Y2336693D01*
X20415479Y2336692D01*
X20461387Y2232722D01*
X20541751Y2152358D01*
X20645724Y2106449D01*
X20671141Y2103501D01*
X21184530Y2103501D01*
X21184530Y3005500D01*
X21488530Y3005500D01*
X21488530Y2103501D01*
X22001918Y2103501D01*
X22027337Y2106450D01*
X22027338Y2106450D01*
X22131308Y2152358D01*
X22211672Y2232722D01*
X22257581Y2336695D01*
X22260530Y2362112D01*
X22260530Y2599503D01*
X22812948Y2599503D01*
X22814327Y2595688D01*
X22818044Y2573927D01*
X22818012Y2570117D01*
X22820472Y2561472D01*
X22820300Y2561424D01*
X22820815Y2560003D01*
X22820945Y2560060D01*
X22824595Y2551848D01*
X22824596Y2551847D01*
X22826996Y2549020D01*
X22838131Y2529812D01*
X22839392Y2526322D01*
X22842542Y2523913D01*
X22857441Y2507608D01*
X22859524Y2504306D01*
X22863465Y2500832D01*
X22866996Y2498599D01*
X22871292Y2495045D01*
X22871234Y2494976D01*
X22874955Y2492530D01*
X22901006Y2484595D01*
X22905112Y2483020D01*
X22913596Y2479058D01*
X22913603Y2479057D01*
X22916467Y2478190D01*
X22919751Y2476993D01*
X22921196Y2476372D01*
X22921197Y2476372D01*
X22921989Y2476032D01*
X22923692Y2475460D01*
X22926063Y2474501D01*
X22927694Y2473817D01*
X22927695Y2473817D01*
X22928106Y2473645D01*
X22928109Y2473643D01*
X22928174Y2473617D01*
X22929311Y2473140D01*
X22929530Y2473068D01*
X22935741Y2470564D01*
X22935742Y2470562D01*
X22936030Y2470446D01*
X22937062Y2470018D01*
X22937211Y2469970D01*
X22941280Y2468328D01*
X22943387Y2467477D01*
X22948241Y2465478D01*
X22948689Y2465337D01*
X22950504Y2464604D01*
X22951357Y2464256D01*
X22954084Y2463140D01*
X22954086Y2463140D01*
X22954240Y2463077D01*
X22988220Y2429409D01*
X22988725Y2428169D01*
X22990306Y2424163D01*
X22992368Y2415971D01*
X22993745Y2412739D01*
X22993745Y2412738D01*
X22996532Y2406197D01*
X22998901Y2397760D01*
X23003130Y2388556D01*
X23006031Y2379291D01*
X23007265Y2376812D01*
X23007265Y2376811D01*
X23016750Y2357751D01*
X23019276Y2352675D01*
X23020043Y2351010D01*
X23020355Y2350278D01*
X23020674Y2349528D01*
X23023305Y2341284D01*
X23023783Y2340412D01*
X23023783Y2340411D01*
X23039333Y2312023D01*
X23039450Y2311810D01*
X23044518Y2299152D01*
X23044821Y2298654D01*
X23044821Y2298653D01*
X23048920Y2291906D01*
X23061210Y2271676D01*
X23067093Y2258735D01*
X23067248Y2258504D01*
X23067249Y2258502D01*
X23077800Y2242841D01*
X23084304Y2233187D01*
X23091040Y2220079D01*
X23091063Y2220017D01*
X23108728Y2196393D01*
X23116037Y2183779D01*
X23116270Y2183239D01*
X23134485Y2161343D01*
X23142358Y2149284D01*
X23142880Y2148238D01*
X23161597Y2128084D01*
X23170023Y2116635D01*
X23170905Y2115097D01*
X23170906Y2115096D01*
X23170907Y2115094D01*
X23179638Y2106717D01*
X23190057Y2096719D01*
X23199013Y2085949D01*
X23200370Y2083883D01*
X23219898Y2067307D01*
X23229368Y2057270D01*
X23231298Y2054709D01*
X23231299Y2054706D01*
X23243315Y2045769D01*
X23251144Y2039946D01*
X23261096Y2030705D01*
X23263699Y2027698D01*
X23263700Y2027697D01*
X23266629Y2025813D01*
X23283817Y2014756D01*
X23294209Y2006376D01*
X23297586Y2002997D01*
X23297587Y2002996D01*
X23318216Y1991723D01*
X23330296Y1983114D01*
X23330786Y1982668D01*
X23340408Y1976461D01*
X23356471Y1969521D01*
X23368595Y1962582D01*
X23370721Y1961026D01*
X23387804Y1954865D01*
X23400664Y1948474D01*
X23401769Y1947756D01*
X23401770Y1947756D01*
X23401771Y1947755D01*
X23420051Y1942285D01*
X23433435Y1936504D01*
X23433937Y1936214D01*
X23433940Y1936211D01*
X23453024Y1931561D01*
X23466768Y1926440D01*
X23467042Y1926299D01*
X23486537Y1922579D01*
X23500479Y1918178D01*
X23500899Y1917990D01*
X23500903Y1917986D01*
X23520423Y1915288D01*
X23534398Y1911673D01*
X23535366Y1911299D01*
X23535370Y1911296D01*
X23554511Y1909698D01*
X23566922Y1907113D01*
X23568020Y1907067D01*
X23568022Y1907066D01*
X23569774Y1906993D01*
X23577404Y1905664D01*
X23581350Y1905596D01*
X23581352Y1905594D01*
X23588445Y1905471D01*
X23595442Y1904419D01*
X23599793Y1904441D01*
X23599794Y1904440D01*
X23607948Y1904480D01*
X23614069Y1903691D01*
X23618976Y1903810D01*
X23618978Y1903808D01*
X23627540Y1904015D01*
X23633588Y1903352D01*
X23638551Y1903566D01*
X23638552Y1903565D01*
X23646884Y1903924D01*
X23653651Y1903320D01*
X23658164Y1903611D01*
X23658165Y1903610D01*
X23665612Y1904090D01*
X23674138Y1903536D01*
X23677582Y1903853D01*
X23677583Y1903852D01*
X23683370Y1904383D01*
X23692348Y1904051D01*
X23695526Y1904435D01*
X23695528Y1904434D01*
X23709509Y1906122D01*
X23718400Y1906045D01*
X23721624Y1906528D01*
X23721625Y1906527D01*
X23737352Y1908880D01*
X23748791Y1909157D01*
X23750538Y1909486D01*
X23750541Y1909484D01*
X23764850Y1912171D01*
X23777976Y1913016D01*
X23778794Y1913207D01*
X23778796Y1913206D01*
X23792139Y1916313D01*
X23806190Y1917853D01*
X23806502Y1917942D01*
X23806503Y1917941D01*
X23819376Y1921578D01*
X23833413Y1923785D01*
X23833683Y1923876D01*
X23833685Y1923875D01*
X23846565Y1928176D01*
X23859693Y1930857D01*
X23860353Y1931111D01*
X23860356Y1931110D01*
X23873689Y1936225D01*
X23885174Y1939068D01*
X23886612Y1939685D01*
X23886613Y1939684D01*
X23900832Y1945777D01*
X23910276Y1948468D01*
X23912732Y1949614D01*
X23912734Y1949613D01*
X23928059Y1956758D01*
X23932892Y1958253D01*
X23937818Y1960645D01*
X23939688Y1961247D01*
X23945634Y1964179D01*
X23947763Y1964881D01*
X23953480Y1967747D01*
X23955951Y1968581D01*
X23961599Y1971468D01*
X23964088Y1972331D01*
X23969910Y1975367D01*
X23972311Y1976220D01*
X23978622Y1979572D01*
X23980824Y1980374D01*
X23987339Y1983895D01*
X23987340Y1983894D01*
X23987762Y1984123D01*
X23989694Y1984839D01*
X23996370Y1988500D01*
X23997513Y1989128D01*
X23999105Y1989729D01*
X24005957Y1993532D01*
X24007960Y1994645D01*
X24009296Y1995156D01*
X24016298Y1999084D01*
X24016300Y1999083D01*
X24019310Y2000772D01*
X24020351Y2001175D01*
X24027525Y2005230D01*
X24027526Y2005229D01*
X24031706Y2007592D01*
X24032489Y2007898D01*
X24038552Y2011345D01*
X24038560Y2011350D01*
X24039809Y2012061D01*
X24039811Y2012060D01*
X24045251Y2015154D01*
X24045893Y2015405D01*
X24049092Y2017233D01*
X24049121Y2017250D01*
X24053355Y2019670D01*
X24053357Y2019669D01*
X24060219Y2023590D01*
X24060655Y2023761D01*
X24067979Y2027958D01*
X24068002Y2027972D01*
X24068010Y2027976D01*
X24068290Y2028138D01*
X24068292Y2028137D01*
X24076338Y2032748D01*
X24077492Y2033396D01*
X24077740Y2033492D01*
X24080736Y2035214D01*
X24081167Y2035455D01*
X24081228Y2035496D01*
X24084815Y2037558D01*
X24084816Y2037557D01*
X24094510Y2043127D01*
X24094713Y2043205D01*
X24115013Y2054885D01*
X24115027Y2054861D01*
X24115202Y2054995D01*
X24118431Y2056837D01*
X24118433Y2056840D01*
X24122359Y2059080D01*
X24122667Y2059291D01*
X24125494Y2060916D01*
X24134956Y2066337D01*
X24134957Y2066339D01*
X24138774Y2068525D01*
X24139059Y2068718D01*
X24157228Y2079154D01*
X24157232Y2079146D01*
X24157389Y2079267D01*
X24163832Y2082970D01*
X24185949Y2095572D01*
X24205833Y2106717D01*
X24224153Y2116766D01*
X24240870Y2125693D01*
X24256293Y2133661D01*
X24270615Y2140778D01*
X24284169Y2147217D01*
X24297257Y2153133D01*
X24310160Y2158665D01*
X24323280Y2163991D01*
X24336852Y2169218D01*
X24351298Y2174514D01*
X24366945Y2180008D01*
X24401702Y2191834D01*
X24445626Y2206306D01*
X24487560Y2219550D01*
X24527984Y2231707D01*
X24567151Y2242838D01*
X24605253Y2252992D01*
X24642668Y2262267D01*
X24679645Y2270724D01*
X24716523Y2278441D01*
X24753551Y2285477D01*
X24791092Y2291906D01*
X24829433Y2297787D01*
X24868825Y2303170D01*
X24909596Y2308115D01*
X24952392Y2312714D01*
X24960782Y2313553D01*
X24987762Y2316109D01*
X25014943Y2318471D01*
X25042507Y2320655D01*
X25070985Y2322694D01*
X25100216Y2324574D01*
X25130804Y2326331D01*
X25162480Y2327947D01*
X25195879Y2329455D01*
X25230982Y2330854D01*
X25267904Y2332152D01*
X25307020Y2333364D01*
X25307246Y2333278D01*
X25307244Y2333370D01*
X25307245Y2333370D01*
X25330956Y2334019D01*
X25331455Y2333961D01*
X25340131Y2334207D01*
X25340132Y2334206D01*
X25354450Y2334611D01*
X25355235Y2334522D01*
X25363656Y2334780D01*
X25363658Y2334779D01*
X25375849Y2335153D01*
X25376898Y2335036D01*
X25392047Y2335549D01*
X25395275Y2335658D01*
X25396678Y2335507D01*
X25404731Y2335814D01*
X25404732Y2335813D01*
X25413022Y2336129D01*
X25414843Y2335942D01*
X25422592Y2336280D01*
X25422593Y2336279D01*
X25429172Y2336566D01*
X25431552Y2336338D01*
X25438900Y2336712D01*
X25438902Y2336711D01*
X25443886Y2336965D01*
X25447012Y2336692D01*
X25453859Y2337106D01*
X25453860Y2337105D01*
X25457362Y2337317D01*
X25461334Y2337013D01*
X25467640Y2337472D01*
X25467642Y2337471D01*
X25469834Y2337631D01*
X25474939Y2337312D01*
X25480500Y2337806D01*
X25480501Y2337805D01*
X25481492Y2337893D01*
X25487960Y2337606D01*
X25492629Y2338115D01*
X25500897Y2337942D01*
X25503517Y2338297D01*
X25513690Y2338384D01*
X25514379Y2338500D01*
X25529646Y2339190D01*
X25529853Y2339174D01*
X25540236Y2340113D01*
X25540304Y2340112D01*
X25540305Y2340111D01*
X25540305Y2340112D01*
X25542463Y2340051D01*
X25551327Y2341329D01*
X25555353Y2341445D01*
X25562990Y2343014D01*
X25565711Y2343263D01*
X25565714Y2343262D01*
X25565716Y2343263D01*
X25568369Y2343505D01*
X25575280Y2345380D01*
X25578090Y2345816D01*
X25578093Y2345815D01*
X25578094Y2345816D01*
X25580756Y2346228D01*
X25585877Y2348018D01*
X25592420Y2349576D01*
X25592420Y2349577D01*
X25592422Y2349576D01*
X25595659Y2351427D01*
X25617790Y2358767D01*
X25618695Y2359157D01*
X25618698Y2359157D01*
X25630959Y2369328D01*
X25648806Y2379702D01*
X25654654Y2381906D01*
X25662881Y2392981D01*
X25678967Y2408096D01*
X25682257Y2410235D01*
X25686802Y2420338D01*
X25700758Y2440012D01*
X25701161Y2440394D01*
X25703230Y2448854D01*
X25710008Y2462858D01*
X25712896Y2470176D01*
X25712949Y2470756D01*
X25713536Y2477254D01*
X25717692Y2490015D01*
X25717004Y2490193D01*
X25719260Y2498891D01*
X25719261Y2498892D01*
X25719142Y2502630D01*
X25719062Y2505140D01*
X25721611Y2517475D01*
X25720232Y2517688D01*
X25721606Y2526568D01*
X25721608Y2526571D01*
X25720700Y2533402D01*
X25720310Y2545995D01*
X25720839Y2553539D01*
X25718955Y2562134D01*
X25717508Y2575441D01*
X25717502Y2580128D01*
X25717503Y2580131D01*
X25714505Y2590293D01*
X25712036Y2604708D01*
X25712012Y2605156D01*
X25712011Y2605158D01*
X25712012Y2605159D01*
X25709973Y2610959D01*
X25707495Y2622357D01*
X25706886Y2623899D01*
X25706887Y2623900D01*
X25702484Y2635056D01*
X25699810Y2645508D01*
X25698951Y2647479D01*
X25698952Y2647480D01*
X25693498Y2660003D01*
X25690913Y2668905D01*
X25683206Y2685261D01*
X25680656Y2693204D01*
X25671765Y2710846D01*
X25669186Y2718225D01*
X25659322Y2736649D01*
X25656647Y2743742D01*
X25654650Y2747266D01*
X25654651Y2747267D01*
X25646141Y2762286D01*
X25644792Y2765682D01*
X25644563Y2766076D01*
X25644263Y2766818D01*
X25640003Y2774104D01*
X25637262Y2780634D01*
X25635500Y2783499D01*
X25629443Y2796480D01*
X25627043Y2803678D01*
X25625112Y2808602D01*
X25623944Y2808072D01*
X25620235Y2816255D01*
X25620234Y2816256D01*
X25620234Y2816257D01*
X25617861Y2819011D01*
X25608469Y2835976D01*
X25606020Y2839666D01*
X25600031Y2844704D01*
X25585628Y2862181D01*
X25584179Y2864789D01*
X25576642Y2868833D01*
X25559326Y2882557D01*
X25556760Y2885466D01*
X25556759Y2885467D01*
X25551605Y2886930D01*
X25530043Y2897926D01*
X25529715Y2898184D01*
X25528894Y2898263D01*
X25515857Y2902523D01*
X25515741Y2902069D01*
X25505927Y2904583D01*
X25496623Y2905194D01*
X25488876Y2906493D01*
X25474452Y2906464D01*
X25473890Y2906530D01*
X25471754Y2906261D01*
X25465243Y2905743D01*
X25462897Y2905751D01*
X25457830Y2904727D01*
X25453267Y2904436D01*
X25449092Y2903531D01*
X25439306Y2902439D01*
X25434094Y2900858D01*
X25423549Y2898643D01*
X25419153Y2897462D01*
X25419065Y2897789D01*
X25413050Y2896011D01*
X25407434Y2895043D01*
X25404990Y2894251D01*
X25401560Y2893352D01*
X25392602Y2891540D01*
X25388781Y2890451D01*
X25376173Y2887715D01*
X25375086Y2887396D01*
X25360869Y2884279D01*
X25328834Y2877254D01*
X25274270Y2865533D01*
X25220455Y2854221D01*
X25202859Y2850605D01*
X25167837Y2843410D01*
X25116222Y2833056D01*
X25065603Y2823155D01*
X25016325Y2813773D01*
X24968252Y2804883D01*
X24921686Y2796537D01*
X24876599Y2788731D01*
X24833234Y2781501D01*
X24791288Y2774802D01*
X24751262Y2768711D01*
X24713332Y2763253D01*
X24677190Y2758384D01*
X24643187Y2754153D01*
X24611609Y2750591D01*
X24582377Y2747684D01*
X24555397Y2745421D01*
X24554595Y2745365D01*
X24553820Y2745310D01*
X24552676Y2745250D01*
X24524662Y2744327D01*
X24522600Y2744327D01*
X24497377Y2745161D01*
X24495297Y2745299D01*
X24480939Y2746736D01*
X24475838Y2748113D01*
X24465017Y2749662D01*
X24444443Y2757026D01*
X24442262Y2757606D01*
X24438489Y2757508D01*
X24417451Y2763008D01*
X24417172Y2761920D01*
X24408472Y2764158D01*
X24407032Y2764529D01*
X24388089Y2772952D01*
X24379185Y2778850D01*
X24378886Y2778942D01*
X24364172Y2780996D01*
X24361316Y2781767D01*
X24357445Y2783089D01*
X24351647Y2785502D01*
X24349403Y2786244D01*
X24342460Y2789067D01*
X24340475Y2789706D01*
X24340401Y2789736D01*
X24333745Y2792387D01*
X24333743Y2792388D01*
X24333416Y2792518D01*
X24328332Y2794579D01*
X24321107Y2797510D01*
X24308090Y2802888D01*
X24295329Y2808272D01*
X24283859Y2813217D01*
X24282521Y2813794D01*
X24269493Y2819533D01*
X24255905Y2825642D01*
X24246620Y2829898D01*
X24241644Y2832179D01*
X24226566Y2839209D01*
X24214956Y2844704D01*
X24210524Y2846802D01*
X24193215Y2855103D01*
X24174470Y2864190D01*
X24154591Y2873914D01*
X24154465Y2874057D01*
X24154433Y2873991D01*
X24132357Y2884868D01*
X24115231Y2893352D01*
X24112996Y2894459D01*
X24087527Y2907132D01*
X24087182Y2907369D01*
X24079439Y2911210D01*
X24059253Y2921222D01*
X24058802Y2921532D01*
X24032770Y2934389D01*
X24032230Y2934759D01*
X24007967Y2946683D01*
X24007316Y2947128D01*
X23993120Y2954063D01*
X23984635Y2958209D01*
X23983851Y2958741D01*
X23962726Y2968987D01*
X23961821Y2969597D01*
X23942148Y2979059D01*
X23941066Y2979783D01*
X23922645Y2988554D01*
X23921409Y2989373D01*
X23904193Y2997476D01*
X23902836Y2998366D01*
X23886563Y3005929D01*
X23885010Y3006936D01*
X23869665Y3013963D01*
X23867991Y3015034D01*
X23853367Y3021625D01*
X23851554Y3022768D01*
X23837589Y3028953D01*
X23835737Y3030106D01*
X23822114Y3036033D01*
X23820186Y3037213D01*
X23806948Y3042864D01*
X23805063Y3044003D01*
X23791865Y3049533D01*
X23790039Y3050619D01*
X23776836Y3056052D01*
X23775104Y3057067D01*
X23768035Y3059925D01*
X23761706Y3062485D01*
X23760185Y3063365D01*
X23746249Y3068914D01*
X23743938Y3070231D01*
X23741058Y3071350D01*
X23732731Y3075884D01*
X23718154Y3081049D01*
X23706408Y3086897D01*
X23692660Y3091112D01*
X23681366Y3096157D01*
X23667073Y3099916D01*
X23654730Y3104820D01*
X23645867Y3106742D01*
X23641876Y3107608D01*
X23633003Y3110760D01*
X23630959Y3111139D01*
X23625818Y3112830D01*
X23619602Y3113876D01*
X23611215Y3116430D01*
X23607637Y3116929D01*
X23597243Y3119741D01*
X23595095Y3119965D01*
X23594998Y3119976D01*
X23584277Y3122474D01*
X23581899Y3122637D01*
X23572599Y3124484D01*
X23568956Y3124623D01*
X23568622Y3124636D01*
X23561675Y3125826D01*
X23555050Y3125931D01*
X23550650Y3126604D01*
X23540700Y3126625D01*
X23538748Y3126904D01*
X23530789Y3126874D01*
X23528711Y3127158D01*
X23520958Y3127079D01*
X23516772Y3127610D01*
X23511755Y3127494D01*
X23504978Y3128236D01*
X23502523Y3128126D01*
X23493569Y3128879D01*
X23492956Y3128834D01*
X23483274Y3129358D01*
X23483248Y3129355D01*
X23475123Y3129564D01*
X23473963Y3129412D01*
X23468768Y3129436D01*
X23465001Y3128882D01*
X23460416Y3128834D01*
X23446811Y3126635D01*
X23437471Y3126332D01*
X23418086Y3122601D01*
X23417416Y3122489D01*
X23416660Y3122327D01*
X23415072Y3122021D01*
X23401661Y3121087D01*
X23383098Y3116656D01*
X23368471Y3114948D01*
X23368370Y3114949D01*
X23351623Y3110067D01*
X23337294Y3107650D01*
X23336585Y3107615D01*
X23320538Y3102009D01*
X23306353Y3098844D01*
X23305647Y3098772D01*
X23289855Y3092309D01*
X23275681Y3088380D01*
X23275543Y3088359D01*
X23259440Y3080818D01*
X23256901Y3079763D01*
X23255010Y3079073D01*
X23254847Y3079518D01*
X23251182Y3078303D01*
X23248190Y3076789D01*
X23237766Y3073061D01*
X23236031Y3072104D01*
X23219277Y3062862D01*
X23206415Y3057537D01*
X23203769Y3056774D01*
X23188678Y3047178D01*
X23176481Y3041174D01*
X23172818Y3039844D01*
X23158853Y3029578D01*
X23147140Y3022789D01*
X23143384Y3021127D01*
X23130039Y3009831D01*
X23118627Y3002155D01*
X23115670Y3000609D01*
X23102530Y2987936D01*
X23093372Y2981074D01*
X23093300Y2980998D01*
X23084215Y2973642D01*
X23071913Y2959850D01*
X23061842Y2950770D01*
X23058587Y2948422D01*
X23049134Y2936251D01*
X23040023Y2926774D01*
X23035822Y2923238D01*
X23027765Y2911093D01*
X23019496Y2901071D01*
X23015181Y2896831D01*
X23008014Y2883975D01*
X22999325Y2871991D01*
X22997584Y2870109D01*
X22996566Y2868591D01*
X22994025Y2863139D01*
X22989404Y2855852D01*
X22987132Y2850605D01*
X22982793Y2843333D01*
X22980767Y2838285D01*
X22975919Y2829588D01*
X22974687Y2826211D01*
X22967982Y2812972D01*
X22963167Y2805747D01*
X22962983Y2805870D01*
X22950599Y2786607D01*
X22943045Y2779840D01*
X22942560Y2779515D01*
X22933366Y2771250D01*
X22932780Y2770856D01*
X22924395Y2763287D01*
X22923767Y2762863D01*
X22916410Y2756191D01*
X22915569Y2755621D01*
X22909371Y2749966D01*
X22908142Y2749126D01*
X22903338Y2744704D01*
X22901317Y2743305D01*
X22898220Y2740411D01*
X22893887Y2737336D01*
X22893669Y2737125D01*
X22883516Y2729171D01*
X22873177Y2722673D01*
X22868066Y2718921D01*
X22868125Y2718852D01*
X22861285Y2713026D01*
X22852326Y2699341D01*
X22848355Y2694539D01*
X22848536Y2694398D01*
X22846122Y2691294D01*
X22843323Y2688155D01*
X22830269Y2675365D01*
X22830265Y2675358D01*
X22829355Y2671370D01*
X22820720Y2651060D01*
X22818667Y2647924D01*
X22817570Y2644303D01*
X22817052Y2640006D01*
X22816094Y2635942D01*
X22814802Y2632229D01*
X22814300Y2628974D01*
X22814792Y2625289D01*
X22813775Y2603122D01*
X22812948Y2599503D01*
X22260530Y2599503D01*
X22260530Y3005500D01*
X21488530Y3005500D01*
X21184530Y3005500D01*
X20412531Y3005500D01*
X20184030Y3005500D01*
X20184030Y3920058D01*
X20176632Y3957248D01*
X20176631Y3957250D01*
X20176631Y3957251D01*
X20174120Y3961008D01*
X20164787Y4007924D01*
X20191362Y4047698D01*
X20231534Y4057994D01*
X20242596Y4057026D01*
X20283672Y4068034D01*
X20286288Y4068614D01*
X20328180Y4075999D01*
X20333848Y4079272D01*
X20348914Y4085514D01*
X20352022Y4086347D01*
X20399448Y4080110D01*
X20428574Y4042164D01*
X20425382Y4000736D01*
X20415479Y3978306D01*
X20412530Y3952889D01*
X20412530Y3309500D01*
X21184530Y3309500D01*
X21488530Y3309500D01*
X22260529Y3309500D01*
X22260529Y3952889D01*
X22257580Y3978308D01*
X22257580Y3978309D01*
X22211672Y4082279D01*
X22154644Y4139307D01*
X22136338Y4183501D01*
X22154644Y4227695D01*
X22198838Y4246001D01*
X22734000Y4246001D01*
X22734000Y4698000D01*
X23038000Y4698000D01*
X23038000Y4246001D01*
X23706388Y4246001D01*
X23731807Y4248950D01*
X23731808Y4248950D01*
X23835778Y4294858D01*
X23916142Y4375222D01*
X23962051Y4479195D01*
X23965000Y4504612D01*
X23965000Y4698000D01*
X23038000Y4698000D01*
X22734000Y4698000D01*
X21807001Y4698000D01*
X21807001Y4504612D01*
X21809949Y4479193D01*
X21809949Y4479192D01*
X21855857Y4375222D01*
X21912885Y4318194D01*
X21931191Y4274000D01*
X21912885Y4229806D01*
X21868691Y4211500D01*
X21488530Y4211500D01*
X21488530Y3309500D01*
X21184530Y3309500D01*
X21184530Y4211500D01*
X20671138Y4211500D01*
X20656985Y4209858D01*
X20610977Y4222952D01*
X20587703Y4264744D01*
X20600797Y4310752D01*
X20605582Y4316125D01*
X21043384Y4753926D01*
X21087579Y4772232D01*
X21183845Y4772232D01*
X21183847Y4772233D01*
X21207035Y4774923D01*
X21207036Y4774924D01*
X21207040Y4774924D01*
X21273932Y4804460D01*
X21301944Y4816827D01*
X21301944Y4816828D01*
X21301948Y4816829D01*
X21375309Y4890190D01*
X21379097Y4898768D01*
X21397424Y4940277D01*
X21417214Y4985098D01*
X21419340Y5003417D01*
X21419905Y5008291D01*
X21419906Y5008293D01*
X21419906Y5456800D01*
X21438212Y5500994D01*
X21482406Y5519300D01*
X21901039Y5519300D01*
X21945233Y5500994D01*
X21963539Y5456800D01*
X21945233Y5412606D01*
X21936361Y5405238D01*
X21936221Y5405143D01*
X21855857Y5324779D01*
X21809948Y5220806D01*
X21807000Y5195389D01*
X21807000Y5002000D01*
X23964999Y5002000D01*
X23964999Y5195389D01*
X23962050Y5220808D01*
X23962050Y5220809D01*
X23916142Y5324779D01*
X23835778Y5405143D01*
X23812120Y5415589D01*
X23779085Y5450187D01*
X23779624Y5496685D01*
X23781102Y5500253D01*
X23781250Y5500994D01*
X23788500Y5537442D01*
X23788500Y6162558D01*
X23781102Y6199748D01*
X23778853Y6203114D01*
X23752922Y6241923D01*
X23710748Y6270102D01*
X23691062Y6274018D01*
X23673558Y6277500D01*
X22098442Y6277500D01*
X22080938Y6274018D01*
X22061251Y6270102D01*
X22061250Y6270102D01*
X22019077Y6241923D01*
X21996730Y6208477D01*
X21956956Y6181901D01*
X21944763Y6180700D01*
X21439689Y6180700D01*
X21395495Y6199006D01*
X21382515Y6217955D01*
X21375309Y6234273D01*
X21375309Y6234274D01*
X21301948Y6307635D01*
X21301944Y6307638D01*
X21207041Y6349540D01*
X21207035Y6349542D01*
X21183846Y6352232D01*
X21183838Y6352232D01*
X20800974Y6352232D01*
X20800966Y6352232D01*
X20777776Y6349542D01*
X20777770Y6349540D01*
X20682864Y6307636D01*
X20677778Y6302550D01*
X20633583Y6284247D01*
X20589389Y6302555D01*
X20583299Y6309633D01*
X20517058Y6399385D01*
X20406943Y6480653D01*
X20277762Y6525856D01*
X20277760Y6525857D01*
X20247089Y6528732D01*
X20194406Y6528732D01*
X20194406Y5472732D01*
X20176100Y5428538D01*
X20131906Y5410232D01*
X19952906Y5410232D01*
X19908712Y5428538D01*
X19890406Y5472732D01*
X19890406Y6528732D01*
X19837723Y6528732D01*
X19807051Y6525857D01*
X19807049Y6525856D01*
X19677868Y6480653D01*
X19567752Y6399385D01*
X19501512Y6309632D01*
X19460540Y6284944D01*
X19414111Y6296459D01*
X19407031Y6302552D01*
X19401948Y6307635D01*
X19401944Y6307638D01*
X19307041Y6349540D01*
X19307035Y6349542D01*
X19283846Y6352232D01*
X19283838Y6352232D01*
X18900974Y6352232D01*
X18900966Y6352232D01*
X18873102Y6348999D01*
X18872845Y6351211D01*
X18832919Y6356324D01*
X18803665Y6394171D01*
X18809742Y6441619D01*
X18819780Y6454750D01*
X18902472Y6537442D01*
X21983500Y6537442D01*
X21985233Y6528732D01*
X21990898Y6500252D01*
X21990898Y6500251D01*
X22019077Y6458078D01*
X22040175Y6443981D01*
X22061252Y6429898D01*
X22098442Y6422500D01*
X22098443Y6422500D01*
X23673557Y6422500D01*
X23673558Y6422500D01*
X23710748Y6429898D01*
X23752922Y6458078D01*
X23781102Y6500252D01*
X23788500Y6537442D01*
X23788500Y6585000D01*
X23806806Y6629194D01*
X23851000Y6647500D01*
X25146965Y6647500D01*
X25191159Y6629194D01*
X25203816Y6610964D01*
X25208722Y6600222D01*
X25217620Y6589953D01*
X25299206Y6495797D01*
X25402544Y6429387D01*
X25415442Y6421098D01*
X25546715Y6382553D01*
X25548013Y6382172D01*
X25548015Y6382171D01*
X25548016Y6382171D01*
X25686187Y6382171D01*
X25686187Y6382172D01*
X25818760Y6421098D01*
X25871130Y6454754D01*
X25934995Y6495797D01*
X25934997Y6495799D01*
X26025480Y6600222D01*
X26082878Y6725906D01*
X26102542Y6862671D01*
X26082878Y6999436D01*
X26025480Y7125120D01*
X26025478Y7125123D01*
X26025477Y7125124D01*
X25934995Y7229546D01*
X25818764Y7304242D01*
X25818755Y7304246D01*
X25686188Y7343171D01*
X25686186Y7343171D01*
X25548016Y7343171D01*
X25548014Y7343171D01*
X25415446Y7304246D01*
X25415437Y7304242D01*
X25299206Y7229546D01*
X25208724Y7125123D01*
X25208721Y7125118D01*
X25192244Y7089037D01*
X25157234Y7056441D01*
X25135392Y7052500D01*
X23851000Y7052500D01*
X23806806Y7070806D01*
X23788500Y7115000D01*
X23788500Y7162558D01*
X23784679Y7181764D01*
X23781102Y7199748D01*
X23775670Y7207878D01*
X23752922Y7241923D01*
X23710748Y7270102D01*
X23673558Y7277500D01*
X22098442Y7277500D01*
X22079846Y7273801D01*
X22061251Y7270102D01*
X22061250Y7270102D01*
X22019077Y7241923D01*
X21990898Y7199750D01*
X21990898Y7199749D01*
X21985681Y7173522D01*
X21983500Y7162558D01*
X21983500Y6537442D01*
X18902472Y6537442D01*
X19197008Y6831978D01*
X19214085Y6844093D01*
X19214555Y6844319D01*
X19233954Y6868647D01*
X19236291Y6871260D01*
X19242681Y6877649D01*
X19247488Y6885300D01*
X19249520Y6888165D01*
X19255724Y6895944D01*
X19268917Y6912486D01*
X19269031Y6912989D01*
X19277050Y6932348D01*
X19277324Y6932783D01*
X19280807Y6963710D01*
X19281394Y6967157D01*
X19283406Y6975968D01*
X19283406Y6985007D01*
X19283602Y6988506D01*
X19285637Y7006572D01*
X19308773Y7048438D01*
X19322494Y7056748D01*
X19385588Y7084606D01*
X19401944Y7091827D01*
X19401944Y7091828D01*
X19401948Y7091829D01*
X19475309Y7165190D01*
X19475469Y7165551D01*
X19505338Y7233201D01*
X19517214Y7260098D01*
X19519904Y7283291D01*
X20564906Y7283291D01*
X20567596Y7260103D01*
X20567598Y7260097D01*
X20609500Y7165194D01*
X20609503Y7165190D01*
X20682863Y7091830D01*
X20682867Y7091827D01*
X20762310Y7056751D01*
X20777772Y7049924D01*
X20777773Y7049924D01*
X20777776Y7049923D01*
X20800964Y7047233D01*
X20800967Y7047232D01*
X20800974Y7047232D01*
X21183845Y7047232D01*
X21183847Y7047233D01*
X21207035Y7049923D01*
X21207036Y7049924D01*
X21207040Y7049924D01*
X21273932Y7079460D01*
X21301944Y7091827D01*
X21301944Y7091828D01*
X21301948Y7091829D01*
X21375309Y7165190D01*
X21375469Y7165551D01*
X21405338Y7233201D01*
X21417214Y7260098D01*
X21419904Y7283291D01*
X21419906Y7283293D01*
X21419906Y7537442D01*
X21983500Y7537442D01*
X21990898Y7500252D01*
X21990898Y7500251D01*
X22019077Y7458078D01*
X22042058Y7442723D01*
X22061252Y7429898D01*
X22098442Y7422500D01*
X22098443Y7422500D01*
X23673557Y7422500D01*
X23673558Y7422500D01*
X23710748Y7429898D01*
X23752922Y7458078D01*
X23781102Y7500252D01*
X23788500Y7537442D01*
X23788500Y7585000D01*
X23806806Y7629194D01*
X23851000Y7647500D01*
X24192754Y7647500D01*
X24236948Y7629194D01*
X24249606Y7610963D01*
X24264126Y7579167D01*
X24264129Y7579163D01*
X24354611Y7474741D01*
X24470842Y7400045D01*
X24470847Y7400042D01*
X24603418Y7361116D01*
X24603420Y7361115D01*
X24603421Y7361115D01*
X24741592Y7361115D01*
X24741592Y7361116D01*
X24874165Y7400042D01*
X24924526Y7432407D01*
X24990400Y7474741D01*
X25007302Y7494247D01*
X25080885Y7579166D01*
X25138283Y7704850D01*
X25157947Y7841615D01*
X25138283Y7978380D01*
X25080885Y8104064D01*
X25071409Y8115000D01*
X24990400Y8208490D01*
X24874169Y8283186D01*
X24874160Y8283190D01*
X24741593Y8322115D01*
X24741591Y8322115D01*
X24603421Y8322115D01*
X24603419Y8322115D01*
X24470851Y8283190D01*
X24470842Y8283186D01*
X24354611Y8208490D01*
X24264129Y8104068D01*
X24264127Y8104066D01*
X24257264Y8089036D01*
X24222253Y8056441D01*
X24200412Y8052500D01*
X23851000Y8052500D01*
X23806806Y8070806D01*
X23788500Y8115000D01*
X23788500Y8162558D01*
X23787171Y8169240D01*
X23781102Y8199748D01*
X23781101Y8199750D01*
X23752922Y8241923D01*
X23710748Y8270102D01*
X23697155Y8272806D01*
X23673558Y8277500D01*
X22098442Y8277500D01*
X22079846Y8273801D01*
X22061251Y8270102D01*
X22061250Y8270102D01*
X22019077Y8241923D01*
X21990898Y8199750D01*
X21990898Y8199749D01*
X21990897Y8199748D01*
X21990898Y8199748D01*
X21983500Y8162558D01*
X21983500Y7537442D01*
X21419906Y7537442D01*
X21419906Y8391172D01*
X21419905Y8391174D01*
X21417215Y8414362D01*
X21417213Y8414368D01*
X21414181Y8421234D01*
X21409447Y8431958D01*
X21375311Y8509271D01*
X21375308Y8509275D01*
X21301948Y8582635D01*
X21301944Y8582638D01*
X21207041Y8624540D01*
X21207035Y8624542D01*
X21183846Y8627232D01*
X21183838Y8627232D01*
X20800974Y8627232D01*
X20800966Y8627232D01*
X20777776Y8624542D01*
X20777770Y8624540D01*
X20682867Y8582638D01*
X20682863Y8582635D01*
X20609503Y8509275D01*
X20609500Y8509271D01*
X20567598Y8414368D01*
X20567596Y8414362D01*
X20564906Y8391174D01*
X20564906Y7283291D01*
X19519904Y7283291D01*
X19519906Y7283293D01*
X19519906Y8391172D01*
X19519905Y8391174D01*
X19517215Y8414362D01*
X19517213Y8414368D01*
X19514181Y8421234D01*
X19509447Y8431958D01*
X19475311Y8509271D01*
X19475308Y8509275D01*
X19401948Y8582635D01*
X19401944Y8582638D01*
X19307041Y8624540D01*
X19307035Y8624542D01*
X19295766Y8625849D01*
X19253976Y8649126D01*
X19240470Y8687932D01*
X19240470Y8894070D01*
X19258776Y8938264D01*
X19302970Y8956570D01*
X19682027Y8956570D01*
X19682028Y8956570D01*
X19719218Y8963968D01*
X19761392Y8992148D01*
X19789572Y9034322D01*
X19796970Y9071512D01*
X19796970Y9682070D01*
X20025471Y9682070D01*
X20025471Y9038682D01*
X20028419Y9013263D01*
X20028419Y9013262D01*
X20074327Y8909292D01*
X20154691Y8828928D01*
X20258664Y8783019D01*
X20284081Y8780071D01*
X20797470Y8780071D01*
X20797470Y9682070D01*
X21101470Y9682070D01*
X21101470Y8780071D01*
X21614858Y8780071D01*
X21640277Y8783020D01*
X21640278Y8783020D01*
X21744248Y8828928D01*
X21824612Y8909292D01*
X21870521Y9013265D01*
X21873470Y9038682D01*
X21873470Y9682070D01*
X21101470Y9682070D01*
X20797470Y9682070D01*
X20025471Y9682070D01*
X19796970Y9682070D01*
X19796970Y9986070D01*
X20025470Y9986070D01*
X20797470Y9986070D01*
X20797470Y10888070D01*
X21101470Y10888070D01*
X21101470Y9986070D01*
X21873469Y9986070D01*
X21873469Y10629459D01*
X21870520Y10654878D01*
X21870520Y10654879D01*
X21824612Y10758849D01*
X21744248Y10839213D01*
X21640275Y10885122D01*
X21614859Y10888070D01*
X21101470Y10888070D01*
X20797470Y10888070D01*
X20284081Y10888070D01*
X20258662Y10885121D01*
X20258661Y10885121D01*
X20154691Y10839213D01*
X20074327Y10758849D01*
X20028418Y10654876D01*
X20025470Y10629459D01*
X20025470Y9986070D01*
X19796970Y9986070D01*
X19796970Y10596628D01*
X19789572Y10633818D01*
X19789571Y10633820D01*
X19761392Y10675993D01*
X19719218Y10704172D01*
X19718796Y10704256D01*
X19682028Y10711570D01*
X18416912Y10711570D01*
X18398316Y10707872D01*
X18379721Y10704172D01*
X18379720Y10704172D01*
X18337547Y10675993D01*
X18309368Y10633820D01*
X18309368Y10633819D01*
X18309367Y10633818D01*
X18309368Y10633818D01*
X18301970Y10596628D01*
X18301970Y9071512D01*
X18306025Y9051129D01*
X18309368Y9034322D01*
X18309368Y9034321D01*
X18337547Y8992148D01*
X18365727Y8973320D01*
X18379722Y8963968D01*
X18416912Y8956570D01*
X18795970Y8956570D01*
X18840164Y8938264D01*
X18858470Y8894070D01*
X18858470Y8656744D01*
X18840164Y8612550D01*
X18821216Y8599570D01*
X18782863Y8582635D01*
X18709503Y8509275D01*
X18709500Y8509271D01*
X18667598Y8414368D01*
X18667596Y8414362D01*
X18664906Y8391174D01*
X18664906Y7283291D01*
X18667596Y7260103D01*
X18667598Y7260097D01*
X18709500Y7165194D01*
X18709503Y7165190D01*
X18782864Y7091829D01*
X18792193Y7087710D01*
X18825227Y7053115D01*
X18824123Y7005292D01*
X18811142Y6986342D01*
X18386508Y6561708D01*
X18342314Y6543402D01*
X18298120Y6561708D01*
X18279814Y6605902D01*
X18280260Y6613355D01*
X18290711Y6700375D01*
X18290712Y6700390D01*
X18290712Y6814795D01*
X17663712Y6814795D01*
X17663712Y6212795D01*
X17803117Y6212795D01*
X17803132Y6212796D01*
X17890152Y6223247D01*
X17936214Y6210342D01*
X17959659Y6168646D01*
X17946754Y6122584D01*
X17941799Y6116999D01*
X17837402Y6012601D01*
X17793208Y5994295D01*
X17548710Y5994295D01*
X17504516Y6012601D01*
X17376211Y6140906D01*
X17357905Y6185100D01*
X17359712Y6189463D01*
X17359712Y6814795D01*
X16732712Y6814795D01*
X16732712Y6700390D01*
X16732713Y6700373D01*
X16742921Y6615368D01*
X16796265Y6480096D01*
X16796268Y6480091D01*
X16864461Y6390165D01*
X16876579Y6343890D01*
X16852426Y6302600D01*
X16814661Y6289900D01*
X16617788Y6289900D01*
X16573594Y6308206D01*
X16555288Y6352400D01*
X16562100Y6380774D01*
X16589015Y6433600D01*
X16589017Y6433605D01*
X16600800Y6508000D01*
X14524201Y6508000D01*
X14535984Y6433601D01*
X14535985Y6433597D01*
X14562900Y6380774D01*
X14566653Y6333086D01*
X14535586Y6296712D01*
X14507212Y6289900D01*
X13955456Y6289900D01*
X13911262Y6308206D01*
X13892956Y6352400D01*
X13893491Y6360558D01*
X13900791Y6416007D01*
X13900791Y6416012D01*
X13883508Y6547286D01*
X13895888Y6593491D01*
X13937315Y6617409D01*
X13945473Y6617944D01*
X14055024Y6617944D01*
X14055024Y6617945D01*
X14187597Y6656871D01*
X14246219Y6694545D01*
X14303832Y6731570D01*
X14333745Y6766091D01*
X14394317Y6835995D01*
X14405008Y6859407D01*
X14440019Y6892003D01*
X14461861Y6895944D01*
X14464317Y6895944D01*
X14508511Y6877638D01*
X14526817Y6833444D01*
X14526048Y6823667D01*
X14524200Y6812000D01*
X16600798Y6812000D01*
X16589015Y6886400D01*
X16589014Y6886404D01*
X16530917Y7000425D01*
X16437226Y7094116D01*
X16427003Y7118795D01*
X16732712Y7118795D01*
X17359712Y7118795D01*
X17359712Y7720795D01*
X17663712Y7720795D01*
X17663712Y7118795D01*
X18290712Y7118795D01*
X18290712Y7233201D01*
X18290710Y7233218D01*
X18280502Y7318223D01*
X18227158Y7453495D01*
X18227155Y7453500D01*
X18139287Y7569371D01*
X18023416Y7657239D01*
X18023411Y7657242D01*
X17888139Y7710586D01*
X17803134Y7720794D01*
X17803117Y7720795D01*
X17663712Y7720795D01*
X17359712Y7720795D01*
X17220307Y7720795D01*
X17220289Y7720794D01*
X17135284Y7710586D01*
X17000012Y7657242D01*
X17000007Y7657239D01*
X16884136Y7569371D01*
X16796268Y7453500D01*
X16796265Y7453495D01*
X16742921Y7318223D01*
X16732713Y7233218D01*
X16732712Y7233201D01*
X16732712Y7118795D01*
X16427003Y7118795D01*
X16418920Y7138310D01*
X16420119Y7150491D01*
X16427500Y7187594D01*
X16427500Y7432406D01*
X16414300Y7498766D01*
X16409430Y7506054D01*
X16386737Y7540017D01*
X16364018Y7574018D01*
X16350525Y7583034D01*
X16323949Y7622806D01*
X16333281Y7669722D01*
X16350526Y7686967D01*
X16364018Y7695982D01*
X16414300Y7771234D01*
X16427500Y7837594D01*
X16427500Y7998144D01*
X16445805Y8042336D01*
X17202486Y8799018D01*
X17219564Y8811134D01*
X17220640Y8811651D01*
X17234417Y8828928D01*
X17241278Y8837531D01*
X17243617Y8840148D01*
X17250459Y8846989D01*
X17255622Y8855208D01*
X17257621Y8858026D01*
X17278274Y8883923D01*
X17278539Y8885086D01*
X17286555Y8904438D01*
X17287188Y8905443D01*
X17290894Y8938340D01*
X17291476Y8941767D01*
X17293636Y8951227D01*
X17293636Y8960907D01*
X17293833Y8964409D01*
X17297539Y8997300D01*
X17297143Y8998432D01*
X17293636Y9019075D01*
X17293636Y10656359D01*
X17311942Y10700553D01*
X17980786Y11369397D01*
X18024980Y11387703D01*
X20435177Y11387703D01*
X20455818Y11384196D01*
X20456947Y11383801D01*
X20481386Y11386555D01*
X20489833Y11387506D01*
X20493335Y11387703D01*
X20503018Y11387703D01*
X20503020Y11387703D01*
X20512472Y11389862D01*
X20515901Y11390445D01*
X20548804Y11394151D01*
X20549809Y11394784D01*
X20569161Y11402800D01*
X20570324Y11403065D01*
X20596221Y11423718D01*
X20599039Y11425717D01*
X20607258Y11430880D01*
X20614100Y11437724D01*
X20616716Y11440061D01*
X20633065Y11453099D01*
X20642596Y11460699D01*
X20643113Y11461775D01*
X20655229Y11478853D01*
X21021550Y11845174D01*
X21065743Y11863479D01*
X21095202Y11856100D01*
X21214117Y11792538D01*
X21398376Y11736643D01*
X21590000Y11717770D01*
X21781624Y11736643D01*
X21965883Y11792538D01*
X22135698Y11883306D01*
X22284541Y12005459D01*
X22406694Y12154302D01*
X22497462Y12324117D01*
X22553357Y12508376D01*
X22572230Y12700000D01*
X22571730Y12705072D01*
X22553357Y12891623D01*
X22546885Y12912959D01*
X22497462Y13075883D01*
X22406694Y13245698D01*
X22284541Y13394541D01*
X22135698Y13516694D01*
X22135692Y13516698D01*
X21998842Y13589845D01*
X21965883Y13607462D01*
X21965878Y13607464D01*
X21965877Y13607464D01*
X21836856Y13646604D01*
X21799879Y13676951D01*
X21792500Y13706412D01*
X21792500Y14233590D01*
X21810806Y14277784D01*
X21836855Y14293399D01*
X21965883Y14332538D01*
X22135698Y14423306D01*
X22284541Y14545459D01*
X22406694Y14694302D01*
X22497462Y14864117D01*
X22553357Y15048376D01*
X22556769Y15083023D01*
X22564167Y15158126D01*
X22586717Y15200313D01*
X22626366Y15214500D01*
X22916443Y15214500D01*
X22960637Y15196194D01*
G37*
%TD.AperFunction*%
%TD*%
M02*
