%TF.GenerationSoftware,KiCad,Pcbnew,(6.0.9)*%
%TF.CreationDate,2022-11-11T15:07:43-08:00*%
%TF.ProjectId,StemmaG0,5374656d-6d61-4473-902e-6b696361645f,rev?*%
%TF.SameCoordinates,Original*%
%TF.FileFunction,Legend,Bot*%
%TF.FilePolarity,Positive*%
%FSLAX46Y46*%
G04 Gerber Fmt 4.6, Leading zero omitted, Abs format (unit mm)*
G04 Created by KiCad (PCBNEW (6.0.9)) date 2022-11-11 15:07:43*
%MOMM*%
%LPD*%
G01*
G04 APERTURE LIST*
%ADD10C,0.150000*%
%ADD11C,0.300000*%
%ADD12C,0.120000*%
%ADD13C,1.700000*%
%ADD14O,1.700000X1.700000*%
%ADD15C,1.152000*%
%ADD16C,3.301600*%
%ADD17R,0.740000X2.400000*%
G04 APERTURE END LIST*
D10*
X18702298Y10638582D02*
X18797536Y10590963D01*
X18988012Y10590963D01*
X19083250Y10638582D01*
X19130869Y10686201D01*
X19178489Y10781439D01*
X19178489Y11067153D01*
X19130869Y11162391D01*
X19083250Y11210010D01*
X18988012Y11257629D01*
X18797536Y11257629D01*
X18702298Y11210010D01*
X18273727Y10590963D02*
X18273727Y11590963D01*
X18178489Y10971915D02*
X17892774Y10590963D01*
X17892774Y11257629D02*
X18273727Y10876677D01*
X17035631Y10590963D02*
X17035631Y11590963D01*
X17035631Y10638582D02*
X17130869Y10590963D01*
X17321346Y10590963D01*
X17416584Y10638582D01*
X17464203Y10686201D01*
X17511822Y10781439D01*
X17511822Y11067153D01*
X17464203Y11162391D01*
X17416584Y11210010D01*
X17321346Y11257629D01*
X17130869Y11257629D01*
X17035631Y11210010D01*
X16559441Y10686201D02*
X16511822Y10638582D01*
X16559441Y10590963D01*
X16607060Y10638582D01*
X16559441Y10686201D01*
X16559441Y10590963D01*
X16226108Y11257629D02*
X15845155Y11257629D01*
X16083250Y11590963D02*
X16083250Y10733820D01*
X16035631Y10638582D01*
X15940393Y10590963D01*
X15845155Y10590963D01*
X15130869Y10638582D02*
X15226108Y10590963D01*
X15416584Y10590963D01*
X15511822Y10638582D01*
X15559441Y10733820D01*
X15559441Y11114772D01*
X15511822Y11210010D01*
X15416584Y11257629D01*
X15226108Y11257629D01*
X15130869Y11210010D01*
X15083250Y11114772D01*
X15083250Y11019534D01*
X15559441Y10924296D01*
X14226108Y10638582D02*
X14321346Y10590963D01*
X14511822Y10590963D01*
X14607060Y10638582D01*
X14654679Y10686201D01*
X14702298Y10781439D01*
X14702298Y11067153D01*
X14654679Y11162391D01*
X14607060Y11210010D01*
X14511822Y11257629D01*
X14321346Y11257629D01*
X14226108Y11210010D01*
X13797536Y10590963D02*
X13797536Y11590963D01*
X13368965Y10590963D02*
X13368965Y11114772D01*
X13416584Y11210010D01*
X13511822Y11257629D01*
X13654679Y11257629D01*
X13749917Y11210010D01*
X13797536Y11162391D01*
X12178489Y11638582D02*
X13035631Y10352867D01*
X11416584Y11257629D02*
X11416584Y10257629D01*
X11416584Y10638582D02*
X11511822Y10590963D01*
X11702298Y10590963D01*
X11797536Y10638582D01*
X11845155Y10686201D01*
X11892774Y10781439D01*
X11892774Y11067153D01*
X11845155Y11162391D01*
X11797536Y11210010D01*
X11702298Y11257629D01*
X11511822Y11257629D01*
X11416584Y11210010D01*
X11083250Y11257629D02*
X10702298Y11257629D01*
X10940393Y11590963D02*
X10940393Y10733820D01*
X10892774Y10638582D01*
X10797536Y10590963D01*
X10702298Y10590963D01*
X9940393Y11257629D02*
X9940393Y10448105D01*
X9988012Y10352867D01*
X10035631Y10305248D01*
X10130869Y10257629D01*
X10273727Y10257629D01*
X10368965Y10305248D01*
X9940393Y10638582D02*
X10035631Y10590963D01*
X10226108Y10590963D01*
X10321346Y10638582D01*
X10368965Y10686201D01*
X10416584Y10781439D01*
X10416584Y11067153D01*
X10368965Y11162391D01*
X10321346Y11210010D01*
X10226108Y11257629D01*
X10035631Y11257629D01*
X9940393Y11210010D01*
X9273727Y11590963D02*
X9178489Y11590963D01*
X9083250Y11543343D01*
X9035631Y11495724D01*
X8988012Y11400486D01*
X8940393Y11210010D01*
X8940393Y10971915D01*
X8988012Y10781439D01*
X9035631Y10686201D01*
X9083250Y10638582D01*
X9178489Y10590963D01*
X9273727Y10590963D01*
X9368965Y10638582D01*
X9416584Y10686201D01*
X9464203Y10781439D01*
X9511822Y10971915D01*
X9511822Y11210010D01*
X9464203Y11400486D01*
X9416584Y11495724D01*
X9368965Y11543343D01*
X9273727Y11590963D01*
X7797536Y11638582D02*
X8654679Y10352867D01*
X7559441Y11257629D02*
X7321346Y10590963D01*
X7083250Y11257629D01*
X6178489Y10590963D02*
X6749917Y10590963D01*
X6464203Y10590963D02*
X6464203Y11590963D01*
X6559441Y11448105D01*
X6654679Y11352867D01*
X6749917Y11305248D01*
X27147494Y2564198D02*
X26504637Y2564198D01*
X26376065Y2521340D01*
X26290351Y2435626D01*
X26247494Y2307055D01*
X26247494Y2221340D01*
X26247494Y3421340D02*
X26247494Y2992769D01*
X27147494Y2992769D01*
X26333208Y4235626D02*
X26290351Y4192769D01*
X26247494Y4064198D01*
X26247494Y3978483D01*
X26290351Y3849912D01*
X26376065Y3764198D01*
X26461779Y3721340D01*
X26633208Y3678483D01*
X26761779Y3678483D01*
X26933208Y3721340D01*
X27018922Y3764198D01*
X27104637Y3849912D01*
X27147494Y3978483D01*
X27147494Y4064198D01*
X27104637Y4192769D01*
X27061779Y4235626D01*
X27147494Y4878483D02*
X26504637Y4878483D01*
X26376065Y4835626D01*
X26290351Y4749912D01*
X26247494Y4621340D01*
X26247494Y4535626D01*
X26247494Y5735626D02*
X26247494Y5307055D01*
X27147494Y5307055D01*
X26333208Y6549912D02*
X26290351Y6507055D01*
X26247494Y6378483D01*
X26247494Y6292769D01*
X26290351Y6164198D01*
X26376065Y6078483D01*
X26461779Y6035626D01*
X26633208Y5992769D01*
X26761779Y5992769D01*
X26933208Y6035626D01*
X27018922Y6078483D01*
X27104637Y6164198D01*
X27147494Y6292769D01*
X27147494Y6378483D01*
X27104637Y6507055D01*
X27061779Y6549912D01*
X27147494Y7192769D02*
X26504637Y7192769D01*
X26376065Y7149912D01*
X26290351Y7064198D01*
X26247494Y6935626D01*
X26247494Y6849912D01*
X26247494Y8049912D02*
X26247494Y7621340D01*
X27147494Y7621340D01*
X26333208Y8864198D02*
X26290351Y8821340D01*
X26247494Y8692769D01*
X26247494Y8607055D01*
X26290351Y8478483D01*
X26376065Y8392769D01*
X26461779Y8349912D01*
X26633208Y8307055D01*
X26761779Y8307055D01*
X26933208Y8349912D01*
X27018922Y8392769D01*
X27104637Y8478483D01*
X27147494Y8607055D01*
X27147494Y8692769D01*
X27104637Y8821340D01*
X27061779Y8864198D01*
X27147494Y9507055D02*
X26504637Y9507055D01*
X26376065Y9464198D01*
X26290351Y9378483D01*
X26247494Y9249912D01*
X26247494Y9164198D01*
X26247494Y10364198D02*
X26247494Y9935626D01*
X27147494Y9935626D01*
X26333208Y11178483D02*
X26290351Y11135626D01*
X26247494Y11007055D01*
X26247494Y10921340D01*
X26290351Y10792769D01*
X26376065Y10707055D01*
X26461779Y10664198D01*
X26633208Y10621340D01*
X26761779Y10621340D01*
X26933208Y10664198D01*
X27018922Y10707055D01*
X27104637Y10792769D01*
X27147494Y10921340D01*
X27147494Y11007055D01*
X27104637Y11135626D01*
X27061779Y11178483D01*
D11*
X15951680Y8609734D02*
X16023109Y8395448D01*
X16023109Y8038305D01*
X15951680Y7895448D01*
X15880252Y7824019D01*
X15737395Y7752591D01*
X15594538Y7752591D01*
X15451680Y7824019D01*
X15380252Y7895448D01*
X15308823Y8038305D01*
X15237395Y8324019D01*
X15165966Y8466877D01*
X15094538Y8538305D01*
X14951680Y8609734D01*
X14808823Y8609734D01*
X14665966Y8538305D01*
X14594538Y8466877D01*
X14523109Y8324019D01*
X14523109Y7966877D01*
X14594538Y7752591D01*
X14523109Y7252591D02*
X16023109Y6895448D01*
X14951680Y6609734D01*
X16023109Y6324019D01*
X14523109Y5966877D01*
X16023109Y5395448D02*
X14523109Y5395448D01*
X14523109Y5038305D01*
X14594538Y4824019D01*
X14737395Y4681162D01*
X14880252Y4609734D01*
X15165966Y4538305D01*
X15380252Y4538305D01*
X15665966Y4609734D01*
X15808823Y4681162D01*
X15951680Y4824019D01*
X16023109Y5038305D01*
X16023109Y5395448D01*
D12*
%TO.C,J3*%
X16853259Y9566583D02*
X16853259Y8241583D01*
X16788259Y8241583D02*
X16853259Y8241583D01*
X23193259Y4711583D02*
X23258259Y4711583D01*
X23193259Y8241583D02*
X23258259Y8241583D01*
X16788259Y4711583D02*
X16853259Y4711583D01*
X23258259Y8241583D02*
X23258259Y4711583D01*
X16788259Y8241583D02*
X16788259Y4711583D01*
%TD*%
%LPC*%
D13*
%TO.C,J1*%
X26670000Y12700000D03*
D14*
X24130000Y12700000D03*
X21590000Y12700000D03*
X19050000Y12700000D03*
X16510000Y12700000D03*
X13970000Y12700000D03*
X11430000Y12700000D03*
X8890000Y12700000D03*
X6350000Y12700000D03*
X3810000Y12700000D03*
X1270000Y12700000D03*
X-1270000Y12700000D03*
%TD*%
D15*
%TO.C,REF\u002A\u002A*%
X2540000Y-1270000D03*
%TD*%
D16*
%TO.C,U$19*%
X0Y0D03*
%TD*%
D13*
%TO.C,J2*%
X3810000Y0D03*
D14*
X6350000Y0D03*
X8890000Y0D03*
X11430000Y0D03*
X13970000Y0D03*
X16510000Y0D03*
X19050000Y0D03*
X21590000Y0D03*
%TD*%
D15*
%TO.C,REF\u002A\u002A*%
X25400000Y13990219D03*
%TD*%
D16*
%TO.C,U$21*%
X25400000Y0D03*
%TD*%
D13*
%TO.C,J4*%
X3810000Y-2540000D03*
X6350000Y-2540000D03*
X8890000Y-2540000D03*
X11430000Y-2540000D03*
X13970000Y-2540000D03*
X16510000Y-2540000D03*
X19050000Y-2540000D03*
X21590000Y-2540000D03*
%TD*%
%TO.C,J5*%
X24130000Y15240000D03*
X21590000Y15240000D03*
D14*
X19050000Y15240000D03*
D13*
X16510000Y15240000D03*
X13970000Y15240000D03*
X11430000Y15240000D03*
X8890000Y15240000D03*
X6350000Y15240000D03*
X3810000Y15240000D03*
X1270000Y15240000D03*
%TD*%
D17*
%TO.C,J3*%
X17483259Y8426583D03*
X17483259Y4526583D03*
X18753259Y8426583D03*
X18753259Y4526583D03*
X20023259Y8426583D03*
X20023259Y4526583D03*
X21293259Y8426583D03*
X21293259Y4526583D03*
X22563259Y8426583D03*
X22563259Y4526583D03*
%TD*%
M02*
