M48
; DRILL file {KiCad 7.0.3} date Fri 19 May 2023 04:22:07 PM PDT
; FORMAT={-:-/ absolute / inch / decimal}
; #@! TF.CreationDate,2023-05-19T16:22:07-07:00
; #@! TF.GenerationSoftware,Kicad,Pcbnew,7.0.3
; #@! TF.FileFunction,Plated,1,2,PTH
FMAT,2
INCH
; #@! TA.AperFunction,Plated,PTH,ViaDrill
T1C0.0118
; #@! TA.AperFunction,Plated,PTH,ViaDrill
T2C0.0190
; #@! TA.AperFunction,Plated,PTH,ViaDrill
T3C0.0197
; #@! TA.AperFunction,Plated,PTH,ComponentDrill
T4C0.0394
; #@! TA.AperFunction,Plated,PTH,ComponentDrill
T5C0.0984
%
G90
G05
T1
X0.0504Y0.2298
X0.1686Y0.1829
X0.1853Y0.2439
X0.331Y0.1671
X0.4368Y0.2188
X0.4384Y0.1724
X0.4438Y0.2939
X0.4448Y0.1415
X0.5102Y0.1344
X0.5422Y0.3949
X0.5494Y0.2047
X0.5506Y0.2795
X0.9714Y0.3087
X1.0085Y0.2702
T2
X0.1596Y0.3505
X0.238Y0.1944
X0.5246Y0.2526
T3
X-0.0766Y0.2551
X0.1423Y0.14
X0.6601Y0.1074
T4
X-0.05Y0.5
X0.05Y0.6
X0.05Y0.5
X0.15Y0.6
X0.15Y0.5
X0.15Y0.0
X0.15Y-0.1
X0.25Y0.6
X0.25Y0.5
X0.25Y0.0
X0.25Y-0.1
X0.35Y0.6
X0.35Y0.5
X0.35Y0.0
X0.35Y-0.1
X0.45Y0.6
X0.45Y0.5
X0.45Y0.0
X0.45Y-0.1
X0.55Y0.6
X0.55Y0.5
X0.55Y0.0
X0.55Y-0.1
X0.65Y0.6
X0.65Y0.5
X0.65Y0.0
X0.65Y-0.1
X0.75Y0.6
X0.75Y0.5
X0.75Y0.0
X0.75Y-0.1
X0.85Y0.6
X0.85Y0.5
X0.85Y0.0
X0.85Y-0.1
X0.95Y0.6
X0.95Y0.5
X1.05Y0.5
T5
X0.0Y0.0
X1.0Y0.0
T0
M30
